<svg xmlns="http://www.w3.org/2000/svg" xmlns:xlink="http://www.w3.org/1999/xlink" width="500" zoomAndPan="magnify" viewBox="0 0 375 374.999991" height="500" preserveAspectRatio="xMidYMid meet" version="1.0"><defs><clipPath id="0d04734669"><path d="M 0 65.15625 L 375 65.15625 L 375 309.65625 L 0 309.65625 Z M 0 65.15625 " clip-rule="nonzero"/></clipPath></defs><g clip-path="url(#0d04734669)"><path fill="#181425" d="M 375 228.136719 L 375 268.867188 L 366.847656 268.867188 L 366.847656 285.15625 L 358.695312 285.15625 L 358.695312 293.304688 L 350.542969 293.304688 L 350.542969 301.449219 L 334.238281 301.449219 L 334.238281 309.59375 L 317.933594 309.59375 L 317.933594 301.449219 L 309.78125 301.449219 L 309.78125 293.304688 L 301.628906 293.304688 L 301.628906 285.15625 L 293.476562 285.15625 L 293.476562 268.867188 L 285.324219 268.867188 L 285.324219 252.574219 L 277.175781 252.574219 L 277.175781 236.28125 L 269.023438 236.28125 L 269.023438 228.136719 L 260.871094 228.136719 L 260.871094 236.28125 L 236.414062 236.28125 L 236.414062 228.136719 L 220.109375 228.136719 L 220.109375 219.988281 L 154.890625 219.988281 L 154.890625 228.136719 L 138.585938 228.136719 L 138.585938 236.28125 L 114.128906 236.28125 L 114.128906 228.136719 L 105.976562 228.136719 L 105.976562 236.28125 L 97.824219 236.28125 L 97.824219 252.574219 L 89.675781 252.574219 L 89.675781 268.867188 L 81.523438 268.867188 L 81.523438 285.15625 L 73.371094 285.15625 L 73.371094 293.304688 L 65.21875 293.304688 L 65.21875 301.449219 L 57.066406 301.449219 L 57.066406 309.59375 L 40.761719 309.59375 L 40.761719 301.449219 L 24.457031 301.449219 L 24.457031 293.304688 L 16.304688 293.304688 L 16.304688 285.15625 L 8.152344 285.15625 L 8.152344 268.867188 L 0 268.867188 L 0 228.136719 L 8.152344 228.136719 L 8.152344 179.261719 L 16.304688 179.261719 L 16.304688 154.824219 L 24.457031 154.824219 L 24.457031 122.238281 L 32.609375 122.238281 L 32.609375 105.945312 L 40.761719 105.945312 L 40.761719 97.800781 L 48.914062 97.800781 L 48.914062 89.65625 L 57.066406 89.65625 L 57.066406 73.363281 L 65.21875 73.363281 L 65.21875 65.21875 L 97.824219 65.21875 L 97.824219 73.363281 L 105.976562 73.363281 L 105.976562 89.65625 L 130.433594 89.65625 L 130.433594 97.800781 L 244.566406 97.800781 L 244.566406 89.65625 L 269.023438 89.65625 L 269.023438 73.363281 L 277.175781 73.363281 L 277.175781 65.21875 L 309.78125 65.21875 L 309.78125 73.363281 L 317.933594 73.363281 L 317.933594 89.65625 L 326.085938 89.65625 L 326.085938 97.800781 L 334.238281 97.800781 L 334.238281 105.945312 L 342.390625 105.945312 L 342.390625 122.238281 L 350.542969 122.238281 L 350.542969 154.824219 L 358.695312 154.824219 L 358.695312 179.261719 L 366.847656 179.261719 L 366.847656 228.136719 Z M 375 228.136719 " fill-opacity="1" fill-rule="nonzero"/><path fill="#181425" d="M 326.085938 89.65625 L 326.085938 97.800781 L 317.933594 97.800781 L 317.933594 89.65625 Z M 326.085938 97.800781 L 326.085938 105.945312 L 334.238281 105.945312 L 334.238281 97.800781 Z M 334.238281 105.945312 L 334.238281 122.238281 L 342.390625 122.238281 L 342.390625 105.945312 Z M 342.390625 122.238281 L 342.390625 154.824219 L 350.542969 154.824219 L 350.542969 122.238281 Z M 350.542969 154.824219 L 350.542969 179.261719 L 358.695312 179.261719 L 358.695312 154.824219 Z M 358.695312 179.261719 L 358.695312 228.136719 L 366.847656 228.136719 L 366.847656 179.261719 Z M 366.847656 228.136719 L 366.847656 268.867188 L 375 268.867188 L 375 228.136719 Z M 358.695312 285.15625 L 366.847656 285.15625 L 366.847656 268.867188 L 358.695312 268.867188 Z M 350.542969 293.304688 L 358.695312 293.304688 L 358.695312 285.15625 L 350.542969 285.15625 Z M 334.238281 301.449219 L 350.542969 301.449219 L 350.542969 293.304688 L 334.238281 293.304688 Z M 317.933594 309.59375 L 334.238281 309.59375 L 334.238281 301.449219 L 317.933594 301.449219 Z M 309.78125 293.304688 L 309.78125 301.449219 L 317.933594 301.449219 L 317.933594 293.304688 Z M 301.628906 285.15625 L 301.628906 293.304688 L 309.78125 293.304688 L 309.78125 285.15625 Z M 293.476562 268.867188 L 293.476562 285.15625 L 301.628906 285.15625 L 301.628906 268.867188 Z M 285.324219 252.574219 L 285.324219 268.867188 L 293.476562 268.867188 L 293.476562 252.574219 Z M 277.175781 236.28125 L 277.175781 252.574219 L 285.324219 252.574219 L 285.324219 236.28125 Z M 269.023438 219.988281 L 260.871094 219.988281 L 260.871094 228.136719 L 269.023438 228.136719 L 269.023438 236.28125 L 277.175781 236.28125 L 277.175781 219.988281 Z M 236.414062 236.28125 L 260.871094 236.28125 L 260.871094 228.136719 L 236.414062 228.136719 Z M 220.109375 219.988281 L 220.109375 228.136719 L 236.414062 228.136719 L 236.414062 219.988281 Z M 187.5 211.84375 L 154.890625 211.84375 L 154.890625 219.988281 L 220.109375 219.988281 L 220.109375 211.84375 Z M 236.414062 162.96875 L 236.414062 171.113281 L 252.71875 171.113281 L 252.71875 162.96875 Z M 260.871094 179.261719 L 260.871094 171.113281 L 252.71875 171.113281 L 252.71875 179.261719 Z M 269.023438 195.550781 L 269.023438 179.261719 L 260.871094 179.261719 L 260.871094 195.550781 Z M 252.71875 203.699219 L 260.871094 203.699219 L 260.871094 195.550781 L 252.71875 195.550781 Z M 236.414062 211.84375 L 252.71875 211.84375 L 252.71875 203.699219 L 236.414062 203.699219 Z M 228.261719 195.550781 L 228.261719 203.699219 L 236.414062 203.699219 L 236.414062 195.550781 Z M 220.109375 179.261719 L 220.109375 195.550781 L 228.261719 195.550781 L 228.261719 179.261719 Z M 236.414062 171.113281 L 228.261719 171.113281 L 228.261719 179.261719 L 236.414062 179.261719 Z M 244.566406 97.800781 L 269.023438 97.800781 L 269.023438 89.65625 L 244.566406 89.65625 Z M 309.78125 65.21875 L 277.175781 65.21875 L 277.175781 73.363281 L 309.78125 73.363281 Z M 317.933594 73.363281 L 309.78125 73.363281 L 309.78125 81.507812 L 277.175781 81.507812 L 277.175781 73.363281 L 269.023438 73.363281 L 269.023438 89.65625 L 317.933594 89.65625 Z M 252.71875 105.945312 L 252.71875 122.238281 L 260.871094 122.238281 L 260.871094 105.945312 Z M 40.761719 105.945312 L 32.609375 105.945312 L 32.609375 122.238281 L 40.761719 122.238281 Z M 32.609375 146.675781 L 24.457031 146.675781 L 24.457031 154.824219 L 32.609375 154.824219 Z M 16.304688 179.261719 L 8.152344 179.261719 L 8.152344 195.550781 L 16.304688 195.550781 Z M 8.152344 228.136719 L 0 228.136719 L 0 252.574219 L 8.152344 252.574219 Z M 8.152344 277.011719 L 8.152344 285.15625 L 16.304688 285.15625 L 16.304688 277.011719 Z M 16.304688 285.15625 L 16.304688 293.304688 L 24.457031 293.304688 L 24.457031 285.15625 Z M 24.457031 293.304688 L 24.457031 301.449219 L 40.761719 301.449219 L 40.761719 293.304688 Z M 40.761719 309.59375 L 57.066406 309.59375 L 57.066406 301.449219 L 40.761719 301.449219 Z M 57.066406 301.449219 L 65.21875 301.449219 L 65.21875 293.304688 L 57.066406 293.304688 Z M 65.21875 293.304688 L 73.371094 293.304688 L 73.371094 285.15625 L 65.21875 285.15625 Z M 73.371094 285.15625 L 81.523438 285.15625 L 81.523438 268.867188 L 73.371094 268.867188 Z M 81.523438 268.867188 L 89.675781 268.867188 L 89.675781 252.574219 L 81.523438 252.574219 Z M 89.675781 252.574219 L 97.824219 252.574219 L 97.824219 236.28125 L 89.675781 236.28125 Z M 105.976562 219.988281 L 97.824219 219.988281 L 97.824219 236.28125 L 105.976562 236.28125 L 105.976562 228.136719 L 114.128906 228.136719 L 114.128906 219.988281 Z M 114.128906 236.28125 L 138.585938 236.28125 L 138.585938 228.136719 L 114.128906 228.136719 Z M 138.585938 228.136719 L 154.890625 228.136719 L 154.890625 219.988281 L 138.585938 219.988281 Z M 122.28125 162.96875 L 122.28125 171.113281 L 138.585938 171.113281 L 138.585938 162.96875 Z M 122.28125 171.113281 L 114.128906 171.113281 L 114.128906 179.261719 L 122.28125 179.261719 Z M 105.976562 179.261719 L 105.976562 195.550781 L 114.128906 195.550781 L 114.128906 179.261719 Z M 114.128906 195.550781 L 114.128906 203.699219 L 122.28125 203.699219 L 122.28125 195.550781 Z M 122.28125 211.84375 L 138.585938 211.84375 L 138.585938 203.699219 L 122.28125 203.699219 Z M 138.585938 203.699219 L 146.738281 203.699219 L 146.738281 195.550781 L 138.585938 195.550781 Z M 154.890625 195.550781 L 154.890625 179.261719 L 146.738281 179.261719 L 146.738281 195.550781 Z M 146.738281 179.261719 L 146.738281 171.113281 L 138.585938 171.113281 L 138.585938 179.261719 Z M 105.976562 89.65625 L 105.976562 97.800781 L 130.433594 97.800781 L 130.433594 89.65625 Z M 105.976562 73.363281 L 97.824219 73.363281 L 97.824219 81.507812 L 65.21875 81.507812 L 65.21875 73.363281 L 57.066406 73.363281 L 57.066406 89.65625 L 105.976562 89.65625 Z M 97.824219 65.21875 L 65.21875 65.21875 L 65.21875 73.363281 L 97.824219 73.363281 Z M 130.433594 97.800781 L 130.433594 146.675781 L 138.585938 146.675781 L 138.585938 105.945312 L 236.414062 105.945312 L 236.414062 146.675781 L 244.566406 146.675781 L 244.566406 97.800781 Z M 122.28125 105.945312 L 114.128906 105.945312 L 114.128906 122.238281 L 122.28125 122.238281 Z M 138.585938 146.675781 L 138.585938 154.824219 L 236.414062 154.824219 L 236.414062 146.675781 Z M 301.628906 97.800781 L 285.324219 97.800781 L 285.324219 105.945312 L 301.628906 105.945312 Z M 309.78125 122.238281 L 309.78125 105.945312 L 301.628906 105.945312 L 301.628906 122.238281 Z M 301.628906 122.238281 L 285.324219 122.238281 L 285.324219 130.382812 L 301.628906 130.382812 Z M 285.324219 105.945312 L 277.175781 105.945312 L 277.175781 122.238281 L 285.324219 122.238281 Z M 326.085938 130.382812 L 326.085938 122.238281 L 309.78125 122.238281 L 309.78125 130.382812 Z M 334.238281 146.675781 L 334.238281 130.382812 L 326.085938 130.382812 L 326.085938 146.675781 Z M 309.78125 154.824219 L 326.085938 154.824219 L 326.085938 146.675781 L 309.78125 146.675781 Z M 309.78125 146.675781 L 309.78125 130.382812 L 301.628906 130.382812 L 301.628906 146.675781 Z M 277.175781 130.382812 L 277.175781 122.238281 L 260.871094 122.238281 L 260.871094 130.382812 Z M 285.324219 146.675781 L 285.324219 130.382812 L 277.175781 130.382812 L 277.175781 146.675781 Z M 260.871094 146.675781 L 260.871094 154.824219 L 277.175781 154.824219 L 277.175781 146.675781 Z M 252.71875 130.382812 L 252.71875 146.675781 L 260.871094 146.675781 L 260.871094 130.382812 Z M 285.324219 154.824219 L 301.628906 154.824219 L 301.628906 146.675781 L 285.324219 146.675781 Z M 301.628906 171.113281 L 309.78125 171.113281 L 309.78125 154.824219 L 301.628906 154.824219 Z M 285.324219 179.261719 L 301.628906 179.261719 L 301.628906 171.113281 L 285.324219 171.113281 Z M 277.175781 154.824219 L 277.175781 171.113281 L 285.324219 171.113281 L 285.324219 154.824219 Z M 89.675781 97.800781 L 73.371094 97.800781 L 73.371094 105.945312 L 89.675781 105.945312 Z M 97.824219 122.238281 L 97.824219 105.945312 L 89.675781 105.945312 L 89.675781 122.238281 Z M 89.675781 122.238281 L 73.371094 122.238281 L 73.371094 130.382812 L 89.675781 130.382812 Z M 73.371094 105.945312 L 65.21875 105.945312 L 65.21875 122.238281 L 73.371094 122.238281 Z M 114.128906 130.382812 L 114.128906 122.238281 L 97.824219 122.238281 L 97.824219 130.382812 Z M 122.28125 146.675781 L 122.28125 130.382812 L 114.128906 130.382812 L 114.128906 146.675781 Z M 97.824219 154.824219 L 114.128906 154.824219 L 114.128906 146.675781 L 97.824219 146.675781 Z M 97.824219 146.675781 L 97.824219 130.382812 L 89.675781 130.382812 L 89.675781 146.675781 Z M 65.21875 122.238281 L 48.914062 122.238281 L 48.914062 130.382812 L 65.21875 130.382812 Z M 73.371094 130.382812 L 65.21875 130.382812 L 65.21875 146.675781 L 73.371094 146.675781 Z M 48.914062 146.675781 L 48.914062 154.824219 L 65.21875 154.824219 L 65.21875 146.675781 Z M 40.761719 146.675781 L 48.914062 146.675781 L 48.914062 130.382812 L 40.761719 130.382812 Z M 73.371094 154.824219 L 89.675781 154.824219 L 89.675781 146.675781 L 73.371094 146.675781 Z M 89.675781 171.113281 L 97.824219 171.113281 L 97.824219 154.824219 L 89.675781 154.824219 Z M 73.371094 179.261719 L 89.675781 179.261719 L 89.675781 171.113281 L 73.371094 171.113281 Z M 65.21875 154.824219 L 65.21875 171.113281 L 73.371094 171.113281 L 73.371094 154.824219 Z M 16.304688 211.84375 L 8.152344 211.84375 L 8.152344 228.136719 L 16.304688 228.136719 Z M 16.304688 211.84375 " fill-opacity="1" fill-rule="nonzero"/></g><path fill="#feae34" d="M 358.695312 228.136719 L 358.695312 179.261719 L 350.542969 179.261719 L 350.542969 154.824219 L 342.390625 154.824219 L 342.390625 122.238281 L 334.238281 122.238281 L 334.238281 105.945312 L 326.085938 105.945312 L 326.085938 97.800781 L 317.933594 97.800781 L 317.933594 89.65625 L 269.023438 89.65625 L 269.023438 97.800781 L 244.566406 97.800781 L 244.566406 146.675781 L 236.414062 146.675781 L 236.414062 154.824219 L 138.585938 154.824219 L 138.585938 146.675781 L 130.433594 146.675781 L 130.433594 97.800781 L 105.976562 97.800781 L 105.976562 89.65625 L 57.066406 89.65625 L 57.066406 97.800781 L 48.914062 97.800781 L 48.914062 105.945312 L 40.761719 105.945312 L 40.761719 122.238281 L 32.609375 122.238281 L 32.609375 154.824219 L 24.457031 154.824219 L 24.457031 179.261719 L 16.304688 179.261719 L 16.304688 228.136719 L 8.152344 228.136719 L 8.152344 268.867188 L 16.304688 268.867188 L 16.304688 285.15625 L 24.457031 285.15625 L 24.457031 293.304688 L 40.761719 293.304688 L 40.761719 301.449219 L 57.066406 301.449219 L 57.066406 293.304688 L 65.21875 293.304688 L 65.21875 285.15625 L 73.371094 285.15625 L 73.371094 268.867188 L 81.523438 268.867188 L 81.523438 252.574219 L 89.675781 252.574219 L 89.675781 236.28125 L 97.824219 236.28125 L 97.824219 219.988281 L 114.128906 219.988281 L 114.128906 228.136719 L 138.585938 228.136719 L 138.585938 219.988281 L 154.890625 219.988281 L 154.890625 211.84375 L 220.109375 211.84375 L 220.109375 219.988281 L 236.414062 219.988281 L 236.414062 228.136719 L 260.871094 228.136719 L 260.871094 219.988281 L 277.175781 219.988281 L 277.175781 236.28125 L 285.324219 236.28125 L 285.324219 252.574219 L 293.476562 252.574219 L 293.476562 268.867188 L 301.628906 268.867188 L 301.628906 285.15625 L 309.78125 285.15625 L 309.78125 293.304688 L 317.933594 293.304688 L 317.933594 301.449219 L 334.238281 301.449219 L 334.238281 293.304688 L 350.542969 293.304688 L 350.542969 285.15625 L 358.695312 285.15625 L 358.695312 268.867188 L 366.847656 268.867188 L 366.847656 228.136719 Z M 97.824219 154.824219 L 97.824219 171.113281 L 89.675781 171.113281 L 89.675781 179.261719 L 73.371094 179.261719 L 73.371094 171.113281 L 65.21875 171.113281 L 65.21875 154.824219 L 48.914062 154.824219 L 48.914062 146.675781 L 40.761719 146.675781 L 40.761719 130.382812 L 48.914062 130.382812 L 48.914062 122.238281 L 65.21875 122.238281 L 65.21875 105.945312 L 73.371094 105.945312 L 73.371094 97.800781 L 89.675781 97.800781 L 89.675781 105.945312 L 97.824219 105.945312 L 97.824219 122.238281 L 114.128906 122.238281 L 114.128906 105.945312 L 122.28125 105.945312 L 122.28125 122.238281 L 114.128906 122.238281 L 114.128906 130.382812 L 122.28125 130.382812 L 122.28125 146.675781 L 114.128906 146.675781 L 114.128906 154.824219 Z M 154.890625 195.550781 L 146.738281 195.550781 L 146.738281 203.699219 L 138.585938 203.699219 L 138.585938 211.84375 L 122.28125 211.84375 L 122.28125 203.699219 L 114.128906 203.699219 L 114.128906 195.550781 L 105.976562 195.550781 L 105.976562 179.261719 L 114.128906 179.261719 L 114.128906 171.113281 L 122.28125 171.113281 L 122.28125 162.96875 L 138.585938 162.96875 L 138.585938 171.113281 L 146.738281 171.113281 L 146.738281 179.261719 L 154.890625 179.261719 Z M 203.804688 179.261719 L 195.652344 179.261719 L 195.652344 171.113281 L 179.347656 171.113281 L 179.347656 179.261719 L 171.195312 179.261719 L 171.195312 171.113281 L 154.890625 171.113281 L 154.890625 162.96875 L 171.195312 162.96875 L 171.195312 171.113281 L 179.347656 171.113281 L 179.347656 162.96875 L 203.804688 162.96875 Z M 211.957031 171.113281 L 211.957031 162.96875 L 220.109375 162.96875 L 220.109375 171.113281 Z M 269.023438 195.550781 L 260.871094 195.550781 L 260.871094 203.699219 L 252.71875 203.699219 L 252.71875 211.84375 L 236.414062 211.84375 L 236.414062 203.699219 L 228.261719 203.699219 L 228.261719 195.550781 L 220.109375 195.550781 L 220.109375 179.261719 L 228.261719 179.261719 L 228.261719 171.113281 L 236.414062 171.113281 L 236.414062 162.96875 L 252.71875 162.96875 L 252.71875 171.113281 L 260.871094 171.113281 L 260.871094 179.261719 L 269.023438 179.261719 Z M 334.238281 146.675781 L 326.085938 146.675781 L 326.085938 154.824219 L 309.78125 154.824219 L 309.78125 171.113281 L 301.628906 171.113281 L 301.628906 179.261719 L 285.324219 179.261719 L 285.324219 171.113281 L 277.175781 171.113281 L 277.175781 154.824219 L 260.871094 154.824219 L 260.871094 146.675781 L 252.71875 146.675781 L 252.71875 130.382812 L 260.871094 130.382812 L 260.871094 122.238281 L 252.71875 122.238281 L 252.71875 105.945312 L 260.871094 105.945312 L 260.871094 122.238281 L 277.175781 122.238281 L 277.175781 105.945312 L 285.324219 105.945312 L 285.324219 97.800781 L 301.628906 97.800781 L 301.628906 105.945312 L 309.78125 105.945312 L 309.78125 122.238281 L 326.085938 122.238281 L 326.085938 130.382812 L 334.238281 130.382812 Z M 309.78125 122.238281 L 309.78125 130.382812 L 301.628906 130.382812 L 301.628906 122.238281 Z M 285.324219 122.238281 L 285.324219 130.382812 L 277.175781 130.382812 L 277.175781 122.238281 Z M 309.78125 146.675781 L 309.78125 154.824219 L 301.628906 154.824219 L 301.628906 146.675781 Z M 285.324219 146.675781 L 285.324219 154.824219 L 277.175781 154.824219 L 277.175781 146.675781 Z M 97.824219 122.238281 L 97.824219 130.382812 L 89.675781 130.382812 L 89.675781 122.238281 Z M 73.371094 122.238281 L 73.371094 130.382812 L 65.21875 130.382812 L 65.21875 122.238281 Z M 97.824219 146.675781 L 97.824219 154.824219 L 89.675781 154.824219 L 89.675781 146.675781 Z M 73.371094 146.675781 L 73.371094 154.824219 L 65.21875 154.824219 L 65.21875 146.675781 Z M 301.628906 130.382812 L 301.628906 146.675781 L 285.324219 146.675781 L 285.324219 130.382812 Z M 89.675781 130.382812 L 89.675781 146.675781 L 73.371094 146.675781 L 73.371094 130.382812 Z M 16.304688 179.261719 L 24.457031 179.261719 L 24.457031 154.824219 L 16.304688 154.824219 Z M 24.457031 146.675781 L 32.609375 146.675781 L 32.609375 122.238281 L 24.457031 122.238281 Z M 40.761719 105.945312 L 48.914062 105.945312 L 48.914062 97.800781 L 40.761719 97.800781 Z M 48.914062 97.800781 L 57.066406 97.800781 L 57.066406 89.65625 L 48.914062 89.65625 Z M 16.304688 211.84375 L 8.152344 211.84375 L 8.152344 195.550781 L 16.304688 195.550781 Z M 8.152344 268.867188 L 0 268.867188 L 0 252.574219 L 8.152344 252.574219 Z M 8.152344 268.867188 L 16.304688 268.867188 L 16.304688 277.011719 L 8.152344 277.011719 Z M 8.152344 268.867188 " fill-opacity="1" fill-rule="nonzero"/><path fill="#5a6988" d="M 309.78125 73.363281 L 309.78125 81.507812 L 277.175781 81.507812 L 277.175781 73.363281 Z M 65.21875 73.363281 L 65.21875 81.507812 L 97.824219 81.507812 L 97.824219 73.363281 Z M 252.71875 179.261719 L 252.71875 171.113281 L 236.414062 171.113281 L 236.414062 179.261719 L 228.261719 179.261719 L 228.261719 195.550781 L 236.414062 195.550781 L 236.414062 203.699219 L 252.71875 203.699219 L 252.71875 195.550781 L 260.871094 195.550781 L 260.871094 179.261719 Z M 138.585938 179.261719 L 138.585938 171.113281 L 122.28125 171.113281 L 122.28125 179.261719 L 114.128906 179.261719 L 114.128906 195.550781 L 122.28125 195.550781 L 122.28125 203.699219 L 138.585938 203.699219 L 138.585938 195.550781 L 146.738281 195.550781 L 146.738281 179.261719 Z M 285.324219 105.945312 L 285.324219 122.238281 L 301.628906 122.238281 L 301.628906 105.945312 Z M 309.78125 130.382812 L 309.78125 146.675781 L 326.085938 146.675781 L 326.085938 130.382812 Z M 260.871094 130.382812 L 260.871094 146.675781 L 277.175781 146.675781 L 277.175781 130.382812 Z M 285.324219 154.824219 L 285.324219 171.113281 L 301.628906 171.113281 L 301.628906 154.824219 Z M 73.371094 105.945312 L 73.371094 122.238281 L 89.675781 122.238281 L 89.675781 105.945312 Z M 97.824219 130.382812 L 97.824219 146.675781 L 114.128906 146.675781 L 114.128906 130.382812 Z M 48.914062 130.382812 L 48.914062 146.675781 L 65.21875 146.675781 L 65.21875 130.382812 Z M 73.371094 154.824219 L 73.371094 171.113281 L 89.675781 171.113281 L 89.675781 154.824219 Z M 73.371094 154.824219 " fill-opacity="1" fill-rule="nonzero"/><path fill="#262b44" d="M 138.585938 105.945312 L 236.414062 105.945312 L 236.414062 146.675781 L 138.585938 146.675781 Z M 138.585938 105.945312 " fill-opacity="1" fill-rule="nonzero"/><path fill="#f77622" d="M 48.914062 154.824219 L 40.761719 154.824219 L 40.761719 146.675781 L 48.914062 146.675781 Z M 65.21875 162.96875 L 65.21875 154.824219 L 48.914062 154.824219 L 48.914062 162.96875 Z M 73.371094 146.675781 L 65.21875 146.675781 L 65.21875 154.824219 L 73.371094 154.824219 Z M 89.675781 138.53125 L 89.675781 130.382812 L 73.371094 130.382812 L 73.371094 138.53125 Z M 97.824219 122.238281 L 89.675781 122.238281 L 89.675781 130.382812 L 97.824219 130.382812 Z M 73.371094 122.238281 L 65.21875 122.238281 L 65.21875 130.382812 L 73.371094 130.382812 Z M 105.976562 105.945312 L 97.824219 105.945312 L 97.824219 122.238281 L 105.976562 122.238281 Z M 89.675781 97.800781 L 89.675781 105.945312 L 97.824219 105.945312 L 97.824219 97.800781 Z M 114.128906 122.238281 L 114.128906 130.382812 L 122.28125 130.382812 L 122.28125 122.238281 Z M 130.433594 130.382812 L 122.28125 130.382812 L 122.28125 146.675781 L 130.433594 146.675781 Z M 122.28125 146.675781 L 114.128906 146.675781 L 114.128906 154.824219 L 122.28125 154.824219 Z M 97.824219 162.96875 L 97.824219 171.113281 L 105.976562 171.113281 L 105.976562 162.96875 L 114.128906 162.96875 L 114.128906 154.824219 L 97.824219 154.824219 Z M 89.675781 179.261719 L 97.824219 179.261719 L 97.824219 171.113281 L 89.675781 171.113281 Z M 73.371094 187.40625 L 89.675781 187.40625 L 89.675781 179.261719 L 73.371094 179.261719 Z M 65.21875 171.113281 L 65.21875 179.261719 L 73.371094 179.261719 L 73.371094 171.113281 Z M 252.71875 146.675781 L 252.71875 154.824219 L 260.871094 154.824219 L 260.871094 146.675781 Z M 277.175781 154.824219 L 260.871094 154.824219 L 260.871094 162.96875 L 277.175781 162.96875 Z M 285.324219 146.675781 L 277.175781 146.675781 L 277.175781 154.824219 L 285.324219 154.824219 Z M 301.628906 138.53125 L 301.628906 130.382812 L 285.324219 130.382812 L 285.324219 138.53125 Z M 309.78125 122.238281 L 301.628906 122.238281 L 301.628906 130.382812 L 309.78125 130.382812 Z M 285.324219 122.238281 L 277.175781 122.238281 L 277.175781 130.382812 L 285.324219 130.382812 Z M 317.933594 105.945312 L 309.78125 105.945312 L 309.78125 122.238281 L 317.933594 122.238281 Z M 301.628906 97.800781 L 301.628906 105.945312 L 309.78125 105.945312 L 309.78125 97.800781 Z M 326.085938 122.238281 L 326.085938 130.382812 L 334.238281 130.382812 L 334.238281 122.238281 Z M 342.390625 130.382812 L 334.238281 130.382812 L 334.238281 146.675781 L 342.390625 146.675781 Z M 334.238281 146.675781 L 326.085938 146.675781 L 326.085938 154.824219 L 334.238281 154.824219 Z M 317.933594 162.96875 L 326.085938 162.96875 L 326.085938 154.824219 L 309.78125 154.824219 L 309.78125 171.113281 L 317.933594 171.113281 Z M 309.78125 171.113281 L 301.628906 171.113281 L 301.628906 179.261719 L 309.78125 179.261719 Z M 301.628906 187.40625 L 301.628906 179.261719 L 285.324219 179.261719 L 285.324219 187.40625 Z M 285.324219 171.113281 L 277.175781 171.113281 L 277.175781 179.261719 L 285.324219 179.261719 Z M 81.523438 203.699219 L 65.21875 203.699219 L 65.21875 211.84375 L 73.371094 211.84375 L 73.371094 219.988281 L 65.21875 219.988281 L 65.21875 228.136719 L 73.371094 228.136719 L 73.371094 236.28125 L 65.21875 236.28125 L 65.21875 244.425781 L 73.371094 244.425781 L 73.371094 252.574219 L 65.21875 252.574219 L 65.21875 260.71875 L 73.371094 260.71875 L 73.371094 268.867188 L 81.523438 268.867188 L 81.523438 252.574219 L 89.675781 252.574219 L 89.675781 236.28125 L 97.824219 236.28125 L 97.824219 219.988281 L 105.976562 219.988281 L 105.976562 211.84375 L 81.523438 211.84375 Z M 48.914062 195.550781 L 48.914062 203.699219 L 65.21875 203.699219 L 65.21875 195.550781 Z M 40.761719 187.40625 L 40.761719 195.550781 L 48.914062 195.550781 L 48.914062 187.40625 Z M 32.609375 179.261719 L 32.609375 187.40625 L 40.761719 187.40625 L 40.761719 179.261719 Z M 24.457031 171.113281 L 24.457031 179.261719 L 32.609375 179.261719 L 32.609375 171.113281 Z M 65.21875 277.011719 L 57.066406 277.011719 L 57.066406 285.15625 L 48.914062 285.15625 L 48.914062 293.304688 L 40.761719 293.304688 L 40.761719 301.449219 L 57.066406 301.449219 L 57.066406 293.304688 L 65.21875 293.304688 L 65.21875 285.15625 L 73.371094 285.15625 L 73.371094 268.867188 L 65.21875 268.867188 Z M 57.066406 211.84375 L 57.066406 219.988281 L 65.21875 219.988281 L 65.21875 211.84375 Z M 57.066406 228.136719 L 57.066406 236.28125 L 65.21875 236.28125 L 65.21875 228.136719 Z M 57.066406 244.425781 L 57.066406 252.574219 L 65.21875 252.574219 L 65.21875 244.425781 Z M 57.066406 260.71875 L 57.066406 268.867188 L 65.21875 268.867188 L 65.21875 260.71875 Z M 260.871094 219.988281 L 293.476562 219.988281 L 293.476562 211.84375 L 260.871094 211.84375 Z M 293.476562 211.84375 L 309.78125 211.84375 L 309.78125 203.699219 L 293.476562 203.699219 Z M 309.78125 203.699219 L 326.085938 203.699219 L 326.085938 195.550781 L 309.78125 195.550781 Z M 326.085938 187.40625 L 326.085938 195.550781 L 334.238281 195.550781 L 334.238281 187.40625 Z M 358.695312 228.136719 L 358.695312 179.261719 L 350.542969 179.261719 L 350.542969 171.113281 L 342.390625 171.113281 L 342.390625 179.261719 L 334.238281 179.261719 L 334.238281 187.40625 L 342.390625 187.40625 L 342.390625 195.550781 L 350.542969 195.550781 L 350.542969 203.699219 L 342.390625 203.699219 L 342.390625 211.84375 L 350.542969 211.84375 L 350.542969 219.988281 L 342.390625 219.988281 L 342.390625 228.136719 L 350.542969 228.136719 L 350.542969 236.28125 L 342.390625 236.28125 L 342.390625 244.425781 L 350.542969 244.425781 L 350.542969 252.574219 L 342.390625 252.574219 L 342.390625 260.71875 L 350.542969 260.71875 L 350.542969 268.867188 L 342.390625 268.867188 L 342.390625 277.011719 L 350.542969 277.011719 L 350.542969 285.15625 L 358.695312 285.15625 L 358.695312 268.867188 L 366.847656 268.867188 L 366.847656 228.136719 Z M 334.238281 195.550781 L 334.238281 203.699219 L 342.390625 203.699219 L 342.390625 195.550781 Z M 334.238281 211.84375 L 334.238281 219.988281 L 342.390625 219.988281 L 342.390625 211.84375 Z M 334.238281 228.136719 L 334.238281 236.28125 L 342.390625 236.28125 L 342.390625 228.136719 Z M 334.238281 244.425781 L 334.238281 252.574219 L 342.390625 252.574219 L 342.390625 244.425781 Z M 334.238281 260.71875 L 334.238281 268.867188 L 342.390625 268.867188 L 342.390625 260.71875 Z M 342.390625 277.011719 L 334.238281 277.011719 L 334.238281 285.15625 L 326.085938 285.15625 L 326.085938 293.304688 L 317.933594 293.304688 L 317.933594 301.449219 L 334.238281 301.449219 L 334.238281 293.304688 L 350.542969 293.304688 L 350.542969 285.15625 L 342.390625 285.15625 Z M 187.5 203.699219 L 187.5 211.84375 L 220.109375 211.84375 L 220.109375 203.699219 Z M 114.128906 203.699219 L 114.128906 211.84375 L 122.28125 211.84375 L 122.28125 203.699219 Z M 105.976562 195.550781 L 105.976562 203.699219 L 114.128906 203.699219 L 114.128906 195.550781 Z M 138.585938 211.84375 L 122.28125 211.84375 L 122.28125 219.988281 L 114.128906 219.988281 L 114.128906 228.136719 L 138.585938 228.136719 L 138.585938 219.988281 L 154.890625 219.988281 L 154.890625 211.84375 L 146.738281 211.84375 L 146.738281 203.699219 L 138.585938 203.699219 Z M 146.738281 203.699219 L 154.890625 203.699219 L 154.890625 195.550781 L 146.738281 195.550781 Z M 154.890625 195.550781 L 163.042969 195.550781 L 163.042969 179.261719 L 154.890625 179.261719 Z M 146.738281 171.113281 L 146.738281 179.261719 L 154.890625 179.261719 L 154.890625 171.113281 Z M 138.585938 162.96875 L 138.585938 171.113281 L 146.738281 171.113281 L 146.738281 162.96875 Z M 228.261719 195.550781 L 220.109375 195.550781 L 220.109375 203.699219 L 228.261719 203.699219 Z M 252.71875 211.84375 L 236.414062 211.84375 L 236.414062 203.699219 L 228.261719 203.699219 L 228.261719 211.84375 L 220.109375 211.84375 L 220.109375 219.988281 L 236.414062 219.988281 L 236.414062 228.136719 L 260.871094 228.136719 L 260.871094 219.988281 L 252.71875 219.988281 Z M 260.871094 203.699219 L 252.71875 203.699219 L 252.71875 211.84375 L 260.871094 211.84375 Z M 269.023438 195.550781 L 260.871094 195.550781 L 260.871094 203.699219 L 269.023438 203.699219 Z M 277.175781 179.261719 L 269.023438 179.261719 L 269.023438 195.550781 L 277.175781 195.550781 Z M 260.871094 171.113281 L 260.871094 179.261719 L 269.023438 179.261719 L 269.023438 171.113281 Z M 252.71875 162.96875 L 252.71875 171.113281 L 260.871094 171.113281 L 260.871094 162.96875 Z M 252.71875 162.96875 " fill-opacity="1" fill-rule="nonzero"/><path fill="#262b44" d="M 293.476562 73.363281 L 309.78125 73.363281 L 309.78125 81.507812 L 293.476562 81.507812 Z M 81.523438 81.507812 L 97.824219 81.507812 L 97.824219 73.363281 L 81.523438 73.363281 Z M 252.71875 195.550781 L 260.871094 195.550781 L 260.871094 179.261719 L 252.71875 179.261719 Z M 236.414062 203.699219 L 252.71875 203.699219 L 252.71875 195.550781 L 236.414062 195.550781 Z M 138.585938 195.550781 L 146.738281 195.550781 L 146.738281 179.261719 L 138.585938 179.261719 Z M 122.28125 203.699219 L 138.585938 203.699219 L 138.585938 195.550781 L 122.28125 195.550781 Z M 285.324219 171.113281 L 301.628906 171.113281 L 301.628906 162.96875 L 285.324219 162.96875 Z M 309.78125 146.675781 L 326.085938 146.675781 L 326.085938 138.53125 L 309.78125 138.53125 Z M 260.871094 146.675781 L 277.175781 146.675781 L 277.175781 138.53125 L 260.871094 138.53125 Z M 285.324219 122.238281 L 301.628906 122.238281 L 301.628906 114.09375 L 285.324219 114.09375 Z M 97.824219 146.675781 L 114.128906 146.675781 L 114.128906 138.53125 L 97.824219 138.53125 Z M 73.371094 171.113281 L 89.675781 171.113281 L 89.675781 162.96875 L 73.371094 162.96875 Z M 73.371094 122.238281 L 89.675781 122.238281 L 89.675781 114.09375 L 73.371094 114.09375 Z M 48.914062 146.675781 L 65.21875 146.675781 L 65.21875 138.53125 L 48.914062 138.53125 Z M 48.914062 146.675781 " fill-opacity="1" fill-rule="nonzero"/><path fill="#c0cbdc" d="M 73.371094 81.507812 L 65.21875 81.507812 L 65.21875 73.363281 L 73.371094 73.363281 Z M 285.324219 73.363281 L 277.175781 73.363281 L 277.175781 81.507812 L 285.324219 81.507812 Z M 81.523438 105.945312 L 73.371094 105.945312 L 73.371094 114.09375 L 81.523438 114.09375 Z M 57.066406 130.382812 L 48.914062 130.382812 L 48.914062 138.53125 L 57.066406 138.53125 Z M 105.976562 130.382812 L 97.824219 130.382812 L 97.824219 138.53125 L 105.976562 138.53125 Z M 81.523438 154.824219 L 73.371094 154.824219 L 73.371094 162.96875 L 81.523438 162.96875 Z M 122.28125 179.261719 L 138.585938 179.261719 L 138.585938 171.113281 L 122.28125 171.113281 Z M 122.28125 179.261719 L 114.128906 179.261719 L 114.128906 195.550781 L 122.28125 195.550781 Z M 236.414062 179.261719 L 252.71875 179.261719 L 252.71875 171.113281 L 236.414062 171.113281 Z M 236.414062 179.261719 L 228.261719 179.261719 L 228.261719 195.550781 L 236.414062 195.550781 Z M 260.871094 138.53125 L 269.023438 138.53125 L 269.023438 130.382812 L 260.871094 130.382812 Z M 285.324219 114.09375 L 293.476562 114.09375 L 293.476562 105.945312 L 285.324219 105.945312 Z M 309.78125 138.53125 L 317.933594 138.53125 L 317.933594 130.382812 L 309.78125 130.382812 Z M 285.324219 162.96875 L 293.476562 162.96875 L 293.476562 154.824219 L 285.324219 154.824219 Z M 285.324219 162.96875 " fill-opacity="1" fill-rule="nonzero"/><path fill="#181425" d="M 220.109375 105.945312 L 228.261719 105.945312 L 228.261719 114.09375 L 220.109375 114.09375 Z M 203.804688 114.09375 L 211.957031 114.09375 L 211.957031 105.945312 L 203.804688 105.945312 Z M 187.5 114.09375 L 195.652344 114.09375 L 195.652344 105.945312 L 187.5 105.945312 Z M 171.195312 114.09375 L 179.347656 114.09375 L 179.347656 105.945312 L 171.195312 105.945312 Z M 154.890625 114.09375 L 163.042969 114.09375 L 163.042969 105.945312 L 154.890625 105.945312 Z M 138.585938 114.09375 L 146.738281 114.09375 L 146.738281 105.945312 L 138.585938 105.945312 Z M 228.261719 122.238281 L 236.414062 122.238281 L 236.414062 114.09375 L 228.261719 114.09375 Z M 211.957031 122.238281 L 220.109375 122.238281 L 220.109375 114.09375 L 211.957031 114.09375 Z M 195.652344 122.238281 L 203.804688 122.238281 L 203.804688 114.09375 L 195.652344 114.09375 Z M 179.347656 122.238281 L 187.5 122.238281 L 187.5 114.09375 L 179.347656 114.09375 Z M 163.042969 122.238281 L 171.195312 122.238281 L 171.195312 114.09375 L 163.042969 114.09375 Z M 146.738281 122.238281 L 154.890625 122.238281 L 154.890625 114.09375 L 146.738281 114.09375 Z M 220.109375 130.382812 L 228.261719 130.382812 L 228.261719 122.238281 L 220.109375 122.238281 Z M 203.804688 130.382812 L 211.957031 130.382812 L 211.957031 122.238281 L 203.804688 122.238281 Z M 187.5 130.382812 L 195.652344 130.382812 L 195.652344 122.238281 L 187.5 122.238281 Z M 171.195312 130.382812 L 179.347656 130.382812 L 179.347656 122.238281 L 171.195312 122.238281 Z M 154.890625 130.382812 L 163.042969 130.382812 L 163.042969 122.238281 L 154.890625 122.238281 Z M 138.585938 130.382812 L 146.738281 130.382812 L 146.738281 122.238281 L 138.585938 122.238281 Z M 228.261719 138.53125 L 236.414062 138.53125 L 236.414062 130.382812 L 228.261719 130.382812 Z M 211.957031 138.53125 L 220.109375 138.53125 L 220.109375 130.382812 L 211.957031 130.382812 Z M 195.652344 138.53125 L 203.804688 138.53125 L 203.804688 130.382812 L 195.652344 130.382812 Z M 179.347656 138.53125 L 187.5 138.53125 L 187.5 130.382812 L 179.347656 130.382812 Z M 163.042969 138.53125 L 171.195312 138.53125 L 171.195312 130.382812 L 163.042969 130.382812 Z M 146.738281 138.53125 L 154.890625 138.53125 L 154.890625 130.382812 L 146.738281 130.382812 Z M 220.109375 146.675781 L 228.261719 146.675781 L 228.261719 138.53125 L 220.109375 138.53125 Z M 203.804688 146.675781 L 211.957031 146.675781 L 211.957031 138.53125 L 203.804688 138.53125 Z M 187.5 146.675781 L 195.652344 146.675781 L 195.652344 138.53125 L 187.5 138.53125 Z M 171.195312 146.675781 L 179.347656 146.675781 L 179.347656 138.53125 L 171.195312 138.53125 Z M 154.890625 146.675781 L 163.042969 146.675781 L 163.042969 138.53125 L 154.890625 138.53125 Z M 138.585938 146.675781 L 146.738281 146.675781 L 146.738281 138.53125 L 138.585938 138.53125 Z M 138.585938 146.675781 " fill-opacity="1" fill-rule="nonzero"/><path fill="#fee761" d="M 57.066406 89.65625 L 105.976562 89.65625 L 105.976562 97.800781 L 57.066406 97.800781 Z M 48.914062 105.945312 L 57.066406 105.945312 L 57.066406 97.800781 L 48.914062 97.800781 Z M 40.761719 122.238281 L 48.914062 122.238281 L 48.914062 105.945312 L 40.761719 105.945312 Z M 32.609375 154.824219 L 40.761719 154.824219 L 40.761719 122.238281 L 32.609375 122.238281 Z M 24.457031 179.261719 L 32.609375 179.261719 L 32.609375 154.824219 L 24.457031 154.824219 Z M 16.304688 228.136719 L 24.457031 228.136719 L 24.457031 179.261719 L 16.304688 179.261719 Z M 8.152344 268.867188 L 16.304688 268.867188 L 16.304688 228.136719 L 8.152344 228.136719 Z M 24.457031 285.15625 L 24.457031 268.867188 L 16.304688 268.867188 L 16.304688 285.15625 Z M 40.761719 293.304688 L 40.761719 285.15625 L 24.457031 285.15625 L 24.457031 293.304688 Z M 269.023438 89.65625 L 269.023438 97.800781 L 317.933594 97.800781 L 317.933594 89.65625 Z M 244.566406 105.945312 L 244.566406 146.675781 L 252.71875 146.675781 L 252.71875 105.945312 L 269.023438 105.945312 L 269.023438 97.800781 L 244.566406 97.800781 Z M 236.414062 154.824219 L 244.566406 154.824219 L 244.566406 146.675781 L 236.414062 146.675781 Z M 130.433594 146.675781 L 130.433594 154.824219 L 138.585938 154.824219 L 138.585938 146.675781 Z M 277.175781 219.988281 L 277.175781 236.28125 L 285.324219 236.28125 L 285.324219 219.988281 Z M 285.324219 236.28125 L 285.324219 252.574219 L 293.476562 252.574219 L 293.476562 236.28125 Z M 293.476562 252.574219 L 293.476562 268.867188 L 301.628906 268.867188 L 301.628906 252.574219 Z M 301.628906 268.867188 L 301.628906 285.15625 L 309.78125 285.15625 L 309.78125 268.867188 Z M 309.78125 293.304688 L 317.933594 293.304688 L 317.933594 285.15625 L 309.78125 285.15625 Z M 138.585938 162.96875 L 236.414062 162.96875 L 236.414062 154.824219 L 138.585938 154.824219 Z M 138.585938 162.96875 " fill-opacity="1" fill-rule="nonzero"/><path fill="#e43b44" d="M 171.195312 162.96875 L 171.195312 171.113281 L 154.890625 171.113281 L 154.890625 162.96875 Z M 171.195312 179.261719 L 179.347656 179.261719 L 179.347656 171.113281 L 171.195312 171.113281 Z M 179.347656 162.96875 L 179.347656 171.113281 L 195.652344 171.113281 L 195.652344 179.261719 L 203.804688 179.261719 L 203.804688 162.96875 Z M 211.957031 162.96875 L 211.957031 171.113281 L 220.109375 171.113281 L 220.109375 162.96875 Z M 211.957031 162.96875 " fill-opacity="1" fill-rule="nonzero"/></svg>