<svg xmlns="http://www.w3.org/2000/svg" xmlns:xlink="http://www.w3.org/1999/xlink" width="500" zoomAndPan="magnify" viewBox="0 0 375 374.999991" height="500" preserveAspectRatio="xMidYMid meet" version="1.0"><defs><clipPath id="e39098978a"><path d="M 91.363281 0 L 283.363281 0 L 283.363281 375 L 91.363281 375 Z M 91.363281 0 " clip-rule="nonzero"/></clipPath><clipPath id="8cf67c4d95"><path d="M 91.363281 153 L 178 153 L 178 337 L 91.363281 337 Z M 91.363281 153 " clip-rule="nonzero"/></clipPath><clipPath id="2f710dc3a6"><path d="M 196 153 L 283.363281 153 L 283.363281 337 L 196 337 Z M 196 153 " clip-rule="nonzero"/></clipPath><clipPath id="a9bda357fd"><path d="M 273 76 L 283.363281 76 L 283.363281 87 L 273 87 Z M 273 76 " clip-rule="nonzero"/></clipPath><clipPath id="6beece45fc"><path d="M 91.363281 76 L 101 76 L 101 87 L 91.363281 87 Z M 91.363281 76 " clip-rule="nonzero"/></clipPath><clipPath id="b1a3cf212c"><path d="M 91.363281 192 L 101 192 L 101 289 L 91.363281 289 Z M 91.363281 192 " clip-rule="nonzero"/></clipPath><clipPath id="9d9d0e2a54"><path d="M 273 192 L 283.363281 192 L 283.363281 289 L 273 289 Z M 273 192 " clip-rule="nonzero"/></clipPath><clipPath id="32cf61509d"><path d="M 91.363281 240 L 111 240 L 111 250 L 91.363281 250 Z M 91.363281 240 " clip-rule="nonzero"/></clipPath><clipPath id="93ff38f663"><path d="M 264 240 L 283.363281 240 L 283.363281 250 L 264 250 Z M 264 240 " clip-rule="nonzero"/></clipPath></defs><g clip-path="url(#e39098978a)"><path fill="#160059" d="M 264.164062 134.625 L 264.164062 96.171875 L 273.761719 96.171875 L 273.761719 86.558594 L 283.363281 86.558594 L 283.363281 76.945312 L 273.761719 76.945312 L 273.761719 67.332031 L 244.964844 67.332031 L 244.964844 57.71875 L 225.761719 57.71875 L 225.761719 38.492188 L 216.164062 38.492188 L 216.164062 28.878906 L 206.5625 28.878906 L 206.5625 19.265625 L 196.964844 19.265625 L 196.964844 9.652344 L 187.363281 9.652344 L 187.363281 0.0390625 L 129.761719 0.0390625 L 129.761719 19.265625 L 139.363281 19.265625 L 139.363281 28.878906 L 148.964844 28.878906 L 148.964844 57.71875 L 129.761719 57.71875 L 129.761719 67.332031 L 100.964844 67.332031 L 100.964844 76.945312 L 91.363281 76.945312 L 91.363281 86.558594 L 100.964844 86.558594 L 100.964844 96.171875 L 110.5625 96.171875 L 110.5625 134.625 L 120.164062 134.625 L 120.164062 153.851562 L 110.5625 153.851562 L 110.5625 163.464844 L 100.964844 163.464844 L 100.964844 192.308594 L 91.363281 192.308594 L 91.363281 288.441406 L 100.964844 288.441406 L 100.964844 317.28125 L 110.5625 317.28125 L 110.5625 336.507812 L 120.164062 336.507812 L 120.164062 346.121094 L 129.761719 346.121094 L 129.761719 355.734375 L 139.363281 355.734375 L 139.363281 374.960938 L 235.363281 374.960938 L 235.363281 355.734375 L 244.964844 355.734375 L 244.964844 346.121094 L 254.5625 346.121094 L 254.5625 336.507812 L 264.164062 336.507812 L 264.164062 317.28125 L 273.761719 317.28125 L 273.761719 288.441406 L 283.363281 288.441406 L 283.363281 192.308594 L 273.761719 192.308594 L 273.761719 163.464844 L 264.164062 163.464844 L 264.164062 153.851562 L 254.5625 153.851562 L 254.5625 134.625 Z M 264.164062 134.625 " fill-opacity="1" fill-rule="nonzero"/></g><path fill="#00efc1" d="M 264.164062 288.441406 L 196.964844 288.441406 L 196.964844 192.308594 L 177.761719 192.308594 L 177.761719 288.441406 L 110.5625 288.441406 L 110.5625 336.507812 L 120.164062 336.507812 L 120.164062 346.121094 L 129.761719 346.121094 L 129.761719 355.734375 L 244.964844 355.734375 L 244.964844 346.121094 L 254.5625 346.121094 L 254.5625 336.507812 L 264.164062 336.507812 Z M 264.164062 288.441406 " fill-opacity="1" fill-rule="nonzero"/><path fill="#9500ff" d="M 148.964844 336.507812 L 225.761719 336.507812 L 225.761719 374.960938 L 148.964844 374.960938 Z M 148.964844 336.507812 " fill-opacity="1" fill-rule="nonzero"/><path fill="#160059" d="M 139.363281 355.734375 L 148.964844 355.734375 L 148.964844 374.960938 L 139.363281 374.960938 Z M 139.363281 355.734375 " fill-opacity="1" fill-rule="nonzero"/><path fill="#160059" d="M 139.363281 365.347656 L 235.363281 365.347656 L 235.363281 374.960938 L 139.363281 374.960938 Z M 139.363281 365.347656 " fill-opacity="1" fill-rule="nonzero"/><path fill="#160059" d="M 225.761719 355.734375 L 235.363281 355.734375 L 235.363281 374.960938 L 225.761719 374.960938 Z M 225.761719 355.734375 " fill-opacity="1" fill-rule="nonzero"/><path fill="#160059" d="M 148.964844 336.507812 L 158.5625 336.507812 L 158.5625 355.734375 L 148.964844 355.734375 Z M 148.964844 336.507812 " fill-opacity="1" fill-rule="nonzero"/><path fill="#160059" d="M 216.164062 336.507812 L 225.761719 336.507812 L 225.761719 355.734375 L 216.164062 355.734375 Z M 216.164062 336.507812 " fill-opacity="1" fill-rule="nonzero"/><path fill="#160059" d="M 225.761719 336.507812 L 148.964844 336.507812 L 148.964844 346.121094 L 177.761719 346.121094 L 177.761719 374.960938 L 196.964844 374.960938 L 196.964844 346.121094 L 225.761719 346.121094 Z M 225.761719 336.507812 " fill-opacity="1" fill-rule="nonzero"/><path fill="#160059" d="M 168.164062 346.121094 L 168.164062 355.734375 L 158.5625 355.734375 L 158.5625 365.347656 L 177.761719 365.347656 L 177.761719 346.121094 Z M 168.164062 346.121094 " fill-opacity="0.5" fill-rule="nonzero"/><path fill="#160059" d="M 206.5625 346.121094 L 206.5625 355.734375 L 216.164062 355.734375 L 216.164062 365.347656 L 196.964844 365.347656 L 196.964844 346.121094 Z M 206.5625 346.121094 " fill-opacity="0.5" fill-rule="nonzero"/><path fill="#e08753" d="M 254.5625 105.785156 L 254.5625 125.011719 L 244.964844 125.011719 L 244.964844 96.171875 L 225.761719 96.171875 L 225.761719 105.785156 L 148.964844 105.785156 L 148.964844 96.171875 L 129.761719 96.171875 L 129.761719 125.011719 L 120.164062 125.011719 L 120.164062 105.785156 L 110.5625 105.785156 L 110.5625 134.625 L 120.164062 134.625 L 120.164062 163.464844 L 129.761719 163.464844 L 129.761719 182.691406 L 148.964844 182.691406 L 148.964844 192.308594 L 225.761719 192.308594 L 225.761719 182.691406 L 244.964844 182.691406 L 244.964844 163.464844 L 254.5625 163.464844 L 254.5625 134.625 L 264.164062 134.625 L 264.164062 105.785156 Z M 254.5625 105.785156 " fill-opacity="1" fill-rule="nonzero"/><g clip-path="url(#8cf67c4d95)"><path fill="#9500ff" d="M 148.964844 182.691406 L 148.964844 173.078125 L 129.761719 173.078125 L 129.761719 153.851562 L 110.5625 153.851562 L 110.5625 163.464844 L 100.964844 163.464844 L 100.964844 192.308594 L 91.363281 192.308594 L 91.363281 288.441406 L 100.964844 288.441406 L 100.964844 317.28125 L 110.5625 317.28125 L 110.5625 336.507812 L 129.761719 336.507812 L 129.761719 326.894531 L 139.363281 326.894531 L 139.363281 317.28125 L 158.5625 317.28125 L 158.5625 307.667969 L 177.761719 307.667969 L 177.761719 182.691406 Z M 148.964844 182.691406 " fill-opacity="1" fill-rule="nonzero"/></g><g clip-path="url(#2f710dc3a6)"><path fill="#9500ff" d="M 283.363281 192.308594 L 273.761719 192.308594 L 273.761719 163.464844 L 264.164062 163.464844 L 264.164062 153.851562 L 244.964844 153.851562 L 244.964844 173.078125 L 225.761719 173.078125 L 225.761719 182.691406 L 196.964844 182.691406 L 196.964844 307.667969 L 216.164062 307.667969 L 216.164062 317.28125 L 235.363281 317.28125 L 235.363281 326.894531 L 244.964844 326.894531 L 244.964844 336.507812 L 264.164062 336.507812 L 264.164062 317.28125 L 273.761719 317.28125 L 273.761719 288.441406 L 283.363281 288.441406 Z M 283.363281 192.308594 " fill-opacity="1" fill-rule="nonzero"/></g><path fill="#9500ff" d="M 273.761719 76.945312 L 254.5625 76.945312 L 254.5625 67.332031 L 244.964844 67.332031 L 244.964844 57.71875 L 225.761719 57.71875 L 225.761719 38.492188 L 216.164062 38.492188 L 216.164062 28.878906 L 206.5625 28.878906 L 206.5625 19.265625 L 196.964844 19.265625 L 196.964844 9.652344 L 187.363281 9.652344 L 187.363281 0.0390625 L 129.761719 0.0390625 L 129.761719 19.265625 L 139.363281 19.265625 L 139.363281 28.878906 L 148.964844 28.878906 L 148.964844 38.492188 L 158.5625 38.492188 L 158.5625 48.105469 L 148.964844 48.105469 L 148.964844 57.71875 L 139.363281 57.71875 L 139.363281 67.332031 L 120.164062 67.332031 L 120.164062 76.945312 L 100.964844 76.945312 L 100.964844 96.171875 L 120.164062 96.171875 L 120.164062 105.785156 L 254.5625 105.785156 L 254.5625 96.171875 L 273.761719 96.171875 Z M 273.761719 76.945312 " fill-opacity="1" fill-rule="nonzero"/><path fill="#fcfcfc" d="M 110.5625 96.171875 L 120.164062 96.171875 L 120.164062 105.785156 L 110.5625 105.785156 Z M 110.5625 96.171875 " fill-opacity="1" fill-rule="nonzero"/><path fill="#fcfcfc" d="M 120.164062 105.785156 L 129.761719 105.785156 L 129.761719 125.011719 L 120.164062 125.011719 Z M 120.164062 105.785156 " fill-opacity="1" fill-rule="nonzero"/><path fill="#fcfcfc" d="M 244.964844 105.785156 L 254.5625 105.785156 L 254.5625 125.011719 L 244.964844 125.011719 Z M 244.964844 105.785156 " fill-opacity="1" fill-rule="nonzero"/><path fill="#fcfcfc" d="M 254.5625 96.171875 L 264.164062 96.171875 L 264.164062 105.785156 L 254.5625 105.785156 Z M 254.5625 96.171875 " fill-opacity="1" fill-rule="nonzero"/><path fill="#fcfcfc" d="M 120.164062 105.785156 L 139.363281 105.785156 L 139.363281 115.398438 L 120.164062 115.398438 Z M 120.164062 105.785156 " fill-opacity="1" fill-rule="nonzero"/><path fill="#fcfcfc" d="M 235.363281 105.785156 L 254.5625 105.785156 L 254.5625 115.398438 L 235.363281 115.398438 Z M 235.363281 105.785156 " fill-opacity="1" fill-rule="nonzero"/><path fill="#fcfcfc" d="M 168.164062 144.238281 L 206.5625 144.238281 L 206.5625 153.851562 L 168.164062 153.851562 Z M 168.164062 144.238281 " fill-opacity="1" fill-rule="nonzero"/><path fill="#fcfcfc" d="M 158.5625 153.851562 L 177.761719 153.851562 L 177.761719 173.078125 L 158.5625 173.078125 Z M 158.5625 153.851562 " fill-opacity="1" fill-rule="nonzero"/><path fill="#fcfcfc" d="M 196.964844 153.851562 L 216.164062 153.851562 L 216.164062 173.078125 L 196.964844 173.078125 Z M 196.964844 153.851562 " fill-opacity="1" fill-rule="nonzero"/><path fill="#160059" d="M 129.761719 0.0390625 L 139.363281 0.0390625 L 139.363281 19.265625 L 129.761719 19.265625 Z M 129.761719 0.0390625 " fill-opacity="1" fill-rule="nonzero"/><path fill="#160059" d="M 129.761719 0.0390625 L 158.5625 0.0390625 L 158.5625 9.652344 L 129.761719 9.652344 Z M 129.761719 0.0390625 " fill-opacity="1" fill-rule="nonzero"/><path fill="#160059" d="M 187.363281 9.652344 L 196.964844 9.652344 L 196.964844 19.265625 L 187.363281 19.265625 Z M 187.363281 9.652344 " fill-opacity="0.5" fill-rule="nonzero"/><path fill="#160059" d="M 196.964844 19.265625 L 206.5625 19.265625 L 206.5625 28.878906 L 196.964844 28.878906 Z M 196.964844 19.265625 " fill-opacity="0.5" fill-rule="nonzero"/><path fill="#160059" d="M 139.363281 19.265625 L 148.964844 19.265625 L 148.964844 28.878906 L 139.363281 28.878906 Z M 139.363281 19.265625 " fill-opacity="1" fill-rule="nonzero"/><path fill="#160059" d="M 148.964844 28.878906 L 158.5625 28.878906 L 158.5625 48.105469 L 148.964844 48.105469 Z M 148.964844 28.878906 " fill-opacity="1" fill-rule="nonzero"/><path fill="#160059" d="M 148.964844 48.105469 L 158.5625 48.105469 L 158.5625 57.71875 L 148.964844 57.71875 Z M 148.964844 48.105469 " fill-opacity="1" fill-rule="nonzero"/><path fill="#160059" d="M 206.5625 28.878906 L 216.164062 28.878906 L 216.164062 38.492188 L 206.5625 38.492188 Z M 206.5625 28.878906 " fill-opacity="1" fill-rule="nonzero"/><path fill="#160059" d="M 216.164062 38.492188 L 225.761719 38.492188 L 225.761719 57.71875 L 216.164062 57.71875 Z M 216.164062 38.492188 " fill-opacity="1" fill-rule="nonzero"/><path fill="#160059" d="M 225.761719 57.71875 L 244.964844 57.71875 L 244.964844 67.332031 L 225.761719 67.332031 Z M 225.761719 57.71875 " fill-opacity="0.5" fill-rule="nonzero"/><path fill="#160059" d="M 244.964844 67.332031 L 273.761719 67.332031 L 273.761719 76.945312 L 244.964844 76.945312 Z M 244.964844 67.332031 " fill-opacity="1" fill-rule="nonzero"/><path fill="#160059" d="M 254.5625 86.558594 L 273.761719 86.558594 L 273.761719 96.171875 L 254.5625 96.171875 Z M 254.5625 86.558594 " fill-opacity="1" fill-rule="nonzero"/><path fill="#160059" d="M 120.164062 96.171875 L 254.5625 96.171875 L 254.5625 105.785156 L 120.164062 105.785156 Z M 120.164062 96.171875 " fill-opacity="1" fill-rule="nonzero"/><g clip-path="url(#a9bda357fd)"><path fill="#160059" d="M 273.761719 76.945312 L 283.363281 76.945312 L 283.363281 86.558594 L 273.761719 86.558594 Z M 273.761719 76.945312 " fill-opacity="1" fill-rule="nonzero"/></g><path fill="#160059" d="M 129.761719 57.71875 L 148.964844 57.71875 L 148.964844 67.332031 L 129.761719 67.332031 Z M 129.761719 57.71875 " fill-opacity="1" fill-rule="nonzero"/><path fill="#160059" d="M 100.964844 67.332031 L 129.761719 67.332031 L 129.761719 76.945312 L 100.964844 76.945312 Z M 100.964844 67.332031 " fill-opacity="1" fill-rule="nonzero"/><g clip-path="url(#6beece45fc)"><path fill="#160059" d="M 91.363281 76.945312 L 100.964844 76.945312 L 100.964844 86.558594 L 91.363281 86.558594 Z M 91.363281 76.945312 " fill-opacity="1" fill-rule="nonzero"/></g><path fill="#160059" d="M 100.964844 86.558594 L 120.164062 86.558594 L 120.164062 96.171875 L 100.964844 96.171875 Z M 100.964844 86.558594 " fill-opacity="1" fill-rule="nonzero"/><path fill="#160059" d="M 129.761719 76.945312 L 148.964844 76.945312 L 148.964844 86.558594 L 129.761719 86.558594 Z M 129.761719 76.945312 " fill-opacity="1" fill-rule="nonzero"/><path fill="#160059" d="M 225.761719 76.945312 L 244.964844 76.945312 L 244.964844 86.558594 L 225.761719 86.558594 Z M 225.761719 76.945312 " fill-opacity="1" fill-rule="nonzero"/><path fill="#160059" d="M 148.964844 105.785156 L 225.761719 105.785156 L 225.761719 115.398438 L 148.964844 115.398438 Z M 148.964844 105.785156 " fill-opacity="0.5" fill-rule="nonzero"/><path fill="#160059" d="M 158.5625 115.398438 L 177.761719 115.398438 L 177.761719 125.011719 L 158.5625 125.011719 Z M 158.5625 115.398438 " fill-opacity="1" fill-rule="nonzero"/><path fill="#160059" d="M 196.964844 115.398438 L 216.164062 115.398438 L 216.164062 125.011719 L 196.964844 125.011719 Z M 196.964844 115.398438 " fill-opacity="1" fill-rule="nonzero"/><path fill="#9500ff" d="M 168.164062 125.011719 L 177.761719 125.011719 L 177.761719 134.625 L 168.164062 134.625 Z M 168.164062 125.011719 " fill-opacity="1" fill-rule="nonzero"/><path fill="#9500ff" d="M 196.964844 125.011719 L 206.5625 125.011719 L 206.5625 134.625 L 196.964844 134.625 Z M 196.964844 125.011719 " fill-opacity="1" fill-rule="nonzero"/><path fill="#160059" d="M 216.164062 125.011719 L 225.761719 125.011719 L 225.761719 134.625 L 216.164062 134.625 Z M 216.164062 125.011719 " fill-opacity="1" fill-rule="nonzero"/><path fill="#160059" d="M 148.964844 125.011719 L 158.5625 125.011719 L 158.5625 134.625 L 148.964844 134.625 Z M 148.964844 125.011719 " fill-opacity="1" fill-rule="nonzero"/><path fill="#160059" d="M 120.164062 134.625 L 129.761719 134.625 L 129.761719 153.851562 L 120.164062 153.851562 Z M 120.164062 134.625 " fill-opacity="1" fill-rule="nonzero"/><path fill="#160059" d="M 129.761719 153.851562 L 139.363281 153.851562 L 139.363281 173.078125 L 129.761719 173.078125 Z M 129.761719 153.851562 " fill-opacity="1" fill-rule="nonzero"/><path fill="#160059" d="M 129.761719 163.464844 L 148.964844 163.464844 L 148.964844 173.078125 L 129.761719 173.078125 Z M 129.761719 163.464844 " fill-opacity="1" fill-rule="nonzero"/><path fill="#160059" d="M 148.964844 173.078125 L 177.761719 173.078125 L 177.761719 182.691406 L 148.964844 182.691406 Z M 148.964844 173.078125 " fill-opacity="1" fill-rule="nonzero"/><path fill="#160059" d="M 177.761719 182.691406 L 196.964844 182.691406 L 196.964844 192.308594 L 177.761719 192.308594 Z M 177.761719 182.691406 " fill-opacity="1" fill-rule="nonzero"/><path fill="#160059" d="M 196.964844 173.078125 L 225.761719 173.078125 L 225.761719 182.691406 L 196.964844 182.691406 Z M 196.964844 173.078125 " fill-opacity="1" fill-rule="nonzero"/><path fill="#160059" d="M 225.761719 163.464844 L 244.964844 163.464844 L 244.964844 173.078125 L 225.761719 173.078125 Z M 225.761719 163.464844 " fill-opacity="1" fill-rule="nonzero"/><path fill="#160059" d="M 235.363281 153.851562 L 244.964844 153.851562 L 244.964844 173.078125 L 235.363281 173.078125 Z M 235.363281 153.851562 " fill-opacity="1" fill-rule="nonzero"/><path fill="#160059" d="M 244.964844 134.625 L 254.5625 134.625 L 254.5625 153.851562 L 244.964844 153.851562 Z M 244.964844 134.625 " fill-opacity="1" fill-rule="nonzero"/><path fill="#160059" d="M 110.5625 105.785156 L 120.164062 105.785156 L 120.164062 134.625 L 110.5625 134.625 Z M 110.5625 105.785156 " fill-opacity="1" fill-rule="nonzero"/><path fill="#160059" d="M 254.5625 105.785156 L 264.164062 105.785156 L 264.164062 134.625 L 254.5625 134.625 Z M 254.5625 105.785156 " fill-opacity="1" fill-rule="nonzero"/><path fill="#160059" d="M 120.164062 125.011719 L 129.761719 125.011719 L 129.761719 134.625 L 120.164062 134.625 Z M 120.164062 125.011719 " fill-opacity="0.5" fill-rule="nonzero"/><path fill="#160059" d="M 244.964844 125.011719 L 254.5625 125.011719 L 254.5625 134.625 L 244.964844 134.625 Z M 244.964844 125.011719 " fill-opacity="0.5" fill-rule="nonzero"/><path fill="#160059" d="M 129.761719 115.398438 L 139.363281 115.398438 L 139.363281 153.851562 L 129.761719 153.851562 Z M 129.761719 115.398438 " fill-opacity="0.3" fill-rule="nonzero"/><path fill="#160059" d="M 139.363281 105.785156 L 148.964844 105.785156 L 148.964844 115.398438 L 139.363281 115.398438 Z M 139.363281 105.785156 " fill-opacity="0.3" fill-rule="nonzero"/><path fill="#160059" d="M 139.363281 153.851562 L 148.964844 153.851562 L 148.964844 163.464844 L 139.363281 163.464844 Z M 139.363281 153.851562 " fill-opacity="0.3" fill-rule="nonzero"/><path fill="#160059" d="M 148.964844 163.464844 L 158.5625 163.464844 L 158.5625 173.078125 L 148.964844 173.078125 Z M 148.964844 163.464844 " fill-opacity="0.3" fill-rule="nonzero"/><path fill="#160059" d="M 216.164062 163.464844 L 225.761719 163.464844 L 225.761719 173.078125 L 216.164062 173.078125 Z M 216.164062 163.464844 " fill-opacity="0.3" fill-rule="nonzero"/><path fill="#160059" d="M 196.964844 144.238281 L 206.5625 144.238281 L 206.5625 153.851562 L 196.964844 153.851562 Z M 196.964844 144.238281 " fill-opacity="0.5" fill-rule="nonzero"/><path fill="#160059" d="M 168.164062 144.238281 L 177.761719 144.238281 L 177.761719 153.851562 L 168.164062 153.851562 Z M 168.164062 144.238281 " fill-opacity="0.5" fill-rule="nonzero"/><path fill="#160059" d="M 177.761719 153.851562 L 196.964844 153.851562 L 196.964844 163.464844 L 177.761719 163.464844 Z M 177.761719 153.851562 " fill-opacity="0.5" fill-rule="nonzero"/><path fill="#160059" d="M 177.761719 173.078125 L 196.964844 173.078125 L 196.964844 182.691406 L 177.761719 182.691406 Z M 177.761719 173.078125 " fill-opacity="0.5" fill-rule="nonzero"/><path fill="#160059" d="M 158.5625 163.464844 L 168.164062 163.464844 L 168.164062 173.078125 L 158.5625 173.078125 Z M 158.5625 163.464844 " fill-opacity="0.5" fill-rule="nonzero"/><path fill="#160059" d="M 206.5625 163.464844 L 216.164062 163.464844 L 216.164062 173.078125 L 206.5625 173.078125 Z M 206.5625 163.464844 " fill-opacity="0.5" fill-rule="nonzero"/><path fill="#160059" d="M 225.761719 153.851562 L 235.363281 153.851562 L 235.363281 163.464844 L 225.761719 163.464844 Z M 225.761719 153.851562 " fill-opacity="0.3" fill-rule="nonzero"/><path fill="#160059" d="M 225.761719 105.785156 L 235.363281 105.785156 L 235.363281 115.398438 L 225.761719 115.398438 Z M 225.761719 105.785156 " fill-opacity="0.3" fill-rule="nonzero"/><path fill="#160059" d="M 235.363281 115.398438 L 244.964844 115.398438 L 244.964844 153.851562 L 235.363281 153.851562 Z M 235.363281 115.398438 " fill-opacity="0.3" fill-rule="nonzero"/><path fill="#160059" d="M 120.164062 76.945312 L 129.761719 76.945312 L 129.761719 86.558594 L 120.164062 86.558594 Z M 120.164062 76.945312 " fill-opacity="0.5" fill-rule="nonzero"/><path fill="#160059" d="M 148.964844 57.71875 L 158.5625 57.71875 L 158.5625 67.332031 L 148.964844 67.332031 Z M 148.964844 57.71875 " fill-opacity="0.5" fill-rule="nonzero"/><path fill="#160059" d="M 158.5625 38.492188 L 168.164062 38.492188 L 168.164062 48.105469 L 158.5625 48.105469 Z M 158.5625 38.492188 " fill-opacity="0.5" fill-rule="nonzero"/><path fill="#160059" d="M 177.761719 57.71875 L 187.363281 57.71875 L 187.363281 67.332031 L 177.761719 67.332031 Z M 177.761719 57.71875 " fill-opacity="0.5" fill-rule="nonzero"/><path fill="#160059" d="M 225.761719 86.558594 L 235.363281 86.558594 L 235.363281 96.171875 L 225.761719 96.171875 Z M 225.761719 86.558594 " fill-opacity="0.5" fill-rule="nonzero"/><path fill="#160059" d="M 244.964844 76.945312 L 254.5625 76.945312 L 254.5625 86.558594 L 244.964844 86.558594 Z M 244.964844 76.945312 " fill-opacity="0.5" fill-rule="nonzero"/><path fill="#160059" d="M 206.5625 76.945312 L 206.5625 67.332031 L 196.964844 67.332031 L 196.964844 76.945312 L 148.964844 76.945312 L 148.964844 86.558594 L 163.363281 86.558594 L 163.363281 96.171875 L 172.964844 96.171875 L 172.964844 86.558594 L 225.761719 86.558594 L 225.761719 76.945312 Z M 206.5625 76.945312 " fill-opacity="0.5" fill-rule="nonzero"/><path fill="#160059" d="M 187.363281 38.492188 L 196.964844 38.492188 L 196.964844 48.105469 L 187.363281 48.105469 Z M 187.363281 38.492188 " fill-opacity="0.5" fill-rule="nonzero"/><path fill="#160059" d="M 206.5625 48.105469 L 216.164062 48.105469 L 216.164062 57.71875 L 206.5625 57.71875 Z M 206.5625 48.105469 " fill-opacity="0.5" fill-rule="nonzero"/><path fill="#160059" d="M 168.164062 19.265625 L 177.761719 19.265625 L 177.761719 28.878906 L 168.164062 28.878906 Z M 168.164062 19.265625 " fill-opacity="0.5" fill-rule="nonzero"/><path fill="#160059" d="M 148.964844 9.652344 L 158.5625 9.652344 L 158.5625 19.265625 L 148.964844 19.265625 Z M 148.964844 9.652344 " fill-opacity="0.5" fill-rule="nonzero"/><path fill="#160059" d="M 158.5625 0.0390625 L 177.761719 0.0390625 L 177.761719 9.652344 L 158.5625 9.652344 Z M 158.5625 0.0390625 " fill-opacity="0.5" fill-rule="nonzero"/><path fill="#160059" d="M 168.164062 182.691406 L 177.761719 182.691406 L 177.761719 307.667969 L 168.164062 307.667969 Z M 168.164062 182.691406 " fill-opacity="1" fill-rule="nonzero"/><path fill="#160059" d="M 196.964844 182.691406 L 206.5625 182.691406 L 206.5625 307.667969 L 196.964844 307.667969 Z M 196.964844 182.691406 " fill-opacity="1" fill-rule="nonzero"/><path fill="#160059" d="M 110.5625 153.851562 L 120.164062 153.851562 L 120.164062 163.464844 L 110.5625 163.464844 Z M 110.5625 153.851562 " fill-opacity="1" fill-rule="nonzero"/><path fill="#160059" d="M 100.964844 163.464844 L 110.5625 163.464844 L 110.5625 192.308594 L 100.964844 192.308594 Z M 100.964844 163.464844 " fill-opacity="1" fill-rule="nonzero"/><g clip-path="url(#b1a3cf212c)"><path fill="#160059" d="M 91.363281 192.308594 L 100.964844 192.308594 L 100.964844 288.441406 L 91.363281 288.441406 Z M 91.363281 192.308594 " fill-opacity="1" fill-rule="nonzero"/></g><path fill="#160059" d="M 100.964844 288.441406 L 110.5625 288.441406 L 110.5625 317.28125 L 100.964844 317.28125 Z M 100.964844 288.441406 " fill-opacity="1" fill-rule="nonzero"/><path fill="#160059" d="M 110.5625 317.28125 L 120.164062 317.28125 L 120.164062 336.507812 L 110.5625 336.507812 Z M 110.5625 317.28125 " fill-opacity="1" fill-rule="nonzero"/><path fill="#160059" d="M 110.5625 326.894531 L 129.761719 326.894531 L 129.761719 336.507812 L 110.5625 336.507812 Z M 110.5625 326.894531 " fill-opacity="1" fill-rule="nonzero"/><path fill="#160059" d="M 129.761719 317.28125 L 139.363281 317.28125 L 139.363281 326.894531 L 129.761719 326.894531 Z M 129.761719 317.28125 " fill-opacity="1" fill-rule="nonzero"/><path fill="#160059" d="M 139.363281 307.667969 L 158.5625 307.667969 L 158.5625 317.28125 L 139.363281 317.28125 Z M 139.363281 307.667969 " fill-opacity="1" fill-rule="nonzero"/><path fill="#160059" d="M 158.5625 298.054688 L 177.761719 298.054688 L 177.761719 307.667969 L 158.5625 307.667969 Z M 158.5625 298.054688 " fill-opacity="1" fill-rule="nonzero"/><path fill="#160059" d="M 196.964844 298.054688 L 216.164062 298.054688 L 216.164062 307.667969 L 196.964844 307.667969 Z M 196.964844 298.054688 " fill-opacity="1" fill-rule="nonzero"/><path fill="#160059" d="M 216.164062 307.667969 L 235.363281 307.667969 L 235.363281 317.28125 L 216.164062 317.28125 Z M 216.164062 307.667969 " fill-opacity="1" fill-rule="nonzero"/><path fill="#160059" d="M 235.363281 317.28125 L 244.964844 317.28125 L 244.964844 326.894531 L 235.363281 326.894531 Z M 235.363281 317.28125 " fill-opacity="1" fill-rule="nonzero"/><path fill="#160059" d="M 244.964844 326.894531 L 264.164062 326.894531 L 264.164062 336.507812 L 244.964844 336.507812 Z M 244.964844 326.894531 " fill-opacity="1" fill-rule="nonzero"/><path fill="#160059" d="M 254.5625 317.28125 L 264.164062 317.28125 L 264.164062 336.507812 L 254.5625 336.507812 Z M 254.5625 317.28125 " fill-opacity="1" fill-rule="nonzero"/><path fill="#160059" d="M 264.164062 288.441406 L 273.761719 288.441406 L 273.761719 317.28125 L 264.164062 317.28125 Z M 264.164062 288.441406 " fill-opacity="1" fill-rule="nonzero"/><g clip-path="url(#9d9d0e2a54)"><path fill="#160059" d="M 273.761719 192.308594 L 283.363281 192.308594 L 283.363281 288.441406 L 273.761719 288.441406 Z M 273.761719 192.308594 " fill-opacity="1" fill-rule="nonzero"/></g><path fill="#160059" d="M 264.164062 163.464844 L 273.761719 163.464844 L 273.761719 192.308594 L 264.164062 192.308594 Z M 264.164062 163.464844 " fill-opacity="1" fill-rule="nonzero"/><path fill="#160059" d="M 254.5625 153.851562 L 264.164062 153.851562 L 264.164062 163.464844 L 254.5625 163.464844 Z M 254.5625 153.851562 " fill-opacity="1" fill-rule="nonzero"/><path fill="#160059" d="M 120.164062 105.785156 L 129.761719 105.785156 L 129.761719 115.398438 L 120.164062 115.398438 Z M 120.164062 105.785156 " fill-opacity="0.5" fill-rule="nonzero"/><path fill="#160059" d="M 244.964844 105.785156 L 254.5625 105.785156 L 254.5625 115.398438 L 244.964844 115.398438 Z M 244.964844 105.785156 " fill-opacity="0.5" fill-rule="nonzero"/><path fill="#160059" d="M 177.761719 192.308594 L 196.964844 192.308594 L 196.964844 201.921875 L 177.761719 201.921875 Z M 177.761719 192.308594 " fill-opacity="0.5" fill-rule="nonzero"/><path fill="#160059" d="M 120.164062 326.894531 L 129.761719 326.894531 L 129.761719 346.121094 L 120.164062 346.121094 Z M 120.164062 326.894531 " fill-opacity="1" fill-rule="nonzero"/><path fill="#160059" d="M 129.761719 346.121094 L 148.964844 346.121094 L 148.964844 355.734375 L 129.761719 355.734375 Z M 129.761719 346.121094 " fill-opacity="1" fill-rule="nonzero"/><path fill="#160059" d="M 225.761719 346.121094 L 244.964844 346.121094 L 244.964844 355.734375 L 225.761719 355.734375 Z M 225.761719 346.121094 " fill-opacity="1" fill-rule="nonzero"/><path fill="#160059" d="M 244.964844 326.894531 L 254.5625 326.894531 L 254.5625 346.121094 L 244.964844 346.121094 Z M 244.964844 326.894531 " fill-opacity="1" fill-rule="nonzero"/><path fill="#160059" d="M 139.363281 182.691406 L 148.964844 182.691406 L 148.964844 240.375 L 139.363281 240.375 Z M 139.363281 182.691406 " fill-opacity="1" fill-rule="nonzero"/><path fill="#160059" d="M 158.5625 182.691406 L 168.164062 182.691406 L 168.164062 240.375 L 158.5625 240.375 Z M 158.5625 182.691406 " fill-opacity="0.5" fill-rule="nonzero"/><path fill="#160059" d="M 206.5625 182.691406 L 216.164062 182.691406 L 216.164062 240.375 L 206.5625 240.375 Z M 206.5625 182.691406 " fill-opacity="0.5" fill-rule="nonzero"/><path fill="#160059" d="M 225.761719 182.691406 L 235.363281 182.691406 L 235.363281 240.375 L 225.761719 240.375 Z M 225.761719 182.691406 " fill-opacity="1" fill-rule="nonzero"/><path fill="#160059" d="M 148.964844 240.375 L 158.5625 240.375 L 158.5625 278.828125 L 148.964844 278.828125 Z M 148.964844 240.375 " fill-opacity="1" fill-rule="nonzero"/><path fill="#160059" d="M 216.164062 240.375 L 225.761719 240.375 L 225.761719 278.828125 L 216.164062 278.828125 Z M 216.164062 240.375 " fill-opacity="1" fill-rule="nonzero"/><path fill="#160059" d="M 158.5625 278.828125 L 168.164062 278.828125 L 168.164062 288.441406 L 158.5625 288.441406 Z M 158.5625 278.828125 " fill-opacity="1" fill-rule="nonzero"/><path fill="#160059" d="M 206.5625 278.828125 L 216.164062 278.828125 L 216.164062 288.441406 L 206.5625 288.441406 Z M 206.5625 278.828125 " fill-opacity="1" fill-rule="nonzero"/><path fill="#160059" d="M 120.164062 153.851562 L 129.761719 153.851562 L 129.761719 173.078125 L 120.164062 173.078125 Z M 120.164062 153.851562 " fill-opacity="0.5" fill-rule="nonzero"/><path fill="#160059" d="M 244.964844 153.851562 L 254.5625 153.851562 L 254.5625 173.078125 L 244.964844 173.078125 Z M 244.964844 153.851562 " fill-opacity="0.5" fill-rule="nonzero"/><path fill="#160059" d="M 129.761719 173.078125 L 139.363281 173.078125 L 139.363281 182.691406 L 129.761719 182.691406 Z M 129.761719 173.078125 " fill-opacity="0.5" fill-rule="nonzero"/><path fill="#160059" d="M 235.363281 173.078125 L 244.964844 173.078125 L 244.964844 182.691406 L 235.363281 182.691406 Z M 235.363281 173.078125 " fill-opacity="0.5" fill-rule="nonzero"/><path fill="#160059" d="M 120.164062 173.078125 L 129.761719 173.078125 L 129.761719 221.148438 L 120.164062 221.148438 Z M 120.164062 173.078125 " fill-opacity="1" fill-rule="nonzero"/><path fill="#160059" d="M 110.5625 221.148438 L 120.164062 221.148438 L 120.164062 240.375 L 110.5625 240.375 Z M 110.5625 221.148438 " fill-opacity="1" fill-rule="nonzero"/><g clip-path="url(#32cf61509d)"><path fill="#160059" d="M 91.363281 240.375 L 110.5625 240.375 L 110.5625 249.988281 L 91.363281 249.988281 Z M 91.363281 240.375 " fill-opacity="1" fill-rule="nonzero"/></g><path fill="#160059" d="M 254.5625 221.148438 L 244.964844 221.148438 L 244.964844 173.078125 L 254.5625 173.078125 Z M 254.5625 221.148438 " fill-opacity="1" fill-rule="nonzero"/><path fill="#160059" d="M 264.164062 240.375 L 254.5625 240.375 L 254.5625 221.148438 L 264.164062 221.148438 Z M 264.164062 240.375 " fill-opacity="1" fill-rule="nonzero"/><g clip-path="url(#93ff38f663)"><path fill="#160059" d="M 283.363281 249.988281 L 264.164062 249.988281 L 264.164062 240.375 L 283.363281 240.375 Z M 283.363281 249.988281 " fill-opacity="1" fill-rule="nonzero"/></g><path fill="#160059" d="M 100.964844 230.761719 L 110.5625 230.761719 L 110.5625 240.375 L 100.964844 240.375 Z M 100.964844 230.761719 " fill-opacity="0.5" fill-rule="nonzero"/><path fill="#160059" d="M 235.363281 326.894531 L 244.964844 326.894531 L 244.964844 336.507812 L 235.363281 336.507812 Z M 235.363281 326.894531 " fill-opacity="0.5" fill-rule="nonzero"/><path fill="#160059" d="M 129.761719 326.894531 L 139.363281 326.894531 L 139.363281 336.507812 L 129.761719 336.507812 Z M 129.761719 326.894531 " fill-opacity="0.5" fill-rule="nonzero"/><path fill="#160059" d="M 139.363281 317.28125 L 158.5625 317.28125 L 158.5625 326.894531 L 139.363281 326.894531 Z M 139.363281 317.28125 " fill-opacity="0.5" fill-rule="nonzero"/><path fill="#160059" d="M 216.164062 317.28125 L 235.363281 317.28125 L 235.363281 326.894531 L 216.164062 326.894531 Z M 216.164062 317.28125 " fill-opacity="0.5" fill-rule="nonzero"/><path fill="#160059" d="M 158.5625 307.667969 L 177.761719 307.667969 L 177.761719 317.28125 L 158.5625 317.28125 Z M 158.5625 307.667969 " fill-opacity="0.5" fill-rule="nonzero"/><path fill="#160059" d="M 196.964844 307.667969 L 216.164062 307.667969 L 216.164062 317.28125 L 196.964844 317.28125 Z M 196.964844 307.667969 " fill-opacity="0.5" fill-rule="nonzero"/><path fill="#160059" d="M 264.164062 230.761719 L 273.761719 230.761719 L 273.761719 240.375 L 264.164062 240.375 Z M 264.164062 230.761719 " fill-opacity="0.5" fill-rule="nonzero"/><path fill="#160059" d="M 129.761719 269.214844 L 139.363281 269.214844 L 139.363281 278.828125 L 129.761719 278.828125 Z M 129.761719 269.214844 " fill-opacity="0.5" fill-rule="nonzero"/><path fill="#160059" d="M 129.761719 240.375 L 139.363281 240.375 L 139.363281 249.988281 L 129.761719 249.988281 Z M 129.761719 240.375 " fill-opacity="0.5" fill-rule="nonzero"/><path fill="#160059" d="M 216.164062 288.441406 L 225.761719 288.441406 L 225.761719 298.054688 L 216.164062 298.054688 Z M 216.164062 288.441406 " fill-opacity="0.5" fill-rule="nonzero"/><path fill="#160059" d="M 254.5625 288.441406 L 264.164062 288.441406 L 264.164062 298.054688 L 254.5625 298.054688 Z M 254.5625 288.441406 " fill-opacity="0.5" fill-rule="nonzero"/><path fill="#160059" d="M 225.761719 278.828125 L 235.363281 278.828125 L 235.363281 288.441406 L 225.761719 288.441406 Z M 225.761719 278.828125 " fill-opacity="0.5" fill-rule="nonzero"/><path fill="#160059" d="M 235.363281 288.441406 L 244.964844 288.441406 L 244.964844 298.054688 L 235.363281 298.054688 Z M 235.363281 288.441406 " fill-opacity="0.5" fill-rule="nonzero"/><path fill="#160059" d="M 244.964844 269.214844 L 254.5625 269.214844 L 254.5625 278.828125 L 244.964844 278.828125 Z M 244.964844 269.214844 " fill-opacity="0.5" fill-rule="nonzero"/><path fill="#160059" d="M 264.164062 259.601562 L 273.761719 259.601562 L 273.761719 269.214844 L 264.164062 269.214844 Z M 264.164062 259.601562 " fill-opacity="0.5" fill-rule="nonzero"/><path fill="#160059" d="M 100.964844 249.988281 L 110.5625 249.988281 L 110.5625 259.601562 L 100.964844 259.601562 Z M 100.964844 249.988281 " fill-opacity="0.5" fill-rule="nonzero"/><path fill="#160059" d="M 225.761719 298.054688 L 235.363281 298.054688 L 235.363281 307.667969 L 225.761719 307.667969 Z M 225.761719 298.054688 " fill-opacity="0.5" fill-rule="nonzero"/><path fill="#160059" d="M 244.964844 298.054688 L 254.5625 298.054688 L 254.5625 307.667969 L 244.964844 307.667969 Z M 244.964844 298.054688 " fill-opacity="0.5" fill-rule="nonzero"/><path fill="#160059" d="M 235.363281 307.667969 L 244.964844 307.667969 L 244.964844 317.28125 L 235.363281 317.28125 Z M 235.363281 307.667969 " fill-opacity="0.5" fill-rule="nonzero"/><path fill="#160059" d="M 254.5625 307.667969 L 264.164062 307.667969 L 264.164062 317.28125 L 254.5625 317.28125 Z M 254.5625 307.667969 " fill-opacity="0.5" fill-rule="nonzero"/><path fill="#160059" d="M 235.363281 240.375 L 244.964844 240.375 L 244.964844 249.988281 L 235.363281 249.988281 Z M 235.363281 240.375 " fill-opacity="0.5" fill-rule="nonzero"/><path fill="#160059" d="M 120.164062 307.667969 L 129.761719 307.667969 L 129.761719 317.28125 L 120.164062 317.28125 Z M 120.164062 307.667969 " fill-opacity="0.5" fill-rule="nonzero"/><path fill="#160059" d="M 110.5625 298.054688 L 120.164062 298.054688 L 120.164062 307.667969 L 110.5625 307.667969 Z M 110.5625 298.054688 " fill-opacity="0.5" fill-rule="nonzero"/><path fill="#160059" d="M 129.761719 298.054688 L 139.363281 298.054688 L 139.363281 307.667969 L 129.761719 307.667969 Z M 129.761719 298.054688 " fill-opacity="0.5" fill-rule="nonzero"/><path fill="#160059" d="M 148.964844 298.054688 L 158.5625 298.054688 L 158.5625 307.667969 L 148.964844 307.667969 Z M 148.964844 298.054688 " fill-opacity="0.5" fill-rule="nonzero"/><path fill="#160059" d="M 110.5625 278.828125 L 120.164062 278.828125 L 120.164062 288.441406 L 110.5625 288.441406 Z M 110.5625 278.828125 " fill-opacity="0.5" fill-rule="nonzero"/><path fill="#160059" d="M 148.964844 278.828125 L 158.5625 278.828125 L 158.5625 288.441406 L 148.964844 288.441406 Z M 148.964844 278.828125 " fill-opacity="0.5" fill-rule="nonzero"/><path fill="#160059" d="M 139.363281 288.441406 L 148.964844 288.441406 L 148.964844 298.054688 L 139.363281 298.054688 Z M 139.363281 288.441406 " fill-opacity="0.5" fill-rule="nonzero"/><path fill="#160059" d="M 158.5625 288.441406 L 168.164062 288.441406 L 168.164062 298.054688 L 158.5625 298.054688 Z M 158.5625 288.441406 " fill-opacity="0.5" fill-rule="nonzero"/><path fill="#160059" d="M 120.164062 288.441406 L 129.761719 288.441406 L 129.761719 298.054688 L 120.164062 298.054688 Z M 120.164062 288.441406 " fill-opacity="0.5" fill-rule="nonzero"/></svg>