<svg xmlns="http://www.w3.org/2000/svg" xmlns:xlink="http://www.w3.org/1999/xlink" width="500" zoomAndPan="magnify" viewBox="0 0 375 374.999991" height="500" preserveAspectRatio="xMidYMid meet" version="1.0"><defs><clipPath id="024d9ff571"><path d="M 129.324219 284.300781 L 272 284.300781 L 272 374.886719 L 129.324219 374.886719 Z M 129.324219 284.300781 " clip-rule="nonzero"/></clipPath><clipPath id="8a037f9fcc"><path d="M 51.796875 0.128906 L 323.265625 0.128906 L 323.265625 374.886719 L 51.796875 374.886719 Z M 51.796875 0.128906 " clip-rule="nonzero"/></clipPath><clipPath id="e1d44f73bc"><path d="M 90.5625 232.632812 L 285 232.632812 L 285 374.886719 L 90.5625 374.886719 Z M 90.5625 232.632812 " clip-rule="nonzero"/></clipPath></defs><g clip-path="url(#024d9ff571)"><path fill="#fcf7db" d="M 258.632812 297.347656 L 258.632812 310.269531 L 245.707031 310.269531 L 245.707031 323.195312 L 219.851562 323.195312 L 219.851562 336.117188 L 206.925781 336.117188 L 206.925781 349.039062 L 193.996094 349.039062 L 193.996094 336.117188 L 181.070312 336.117188 L 181.070312 323.195312 L 193.996094 323.195312 L 193.996094 284.425781 L 181.070312 284.425781 L 181.070312 310.269531 L 168.140625 310.269531 L 168.140625 336.117188 L 155.214844 336.117188 L 155.214844 323.195312 L 142.289062 323.195312 L 142.289062 310.269531 L 129.359375 310.269531 L 129.359375 336.117188 L 142.289062 336.117188 L 142.289062 349.039062 L 155.214844 349.039062 L 155.214844 361.960938 L 168.140625 361.960938 L 168.140625 374.886719 L 219.851562 374.886719 L 219.851562 361.960938 L 232.777344 361.960938 L 232.777344 349.039062 L 245.707031 349.039062 L 245.707031 336.117188 L 258.632812 336.117188 L 258.632812 323.195312 L 271.558594 323.195312 L 271.558594 297.347656 L 258.632812 297.347656 " fill-opacity="1" fill-rule="nonzero"/></g><path fill="#e2902a" d="M 284.488281 271.503906 L 284.488281 245.65625 L 258.632812 245.65625 L 258.632812 206.886719 L 245.707031 206.886719 L 245.707031 219.8125 L 232.777344 219.8125 L 232.777344 206.886719 L 219.851562 206.886719 L 219.851562 181.046875 L 206.925781 181.046875 L 206.925781 168.121094 L 219.851562 168.121094 L 219.851562 155.195312 L 232.777344 155.195312 L 232.777344 129.351562 L 219.851562 129.351562 L 219.851562 103.507812 L 206.925781 103.507812 L 206.925781 116.429688 L 193.996094 116.429688 L 193.996094 142.273438 L 181.070312 142.273438 L 181.070312 206.886719 L 193.996094 206.886719 L 193.996094 232.734375 L 181.070312 232.734375 L 181.070312 245.65625 L 155.214844 245.65625 L 155.214844 258.578125 L 142.289062 258.578125 L 142.289062 284.425781 L 155.214844 284.425781 L 155.214844 310.269531 L 168.140625 310.269531 L 168.140625 297.347656 L 181.070312 297.347656 L 181.070312 271.503906 L 193.996094 271.503906 L 193.996094 297.347656 L 219.851562 297.347656 L 219.851562 258.578125 L 206.925781 258.578125 L 206.925781 232.734375 L 219.851562 232.734375 L 219.851562 258.578125 L 232.777344 258.578125 L 232.777344 310.269531 L 245.707031 310.269531 L 245.707031 284.425781 L 258.632812 284.425781 L 258.632812 271.503906 L 271.558594 271.503906 L 271.558594 284.425781 L 284.488281 284.425781 L 284.488281 310.269531 L 297.414062 310.269531 L 297.414062 271.503906 Z M 90.578125 310.269531 L 90.578125 323.195312 L 103.507812 323.195312 L 103.507812 336.117188 L 116.433594 336.117188 L 116.433594 310.269531 L 103.507812 310.269531 L 103.507812 297.347656 L 90.578125 297.347656 Z M 142.289062 245.65625 L 142.289062 258.578125 L 129.359375 258.578125 L 129.359375 297.347656 L 103.507812 297.347656 L 103.507812 284.425781 L 90.578125 284.425781 L 90.578125 271.503906 L 103.507812 271.503906 L 103.507812 245.65625 L 116.433594 245.65625 L 116.433594 219.8125 L 129.359375 219.8125 L 129.359375 245.65625 L 142.289062 245.65625 " fill-opacity="1" fill-rule="nonzero"/><g clip-path="url(#8a037f9fcc)"><path fill="#d75623" d="M 51.796875 193.964844 L 51.796875 206.886719 L 64.722656 206.886719 L 64.722656 193.964844 Z M 103.507812 51.816406 L 90.578125 51.816406 L 90.578125 64.738281 L 103.507812 64.738281 Z M 103.507812 90.585938 L 103.507812 77.660156 L 90.578125 77.660156 L 90.578125 103.507812 L 103.507812 103.507812 Z M 116.433594 116.429688 L 116.433594 103.507812 L 103.507812 103.507812 L 103.507812 116.429688 Z M 219.851562 13.050781 L 219.851562 0.125 L 206.925781 0.125 L 206.925781 25.972656 L 219.851562 25.972656 Z M 232.777344 181.046875 L 232.777344 168.121094 L 245.707031 168.121094 L 245.707031 103.507812 L 232.777344 103.507812 L 232.777344 90.585938 L 219.851562 90.585938 L 219.851562 64.738281 L 206.925781 64.738281 L 206.925781 25.972656 L 193.996094 25.972656 L 193.996094 103.507812 L 181.070312 103.507812 L 181.070312 77.660156 L 168.140625 77.660156 L 168.140625 64.738281 L 155.214844 64.738281 L 155.214844 90.585938 L 168.140625 90.585938 L 168.140625 116.429688 L 181.070312 116.429688 L 181.070312 129.351562 L 168.140625 129.351562 L 168.140625 142.273438 L 155.214844 142.273438 L 155.214844 168.121094 L 168.140625 168.121094 L 168.140625 232.734375 L 155.214844 232.734375 L 155.214844 219.8125 L 142.289062 219.8125 L 142.289062 168.121094 L 129.359375 168.121094 L 129.359375 155.195312 L 116.433594 155.195312 L 116.433594 206.886719 L 103.507812 206.886719 L 103.507812 232.734375 L 90.578125 232.734375 L 90.578125 219.8125 L 77.652344 219.8125 L 77.652344 206.886719 L 64.722656 206.886719 L 64.722656 232.734375 L 77.652344 232.734375 L 77.652344 284.425781 L 64.722656 284.425781 L 64.722656 323.195312 L 77.652344 323.195312 L 77.652344 336.117188 L 90.578125 336.117188 L 90.578125 349.039062 L 103.507812 349.039062 L 103.507812 361.960938 L 116.433594 361.960938 L 116.433594 374.886719 L 142.289062 374.886719 L 142.289062 361.960938 L 129.359375 361.960938 L 129.359375 349.039062 L 116.433594 349.039062 L 116.433594 336.117188 L 103.507812 336.117188 L 103.507812 323.195312 L 90.578125 323.195312 L 90.578125 271.503906 L 103.507812 271.503906 L 103.507812 245.65625 L 116.433594 245.65625 L 116.433594 219.8125 L 129.359375 219.8125 L 129.359375 245.65625 L 181.070312 245.65625 L 181.070312 232.734375 L 193.996094 232.734375 L 193.996094 206.886719 L 181.070312 206.886719 L 181.070312 142.273438 L 193.996094 142.273438 L 193.996094 116.429688 L 206.925781 116.429688 L 206.925781 103.507812 L 219.851562 103.507812 L 219.851562 129.351562 L 232.777344 129.351562 L 232.777344 155.195312 L 219.851562 155.195312 L 219.851562 168.121094 L 206.925781 168.121094 L 206.925781 181.046875 L 219.851562 181.046875 L 219.851562 206.886719 L 232.777344 206.886719 Z M 232.777344 219.8125 L 245.707031 219.8125 L 245.707031 206.886719 L 232.777344 206.886719 Z M 310.34375 90.585938 L 297.414062 90.585938 L 297.414062 103.507812 L 310.34375 103.507812 Z M 323.269531 271.503906 L 323.269531 323.195312 L 310.34375 323.195312 L 310.34375 336.117188 L 297.414062 336.117188 L 297.414062 349.039062 L 284.488281 349.039062 L 284.488281 361.960938 L 271.558594 361.960938 L 271.558594 374.886719 L 245.707031 374.886719 L 245.707031 361.960938 L 258.632812 361.960938 L 258.632812 349.039062 L 271.558594 349.039062 L 271.558594 336.117188 L 284.488281 336.117188 L 284.488281 310.269531 L 297.414062 310.269531 L 297.414062 271.503906 L 284.488281 271.503906 L 284.488281 245.65625 L 258.632812 245.65625 L 258.632812 206.886719 L 245.707031 206.886719 L 245.707031 181.046875 L 258.632812 181.046875 L 258.632812 155.195312 L 271.558594 155.195312 L 271.558594 129.351562 L 284.488281 129.351562 L 284.488281 116.429688 L 297.414062 116.429688 L 297.414062 142.273438 L 284.488281 142.273438 L 284.488281 206.886719 L 271.558594 206.886719 L 271.558594 232.734375 L 284.488281 232.734375 L 284.488281 206.886719 L 297.414062 206.886719 L 297.414062 181.046875 L 310.34375 181.046875 L 310.34375 219.8125 L 297.414062 219.8125 L 297.414062 258.578125 L 310.34375 258.578125 L 310.34375 271.503906 L 323.269531 271.503906 " fill-opacity="1" fill-rule="nonzero"/></g><g clip-path="url(#e1d44f73bc)"><path fill="#f0c82f" d="M 90.578125 284.425781 L 90.578125 297.347656 L 103.507812 297.347656 L 103.507812 284.425781 Z M 155.214844 245.65625 L 142.289062 245.65625 L 142.289062 258.578125 L 155.214844 258.578125 Z M 155.214844 297.347656 L 155.214844 284.425781 L 142.289062 284.425781 L 142.289062 258.578125 L 129.359375 258.578125 L 129.359375 297.347656 L 103.507812 297.347656 L 103.507812 310.269531 L 116.433594 310.269531 L 116.433594 349.039062 L 129.359375 349.039062 L 129.359375 361.960938 L 142.289062 361.960938 L 142.289062 374.886719 L 168.140625 374.886719 L 168.140625 361.960938 L 155.214844 361.960938 L 155.214844 349.039062 L 142.289062 349.039062 L 142.289062 336.117188 L 129.359375 336.117188 L 129.359375 310.269531 L 142.289062 310.269531 L 142.289062 323.195312 L 155.214844 323.195312 L 155.214844 336.117188 L 168.140625 336.117188 L 168.140625 310.269531 L 155.214844 310.269531 Z M 181.070312 297.347656 L 168.140625 297.347656 L 168.140625 310.269531 L 181.070312 310.269531 Z M 193.996094 271.503906 L 181.070312 271.503906 L 181.070312 284.425781 L 193.996094 284.425781 Z M 219.851562 232.734375 L 206.925781 232.734375 L 206.925781 258.578125 L 219.851562 258.578125 Z M 232.777344 297.347656 L 232.777344 258.578125 L 219.851562 258.578125 L 219.851562 297.347656 L 193.996094 297.347656 L 193.996094 323.195312 L 181.070312 323.195312 L 181.070312 336.117188 L 193.996094 336.117188 L 193.996094 349.039062 L 206.925781 349.039062 L 206.925781 336.117188 L 219.851562 336.117188 L 219.851562 323.195312 L 245.707031 323.195312 L 245.707031 310.269531 L 232.777344 310.269531 Z M 284.488281 284.425781 L 284.488281 336.117188 L 271.558594 336.117188 L 271.558594 349.039062 L 258.632812 349.039062 L 258.632812 361.960938 L 245.707031 361.960938 L 245.707031 374.886719 L 219.851562 374.886719 L 219.851562 361.960938 L 232.777344 361.960938 L 232.777344 349.039062 L 245.707031 349.039062 L 245.707031 336.117188 L 258.632812 336.117188 L 258.632812 323.195312 L 271.558594 323.195312 L 271.558594 297.347656 L 258.632812 297.347656 L 258.632812 310.269531 L 245.707031 310.269531 L 245.707031 284.425781 L 258.632812 284.425781 L 258.632812 271.503906 L 271.558594 271.503906 L 271.558594 284.425781 L 284.488281 284.425781 " fill-opacity="1" fill-rule="nonzero"/></g></svg>