<svg xmlns="http://www.w3.org/2000/svg" xmlns:xlink="http://www.w3.org/1999/xlink" width="500" zoomAndPan="magnify" viewBox="0 0 375 374.999991" height="500" preserveAspectRatio="xMidYMid meet" version="1.0"><defs><clipPath id="2bec8f7c30"><path d="M 81.476562 0 L 293.726562 0 L 293.726562 375 L 81.476562 375 Z M 81.476562 0 " clip-rule="nonzero"/></clipPath><clipPath id="50ad09410e"><path d="M 81.476562 0 L 293.726562 0 L 293.726562 375 L 81.476562 375 Z M 81.476562 0 " clip-rule="nonzero"/></clipPath></defs><g clip-path="url(#2bec8f7c30)"><path fill="#d2d2d1" d="M 281.242188 50.285156 L 281.242188 25.339844 L 268.753906 25.339844 L 268.753906 12.875 L 256.269531 12.875 L 256.269531 0.398438 L 193.839844 0.398438 L 193.839844 12.875 L 181.355469 12.875 L 181.355469 0.398438 L 118.933594 0.398438 L 118.933594 12.875 L 106.449219 12.875 L 106.449219 25.339844 L 93.964844 25.339844 L 93.964844 37.8125 L 81.476562 37.8125 L 81.476562 125.125 L 93.964844 125.125 L 93.964844 150.066406 L 106.449219 150.066406 L 106.449219 175.011719 L 118.933594 175.011719 L 118.933594 187.484375 L 143.90625 187.484375 L 143.90625 199.957031 L 156.382812 199.957031 L 156.382812 212.429688 L 168.871094 212.429688 L 168.871094 224.90625 L 156.382812 224.90625 L 156.382812 249.851562 L 143.90625 249.851562 L 143.90625 299.738281 L 156.382812 299.738281 L 156.382812 337.15625 L 168.871094 337.15625 L 168.871094 374.578125 L 206.328125 374.578125 L 206.328125 349.628906 L 218.8125 349.628906 L 218.8125 312.210938 L 231.296875 312.210938 L 231.296875 224.90625 L 218.8125 224.90625 L 218.8125 199.957031 L 243.785156 199.957031 L 243.785156 187.484375 L 256.269531 187.484375 L 256.269531 162.539062 L 268.753906 162.539062 L 268.753906 150.066406 L 281.242188 150.066406 L 281.242188 112.652344 L 293.71875 112.652344 L 293.71875 50.285156 Z M 231.296875 112.652344 L 231.296875 137.597656 L 218.8125 137.597656 L 218.8125 62.757812 L 231.296875 62.757812 L 231.296875 75.230469 L 243.785156 75.230469 L 243.785156 112.652344 Z M 156.382812 137.597656 L 143.90625 137.597656 L 143.90625 112.652344 L 131.421875 112.652344 L 131.421875 50.285156 L 156.382812 50.285156 L 156.382812 62.757812 L 168.871094 62.757812 L 168.871094 137.597656 Z M 156.382812 137.597656 " fill-opacity="1" fill-rule="nonzero"/></g><path fill="#d2d2d1" d="M 256.269531 137.597656 L 256.269531 125.125 L 268.753906 125.125 L 268.753906 100.179688 L 281.242188 100.179688 L 281.242188 62.757812 L 268.753906 62.757812 L 268.753906 50.285156 L 256.269531 50.285156 L 256.269531 12.875 L 206.328125 12.875 L 206.328125 25.339844 L 193.839844 25.339844 L 193.839844 75.230469 L 181.355469 75.230469 L 181.355469 150.066406 L 168.871094 150.066406 L 168.871094 199.957031 L 181.355469 199.957031 L 181.355469 212.429688 L 206.328125 212.429688 L 206.328125 187.484375 L 181.355469 187.484375 L 181.355469 162.539062 L 206.328125 162.539062 L 206.328125 187.484375 L 231.296875 187.484375 L 231.296875 175.011719 L 243.785156 175.011719 L 243.785156 162.539062 L 256.269531 162.539062 Z M 206.328125 137.597656 L 206.328125 50.285156 L 218.8125 50.285156 L 218.8125 37.8125 L 243.785156 37.8125 L 243.785156 62.757812 L 256.269531 62.757812 L 256.269531 112.652344 L 243.785156 112.652344 L 243.785156 137.597656 L 231.296875 137.597656 L 231.296875 150.066406 L 206.328125 150.066406 Z M 156.382812 187.484375 L 143.90625 187.484375 L 143.90625 175.011719 L 131.421875 175.011719 L 131.421875 162.539062 L 118.933594 162.539062 L 118.933594 150.066406 L 106.449219 150.066406 L 106.449219 125.125 L 93.964844 125.125 L 93.964844 50.285156 L 106.449219 50.285156 L 106.449219 25.339844 L 118.933594 25.339844 L 118.933594 12.875 L 181.355469 12.875 L 181.355469 62.757812 L 168.871094 62.757812 L 168.871094 50.285156 L 156.382812 50.285156 L 156.382812 37.8125 L 131.421875 37.8125 L 131.421875 50.285156 L 118.933594 50.285156 L 118.933594 125.125 L 131.421875 125.125 L 131.421875 150.066406 L 156.382812 150.066406 Z M 156.382812 187.484375 " fill-opacity="1" fill-rule="nonzero"/><path fill="#f7f7f0" d="M 206.328125 224.90625 L 206.328125 237.378906 L 218.8125 237.378906 L 218.8125 299.738281 L 206.328125 299.738281 L 206.328125 337.15625 L 193.839844 337.15625 L 193.839844 224.90625 Z M 181.355469 349.628906 L 181.355469 362.105469 L 193.839844 362.105469 L 193.839844 337.15625 L 181.355469 337.15625 Z M 168.871094 249.851562 L 168.871094 262.324219 L 156.382812 262.324219 L 156.382812 287.261719 L 168.871094 287.261719 L 168.871094 324.683594 L 181.355469 324.683594 L 181.355469 224.90625 L 168.871094 224.90625 Z M 168.871094 249.851562 " fill-opacity="1" fill-rule="nonzero"/><g clip-path="url(#50ad09410e)"><path fill="#000000" d="M 293.71875 50.285156 L 293.71875 112.652344 L 281.242188 112.652344 L 281.242188 150.066406 L 268.753906 150.066406 L 268.753906 162.539062 L 256.269531 162.539062 L 256.269531 125.125 L 268.753906 125.125 L 268.753906 100.179688 L 281.242188 100.179688 L 281.242188 62.757812 L 268.753906 62.757812 L 268.753906 50.285156 L 256.269531 50.285156 L 256.269531 12.875 L 268.753906 12.875 L 268.753906 25.339844 L 281.242188 25.339844 L 281.242188 50.285156 Z M 243.785156 162.539062 L 256.269531 162.539062 L 256.269531 187.484375 L 243.785156 187.484375 L 243.785156 199.957031 L 218.8125 199.957031 L 218.8125 224.90625 L 231.296875 224.90625 L 231.296875 312.210938 L 218.8125 312.210938 L 218.8125 349.628906 L 206.328125 349.628906 L 206.328125 374.578125 L 168.871094 374.578125 L 168.871094 337.15625 L 156.382812 337.15625 L 156.382812 299.738281 L 143.90625 299.738281 L 143.90625 249.851562 L 156.382812 249.851562 L 156.382812 224.90625 L 168.871094 224.90625 L 168.871094 262.324219 L 156.382812 262.324219 L 156.382812 287.261719 L 168.871094 287.261719 L 168.871094 324.683594 L 181.355469 324.683594 L 181.355469 224.90625 L 168.871094 224.90625 L 168.871094 212.429688 L 156.382812 212.429688 L 156.382812 199.957031 L 143.90625 199.957031 L 143.90625 187.484375 L 156.382812 187.484375 L 156.382812 150.066406 L 131.421875 150.066406 L 131.421875 125.125 L 118.933594 125.125 L 118.933594 50.285156 L 131.421875 50.285156 L 131.421875 112.652344 L 143.90625 112.652344 L 143.90625 137.597656 L 168.871094 137.597656 L 168.871094 62.757812 L 181.355469 62.757812 L 181.355469 12.875 L 193.839844 12.875 L 193.839844 0.398438 L 256.269531 0.398438 L 256.269531 12.875 L 206.328125 12.875 L 206.328125 25.339844 L 193.839844 25.339844 L 193.839844 75.230469 L 181.355469 75.230469 L 181.355469 150.066406 L 168.871094 150.066406 L 168.871094 199.957031 L 181.355469 199.957031 L 181.355469 212.429688 L 206.328125 212.429688 L 206.328125 187.484375 L 231.296875 187.484375 L 231.296875 175.011719 L 243.785156 175.011719 Z M 206.328125 237.378906 L 206.328125 224.90625 L 193.839844 224.90625 L 193.839844 337.15625 L 181.355469 337.15625 L 181.355469 362.105469 L 193.839844 362.105469 L 193.839844 337.15625 L 206.328125 337.15625 L 206.328125 299.738281 L 218.8125 299.738281 L 218.8125 237.378906 Z M 231.296875 125.125 L 231.296875 137.597656 L 243.785156 137.597656 L 243.785156 112.652344 L 231.296875 112.652344 Z M 231.296875 150.066406 L 231.296875 137.597656 L 218.8125 137.597656 L 218.8125 62.757812 L 231.296875 62.757812 L 231.296875 75.230469 L 243.785156 75.230469 L 243.785156 112.652344 L 256.269531 112.652344 L 256.269531 62.757812 L 243.785156 62.757812 L 243.785156 37.8125 L 218.8125 37.8125 L 218.8125 50.285156 L 206.328125 50.285156 L 206.328125 150.066406 Z M 206.328125 162.539062 L 181.355469 162.539062 L 181.355469 187.484375 L 206.328125 187.484375 Z M 156.382812 50.285156 L 156.382812 62.757812 L 168.871094 62.757812 L 168.871094 50.285156 Z M 156.382812 50.285156 L 156.382812 37.8125 L 131.421875 37.8125 L 131.421875 50.285156 Z M 131.421875 175.011719 L 131.421875 162.539062 L 118.933594 162.539062 L 118.933594 150.066406 L 106.449219 150.066406 L 106.449219 175.011719 L 118.933594 175.011719 L 118.933594 187.484375 L 143.90625 187.484375 L 143.90625 175.011719 Z M 143.90625 12.875 L 181.355469 12.875 L 181.355469 0.398438 L 118.933594 0.398438 L 118.933594 12.875 Z M 118.933594 12.875 L 106.449219 12.875 L 106.449219 25.339844 L 118.933594 25.339844 Z M 106.449219 125.125 L 93.964844 125.125 L 93.964844 150.066406 L 106.449219 150.066406 Z M 93.964844 100.179688 L 93.964844 50.285156 L 106.449219 50.285156 L 106.449219 25.339844 L 93.964844 25.339844 L 93.964844 37.8125 L 81.476562 37.8125 L 81.476562 125.125 L 93.964844 125.125 Z M 93.964844 100.179688 " fill-opacity="1" fill-rule="nonzero"/></g></svg>