<svg xmlns="http://www.w3.org/2000/svg" xmlns:xlink="http://www.w3.org/1999/xlink" width="500" zoomAndPan="magnify" viewBox="0 0 375 374.999991" height="500" preserveAspectRatio="xMidYMid meet" version="1.0"><defs><clipPath id="c82154b235"><path d="M 226 104.449219 L 244 104.449219 L 244 123 L 226 123 Z M 226 104.449219 " clip-rule="nonzero"/></clipPath><clipPath id="964c8f9cf9"><path d="M 208 104.449219 L 227 104.449219 L 227 123 L 208 123 Z M 208 104.449219 " clip-rule="nonzero"/></clipPath><clipPath id="81a173681c"><path d="M 191 104.449219 L 209 104.449219 L 209 123 L 191 123 Z M 191 104.449219 " clip-rule="nonzero"/></clipPath><clipPath id="39c7867d0a"><path d="M 173 104.449219 L 192 104.449219 L 192 123 L 173 123 Z M 173 104.449219 " clip-rule="nonzero"/></clipPath></defs><path fill="#59c8dc" d="M 278.3125 174.621094 L 278.3125 192.042969 L 260.898438 192.042969 L 260.898438 174.621094 L 278.3125 174.621094 " fill-opacity="1" fill-rule="nonzero"/><path fill="#59c8dc" d="M 278.3125 157.199219 L 278.3125 174.621094 L 260.898438 174.621094 L 260.898438 157.199219 L 278.3125 157.199219 " fill-opacity="1" fill-rule="nonzero"/><path fill="#59c8dc" d="M 260.898438 174.621094 L 260.898438 192.042969 L 243.484375 192.042969 L 243.484375 174.621094 L 260.898438 174.621094 " fill-opacity="1" fill-rule="nonzero"/><path fill="#59c8dc" d="M 260.898438 157.199219 L 260.898438 174.621094 L 243.484375 174.621094 L 243.484375 157.199219 L 260.898438 157.199219 " fill-opacity="1" fill-rule="nonzero"/><path fill="#b2e6fa" d="M 260.898438 139.792969 L 260.898438 157.199219 L 243.484375 157.199219 L 243.484375 139.792969 L 260.898438 139.792969 " fill-opacity="1" fill-rule="nonzero"/><path fill="#b2e6fa" d="M 260.898438 122.371094 L 260.898438 139.792969 L 243.484375 139.792969 L 243.484375 122.371094 L 260.898438 122.371094 " fill-opacity="1" fill-rule="nonzero"/><path fill="#59c8dc" d="M 243.484375 174.621094 L 243.484375 192.042969 L 226.070312 192.042969 L 226.070312 174.621094 L 243.484375 174.621094 " fill-opacity="1" fill-rule="nonzero"/><path fill="#59c8dc" d="M 243.484375 157.199219 L 243.484375 174.621094 L 226.070312 174.621094 L 226.070312 157.199219 L 243.484375 157.199219 " fill-opacity="1" fill-rule="nonzero"/><path fill="#b2e6fa" d="M 243.484375 139.792969 L 243.484375 157.199219 L 226.070312 157.199219 L 226.070312 139.792969 L 243.484375 139.792969 " fill-opacity="1" fill-rule="nonzero"/><path fill="#ffffff" d="M 243.484375 122.371094 L 243.484375 139.792969 L 226.070312 139.792969 L 226.070312 122.371094 L 243.484375 122.371094 " fill-opacity="1" fill-rule="nonzero"/><g clip-path="url(#c82154b235)"><path fill="#ffffff" d="M 243.484375 104.949219 L 243.484375 122.371094 L 226.070312 122.371094 L 226.070312 104.949219 L 243.484375 104.949219 " fill-opacity="1" fill-rule="nonzero"/></g><path fill="#59c8dc" d="M 226.070312 174.621094 L 226.070312 192.042969 L 208.65625 192.042969 L 208.65625 174.621094 L 226.070312 174.621094 " fill-opacity="1" fill-rule="nonzero"/><path fill="#b2e6fa" d="M 226.070312 157.199219 L 226.070312 174.621094 L 208.65625 174.621094 L 208.65625 157.199219 L 226.070312 157.199219 " fill-opacity="1" fill-rule="nonzero"/><path fill="#b2e6fa" d="M 226.070312 139.792969 L 226.070312 157.199219 L 208.65625 157.199219 L 208.65625 139.792969 L 226.070312 139.792969 " fill-opacity="1" fill-rule="nonzero"/><path fill="#ffffff" d="M 226.070312 122.371094 L 226.070312 139.792969 L 208.65625 139.792969 L 208.65625 122.371094 L 226.070312 122.371094 " fill-opacity="1" fill-rule="nonzero"/><g clip-path="url(#964c8f9cf9)"><path fill="#ffffff" d="M 226.070312 104.949219 L 226.070312 122.371094 L 208.65625 122.371094 L 208.65625 104.949219 L 226.070312 104.949219 " fill-opacity="1" fill-rule="nonzero"/></g><path fill="#59c8dc" d="M 208.65625 174.621094 L 208.65625 192.042969 L 191.253906 192.042969 L 191.253906 174.621094 L 208.65625 174.621094 " fill-opacity="1" fill-rule="nonzero"/><path fill="#b2e6fa" d="M 208.65625 157.199219 L 208.65625 174.621094 L 191.253906 174.621094 L 191.253906 157.199219 L 208.65625 157.199219 " fill-opacity="1" fill-rule="nonzero"/><path fill="#b2e6fa" d="M 208.65625 139.792969 L 208.65625 157.199219 L 191.253906 157.199219 L 191.253906 139.792969 L 208.65625 139.792969 " fill-opacity="1" fill-rule="nonzero"/><path fill="#ffffff" d="M 208.65625 122.371094 L 208.65625 139.792969 L 191.253906 139.792969 L 191.253906 122.371094 L 208.65625 122.371094 " fill-opacity="1" fill-rule="nonzero"/><g clip-path="url(#81a173681c)"><path fill="#ffffff" d="M 208.65625 104.949219 L 208.65625 122.371094 L 191.253906 122.371094 L 191.253906 104.949219 L 208.65625 104.949219 " fill-opacity="1" fill-rule="nonzero"/></g><path fill="#59c8dc" d="M 191.253906 174.621094 L 191.253906 192.042969 L 173.839844 192.042969 L 173.839844 174.621094 L 191.253906 174.621094 " fill-opacity="1" fill-rule="nonzero"/><path fill="#b2e6fa" d="M 191.253906 157.199219 L 191.253906 174.621094 L 173.839844 174.621094 L 173.839844 157.199219 L 191.253906 157.199219 " fill-opacity="1" fill-rule="nonzero"/><path fill="#b2e6fa" d="M 191.253906 139.792969 L 191.253906 157.199219 L 173.839844 157.199219 L 173.839844 139.792969 L 191.253906 139.792969 " fill-opacity="1" fill-rule="nonzero"/><path fill="#ffffff" d="M 191.253906 122.371094 L 191.253906 139.792969 L 173.839844 139.792969 L 173.839844 122.371094 L 191.253906 122.371094 " fill-opacity="1" fill-rule="nonzero"/><g clip-path="url(#39c7867d0a)"><path fill="#ffffff" d="M 191.253906 104.949219 L 191.253906 122.371094 L 173.839844 122.371094 L 173.839844 104.949219 L 191.253906 104.949219 " fill-opacity="1" fill-rule="nonzero"/></g><path fill="#59c8dc" d="M 173.839844 174.621094 L 173.839844 192.042969 L 156.425781 192.042969 L 156.425781 174.621094 L 173.839844 174.621094 " fill-opacity="1" fill-rule="nonzero"/><path fill="#b2e6fa" d="M 173.839844 157.199219 L 173.839844 174.621094 L 156.425781 174.621094 L 156.425781 157.199219 L 173.839844 157.199219 " fill-opacity="1" fill-rule="nonzero"/><path fill="#b2e6fa" d="M 173.839844 139.792969 L 173.839844 157.199219 L 156.425781 157.199219 L 156.425781 139.792969 L 173.839844 139.792969 " fill-opacity="1" fill-rule="nonzero"/><path fill="#ffffff" d="M 173.839844 122.371094 L 173.839844 139.792969 L 156.425781 139.792969 L 156.425781 122.371094 L 173.839844 122.371094 " fill-opacity="1" fill-rule="nonzero"/><path fill="#59c8dc" d="M 156.425781 174.621094 L 156.425781 192.042969 L 139.011719 192.042969 L 139.011719 174.621094 L 156.425781 174.621094 " fill-opacity="1" fill-rule="nonzero"/><path fill="#b2e6fa" d="M 156.425781 157.199219 L 156.425781 174.621094 L 139.011719 174.621094 L 139.011719 157.199219 L 156.425781 157.199219 " fill-opacity="1" fill-rule="nonzero"/><path fill="#b2e6fa" d="M 156.425781 139.792969 L 156.425781 157.199219 L 139.011719 157.199219 L 139.011719 139.792969 L 156.425781 139.792969 " fill-opacity="1" fill-rule="nonzero"/><path fill="#ffffff" d="M 156.425781 122.371094 L 156.425781 139.792969 L 139.011719 139.792969 L 139.011719 122.371094 L 156.425781 122.371094 " fill-opacity="1" fill-rule="nonzero"/><path fill="#59c8dc" d="M 139.011719 174.621094 L 139.011719 192.042969 L 121.609375 192.042969 L 121.609375 174.621094 L 139.011719 174.621094 " fill-opacity="1" fill-rule="nonzero"/><path fill="#b2e6fa" d="M 139.011719 157.199219 L 139.011719 174.621094 L 121.609375 174.621094 L 121.609375 157.199219 L 139.011719 157.199219 " fill-opacity="1" fill-rule="nonzero"/><path fill="#b2e6fa" d="M 139.011719 139.792969 L 139.011719 157.199219 L 121.609375 157.199219 L 121.609375 139.792969 L 139.011719 139.792969 " fill-opacity="1" fill-rule="nonzero"/><path fill="#59c8dc" d="M 121.609375 174.621094 L 121.609375 192.042969 L 104.195312 192.042969 L 104.195312 174.621094 L 121.609375 174.621094 " fill-opacity="1" fill-rule="nonzero"/><path fill="#b2e6fa" d="M 121.609375 157.199219 L 121.609375 174.621094 L 104.195312 174.621094 L 104.195312 157.199219 L 121.609375 157.199219 " fill-opacity="1" fill-rule="nonzero"/><path fill="#ffffff" d="M 121.609375 139.792969 L 121.609375 157.199219 L 104.195312 157.199219 L 104.195312 139.792969 L 121.609375 139.792969 " fill-opacity="1" fill-rule="nonzero"/><path fill="#59c8dc" d="M 104.195312 174.621094 L 104.195312 192.042969 L 86.683594 192.042969 L 86.683594 174.621094 L 104.195312 174.621094 " fill-opacity="1" fill-rule="nonzero"/><path fill="#b2e6fa" d="M 104.195312 157.199219 L 104.195312 174.621094 L 86.683594 174.621094 L 86.683594 157.199219 L 104.195312 157.199219 " fill-opacity="1" fill-rule="nonzero"/><path fill="#ffffff" d="M 104.195312 139.792969 L 104.195312 157.199219 L 86.683594 157.199219 L 86.683594 139.792969 L 104.195312 139.792969 " fill-opacity="1" fill-rule="nonzero"/><path fill="#59c8dc" d="M 86.683594 174.621094 L 86.683594 192.042969 L 69.292969 192.042969 L 69.292969 174.621094 L 86.683594 174.621094 " fill-opacity="1" fill-rule="nonzero"/><path fill="#b2e6fa" d="M 86.683594 157.199219 L 86.683594 174.621094 L 69.292969 174.621094 L 69.292969 157.199219 L 86.683594 157.199219 " fill-opacity="1" fill-rule="nonzero"/><path fill="#ffffff" d="M 86.683594 139.792969 L 86.683594 157.199219 L 69.292969 157.199219 L 69.292969 139.792969 L 86.683594 139.792969 " fill-opacity="1" fill-rule="nonzero"/><path fill="#b2e6fa" d="M 69.292969 157.199219 L 69.292969 174.621094 L 51.875 174.621094 L 51.875 157.199219 L 69.292969 157.199219 " fill-opacity="1" fill-rule="nonzero"/><path fill="#ffffff" d="M 69.292969 139.792969 L 69.292969 157.199219 L 51.875 157.199219 L 51.875 139.792969 L 69.292969 139.792969 " fill-opacity="1" fill-rule="nonzero"/><path fill="#b2e6fa" d="M 51.875 157.199219 L 51.875 174.621094 L 34.460938 174.621094 L 34.460938 157.199219 L 51.875 157.199219 " fill-opacity="1" fill-rule="nonzero"/><path fill="#ffffff" d="M 51.875 139.792969 L 51.875 157.199219 L 34.460938 157.199219 L 34.460938 139.792969 L 51.875 139.792969 " fill-opacity="1" fill-rule="nonzero"/></svg>