<svg xmlns="http://www.w3.org/2000/svg" xmlns:xlink="http://www.w3.org/1999/xlink" width="500" zoomAndPan="magnify" viewBox="0 0 375 374.999991" height="500" preserveAspectRatio="xMidYMid meet" version="1.0"><defs><clipPath id="8b47d472e3"><path d="M 0 100.566406 L 375 100.566406 L 375 274.566406 L 0 274.566406 Z M 0 100.566406 " clip-rule="nonzero"/></clipPath><clipPath id="0f223ca63e"><path d="M 281 221 L 362 221 L 362 274.566406 L 281 274.566406 Z M 281 221 " clip-rule="nonzero"/></clipPath><clipPath id="d6375f9af1"><path d="M 13 154 L 241 154 L 241 274.566406 L 13 274.566406 Z M 13 154 " clip-rule="nonzero"/></clipPath><clipPath id="dc8d35e7d7"><path d="M 120 100.566406 L 255 100.566406 L 255 168 L 120 168 Z M 120 100.566406 " clip-rule="nonzero"/></clipPath><clipPath id="66b1236454"><path d="M 0 247 L 28 247 L 28 274.566406 L 0 274.566406 Z M 0 247 " clip-rule="nonzero"/></clipPath><clipPath id="9b8e255fe3"><path d="M 294 261 L 308 261 L 308 274.566406 L 294 274.566406 Z M 294 261 " clip-rule="nonzero"/></clipPath><clipPath id="2e63d8b0f5"><path d="M 160 100.566406 L 188 100.566406 L 188 114 L 160 114 Z M 160 100.566406 " clip-rule="nonzero"/></clipPath><clipPath id="ad46fe92c7"><path d="M 40 261 L 54 261 L 54 274.566406 L 40 274.566406 Z M 40 261 " clip-rule="nonzero"/></clipPath><clipPath id="ec7fa06ad9"><path d="M 147 261 L 161 261 L 161 274.566406 L 147 274.566406 Z M 147 261 " clip-rule="nonzero"/></clipPath><clipPath id="179e84d047"><path d="M 107 261 L 121 261 L 121 274.566406 L 107 274.566406 Z M 107 261 " clip-rule="nonzero"/></clipPath><clipPath id="0e2980d59d"><path d="M 80 261 L 94 261 L 94 274.566406 L 80 274.566406 Z M 80 261 " clip-rule="nonzero"/></clipPath><clipPath id="0ec537d6d5"><path d="M 200 247 L 228 247 L 228 274.566406 L 200 274.566406 Z M 200 247 " clip-rule="nonzero"/></clipPath><clipPath id="48725d1145"><path d="M 347 261 L 362 261 L 362 274.566406 L 347 274.566406 Z M 347 261 " clip-rule="nonzero"/></clipPath><clipPath id="63114eb7fe"><path d="M 200 100.566406 L 215 100.566406 L 215 114 L 200 114 Z M 200 100.566406 " clip-rule="nonzero"/></clipPath><clipPath id="29a0aa6518"><path d="M 240 261 L 282 261 L 282 274.566406 L 240 274.566406 Z M 240 261 " clip-rule="nonzero"/></clipPath></defs><g clip-path="url(#8b47d472e3)"><path fill="#6a7e6f" d="M 361.359375 247.800781 L 361.359375 221.03125 L 334.613281 221.03125 L 334.613281 207.644531 L 307.863281 207.644531 L 307.863281 194.261719 L 294.492188 194.261719 L 294.492188 167.492188 L 281.117188 167.492188 L 281.117188 154.105469 L 267.742188 154.105469 L 267.742188 140.722656 L 254.367188 140.722656 L 254.367188 127.335938 L 240.996094 127.335938 L 240.996094 113.953125 L 214.246094 113.953125 L 214.246094 100.566406 L 160.753906 100.566406 L 160.753906 113.953125 L 134.003906 113.953125 L 134.003906 127.335938 L 120.632812 127.335938 L 120.632812 140.722656 L 107.257812 140.722656 L 107.257812 154.105469 L 93.882812 154.105469 L 93.882812 167.492188 L 80.507812 167.492188 L 80.507812 180.875 L 67.136719 180.875 L 67.136719 194.261719 L 40.65625 194.261719 L 40.65625 207.644531 L 27.28125 207.644531 L 27.28125 221.03125 L 13.90625 221.03125 L 13.90625 247.800781 L 0.265625 247.800781 L 0.265625 274.566406 L 374.734375 274.566406 L 374.734375 247.800781 Z M 361.359375 247.800781 " fill-opacity="1" fill-rule="nonzero"/></g><g clip-path="url(#0f223ca63e)"><path fill="#556458" d="M 361.359375 247.800781 L 361.359375 234.414062 L 347.984375 234.414062 L 347.984375 221.03125 L 334.613281 221.03125 L 334.613281 234.414062 L 321.238281 234.414062 L 321.238281 247.800781 L 294.492188 247.800781 L 294.492188 261.183594 L 281.117188 261.183594 L 281.117188 274.566406 L 361.359375 274.566406 L 361.359375 261.183594 L 347.984375 261.183594 L 347.984375 247.800781 Z M 361.359375 247.800781 " fill-opacity="1" fill-rule="nonzero"/></g><g clip-path="url(#d6375f9af1)"><path fill="#556458" d="M 214.246094 207.644531 L 214.246094 221.03125 L 200.875 221.03125 L 200.875 234.414062 L 174.125 234.414062 L 174.125 221.03125 L 160.753906 221.03125 L 160.753906 207.644531 L 147.378906 207.644531 L 147.378906 194.261719 L 134.003906 194.261719 L 134.003906 180.875 L 120.632812 180.875 L 120.632812 167.492188 L 107.257812 167.492188 L 107.257812 154.105469 L 93.882812 154.105469 L 93.882812 167.492188 L 80.507812 167.492188 L 80.507812 180.875 L 93.882812 180.875 L 93.882812 194.261719 L 107.257812 194.261719 L 107.257812 207.644531 L 120.632812 207.644531 L 120.632812 234.414062 L 107.257812 234.414062 L 107.257812 247.800781 L 67.136719 247.800781 L 67.136719 234.414062 L 53.761719 234.414062 L 53.761719 221.03125 L 40.386719 221.03125 L 40.386719 207.644531 L 27.015625 207.644531 L 27.015625 221.03125 L 13.640625 221.03125 L 13.640625 247.800781 L 27.015625 247.800781 L 27.015625 274.566406 L 160.753906 274.566406 L 160.753906 261.183594 L 147.378906 261.183594 L 147.378906 234.414062 L 134.003906 234.414062 L 134.003906 221.03125 L 147.378906 221.03125 L 147.378906 234.414062 L 160.753906 234.414062 L 160.753906 247.800781 L 200.875 247.800781 L 200.875 274.566406 L 227.621094 274.566406 L 227.621094 247.800781 L 214.246094 247.800781 L 214.246094 234.414062 L 227.621094 234.414062 L 227.621094 221.03125 L 240.996094 221.03125 L 240.996094 194.261719 L 214.246094 194.261719 Z M 214.246094 207.644531 " fill-opacity="1" fill-rule="nonzero"/></g><path fill="#556458" d="M 240.996094 180.875 L 254.367188 180.875 L 254.367188 194.261719 L 240.996094 194.261719 Z M 240.996094 180.875 " fill-opacity="1" fill-rule="nonzero"/><path fill="#556458" d="M 254.367188 194.261719 L 267.742188 194.261719 L 267.742188 207.644531 L 254.367188 207.644531 Z M 254.367188 194.261719 " fill-opacity="1" fill-rule="nonzero"/><path fill="#556458" d="M 254.367188 167.492188 L 267.742188 167.492188 L 267.742188 180.875 L 254.367188 180.875 Z M 254.367188 167.492188 " fill-opacity="1" fill-rule="nonzero"/><path fill="#556458" d="M 80.507812 194.261719 L 93.882812 194.261719 L 93.882812 207.644531 L 80.507812 207.644531 Z M 80.507812 194.261719 " fill-opacity="1" fill-rule="nonzero"/><path fill="#556458" d="M 67.136719 221.03125 L 80.507812 221.03125 L 80.507812 234.414062 L 67.136719 234.414062 Z M 67.136719 221.03125 " fill-opacity="1" fill-rule="nonzero"/><path fill="#768b7b" d="M 134.003906 167.492188 L 147.378906 167.492188 L 147.378906 180.875 L 134.003906 180.875 Z M 134.003906 167.492188 " fill-opacity="1" fill-rule="nonzero"/><path fill="#768b7b" d="M 147.378906 180.875 L 160.753906 180.875 L 160.753906 194.261719 L 147.378906 194.261719 Z M 147.378906 180.875 " fill-opacity="1" fill-rule="nonzero"/><g clip-path="url(#dc8d35e7d7)"><path fill="#768b7b" d="M 240.996094 140.722656 L 240.996094 127.335938 L 227.621094 127.335938 L 227.621094 113.953125 L 200.875 113.953125 L 200.875 100.566406 L 160.753906 100.566406 L 160.753906 113.953125 L 134.003906 113.953125 L 134.003906 127.335938 L 120.632812 127.335938 L 120.632812 140.722656 L 134.003906 140.722656 L 134.003906 154.105469 L 147.378906 154.105469 L 147.378906 167.492188 L 214.246094 167.492188 L 214.246094 154.105469 L 254.367188 154.105469 L 254.367188 140.722656 Z M 240.996094 140.722656 " fill-opacity="1" fill-rule="nonzero"/></g><path fill="#768b7b" d="M 307.863281 221.03125 L 307.863281 207.644531 L 294.492188 207.644531 L 294.492188 194.261719 L 281.117188 194.261719 L 281.117188 154.105469 L 254.367188 154.105469 L 254.367188 167.492188 L 267.742188 167.492188 L 267.742188 180.875 L 254.367188 180.875 L 254.367188 194.261719 L 267.742188 194.261719 L 267.742188 207.644531 L 254.367188 207.644531 L 254.367188 194.261719 L 240.996094 194.261719 L 240.996094 221.03125 L 227.621094 221.03125 L 227.621094 234.414062 L 214.246094 234.414062 L 214.246094 247.800781 L 240.996094 247.800781 L 240.996094 261.183594 L 281.117188 261.183594 L 281.117188 247.800781 L 294.492188 247.800781 L 294.492188 234.414062 L 321.238281 234.414062 L 321.238281 221.03125 Z M 307.863281 221.03125 " fill-opacity="1" fill-rule="nonzero"/><path fill="#768b7b" d="M 120.632812 154.105469 L 134.003906 154.105469 L 134.003906 167.492188 L 120.632812 167.492188 Z M 120.632812 154.105469 " fill-opacity="1" fill-rule="nonzero"/><path fill="#768b7b" d="M 160.753906 194.261719 L 174.125 194.261719 L 174.125 207.644531 L 160.753906 207.644531 Z M 160.753906 194.261719 " fill-opacity="1" fill-rule="nonzero"/><path fill="#768b7b" d="M 200.875 194.261719 L 214.246094 194.261719 L 214.246094 207.644531 L 200.875 207.644531 Z M 200.875 194.261719 " fill-opacity="1" fill-rule="nonzero"/><path fill="#768b7b" d="M 214.246094 180.875 L 227.621094 180.875 L 227.621094 194.261719 L 214.246094 194.261719 Z M 214.246094 180.875 " fill-opacity="1" fill-rule="nonzero"/><path fill="#768b7b" d="M 227.621094 167.492188 L 240.996094 167.492188 L 240.996094 180.875 L 227.621094 180.875 Z M 227.621094 167.492188 " fill-opacity="1" fill-rule="nonzero"/><path fill="#768b7b" d="M 174.125 207.644531 L 200.875 207.644531 L 200.875 221.03125 L 174.125 221.03125 Z M 174.125 207.644531 " fill-opacity="1" fill-rule="nonzero"/><path fill="#768b7b" d="M 107.257812 194.261719 L 93.882812 194.261719 L 93.882812 180.875 L 67.136719 180.875 L 67.136719 194.261719 L 53.761719 194.261719 L 53.761719 221.03125 L 67.136719 221.03125 L 67.136719 234.414062 L 107.257812 234.414062 L 107.257812 221.03125 L 120.632812 221.03125 L 120.632812 207.644531 L 107.257812 207.644531 Z M 107.257812 194.261719 " fill-opacity="1" fill-rule="nonzero"/><g clip-path="url(#66b1236454)"><path fill="#2e1b5b" d="M 0.265625 261.183594 L 0.265625 274.566406 L 27.015625 274.566406 L 27.015625 261.183594 L 13.640625 261.183594 L 13.640625 247.800781 L 0.265625 247.800781 Z M 0.265625 261.183594 " fill-opacity="1" fill-rule="nonzero"/></g><path fill="#2e1b5b" d="M 13.640625 221.03125 L 27.015625 221.03125 L 27.015625 247.800781 L 13.640625 247.800781 Z M 13.640625 221.03125 " fill-opacity="1" fill-rule="nonzero"/><path fill="#2e1b5b" d="M 120.632812 221.03125 L 134.003906 221.03125 L 134.003906 247.800781 L 120.632812 247.800781 Z M 120.632812 221.03125 " fill-opacity="1" fill-rule="nonzero"/><path fill="#2e1b5b" d="M 27.015625 207.644531 L 40.386719 207.644531 L 40.386719 221.03125 L 27.015625 221.03125 Z M 27.015625 207.644531 " fill-opacity="1" fill-rule="nonzero"/><path fill="#2e1b5b" d="M 134.003906 207.644531 L 147.378906 207.644531 L 147.378906 221.03125 L 134.003906 221.03125 Z M 134.003906 207.644531 " fill-opacity="1" fill-rule="nonzero"/><path fill="#2e1b5b" d="M 147.378906 221.03125 L 160.753906 221.03125 L 160.753906 234.414062 L 147.378906 234.414062 Z M 147.378906 221.03125 " fill-opacity="1" fill-rule="nonzero"/><path fill="#2e1b5b" d="M 160.753906 234.414062 L 174.125 234.414062 L 174.125 247.800781 L 160.753906 247.800781 Z M 160.753906 234.414062 " fill-opacity="1" fill-rule="nonzero"/><path fill="#2e1b5b" d="M 214.246094 221.03125 L 227.621094 221.03125 L 227.621094 234.414062 L 214.246094 234.414062 Z M 214.246094 221.03125 " fill-opacity="1" fill-rule="nonzero"/><path fill="#2e1b5b" d="M 227.621094 207.644531 L 240.996094 207.644531 L 240.996094 221.03125 L 227.621094 221.03125 Z M 227.621094 207.644531 " fill-opacity="1" fill-rule="nonzero"/><path fill="#2e1b5b" d="M 120.632812 194.261719 L 134.003906 194.261719 L 134.003906 207.644531 L 120.632812 207.644531 Z M 120.632812 194.261719 " fill-opacity="1" fill-rule="nonzero"/><path fill="#2e1b5b" d="M 107.257812 180.875 L 120.632812 180.875 L 120.632812 194.261719 L 107.257812 194.261719 Z M 107.257812 180.875 " fill-opacity="1" fill-rule="nonzero"/><g clip-path="url(#9b8e255fe3)"><path fill="#2e1b5b" d="M 294.492188 261.183594 L 307.863281 261.183594 L 307.863281 274.566406 L 294.492188 274.566406 Z M 294.492188 261.183594 " fill-opacity="1" fill-rule="nonzero"/></g><path fill="#2e1b5b" d="M 321.238281 247.800781 L 334.613281 247.800781 L 334.613281 261.183594 L 321.238281 261.183594 Z M 321.238281 247.800781 " fill-opacity="1" fill-rule="nonzero"/><path fill="#2e1b5b" d="M 334.613281 234.414062 L 347.984375 234.414062 L 347.984375 247.800781 L 334.613281 247.800781 Z M 334.613281 234.414062 " fill-opacity="1" fill-rule="nonzero"/><path fill="#2e1b5b" d="M 40.386719 194.261719 L 67.136719 194.261719 L 67.136719 207.644531 L 40.386719 207.644531 Z M 40.386719 194.261719 " fill-opacity="1" fill-rule="nonzero"/><path fill="#2e1b5b" d="M 67.136719 180.875 L 80.507812 180.875 L 80.507812 194.261719 L 67.136719 194.261719 Z M 67.136719 180.875 " fill-opacity="1" fill-rule="nonzero"/><path fill="#2e1b5b" d="M 93.882812 167.492188 L 80.507812 167.492188 L 80.507812 180.875 L 107.257812 180.875 L 107.257812 154.105469 L 93.882812 154.105469 Z M 93.882812 167.492188 " fill-opacity="1" fill-rule="nonzero"/><path fill="#2e1b5b" d="M 107.257812 140.722656 L 120.632812 140.722656 L 120.632812 154.105469 L 107.257812 154.105469 Z M 107.257812 140.722656 " fill-opacity="1" fill-rule="nonzero"/><path fill="#2e1b5b" d="M 120.632812 127.335938 L 134.003906 127.335938 L 134.003906 140.722656 L 120.632812 140.722656 Z M 120.632812 127.335938 " fill-opacity="1" fill-rule="nonzero"/><path fill="#2e1b5b" d="M 134.003906 113.953125 L 160.753906 113.953125 L 160.753906 127.335938 L 134.003906 127.335938 Z M 134.003906 113.953125 " fill-opacity="1" fill-rule="nonzero"/><g clip-path="url(#2e63d8b0f5)"><path fill="#2e1b5b" d="M 160.753906 100.566406 L 187.5 100.566406 L 187.5 113.953125 L 160.753906 113.953125 Z M 160.753906 100.566406 " fill-opacity="1" fill-rule="nonzero"/></g><g clip-path="url(#ad46fe92c7)"><path fill="#2e1b5b" d="M 40.386719 261.183594 L 53.761719 261.183594 L 53.761719 274.566406 L 40.386719 274.566406 Z M 40.386719 261.183594 " fill-opacity="1" fill-rule="nonzero"/></g><path fill="#2e1b5b" d="M 134.003906 247.800781 L 147.378906 247.800781 L 147.378906 261.183594 L 134.003906 261.183594 Z M 134.003906 247.800781 " fill-opacity="1" fill-rule="nonzero"/><g clip-path="url(#ec7fa06ad9)"><path fill="#2e1b5b" d="M 147.378906 261.183594 L 160.753906 261.183594 L 160.753906 274.566406 L 147.378906 274.566406 Z M 147.378906 261.183594 " fill-opacity="1" fill-rule="nonzero"/></g><g clip-path="url(#179e84d047)"><path fill="#2e1b5b" d="M 107.257812 261.183594 L 120.632812 261.183594 L 120.632812 274.566406 L 107.257812 274.566406 Z M 107.257812 261.183594 " fill-opacity="1" fill-rule="nonzero"/></g><g clip-path="url(#0e2980d59d)"><path fill="#2e1b5b" d="M 80.507812 261.183594 L 93.882812 261.183594 L 93.882812 274.566406 L 80.507812 274.566406 Z M 80.507812 261.183594 " fill-opacity="1" fill-rule="nonzero"/></g><path fill="#2e1b5b" d="M 200.875 234.414062 L 214.246094 234.414062 L 214.246094 247.800781 L 200.875 247.800781 Z M 200.875 234.414062 " fill-opacity="1" fill-rule="nonzero"/><g clip-path="url(#0ec537d6d5)"><path fill="#2e1b5b" d="M 200.875 261.183594 L 200.875 274.566406 L 214.515625 274.566406 L 214.515625 261.183594 L 227.621094 261.183594 L 227.621094 247.800781 L 214.246094 247.800781 L 214.246094 261.183594 Z M 200.875 261.183594 " fill-opacity="1" fill-rule="nonzero"/></g><g clip-path="url(#48725d1145)"><path fill="#2e1b5b" d="M 347.984375 261.183594 L 361.359375 261.183594 L 361.359375 274.566406 L 347.984375 274.566406 Z M 347.984375 261.183594 " fill-opacity="1" fill-rule="nonzero"/></g><path fill="#97b19c" d="M 40.386719 207.644531 L 53.761719 207.644531 L 53.761719 221.03125 L 40.386719 221.03125 Z M 40.386719 207.644531 " fill-opacity="1" fill-rule="nonzero"/><path fill="#97b19c" d="M 53.761719 221.03125 L 67.136719 221.03125 L 67.136719 234.414062 L 53.761719 234.414062 Z M 53.761719 221.03125 " fill-opacity="1" fill-rule="nonzero"/><path fill="#97b19c" d="M 67.136719 234.414062 L 107.257812 234.414062 L 107.257812 247.800781 L 67.136719 247.800781 Z M 67.136719 234.414062 " fill-opacity="1" fill-rule="nonzero"/><path fill="#97b19c" d="M 107.257812 140.722656 L 134.003906 140.722656 L 134.003906 154.105469 L 107.257812 154.105469 Z M 107.257812 140.722656 " fill-opacity="1" fill-rule="nonzero"/><path fill="#97b19c" d="M 134.003906 154.105469 L 147.378906 154.105469 L 147.378906 167.492188 L 134.003906 167.492188 Z M 134.003906 154.105469 " fill-opacity="1" fill-rule="nonzero"/><path fill="#97b19c" d="M 147.378906 167.492188 L 160.753906 167.492188 L 160.753906 180.875 L 147.378906 180.875 Z M 147.378906 167.492188 " fill-opacity="1" fill-rule="nonzero"/><path fill="#97b19c" d="M 160.753906 180.875 L 174.125 180.875 L 174.125 194.261719 L 160.753906 194.261719 Z M 160.753906 180.875 " fill-opacity="1" fill-rule="nonzero"/><path fill="#97b19c" d="M 174.125 194.261719 L 200.875 194.261719 L 200.875 207.644531 L 174.125 207.644531 Z M 174.125 194.261719 " fill-opacity="1" fill-rule="nonzero"/><path fill="#97b19c" d="M 227.621094 113.953125 L 240.996094 113.953125 L 240.996094 127.335938 L 227.621094 127.335938 Z M 227.621094 113.953125 " fill-opacity="1" fill-rule="nonzero"/><path fill="#97b19c" d="M 240.996094 127.335938 L 254.367188 127.335938 L 254.367188 140.722656 L 240.996094 140.722656 Z M 240.996094 127.335938 " fill-opacity="1" fill-rule="nonzero"/><path fill="#97b19c" d="M 200.875 180.875 L 214.246094 180.875 L 214.246094 194.261719 L 200.875 194.261719 Z M 200.875 180.875 " fill-opacity="1" fill-rule="nonzero"/><path fill="#97b19c" d="M 227.621094 167.492188 L 254.367188 167.492188 L 254.367188 154.105469 L 214.246094 154.105469 L 214.246094 180.875 L 227.621094 180.875 Z M 227.621094 167.492188 " fill-opacity="1" fill-rule="nonzero"/><path fill="#97b19c" d="M 254.367188 140.722656 L 267.742188 140.722656 L 267.742188 154.105469 L 254.367188 154.105469 Z M 254.367188 140.722656 " fill-opacity="1" fill-rule="nonzero"/><path fill="#97b19c" d="M 187.5 167.492188 L 200.875 167.492188 L 200.875 180.875 L 187.5 180.875 Z M 187.5 167.492188 " fill-opacity="1" fill-rule="nonzero"/><path fill="#97b19c" d="M 200.875 140.722656 L 214.246094 140.722656 L 214.246094 154.105469 L 200.875 154.105469 Z M 200.875 140.722656 " fill-opacity="1" fill-rule="nonzero"/><path fill="#97b19c" d="M 214.246094 113.953125 L 227.621094 113.953125 L 227.621094 127.335938 L 214.246094 127.335938 Z M 214.246094 113.953125 " fill-opacity="1" fill-rule="nonzero"/><g clip-path="url(#63114eb7fe)"><path fill="#97b19c" d="M 200.875 100.566406 L 214.246094 100.566406 L 214.246094 113.953125 L 200.875 113.953125 Z M 200.875 100.566406 " fill-opacity="1" fill-rule="nonzero"/></g><path fill="#97b19c" d="M 67.136719 207.644531 L 80.507812 207.644531 L 80.507812 221.03125 L 67.136719 221.03125 Z M 67.136719 207.644531 " fill-opacity="1" fill-rule="nonzero"/><path fill="#97b19c" d="M 267.742188 234.414062 L 281.117188 234.414062 L 281.117188 247.800781 L 267.742188 247.800781 Z M 267.742188 234.414062 " fill-opacity="1" fill-rule="nonzero"/><path fill="#97b19c" d="M 281.117188 207.644531 L 294.492188 207.644531 L 294.492188 221.03125 L 281.117188 221.03125 Z M 281.117188 207.644531 " fill-opacity="1" fill-rule="nonzero"/><path fill="#97b19c" d="M 147.378906 194.261719 L 160.753906 194.261719 L 160.753906 207.644531 L 147.378906 207.644531 Z M 147.378906 194.261719 " fill-opacity="1" fill-rule="nonzero"/><path fill="#97b19c" d="M 120.632812 167.492188 L 134.003906 167.492188 L 134.003906 180.875 L 120.632812 180.875 Z M 120.632812 167.492188 " fill-opacity="1" fill-rule="nonzero"/><path fill="#97b19c" d="M 281.117188 167.492188 L 294.492188 167.492188 L 294.492188 194.261719 L 281.117188 194.261719 Z M 281.117188 167.492188 " fill-opacity="1" fill-rule="nonzero"/><path fill="#97b19c" d="M 294.492188 194.261719 L 307.863281 194.261719 L 307.863281 207.644531 L 294.492188 207.644531 Z M 294.492188 194.261719 " fill-opacity="1" fill-rule="nonzero"/><path fill="#97b19c" d="M 307.863281 207.644531 L 307.863281 221.03125 L 321.238281 221.03125 L 321.238281 234.414062 L 334.613281 234.414062 L 334.613281 207.644531 Z M 307.863281 207.644531 " fill-opacity="1" fill-rule="nonzero"/><path fill="#97b19c" d="M 107.257812 221.03125 L 120.632812 221.03125 L 120.632812 234.414062 L 107.257812 234.414062 Z M 107.257812 221.03125 " fill-opacity="1" fill-rule="nonzero"/><path fill="#97b19c" d="M 134.003906 221.03125 L 147.378906 221.03125 L 147.378906 234.414062 L 134.003906 234.414062 Z M 134.003906 221.03125 " fill-opacity="1" fill-rule="nonzero"/><path fill="#97b19c" d="M 147.378906 234.414062 L 160.753906 234.414062 L 160.753906 247.800781 L 147.378906 247.800781 Z M 147.378906 234.414062 " fill-opacity="1" fill-rule="nonzero"/><path fill="#97b19c" d="M 160.753906 247.800781 L 200.875 247.800781 L 200.875 261.183594 L 160.753906 261.183594 Z M 160.753906 247.800781 " fill-opacity="1" fill-rule="nonzero"/><path fill="#97b19c" d="M 227.621094 247.800781 L 240.996094 247.800781 L 240.996094 261.183594 L 227.621094 261.183594 Z M 227.621094 247.800781 " fill-opacity="1" fill-rule="nonzero"/><g clip-path="url(#29a0aa6518)"><path fill="#97b19c" d="M 240.996094 261.183594 L 281.117188 261.183594 L 281.117188 274.566406 L 240.996094 274.566406 Z M 240.996094 261.183594 " fill-opacity="1" fill-rule="nonzero"/></g><path fill="#97b19c" d="M 281.117188 247.800781 L 294.492188 247.800781 L 294.492188 261.183594 L 281.117188 261.183594 Z M 281.117188 247.800781 " fill-opacity="1" fill-rule="nonzero"/><path fill="#97b19c" d="M 294.492188 234.414062 L 294.492188 247.800781 L 321.238281 247.800781 L 321.238281 234.414062 Z M 294.492188 234.414062 " fill-opacity="1" fill-rule="nonzero"/></svg>