<svg xmlns="http://www.w3.org/2000/svg" xmlns:xlink="http://www.w3.org/1999/xlink" width="500" zoomAndPan="magnify" viewBox="0 0 375 374.999991" height="500" preserveAspectRatio="xMidYMid meet" version="1.0"><defs><filter x="0%" y="0%" width="100%" height="100%" id="8253f9a832"><feColorMatrix values="0 0 0 0 1 0 0 0 0 1 0 0 0 0 1 0 0 0 1 0" color-interpolation-filters="sRGB"/></filter><clipPath id="d9674ff9cf"><path d="M 86.589844 0 L 288.339844 0 L 288.339844 375 L 86.589844 375 Z M 86.589844 0 " clip-rule="nonzero"/></clipPath><clipPath id="ec7a640ee6"><path d="M 249 249 L 288.339844 249 L 288.339844 279 L 249 279 Z M 249 249 " clip-rule="nonzero"/></clipPath><clipPath id="1792bfaa64"><path d="M 221 153 L 288.339844 153 L 288.339844 250 L 221 250 Z M 221 153 " clip-rule="nonzero"/></clipPath><mask id="fa6f752480"><g filter="url(#8253f9a832)"><rect x="-37.5" width="450" fill="#000000" y="-37.499999" height="449.999989" fill-opacity="0.5"/></g></mask><clipPath id="4b59208924"><path d="M 67 1 L 106.480469 1 L 106.480469 20.519531 L 67 20.519531 Z M 67 1 " clip-rule="nonzero"/></clipPath><clipPath id="fedbcba664"><path d="M 0.398438 1 L 40 1 L 40 20.519531 L 0.398438 20.519531 Z M 0.398438 1 " clip-rule="nonzero"/></clipPath><clipPath id="e38a342e63"><rect x="0" width="107" y="0" height="21"/></clipPath><clipPath id="7aa82ac6a4"><path d="M 86.589844 211 L 97 211 L 97 250 L 86.589844 250 Z M 86.589844 211 " clip-rule="nonzero"/></clipPath><clipPath id="17cb80312a"><path d="M 86.589844 249 L 97 249 L 97 270 L 86.589844 270 Z M 86.589844 249 " clip-rule="nonzero"/></clipPath><clipPath id="5c98aaf774"><path d="M 86.589844 240 L 135 240 L 135 250 L 86.589844 250 Z M 86.589844 240 " clip-rule="nonzero"/></clipPath><clipPath id="97d47d7f28"><path d="M 221 153 L 288.339844 153 L 288.339844 270 L 221 270 Z M 221 153 " clip-rule="nonzero"/></clipPath><mask id="d15dc0556a"><g filter="url(#8253f9a832)"><rect x="-37.5" width="450" fill="#000000" y="-37.499999" height="449.999989" fill-opacity="0.3"/></g></mask><clipPath id="873a529a0d"><path d="M 0.0390625 0.839844 L 20 0.839844 L 20 11 L 0.0390625 11 Z M 0.0390625 0.839844 " clip-rule="nonzero"/></clipPath><clipPath id="6bd7bdfdc1"><path d="M 28 39 L 67.339844 39 L 67.339844 116.28125 L 28 116.28125 Z M 28 39 " clip-rule="nonzero"/></clipPath><clipPath id="834ea326b7"><rect x="0" width="68" y="0" height="117"/></clipPath><mask id="db163cfe21"><g filter="url(#8253f9a832)"><rect x="-37.5" width="450" fill="#000000" y="-37.499999" height="449.999989" fill-opacity="0.5"/></g></mask><clipPath id="2bbd7c2203"><path d="M 29 0.398438 L 48.679688 0.398438 L 48.679688 30 L 29 30 Z M 29 0.398438 " clip-rule="nonzero"/></clipPath><clipPath id="321a947e6d"><path d="M 0.441406 48 L 20 48 L 20 58.480469 L 0.441406 58.480469 Z M 0.441406 48 " clip-rule="nonzero"/></clipPath><clipPath id="bc7941b31b"><rect x="0" width="49" y="0" height="59"/></clipPath></defs><g clip-path="url(#d9674ff9cf)"><path fill="#160059" d="M 278.734375 211.523438 L 278.734375 192.304688 L 269.125 192.304688 L 269.125 173.085938 L 259.519531 173.085938 L 259.519531 163.476562 L 240.304688 163.476562 L 240.304688 153.863281 L 211.484375 153.863281 L 211.484375 144.253906 L 230.699219 144.253906 L 230.699219 134.644531 L 240.304688 134.644531 L 240.304688 115.425781 L 249.914062 115.425781 L 249.914062 105.816406 L 259.519531 105.816406 L 259.519531 96.207031 L 269.125 96.207031 L 269.125 86.59375 L 278.734375 86.59375 L 278.734375 76.984375 L 269.125 76.984375 L 269.125 67.375 L 278.734375 67.375 L 278.734375 57.765625 L 269.125 57.765625 L 269.125 38.546875 L 259.519531 38.546875 L 259.519531 28.9375 L 249.914062 28.9375 L 249.914062 19.324219 L 240.304688 19.324219 L 240.304688 9.714844 L 221.089844 9.714844 L 221.089844 0.105469 L 163.449219 0.105469 L 163.449219 9.714844 L 134.625 9.714844 L 134.625 28.9375 L 125.019531 28.9375 L 125.019531 38.546875 L 115.414062 38.546875 L 115.414062 76.984375 L 105.804688 76.984375 L 105.804688 86.59375 L 115.414062 86.59375 L 115.414062 96.207031 L 125.019531 96.207031 L 125.019531 115.425781 L 134.625 115.425781 L 134.625 134.644531 L 144.234375 134.644531 L 144.234375 144.253906 L 163.449219 144.253906 L 163.449219 153.863281 L 134.625 153.863281 L 134.625 163.476562 L 115.414062 163.476562 L 115.414062 173.085938 L 105.804688 173.085938 L 105.804688 192.304688 L 96.199219 192.304688 L 96.199219 211.523438 L 86.589844 211.523438 L 86.589844 269.183594 L 96.199219 269.183594 L 96.199219 278.792969 L 125.019531 278.792969 L 125.019531 298.015625 L 134.625 298.015625 L 134.625 346.0625 L 125.019531 346.0625 L 125.019531 365.285156 L 134.625 365.285156 L 134.625 374.894531 L 173.054688 374.894531 L 173.054688 365.285156 L 182.664062 365.285156 L 182.664062 346.0625 L 192.269531 346.0625 L 192.269531 365.285156 L 201.875 365.285156 L 201.875 374.894531 L 240.304688 374.894531 L 240.304688 365.285156 L 249.914062 365.285156 L 249.914062 346.0625 L 240.304688 346.0625 L 240.304688 298.015625 L 249.914062 298.015625 L 249.914062 278.792969 L 278.734375 278.792969 L 278.734375 269.183594 L 288.339844 269.183594 L 288.339844 211.523438 Z M 278.734375 211.523438 " fill-opacity="1" fill-rule="nonzero"/></g><path fill="#f79277" d="M 249.914062 105.816406 L 259.519531 105.816406 L 259.519531 96.207031 L 249.914062 96.207031 L 249.914062 76.984375 L 182.664062 76.984375 L 182.664062 67.375 L 173.054688 67.375 L 173.054688 86.59375 L 134.625 86.59375 L 134.625 115.425781 L 144.234375 115.425781 L 144.234375 134.644531 L 163.449219 134.644531 L 163.449219 144.253906 L 173.054688 144.253906 L 173.054688 163.476562 L 201.875 163.476562 L 201.875 144.253906 L 230.699219 144.253906 L 230.699219 134.644531 L 240.304688 134.644531 L 240.304688 115.425781 L 249.914062 115.425781 Z M 249.914062 105.816406 " fill-opacity="1" fill-rule="nonzero"/><path fill="#f79277" d="M 96.199219 249.964844 L 125.019531 249.964844 L 125.019531 269.183594 L 96.199219 269.183594 Z M 96.199219 249.964844 " fill-opacity="1" fill-rule="nonzero"/><g clip-path="url(#ec7a640ee6)"><path fill="#f79277" d="M 249.914062 249.964844 L 249.914062 278.792969 L 278.734375 278.792969 L 278.734375 269.183594 L 288.339844 269.183594 L 288.339844 249.964844 Z M 249.914062 249.964844 " fill-opacity="1" fill-rule="nonzero"/></g><path fill="#ff4800" d="M 230.699219 278.792969 L 134.625 278.792969 L 134.625 346.0625 L 240.304688 346.0625 L 240.304688 298.015625 L 249.914062 298.015625 L 249.914062 278.792969 Z M 230.699219 278.792969 " fill-opacity="1" fill-rule="nonzero"/><path fill="#ff4800" d="M 134.625 173.085938 L 144.234375 173.085938 L 144.234375 163.476562 L 125.019531 163.476562 L 125.019531 173.085938 L 115.414062 173.085938 L 115.414062 192.304688 L 105.804688 192.304688 L 105.804688 221.132812 L 96.199219 221.132812 L 96.199219 249.964844 L 125.019531 249.964844 L 125.019531 221.132812 L 134.625 221.132812 Z M 134.625 173.085938 " fill-opacity="1" fill-rule="nonzero"/><g clip-path="url(#1792bfaa64)"><path fill="#ff4800" d="M 278.734375 211.523438 L 278.734375 192.304688 L 269.125 192.304688 L 269.125 173.085938 L 259.519531 173.085938 L 259.519531 163.476562 L 240.304688 163.476562 L 240.304688 153.863281 L 221.089844 153.863281 L 221.089844 163.476562 L 230.699219 163.476562 L 230.699219 173.085938 L 240.304688 173.085938 L 240.304688 221.132812 L 249.914062 221.132812 L 249.914062 249.964844 L 288.339844 249.964844 L 288.339844 211.523438 Z M 278.734375 211.523438 " fill-opacity="1" fill-rule="nonzero"/></g><path fill="#00db4e" d="M 278.734375 67.375 L 278.734375 57.765625 L 269.125 57.765625 L 269.125 38.546875 L 259.519531 38.546875 L 259.519531 28.9375 L 249.914062 28.9375 L 249.914062 19.324219 L 240.304688 19.324219 L 240.304688 9.714844 L 221.089844 9.714844 L 221.089844 0.105469 L 173.054688 0.105469 L 173.054688 9.714844 L 163.449219 9.714844 L 163.449219 19.324219 L 144.234375 19.324219 L 144.234375 28.9375 L 134.625 28.9375 L 134.625 38.546875 L 125.019531 38.546875 L 125.019531 76.984375 L 115.414062 76.984375 L 115.414062 86.59375 L 134.625 86.59375 L 134.625 76.984375 L 163.449219 76.984375 L 163.449219 67.375 L 173.054688 67.375 L 173.054688 57.765625 L 182.664062 57.765625 L 182.664062 67.375 L 201.875 67.375 L 201.875 76.984375 L 240.304688 76.984375 L 240.304688 86.59375 L 249.914062 86.59375 L 249.914062 96.207031 L 269.125 96.207031 L 269.125 86.59375 L 278.734375 86.59375 L 278.734375 76.984375 L 269.125 76.984375 L 269.125 67.375 Z M 278.734375 67.375 " fill-opacity="1" fill-rule="nonzero"/><path fill="#00db4e" d="M 134.625 346.0625 L 173.054688 346.0625 L 173.054688 365.285156 L 134.625 365.285156 Z M 134.625 346.0625 " fill-opacity="1" fill-rule="nonzero"/><path fill="#00db4e" d="M 201.875 346.0625 L 240.304688 346.0625 L 240.304688 365.285156 L 201.875 365.285156 Z M 201.875 346.0625 " fill-opacity="1" fill-rule="nonzero"/><path fill="#160059" d="M 134.625 9.714844 L 163.449219 9.714844 L 163.449219 19.324219 L 134.625 19.324219 Z M 134.625 9.714844 " fill-opacity="1" fill-rule="nonzero"/><path fill="#160059" d="M 134.625 19.324219 L 144.234375 19.324219 L 144.234375 28.9375 L 134.625 28.9375 Z M 134.625 19.324219 " fill-opacity="1" fill-rule="nonzero"/><path fill="#160059" d="M 125.019531 28.9375 L 134.625 28.9375 L 134.625 38.546875 L 125.019531 38.546875 Z M 125.019531 28.9375 " fill-opacity="1" fill-rule="nonzero"/><path fill="#160059" d="M 115.414062 38.546875 L 125.019531 38.546875 L 125.019531 76.984375 L 115.414062 76.984375 Z M 115.414062 38.546875 " fill-opacity="1" fill-rule="nonzero"/><path fill="#160059" d="M 105.804688 76.984375 L 115.414062 76.984375 L 115.414062 86.59375 L 105.804688 86.59375 Z M 105.804688 76.984375 " fill-opacity="1" fill-rule="nonzero"/><path fill="#160059" d="M 115.414062 86.59375 L 125.019531 86.59375 L 125.019531 96.207031 L 115.414062 96.207031 Z M 115.414062 86.59375 " fill-opacity="1" fill-rule="nonzero"/><path fill="#160059" d="M 125.019531 96.207031 L 134.625 96.207031 L 134.625 115.425781 L 125.019531 115.425781 Z M 125.019531 96.207031 " fill-opacity="1" fill-rule="nonzero"/><path fill="#160059" d="M 125.019531 86.59375 L 134.625 86.59375 L 134.625 96.207031 L 125.019531 96.207031 Z M 125.019531 86.59375 " fill-opacity="1" fill-rule="nonzero"/><path fill="#160059" d="M 173.054688 57.765625 L 182.664062 57.765625 L 182.664062 67.375 L 173.054688 67.375 Z M 173.054688 57.765625 " fill-opacity="1" fill-rule="nonzero"/><path fill="#160059" d="M 182.664062 67.375 L 201.875 67.375 L 201.875 76.984375 L 182.664062 76.984375 Z M 182.664062 67.375 " fill-opacity="1" fill-rule="nonzero"/><path fill="#160059" d="M 144.234375 48.15625 L 153.839844 48.15625 L 153.839844 57.765625 L 144.234375 57.765625 Z M 144.234375 48.15625 " fill-opacity="0.25" fill-rule="nonzero"/><path fill="#160059" d="M 144.234375 57.765625 L 134.625 57.765625 L 134.625 67.375 L 144.234375 67.375 L 144.234375 76.984375 L 163.449219 76.984375 L 163.449219 57.765625 Z M 144.234375 57.765625 " fill-opacity="0.25" fill-rule="nonzero"/><path fill="#160059" d="M 125.019531 48.15625 L 134.625 48.15625 L 134.625 57.765625 L 125.019531 57.765625 Z M 125.019531 48.15625 " fill-opacity="0.25" fill-rule="nonzero"/><path fill="#160059" d="M 125.019531 67.375 L 134.625 67.375 L 134.625 76.984375 L 125.019531 76.984375 Z M 125.019531 67.375 " fill-opacity="0.25" fill-rule="nonzero"/><path fill="#160059" d="M 153.839844 19.324219 L 163.449219 19.324219 L 163.449219 28.9375 L 153.839844 28.9375 Z M 153.839844 19.324219 " fill-opacity="0.25" fill-rule="nonzero"/><path fill="#160059" d="M 192.269531 28.9375 L 201.875 28.9375 L 201.875 38.546875 L 192.269531 38.546875 Z M 192.269531 28.9375 " fill-opacity="0.25" fill-rule="nonzero"/><path fill="#160059" d="M 201.875 19.324219 L 211.484375 19.324219 L 211.484375 28.9375 L 201.875 28.9375 Z M 201.875 19.324219 " fill-opacity="0.25" fill-rule="nonzero"/><path fill="#160059" d="M 182.664062 19.324219 L 192.269531 19.324219 L 192.269531 28.9375 L 182.664062 28.9375 Z M 182.664062 19.324219 " fill-opacity="0.25" fill-rule="nonzero"/><path fill="#160059" d="M 201.875 38.546875 L 211.484375 38.546875 L 211.484375 48.15625 L 201.875 48.15625 Z M 201.875 38.546875 " fill-opacity="0.25" fill-rule="nonzero"/><path fill="#160059" d="M 230.699219 57.765625 L 221.089844 57.765625 L 221.089844 67.375 L 240.304688 67.375 L 240.304688 57.765625 Z M 230.699219 57.765625 " fill-opacity="0.25" fill-rule="nonzero"/><path fill="#160059" d="M 249.914062 48.15625 L 240.304688 48.15625 L 240.304688 57.765625 L 249.914062 57.765625 L 249.914062 67.375 L 259.519531 67.375 L 259.519531 48.15625 Z M 249.914062 48.15625 " fill-opacity="0.25" fill-rule="nonzero"/><path fill="#160059" d="M 134.625 28.9375 L 144.234375 28.9375 L 144.234375 38.546875 L 134.625 38.546875 Z M 134.625 28.9375 " fill-opacity="0.25" fill-rule="nonzero"/><path fill="#160059" d="M 144.234375 67.375 L 153.839844 67.375 L 153.839844 76.984375 L 144.234375 76.984375 Z M 144.234375 67.375 " fill-opacity="0.25" fill-rule="nonzero"/><path fill="#160059" d="M 163.449219 9.714844 L 173.054688 9.714844 L 173.054688 19.324219 L 163.449219 19.324219 Z M 163.449219 9.714844 " fill-opacity="0.25" fill-rule="nonzero"/><path fill="#160059" d="M 134.625 115.425781 L 144.234375 115.425781 L 144.234375 125.035156 L 134.625 125.035156 Z M 134.625 115.425781 " fill-opacity="1" fill-rule="nonzero"/><path fill="#160059" d="M 144.234375 134.644531 L 163.449219 134.644531 L 163.449219 144.253906 L 144.234375 144.253906 Z M 144.234375 134.644531 " fill-opacity="1" fill-rule="nonzero"/><path fill="#160059" d="M 163.449219 144.253906 L 173.054688 144.253906 L 173.054688 153.863281 L 163.449219 153.863281 Z M 163.449219 144.253906 " fill-opacity="1" fill-rule="nonzero"/><path fill="#160059" d="M 201.875 144.253906 L 211.484375 144.253906 L 211.484375 153.863281 L 201.875 153.863281 Z M 201.875 144.253906 " fill-opacity="1" fill-rule="nonzero"/><path fill="#160059" d="M 134.625 125.035156 L 144.234375 125.035156 L 144.234375 134.644531 L 134.625 134.644531 Z M 134.625 125.035156 " fill-opacity="1" fill-rule="nonzero"/><path fill="#160059" d="M 163.449219 76.984375 L 134.625 76.984375 L 134.625 86.59375 L 153.839844 86.59375 L 153.839844 96.207031 L 163.449219 96.207031 L 163.449219 115.425781 L 173.054688 115.425781 L 173.054688 67.375 L 163.449219 67.375 Z M 163.449219 76.984375 " fill-opacity="1" fill-rule="nonzero"/><path fill="#160059" d="M 201.875 76.984375 L 201.875 115.425781 L 211.484375 115.425781 L 211.484375 96.207031 L 221.089844 96.207031 L 221.089844 86.59375 L 240.304688 86.59375 L 240.304688 76.984375 Z M 201.875 76.984375 " fill-opacity="1" fill-rule="nonzero"/><path fill="#160059" d="M 221.089844 96.207031 L 230.699219 96.207031 L 230.699219 105.816406 L 221.089844 105.816406 Z M 221.089844 96.207031 " fill-opacity="1" fill-rule="nonzero"/><path fill="#160059" d="M 144.234375 96.207031 L 153.839844 96.207031 L 153.839844 105.816406 L 144.234375 105.816406 Z M 144.234375 96.207031 " fill-opacity="1" fill-rule="nonzero"/><path fill="#552cff" d="M 163.449219 105.816406 L 173.054688 105.816406 L 173.054688 115.425781 L 163.449219 115.425781 Z M 163.449219 105.816406 " fill-opacity="1" fill-rule="nonzero"/><path fill="#552cff" d="M 201.875 105.816406 L 211.484375 105.816406 L 211.484375 115.425781 L 201.875 115.425781 Z M 201.875 105.816406 " fill-opacity="1" fill-rule="nonzero"/><path fill="#160059" d="M 153.839844 153.863281 L 173.054688 153.863281 L 173.054688 163.476562 L 153.839844 163.476562 Z M 153.839844 153.863281 " fill-opacity="1" fill-rule="nonzero"/><path fill="#160059" d="M 173.054688 163.476562 L 201.875 163.476562 L 201.875 173.085938 L 173.054688 173.085938 Z M 173.054688 163.476562 " fill-opacity="1" fill-rule="nonzero"/><path fill="#160059" d="M 201.875 153.863281 L 221.089844 153.863281 L 221.089844 163.476562 L 201.875 163.476562 Z M 201.875 153.863281 " fill-opacity="1" fill-rule="nonzero"/><path fill="#160059" d="M 125.019531 269.183594 L 249.914062 269.183594 L 249.914062 278.792969 L 125.019531 278.792969 Z M 125.019531 269.183594 " fill-opacity="1" fill-rule="nonzero"/><path fill="#160059" d="M 125.019531 221.132812 L 134.625 221.132812 L 134.625 298.015625 L 125.019531 298.015625 Z M 125.019531 221.132812 " fill-opacity="1" fill-rule="nonzero"/><path fill="#160059" d="M 134.625 173.085938 L 144.234375 173.085938 L 144.234375 221.132812 L 134.625 221.132812 Z M 134.625 173.085938 " fill-opacity="1" fill-rule="nonzero"/><path fill="#160059" d="M 144.234375 163.476562 L 153.839844 163.476562 L 153.839844 173.085938 L 144.234375 173.085938 Z M 144.234375 163.476562 " fill-opacity="1" fill-rule="nonzero"/><path fill="#552cff" d="M 240.304688 221.132812 L 240.304688 173.085938 L 230.699219 173.085938 L 230.699219 163.476562 L 201.875 163.476562 L 201.875 173.085938 L 173.054688 173.085938 L 173.054688 163.476562 L 153.839844 163.476562 L 153.839844 173.085938 L 144.234375 173.085938 L 144.234375 221.132812 L 134.625 221.132812 L 134.625 269.183594 L 249.914062 269.183594 L 249.914062 221.132812 Z M 240.304688 221.132812 " fill-opacity="1" fill-rule="nonzero"/><path fill="#160059" d="M 221.089844 163.476562 L 230.699219 163.476562 L 230.699219 173.085938 L 221.089844 173.085938 Z M 221.089844 163.476562 " fill-opacity="1" fill-rule="nonzero"/><path fill="#160059" d="M 230.699219 173.085938 L 240.304688 173.085938 L 240.304688 221.132812 L 230.699219 221.132812 Z M 230.699219 173.085938 " fill-opacity="1" fill-rule="nonzero"/><path fill="#160059" d="M 240.304688 221.132812 L 249.914062 221.132812 L 249.914062 269.183594 L 240.304688 269.183594 Z M 240.304688 221.132812 " fill-opacity="1" fill-rule="nonzero"/><path fill="#160059" d="M 173.054688 144.253906 L 201.875 144.253906 L 201.875 153.863281 L 173.054688 153.863281 Z M 173.054688 144.253906 " fill-opacity="0.3" fill-rule="nonzero"/><path fill="#160059" d="M 163.449219 134.644531 L 173.054688 134.644531 L 173.054688 144.253906 L 163.449219 144.253906 Z M 163.449219 134.644531 " fill-opacity="0.3" fill-rule="nonzero"/><path fill="#160059" d="M 153.839844 115.425781 L 153.839844 134.644531 L 144.234375 134.644531 L 144.234375 115.425781 Z M 153.839844 115.425781 " fill-opacity="0.2" fill-rule="nonzero"/><path fill="#160059" d="M 144.234375 86.59375 L 153.839844 86.59375 L 153.839844 96.207031 L 144.234375 96.207031 Z M 144.234375 86.59375 " fill-opacity="0.3" fill-rule="nonzero"/><path fill="#160059" d="M 201.875 134.644531 L 211.484375 134.644531 L 211.484375 144.253906 L 201.875 144.253906 Z M 201.875 134.644531 " fill-opacity="0.3" fill-rule="nonzero"/><path fill="#160059" d="M 230.699219 115.425781 L 230.699219 134.644531 L 221.089844 134.644531 L 221.089844 115.425781 Z M 230.699219 115.425781 " fill-opacity="0.2" fill-rule="nonzero"/><path fill="#160059" d="M 221.089844 86.59375 L 230.699219 86.59375 L 230.699219 96.207031 L 221.089844 96.207031 Z M 221.089844 86.59375 " fill-opacity="0.3" fill-rule="nonzero"/><path fill="#160059" d="M 134.625 298.015625 L 144.234375 298.015625 L 144.234375 346.0625 L 134.625 346.0625 Z M 134.625 298.015625 " fill-opacity="1" fill-rule="nonzero"/><path fill="#160059" d="M 182.664062 307.625 L 192.269531 307.625 L 192.269531 346.0625 L 182.664062 346.0625 Z M 182.664062 307.625 " fill-opacity="1" fill-rule="nonzero"/><path fill="#160059" d="M 173.054688 298.015625 L 201.875 298.015625 L 201.875 307.625 L 173.054688 307.625 Z M 173.054688 298.015625 " fill-opacity="1" fill-rule="nonzero"/><path fill="#160059" d="M 125.019531 346.0625 L 134.625 346.0625 L 134.625 365.285156 L 125.019531 365.285156 Z M 125.019531 346.0625 " fill-opacity="1" fill-rule="nonzero"/><path fill="#160059" d="M 134.625 365.285156 L 173.054688 365.285156 L 173.054688 374.894531 L 134.625 374.894531 Z M 134.625 365.285156 " fill-opacity="1" fill-rule="nonzero"/><path fill="#160059" d="M 173.054688 346.0625 L 182.664062 346.0625 L 182.664062 365.285156 L 173.054688 365.285156 Z M 173.054688 346.0625 " fill-opacity="1" fill-rule="nonzero"/><path fill="#160059" d="M 192.269531 346.0625 L 201.875 346.0625 L 201.875 365.285156 L 192.269531 365.285156 Z M 192.269531 346.0625 " fill-opacity="1" fill-rule="nonzero"/><path fill="#160059" d="M 134.625 336.453125 L 173.054688 336.453125 L 173.054688 346.0625 L 134.625 346.0625 Z M 134.625 336.453125 " fill-opacity="1" fill-rule="nonzero"/><path fill="#160059" d="M 201.875 336.453125 L 230.699219 336.453125 L 230.699219 346.0625 L 201.875 346.0625 Z M 201.875 336.453125 " fill-opacity="1" fill-rule="nonzero"/><path fill="#160059" d="M 201.875 365.285156 L 240.304688 365.285156 L 240.304688 374.894531 L 201.875 374.894531 Z M 201.875 365.285156 " fill-opacity="1" fill-rule="nonzero"/><path fill="#160059" d="M 240.304688 346.0625 L 249.914062 346.0625 L 249.914062 365.285156 L 240.304688 365.285156 Z M 240.304688 346.0625 " fill-opacity="1" fill-rule="nonzero"/><g mask="url(#fa6f752480)"><g transform="matrix(1, 0, 0, 1, 134, 345)"><g clip-path="url(#e38a342e63)"><g clip-path="url(#4b59208924)"><path fill="#160059" d="M 77.484375 10.675781 L 106.304688 10.675781 L 106.304688 1.0625 L 67.875 1.0625 L 67.875 20.285156 L 77.484375 20.285156 Z M 77.484375 10.675781 " fill-opacity="1" fill-rule="nonzero"/></g><g clip-path="url(#fedbcba664)"><path fill="#160059" d="M 29.449219 10.675781 L 29.449219 20.285156 L 39.054688 20.285156 L 39.054688 1.0625 L 0.625 1.0625 L 0.625 10.675781 Z M 29.449219 10.675781 " fill-opacity="1" fill-rule="nonzero"/></g></g></g></g><path fill="#160059" d="M 201.875 298.015625 L 201.875 307.625 L 192.269531 307.625 L 192.269531 346.0625 L 201.875 346.0625 L 201.875 317.234375 L 211.484375 317.234375 L 211.484375 298.015625 Z M 201.875 298.015625 " fill-opacity="0.3" fill-rule="nonzero"/><path fill="#160059" d="M 173.054688 298.015625 L 163.449219 298.015625 L 163.449219 317.234375 L 173.054688 317.234375 L 173.054688 346.0625 L 182.664062 346.0625 L 182.664062 307.625 L 173.054688 307.625 Z M 173.054688 298.015625 " fill-opacity="0.3" fill-rule="nonzero"/><path fill="#160059" d="M 240.304688 278.792969 L 240.304688 288.402344 L 134.625 288.402344 L 134.625 278.792969 Z M 240.304688 278.792969 " fill-opacity="0.2" fill-rule="nonzero"/><path fill="#160059" d="M 134.625 153.863281 L 153.839844 153.863281 L 153.839844 163.476562 L 134.625 163.476562 Z M 134.625 153.863281 " fill-opacity="1" fill-rule="nonzero"/><path fill="#160059" d="M 115.414062 163.476562 L 125.019531 163.476562 L 125.019531 173.085938 L 115.414062 173.085938 Z M 115.414062 163.476562 " fill-opacity="1" fill-rule="nonzero"/><path fill="#160059" d="M 105.804688 173.085938 L 115.414062 173.085938 L 115.414062 192.304688 L 105.804688 192.304688 Z M 105.804688 173.085938 " fill-opacity="1" fill-rule="nonzero"/><path fill="#160059" d="M 96.199219 192.304688 L 105.804688 192.304688 L 105.804688 221.132812 L 96.199219 221.132812 Z M 96.199219 192.304688 " fill-opacity="1" fill-rule="nonzero"/><g clip-path="url(#7aa82ac6a4)"><path fill="#160059" d="M 86.589844 211.523438 L 96.199219 211.523438 L 96.199219 249.964844 L 86.589844 249.964844 Z M 86.589844 211.523438 " fill-opacity="1" fill-rule="nonzero"/></g><path fill="#160059" d="M 125.019531 163.476562 L 134.625 163.476562 L 134.625 173.085938 L 125.019531 173.085938 Z M 125.019531 163.476562 " fill-opacity="1" fill-rule="nonzero"/><g clip-path="url(#17cb80312a)"><path fill="#160059" d="M 86.589844 249.964844 L 96.199219 249.964844 L 96.199219 269.183594 L 86.589844 269.183594 Z M 86.589844 249.964844 " fill-opacity="1" fill-rule="nonzero"/></g><path fill="#160059" d="M 96.199219 269.183594 L 134.625 269.183594 L 134.625 278.792969 L 96.199219 278.792969 Z M 96.199219 269.183594 " fill-opacity="1" fill-rule="nonzero"/><path fill="#160059" d="M 105.804688 249.964844 L 115.414062 249.964844 L 115.414062 259.574219 L 105.804688 259.574219 Z M 105.804688 249.964844 " fill-opacity="0.25" fill-rule="nonzero"/><path fill="#160059" d="M 259.519531 249.964844 L 269.125 249.964844 L 269.125 259.574219 L 259.519531 259.574219 Z M 259.519531 249.964844 " fill-opacity="0.25" fill-rule="nonzero"/><path fill="#160059" d="M 192.269531 0.105469 L 221.089844 0.105469 L 221.089844 9.714844 L 192.269531 9.714844 Z M 192.269531 0.105469 " fill-opacity="0.5" fill-rule="nonzero"/><path fill="#160059" d="M 115.414062 76.984375 L 134.625 76.984375 L 134.625 86.59375 L 115.414062 86.59375 Z M 115.414062 76.984375 " fill-opacity="0.5" fill-rule="nonzero"/><path fill="#160059" d="M 153.839844 38.546875 L 153.839844 28.9375 L 134.625 28.9375 L 134.625 48.15625 L 144.234375 48.15625 L 144.234375 57.765625 L 163.449219 57.765625 L 163.449219 38.546875 Z M 153.839844 38.546875 " fill-opacity="0.5" fill-rule="nonzero"/><path fill="#160059" d="M 221.089844 38.546875 L 211.484375 38.546875 L 211.484375 57.765625 L 230.699219 57.765625 L 230.699219 48.15625 L 240.304688 48.15625 L 240.304688 28.9375 L 221.089844 28.9375 Z M 221.089844 38.546875 " fill-opacity="0.5" fill-rule="nonzero"/><path fill="#160059" d="M 201.875 67.375 L 192.269531 67.375 L 192.269531 57.765625 L 201.875 57.765625 L 201.875 48.15625 L 192.269531 48.15625 L 192.269531 28.9375 L 173.054688 28.9375 L 173.054688 19.324219 L 163.449219 19.324219 L 163.449219 38.546875 L 173.054688 38.546875 L 173.054688 57.765625 L 163.449219 57.765625 L 163.449219 67.375 L 173.054688 67.375 L 173.054688 86.59375 L 201.875 86.59375 L 201.875 76.984375 L 221.089844 76.984375 L 221.089844 67.375 L 211.484375 67.375 L 211.484375 57.765625 L 201.875 57.765625 Z M 201.875 67.375 " fill-opacity="0.5" fill-rule="nonzero"/><path fill="#160059" d="M 221.089844 9.714844 L 240.304688 9.714844 L 240.304688 19.324219 L 221.089844 19.324219 Z M 221.089844 9.714844 " fill-opacity="0.5" fill-rule="nonzero"/><path fill="#160059" d="M 240.304688 19.324219 L 249.914062 19.324219 L 249.914062 28.9375 L 240.304688 28.9375 Z M 240.304688 19.324219 " fill-opacity="0.5" fill-rule="nonzero"/><path fill="#160059" d="M 278.734375 67.375 L 278.734375 57.765625 L 269.125 57.765625 L 269.125 38.546875 L 259.519531 38.546875 L 259.519531 28.9375 L 249.914062 28.9375 L 249.914062 48.15625 L 259.519531 48.15625 L 259.519531 57.765625 L 249.914062 57.765625 L 249.914062 67.375 L 259.519531 67.375 L 259.519531 76.984375 L 249.914062 76.984375 L 249.914062 67.375 L 240.304688 67.375 L 240.304688 86.59375 L 259.519531 86.59375 L 259.519531 96.207031 L 269.125 96.207031 L 269.125 86.59375 L 278.734375 86.59375 L 278.734375 76.984375 L 269.125 76.984375 L 269.125 67.375 Z M 278.734375 67.375 " fill-opacity="0.5" fill-rule="nonzero"/><path fill="#160059" d="M 192.269531 153.863281 L 201.875 153.863281 L 201.875 163.476562 L 192.269531 163.476562 Z M 192.269531 153.863281 " fill-opacity="0.5" fill-rule="nonzero"/><path fill="#160059" d="M 173.054688 153.863281 L 182.664062 153.863281 L 182.664062 163.476562 L 173.054688 163.476562 Z M 173.054688 153.863281 " fill-opacity="0.5" fill-rule="nonzero"/><path fill="#160059" d="M 230.699219 298.015625 L 240.304688 298.015625 L 240.304688 346.0625 L 230.699219 346.0625 Z M 230.699219 298.015625 " fill-opacity="0.5" fill-rule="nonzero"/><path fill="#160059" d="M 115.414062 259.574219 L 134.625 259.574219 L 134.625 269.183594 L 115.414062 269.183594 Z M 115.414062 259.574219 " fill-opacity="0.5" fill-rule="nonzero"/><path fill="#160059" d="M 259.519531 259.574219 L 240.304688 259.574219 L 240.304688 298.015625 L 249.914062 298.015625 L 249.914062 278.792969 L 278.734375 278.792969 L 278.734375 269.183594 L 259.519531 269.183594 Z M 259.519531 259.574219 " fill-opacity="0.5" fill-rule="nonzero"/><path fill="#160059" d="M 125.019531 173.085938 L 134.625 173.085938 L 134.625 221.132812 L 125.019531 221.132812 Z M 125.019531 173.085938 " fill-opacity="0.5" fill-rule="nonzero"/><path fill="#160059" d="M 240.304688 173.085938 L 249.914062 173.085938 L 249.914062 221.132812 L 240.304688 221.132812 Z M 240.304688 173.085938 " fill-opacity="0.5" fill-rule="nonzero"/><path fill="#160059" d="M 134.625 163.476562 L 144.234375 163.476562 L 144.234375 173.085938 L 134.625 173.085938 Z M 134.625 163.476562 " fill-opacity="0.5" fill-rule="nonzero"/><path fill="#160059" d="M 230.699219 163.476562 L 240.304688 163.476562 L 240.304688 173.085938 L 230.699219 173.085938 Z M 230.699219 163.476562 " fill-opacity="0.5" fill-rule="nonzero"/><path fill="#160059" d="M 134.625 221.132812 L 144.234375 221.132812 L 144.234375 269.183594 L 134.625 269.183594 Z M 134.625 221.132812 " fill-opacity="0.2" fill-rule="nonzero"/><path fill="#160059" d="M 230.699219 221.132812 L 240.304688 221.132812 L 240.304688 269.183594 L 230.699219 269.183594 Z M 230.699219 221.132812 " fill-opacity="0.2" fill-rule="nonzero"/><path fill="#160059" d="M 144.234375 173.085938 L 153.839844 173.085938 L 153.839844 221.132812 L 144.234375 221.132812 Z M 144.234375 173.085938 " fill-opacity="0.2" fill-rule="nonzero"/><path fill="#160059" d="M 221.089844 173.085938 L 230.699219 173.085938 L 230.699219 221.132812 L 221.089844 221.132812 Z M 221.089844 173.085938 " fill-opacity="0.2" fill-rule="nonzero"/><path fill="#160059" d="M 153.839844 163.476562 L 173.054688 163.476562 L 173.054688 173.085938 L 153.839844 173.085938 Z M 153.839844 163.476562 " fill-opacity="0.2" fill-rule="nonzero"/><path fill="#160059" d="M 201.875 163.476562 L 221.089844 163.476562 L 221.089844 173.085938 L 201.875 173.085938 Z M 201.875 163.476562 " fill-opacity="0.2" fill-rule="nonzero"/><path fill="#160059" d="M 182.664062 163.476562 L 192.269531 163.476562 L 192.269531 278.792969 L 182.664062 278.792969 Z M 182.664062 163.476562 " fill-opacity="1" fill-rule="nonzero"/><path fill="#160059" d="M 201.875 230.746094 L 230.699219 230.746094 L 230.699219 240.355469 L 201.875 240.355469 Z M 201.875 230.746094 " fill-opacity="1" fill-rule="nonzero"/><path fill="#160059" d="M 144.234375 230.746094 L 173.054688 230.746094 L 173.054688 240.355469 L 144.234375 240.355469 Z M 144.234375 230.746094 " fill-opacity="1" fill-rule="nonzero"/><path fill="#160059" d="M 153.839844 249.964844 L 163.449219 249.964844 L 163.449219 259.574219 L 153.839844 259.574219 Z M 153.839844 249.964844 " fill-opacity="1" fill-rule="nonzero"/><path fill="#160059" d="M 211.484375 249.964844 L 221.089844 249.964844 L 221.089844 259.574219 L 211.484375 259.574219 Z M 211.484375 249.964844 " fill-opacity="1" fill-rule="nonzero"/><path fill="#160059" d="M 173.054688 173.085938 L 201.875 173.085938 L 201.875 278.792969 L 173.054688 278.792969 Z M 173.054688 173.085938 " fill-opacity="0.3" fill-rule="nonzero"/><g clip-path="url(#5c98aaf774)"><path fill="#160059" d="M 86.589844 240.355469 L 134.625 240.355469 L 134.625 249.964844 L 86.589844 249.964844 Z M 86.589844 240.355469 " fill-opacity="0.3" fill-rule="nonzero"/></g><g clip-path="url(#97d47d7f28)"><g mask="url(#d15dc0556a)"><g transform="matrix(1, 0, 0, 1, 221, 153)"><g clip-path="url(#834ea326b7)"><g clip-path="url(#873a529a0d)"><path fill="#160059" d="M 0.0898438 0.863281 L 19.304688 0.863281 L 19.304688 10.476562 L 0.0898438 10.476562 Z M 0.0898438 0.863281 " fill-opacity="1" fill-rule="nonzero"/></g><path fill="#160059" d="M 19.304688 10.476562 L 38.519531 10.476562 L 38.519531 20.085938 L 19.304688 20.085938 Z M 19.304688 10.476562 " fill-opacity="1" fill-rule="nonzero"/><path fill="#160059" d="M 38.519531 20.085938 L 48.125 20.085938 L 48.125 39.304688 L 38.519531 39.304688 Z M 38.519531 20.085938 " fill-opacity="1" fill-rule="nonzero"/><g clip-path="url(#6bd7bdfdc1)"><path fill="#160059" d="M 57.734375 58.523438 L 57.734375 39.304688 L 48.125 39.304688 L 48.125 68.132812 L 57.734375 68.132812 L 57.734375 87.355469 L 28.914062 87.355469 L 28.914062 96.964844 L 57.734375 96.964844 L 57.734375 116.183594 L 67.339844 116.183594 L 67.339844 58.523438 Z M 57.734375 58.523438 " fill-opacity="1" fill-rule="nonzero"/></g></g></g></g></g><path fill="#160059" d="M 230.699219 86.59375 L 201.875 86.59375 L 201.875 67.375 L 173.054688 67.375 L 173.054688 86.59375 L 134.625 86.59375 L 134.625 115.425781 L 144.234375 115.425781 L 144.234375 96.207031 L 230.699219 96.207031 L 230.699219 115.425781 L 240.304688 115.425781 L 240.304688 86.59375 Z M 230.699219 86.59375 " fill-opacity="0.3" fill-rule="nonzero"/><g mask="url(#db163cfe21)"><g transform="matrix(1, 0, 0, 1, 211, 86)"><g clip-path="url(#bc7941b31b)"><g clip-path="url(#2bbd7c2203)"><path fill="#160059" d="M 38.914062 10.207031 L 38.914062 0.59375 L 29.304688 0.59375 L 29.304688 29.425781 L 38.914062 29.425781 L 38.914062 19.816406 L 48.519531 19.816406 L 48.519531 10.207031 Z M 38.914062 10.207031 " fill-opacity="1" fill-rule="nonzero"/></g><path fill="#160059" d="M 19.699219 39.035156 L 19.699219 48.644531 L 29.304688 48.644531 L 29.304688 29.425781 L 19.699219 29.425781 Z M 19.699219 39.035156 " fill-opacity="1" fill-rule="nonzero"/><g clip-path="url(#321a947e6d)"><path fill="#160059" d="M 0.484375 48.644531 L 19.699219 48.644531 L 19.699219 58.253906 L 0.484375 58.253906 Z M 0.484375 48.644531 " fill-opacity="1" fill-rule="nonzero"/></g></g></g></g><path fill="#160059" d="M 163.449219 0.105469 L 192.269531 0.105469 L 192.269531 9.714844 L 163.449219 9.714844 Z M 163.449219 0.105469 " fill-opacity="1" fill-rule="nonzero"/><path fill="#160059" d="M 211.484375 134.644531 L 230.699219 134.644531 L 230.699219 144.253906 L 211.484375 144.253906 Z M 211.484375 134.644531 " fill-opacity="1" fill-rule="nonzero"/><path fill="#160059" d="M 240.304688 86.59375 L 249.914062 86.59375 L 249.914062 96.207031 L 240.304688 96.207031 Z M 240.304688 86.59375 " fill-opacity="1" fill-rule="nonzero"/><path fill="#160059" d="M 249.914062 96.207031 L 259.519531 96.207031 L 259.519531 105.816406 L 249.914062 105.816406 Z M 249.914062 96.207031 " fill-opacity="1" fill-rule="nonzero"/></svg>