<svg xmlns="http://www.w3.org/2000/svg" xmlns:xlink="http://www.w3.org/1999/xlink" width="500" zoomAndPan="magnify" viewBox="0 0 375 374.999991" height="500" preserveAspectRatio="xMidYMid meet" version="1.0"><defs><clipPath id="a637f16f88"><path d="M 324 287 L 350 287 L 350 312.328125 L 324 312.328125 Z M 324 287 " clip-rule="nonzero"/></clipPath><clipPath id="f3bbc962a2"><path d="M 324 62.578125 L 350 62.578125 L 350 88 L 324 88 Z M 324 62.578125 " clip-rule="nonzero"/></clipPath><clipPath id="02976a4477"><path d="M 299 287 L 325 287 L 325 312.328125 L 299 312.328125 Z M 299 287 " clip-rule="nonzero"/></clipPath><clipPath id="483658c5b6"><path d="M 274 287 L 300 287 L 300 312.328125 L 274 312.328125 Z M 274 287 " clip-rule="nonzero"/></clipPath><clipPath id="96adb685dc"><path d="M 249 287 L 275 287 L 275 312.328125 L 249 312.328125 Z M 249 287 " clip-rule="nonzero"/></clipPath><clipPath id="c99d9d70f5"><path d="M 224 287 L 250 287 L 250 312.328125 L 224 312.328125 Z M 224 287 " clip-rule="nonzero"/></clipPath><clipPath id="b6e63979ee"><path d="M 199 287 L 225 287 L 225 312.328125 L 199 312.328125 Z M 199 287 " clip-rule="nonzero"/></clipPath><clipPath id="3ca362e207"><path d="M 174 287 L 200 287 L 200 312.328125 L 174 312.328125 Z M 174 287 " clip-rule="nonzero"/></clipPath><clipPath id="18aa790715"><path d="M 174 62.578125 L 200 62.578125 L 200 88 L 174 88 Z M 174 62.578125 " clip-rule="nonzero"/></clipPath><clipPath id="a7762950d0"><path d="M 149 287 L 175 287 L 175 312.328125 L 149 312.328125 Z M 149 287 " clip-rule="nonzero"/></clipPath><clipPath id="3a54da225c"><path d="M 124 287 L 150 287 L 150 312.328125 L 124 312.328125 Z M 124 287 " clip-rule="nonzero"/></clipPath><clipPath id="7e86e307f9"><path d="M 99 287 L 125 287 L 125 312.328125 L 99 312.328125 Z M 99 287 " clip-rule="nonzero"/></clipPath><clipPath id="b52d7eb5a9"><path d="M 75 287 L 100 287 L 100 312.328125 L 75 312.328125 Z M 75 287 " clip-rule="nonzero"/></clipPath><clipPath id="7028fcaa2f"><path d="M 49 287 L 75 287 L 75 312.328125 L 49 312.328125 Z M 49 287 " clip-rule="nonzero"/></clipPath><clipPath id="38aa5fff82"><path d="M 25 287 L 50 287 L 50 312.328125 L 25 312.328125 Z M 25 287 " clip-rule="nonzero"/></clipPath><clipPath id="53d7c12912"><path d="M 25 62.578125 L 50 62.578125 L 50 88 L 25 88 Z M 25 62.578125 " clip-rule="nonzero"/></clipPath></defs><path fill="#fabc09" d="M 374.832031 137.476562 L 374.832031 162.4375 L 349.859375 162.4375 L 349.859375 137.476562 L 374.832031 137.476562 " fill-opacity="1" fill-rule="nonzero"/><path fill="#fabc09" d="M 374.832031 87.507812 L 374.832031 112.472656 L 349.859375 112.472656 L 349.859375 87.507812 L 374.832031 87.507812 " fill-opacity="1" fill-rule="nonzero"/><g clip-path="url(#a637f16f88)"><path fill="#fabc09" d="M 349.859375 287.335938 L 349.859375 312.339844 L 324.886719 312.339844 L 324.886719 287.335938 L 349.859375 287.335938 " fill-opacity="1" fill-rule="nonzero"/></g><path fill="#fabc09" d="M 349.859375 237.363281 L 349.859375 262.371094 L 324.886719 262.371094 L 324.886719 237.363281 L 349.859375 237.363281 " fill-opacity="1" fill-rule="nonzero"/><path fill="#fabc09" d="M 349.859375 212.402344 L 349.859375 237.363281 L 324.886719 237.363281 L 324.886719 212.402344 L 349.859375 212.402344 " fill-opacity="1" fill-rule="nonzero"/><path fill="#fabc09" d="M 349.859375 162.4375 L 349.859375 187.445312 L 324.886719 187.445312 L 324.886719 162.4375 L 349.859375 162.4375 " fill-opacity="1" fill-rule="nonzero"/><path fill="#fabc09" d="M 349.859375 112.472656 L 349.859375 137.476562 L 324.886719 137.476562 L 324.886719 112.472656 L 349.859375 112.472656 " fill-opacity="1" fill-rule="nonzero"/><g clip-path="url(#f3bbc962a2)"><path fill="#f8df2d" d="M 349.859375 62.546875 L 349.859375 87.507812 L 324.886719 87.507812 L 324.886719 62.546875 L 349.859375 62.546875 " fill-opacity="1" fill-rule="nonzero"/></g><g clip-path="url(#02976a4477)"><path fill="#fabc09" d="M 324.886719 287.335938 L 324.886719 312.339844 L 299.871094 312.339844 L 299.871094 287.335938 L 324.886719 287.335938 " fill-opacity="1" fill-rule="nonzero"/></g><path fill="#f68712" d="M 324.886719 262.371094 L 324.886719 287.335938 L 299.871094 287.335938 L 299.871094 262.371094 L 324.886719 262.371094 " fill-opacity="1" fill-rule="nonzero"/><path fill="#fabc09" d="M 324.886719 237.363281 L 324.886719 262.371094 L 299.871094 262.371094 L 299.871094 237.363281 L 324.886719 237.363281 " fill-opacity="1" fill-rule="nonzero"/><path fill="#f8df2d" d="M 324.886719 212.402344 L 324.886719 237.363281 L 299.871094 237.363281 L 299.871094 212.402344 L 324.886719 212.402344 " fill-opacity="1" fill-rule="nonzero"/><path fill="#f68712" d="M 324.886719 187.445312 L 324.886719 212.402344 L 299.871094 212.402344 L 299.871094 187.445312 L 324.886719 187.445312 " fill-opacity="1" fill-rule="nonzero"/><path fill="#f8df2d" d="M 324.886719 137.476562 L 324.886719 162.4375 L 299.871094 162.4375 L 299.871094 137.476562 L 324.886719 137.476562 " fill-opacity="1" fill-rule="nonzero"/><path fill="#f8df2d" d="M 324.886719 87.507812 L 324.886719 112.472656 L 299.871094 112.472656 L 299.871094 87.507812 L 324.886719 87.507812 " fill-opacity="1" fill-rule="nonzero"/><g clip-path="url(#483658c5b6)"><path fill="#fabc09" d="M 299.871094 287.335938 L 299.871094 312.339844 L 274.902344 312.339844 L 274.902344 287.335938 L 299.871094 287.335938 " fill-opacity="1" fill-rule="nonzero"/></g><path fill="#fabc09" d="M 299.871094 237.363281 L 299.871094 262.371094 L 274.902344 262.371094 L 274.902344 237.363281 L 299.871094 237.363281 " fill-opacity="1" fill-rule="nonzero"/><path fill="#f8df2d" d="M 299.871094 212.402344 L 299.871094 237.363281 L 274.902344 237.363281 L 274.902344 212.402344 L 299.871094 212.402344 " fill-opacity="1" fill-rule="nonzero"/><path fill="#f68712" d="M 299.871094 187.445312 L 299.871094 212.402344 L 274.902344 212.402344 L 274.902344 187.445312 L 299.871094 187.445312 " fill-opacity="1" fill-rule="nonzero"/><path fill="#fabc09" d="M 299.871094 162.4375 L 299.871094 187.445312 L 274.902344 187.445312 L 274.902344 162.4375 L 299.871094 162.4375 " fill-opacity="1" fill-rule="nonzero"/><g clip-path="url(#96adb685dc)"><path fill="#fabc09" d="M 274.902344 287.335938 L 274.902344 312.339844 L 249.886719 312.339844 L 249.886719 287.335938 L 274.902344 287.335938 " fill-opacity="1" fill-rule="nonzero"/></g><path fill="#f68712" d="M 274.902344 262.371094 L 274.902344 287.335938 L 249.886719 287.335938 L 249.886719 262.371094 L 274.902344 262.371094 " fill-opacity="1" fill-rule="nonzero"/><path fill="#fabc09" d="M 274.902344 237.363281 L 274.902344 262.371094 L 249.886719 262.371094 L 249.886719 237.363281 L 274.902344 237.363281 " fill-opacity="1" fill-rule="nonzero"/><path fill="#fabc09" d="M 274.902344 212.402344 L 274.902344 237.363281 L 249.886719 237.363281 L 249.886719 212.402344 L 274.902344 212.402344 " fill-opacity="1" fill-rule="nonzero"/><path fill="#fabc09" d="M 274.902344 187.445312 L 274.902344 212.402344 L 249.886719 212.402344 L 249.886719 187.445312 L 274.902344 187.445312 " fill-opacity="1" fill-rule="nonzero"/><path fill="#fabc09" d="M 274.902344 137.476562 L 274.902344 162.4375 L 249.886719 162.4375 L 249.886719 137.476562 L 274.902344 137.476562 " fill-opacity="1" fill-rule="nonzero"/><g clip-path="url(#c99d9d70f5)"><path fill="#fabc09" d="M 249.886719 287.335938 L 249.886719 312.339844 L 224.917969 312.339844 L 224.917969 287.335938 L 249.886719 287.335938 " fill-opacity="1" fill-rule="nonzero"/></g><path fill="#fabc09" d="M 249.886719 237.363281 L 249.886719 262.371094 L 224.917969 262.371094 L 224.917969 237.363281 L 249.886719 237.363281 " fill-opacity="1" fill-rule="nonzero"/><path fill="#f8df2d" d="M 249.886719 212.402344 L 249.886719 237.363281 L 224.917969 237.363281 L 224.917969 212.402344 L 249.886719 212.402344 " fill-opacity="1" fill-rule="nonzero"/><path fill="#f68712" d="M 249.886719 187.445312 L 249.886719 212.402344 L 224.917969 212.402344 L 224.917969 187.445312 L 249.886719 187.445312 " fill-opacity="1" fill-rule="nonzero"/><path fill="#f8df2d" d="M 249.886719 162.4375 L 249.886719 187.445312 L 224.917969 187.445312 L 224.917969 162.4375 L 249.886719 162.4375 " fill-opacity="1" fill-rule="nonzero"/><g clip-path="url(#b6e63979ee)"><path fill="#fabc09" d="M 224.917969 287.335938 L 224.917969 312.339844 L 199.945312 312.339844 L 199.945312 287.335938 L 224.917969 287.335938 " fill-opacity="1" fill-rule="nonzero"/></g><path fill="#f68712" d="M 224.917969 262.371094 L 224.917969 287.335938 L 199.945312 287.335938 L 199.945312 262.371094 L 224.917969 262.371094 " fill-opacity="1" fill-rule="nonzero"/><path fill="#fabc09" d="M 224.917969 237.363281 L 224.917969 262.371094 L 199.945312 262.371094 L 199.945312 237.363281 L 224.917969 237.363281 " fill-opacity="1" fill-rule="nonzero"/><path fill="#f8df2d" d="M 224.917969 212.402344 L 224.917969 237.363281 L 199.945312 237.363281 L 199.945312 212.402344 L 224.917969 212.402344 " fill-opacity="1" fill-rule="nonzero"/><path fill="#fabc09" d="M 224.917969 187.445312 L 224.917969 212.402344 L 199.945312 212.402344 L 199.945312 187.445312 L 224.917969 187.445312 " fill-opacity="1" fill-rule="nonzero"/><path fill="#fabc09" d="M 224.917969 137.476562 L 224.917969 162.4375 L 199.945312 162.4375 L 199.945312 137.476562 L 224.917969 137.476562 " fill-opacity="1" fill-rule="nonzero"/><path fill="#fabc09" d="M 224.917969 87.507812 L 224.917969 112.472656 L 199.945312 112.472656 L 199.945312 87.507812 L 224.917969 87.507812 " fill-opacity="1" fill-rule="nonzero"/><g clip-path="url(#3ca362e207)"><path fill="#fabc09" d="M 199.945312 287.335938 L 199.945312 312.339844 L 174.929688 312.339844 L 174.929688 287.335938 L 199.945312 287.335938 " fill-opacity="1" fill-rule="nonzero"/></g><path fill="#fabc09" d="M 199.945312 237.363281 L 199.945312 262.371094 L 174.929688 262.371094 L 174.929688 237.363281 L 199.945312 237.363281 " fill-opacity="1" fill-rule="nonzero"/><path fill="#fabc09" d="M 199.945312 212.402344 L 199.945312 237.363281 L 174.929688 237.363281 L 174.929688 212.402344 L 199.945312 212.402344 " fill-opacity="1" fill-rule="nonzero"/><path fill="#f68712" d="M 199.945312 187.445312 L 199.945312 212.402344 L 174.929688 212.402344 L 174.929688 187.445312 L 199.945312 187.445312 " fill-opacity="1" fill-rule="nonzero"/><path fill="#fabc09" d="M 199.945312 162.4375 L 199.945312 187.445312 L 174.929688 187.445312 L 174.929688 162.4375 L 199.945312 162.4375 " fill-opacity="1" fill-rule="nonzero"/><path fill="#fabc09" d="M 199.945312 112.472656 L 199.945312 137.476562 L 174.929688 137.476562 L 174.929688 112.472656 L 199.945312 112.472656 " fill-opacity="1" fill-rule="nonzero"/><g clip-path="url(#18aa790715)"><path fill="#f8df2d" d="M 199.945312 62.546875 L 199.945312 87.507812 L 174.929688 87.507812 L 174.929688 62.546875 L 199.945312 62.546875 " fill-opacity="1" fill-rule="nonzero"/></g><g clip-path="url(#a7762950d0)"><path fill="#fabc09" d="M 174.929688 287.335938 L 174.929688 312.339844 L 149.960938 312.339844 L 149.960938 287.335938 L 174.929688 287.335938 " fill-opacity="1" fill-rule="nonzero"/></g><path fill="#f68712" d="M 174.929688 262.371094 L 174.929688 287.335938 L 149.960938 287.335938 L 149.960938 262.371094 L 174.929688 262.371094 " fill-opacity="1" fill-rule="nonzero"/><path fill="#fabc09" d="M 174.929688 237.363281 L 174.929688 262.371094 L 149.960938 262.371094 L 149.960938 237.363281 L 174.929688 237.363281 " fill-opacity="1" fill-rule="nonzero"/><path fill="#f8df2d" d="M 174.929688 212.402344 L 174.929688 237.363281 L 149.960938 237.363281 L 149.960938 212.402344 L 174.929688 212.402344 " fill-opacity="1" fill-rule="nonzero"/><path fill="#fabc09" d="M 174.929688 187.445312 L 174.929688 212.402344 L 149.960938 212.402344 L 149.960938 187.445312 L 174.929688 187.445312 " fill-opacity="1" fill-rule="nonzero"/><path fill="#f8df2d" d="M 174.929688 137.476562 L 174.929688 162.4375 L 149.960938 162.4375 L 149.960938 137.476562 L 174.929688 137.476562 " fill-opacity="1" fill-rule="nonzero"/><path fill="#f8df2d" d="M 174.929688 87.507812 L 174.929688 112.472656 L 149.960938 112.472656 L 149.960938 87.507812 L 174.929688 87.507812 " fill-opacity="1" fill-rule="nonzero"/><g clip-path="url(#3a54da225c)"><path fill="#fabc09" d="M 149.960938 287.335938 L 149.960938 312.339844 L 124.988281 312.339844 L 124.988281 287.335938 L 149.960938 287.335938 " fill-opacity="1" fill-rule="nonzero"/></g><path fill="#fabc09" d="M 149.960938 237.363281 L 149.960938 262.371094 L 124.988281 262.371094 L 124.988281 237.363281 L 149.960938 237.363281 " fill-opacity="1" fill-rule="nonzero"/><path fill="#f8df2d" d="M 149.960938 212.402344 L 149.960938 237.363281 L 124.988281 237.363281 L 124.988281 212.402344 L 149.960938 212.402344 " fill-opacity="1" fill-rule="nonzero"/><path fill="#f68712" d="M 149.960938 187.445312 L 149.960938 212.402344 L 124.988281 212.402344 L 124.988281 187.445312 L 149.960938 187.445312 " fill-opacity="1" fill-rule="nonzero"/><path fill="#fabc09" d="M 149.960938 162.4375 L 149.960938 187.445312 L 124.988281 187.445312 L 124.988281 162.4375 L 149.960938 162.4375 " fill-opacity="1" fill-rule="nonzero"/><g clip-path="url(#7e86e307f9)"><path fill="#fabc09" d="M 124.988281 287.335938 L 124.988281 312.339844 L 99.972656 312.339844 L 99.972656 287.335938 L 124.988281 287.335938 " fill-opacity="1" fill-rule="nonzero"/></g><path fill="#f68712" d="M 124.988281 262.371094 L 124.988281 287.335938 L 99.972656 287.335938 L 99.972656 262.371094 L 124.988281 262.371094 " fill-opacity="1" fill-rule="nonzero"/><path fill="#fabc09" d="M 124.988281 237.363281 L 124.988281 262.371094 L 99.972656 262.371094 L 99.972656 237.363281 L 124.988281 237.363281 " fill-opacity="1" fill-rule="nonzero"/><path fill="#f8df2d" d="M 124.988281 212.402344 L 124.988281 237.363281 L 99.972656 237.363281 L 99.972656 212.402344 L 124.988281 212.402344 " fill-opacity="1" fill-rule="nonzero"/><path fill="#fabc09" d="M 124.988281 187.445312 L 124.988281 212.402344 L 99.972656 212.402344 L 99.972656 187.445312 L 124.988281 187.445312 " fill-opacity="1" fill-rule="nonzero"/><path fill="#fabc09" d="M 124.988281 137.476562 L 124.988281 162.4375 L 99.972656 162.4375 L 99.972656 137.476562 L 124.988281 137.476562 " fill-opacity="1" fill-rule="nonzero"/><g clip-path="url(#b52d7eb5a9)"><path fill="#fabc09" d="M 99.972656 287.335938 L 99.972656 312.339844 L 75 312.339844 L 75 287.335938 L 99.972656 287.335938 " fill-opacity="1" fill-rule="nonzero"/></g><path fill="#fabc09" d="M 99.972656 237.363281 L 99.972656 262.371094 L 75 262.371094 L 75 237.363281 L 99.972656 237.363281 " fill-opacity="1" fill-rule="nonzero"/><path fill="#f8df2d" d="M 99.972656 212.402344 L 99.972656 237.363281 L 75 237.363281 L 75 212.402344 L 99.972656 212.402344 " fill-opacity="1" fill-rule="nonzero"/><path fill="#f68712" d="M 99.972656 187.445312 L 99.972656 212.402344 L 75 212.402344 L 75 187.445312 L 99.972656 187.445312 " fill-opacity="1" fill-rule="nonzero"/><path fill="#f8df2d" d="M 99.972656 162.4375 L 99.972656 187.445312 L 75 187.445312 L 75 162.4375 L 99.972656 162.4375 " fill-opacity="1" fill-rule="nonzero"/><g clip-path="url(#7028fcaa2f)"><path fill="#fabc09" d="M 75 287.335938 L 75 312.339844 L 49.988281 312.339844 L 49.988281 287.335938 L 75 287.335938 " fill-opacity="1" fill-rule="nonzero"/></g><path fill="#f68712" d="M 75 262.371094 L 75 287.335938 L 49.988281 287.335938 L 49.988281 262.371094 L 75 262.371094 " fill-opacity="1" fill-rule="nonzero"/><path fill="#fabc09" d="M 75 237.363281 L 75 262.371094 L 49.988281 262.371094 L 49.988281 237.363281 L 75 237.363281 " fill-opacity="1" fill-rule="nonzero"/><path fill="#f8df2d" d="M 75 212.402344 L 75 237.363281 L 49.988281 237.363281 L 49.988281 212.402344 L 75 212.402344 " fill-opacity="1" fill-rule="nonzero"/><path fill="#f68712" d="M 75 187.445312 L 75 212.402344 L 49.988281 212.402344 L 49.988281 187.445312 L 75 187.445312 " fill-opacity="1" fill-rule="nonzero"/><path fill="#fabc09" d="M 75 137.476562 L 75 162.4375 L 49.988281 162.4375 L 49.988281 137.476562 L 75 137.476562 " fill-opacity="1" fill-rule="nonzero"/><path fill="#fabc09" d="M 75 87.507812 L 75 112.472656 L 49.988281 112.472656 L 49.988281 87.507812 L 75 87.507812 " fill-opacity="1" fill-rule="nonzero"/><g clip-path="url(#38aa5fff82)"><path fill="#fabc09" d="M 49.988281 287.335938 L 49.988281 312.339844 L 25.015625 312.339844 L 25.015625 287.335938 L 49.988281 287.335938 " fill-opacity="1" fill-rule="nonzero"/></g><path fill="#f8df2d" d="M 49.988281 237.363281 L 49.988281 262.371094 L 25.015625 262.371094 L 25.015625 237.363281 L 49.988281 237.363281 " fill-opacity="1" fill-rule="nonzero"/><path fill="#f8df2d" d="M 49.988281 212.402344 L 49.988281 237.363281 L 25.015625 237.363281 L 25.015625 212.402344 L 49.988281 212.402344 " fill-opacity="1" fill-rule="nonzero"/><path fill="#fabc09" d="M 49.988281 162.4375 L 49.988281 187.445312 L 25.015625 187.445312 L 25.015625 162.4375 L 49.988281 162.4375 " fill-opacity="1" fill-rule="nonzero"/><path fill="#fabc09" d="M 49.988281 112.472656 L 49.988281 137.476562 L 25.015625 137.476562 L 25.015625 112.472656 L 49.988281 112.472656 " fill-opacity="1" fill-rule="nonzero"/><g clip-path="url(#53d7c12912)"><path fill="#f8df2d" d="M 49.988281 62.546875 L 49.988281 87.507812 L 25.015625 87.507812 L 25.015625 62.546875 L 49.988281 62.546875 " fill-opacity="1" fill-rule="nonzero"/></g><path fill="#f8df2d" d="M 25.015625 137.476562 L 25.015625 162.4375 L 0.046875 162.4375 L 0.046875 137.476562 L 25.015625 137.476562 " fill-opacity="1" fill-rule="nonzero"/><path fill="#f8df2d" d="M 25.015625 87.507812 L 25.015625 112.472656 L 0.046875 112.472656 L 0.046875 87.507812 L 25.015625 87.507812 " fill-opacity="1" fill-rule="nonzero"/></svg>