<svg xmlns="http://www.w3.org/2000/svg" xmlns:xlink="http://www.w3.org/1999/xlink" width="500" zoomAndPan="magnify" viewBox="0 0 375 374.999991" height="500" preserveAspectRatio="xMidYMid meet" version="1.0"><defs><filter x="0%" y="0%" width="100%" height="100%" id="60491d7693"><feColorMatrix values="0 0 0 0 1 0 0 0 0 1 0 0 0 0 1 0 0 0 1 0" color-interpolation-filters="sRGB"/></filter><clipPath id="33a3924cf4"><path d="M 87.613281 0 L 287.113281 0 L 287.113281 375 L 87.613281 375 Z M 87.613281 0 " clip-rule="nonzero"/></clipPath><clipPath id="bbd504f304"><path d="M 87.613281 0 L 287.113281 0 L 287.113281 300 L 87.613281 300 Z M 87.613281 0 " clip-rule="nonzero"/></clipPath><mask id="09860bf480"><g filter="url(#60491d7693)"><rect x="-37.5" width="450" fill="#000000" y="-37.499999" height="449.999989" fill-opacity="0.5"/></g></mask><clipPath id="d83ffa6386"><path d="M 37 0.800781 L 50 0.800781 L 50 14 L 37 14 Z M 37 0.800781 " clip-rule="nonzero"/></clipPath><clipPath id="37cbfac4e6"><path d="M 0.078125 25 L 26 25 L 26 63.441406 L 0.078125 63.441406 Z M 0.078125 25 " clip-rule="nonzero"/></clipPath><clipPath id="bdc90b2f85"><rect x="0" width="50" y="0" height="64"/></clipPath><clipPath id="14412e07c9"><path d="M 87.613281 100 L 101 100 L 101 138 L 87.613281 138 Z M 87.613281 100 " clip-rule="nonzero"/></clipPath><clipPath id="f31d9a192c"><path d="M 262 37 L 287.113281 37 L 287.113281 88 L 262 88 Z M 262 37 " clip-rule="nonzero"/></clipPath><clipPath id="0ff263ec3c"><path d="M 87.613281 0 L 287.113281 0 L 287.113281 300 L 87.613281 300 Z M 87.613281 0 " clip-rule="nonzero"/></clipPath><mask id="027acf695f"><g filter="url(#60491d7693)"><rect x="-37.5" width="450" fill="#000000" y="-37.499999" height="449.999989" fill-opacity="0.5"/></g></mask><clipPath id="78a3f5a81b"><path d="M 37 0.800781 L 50 0.800781 L 50 14 L 37 14 Z M 37 0.800781 " clip-rule="nonzero"/></clipPath><clipPath id="3d60f5e62f"><path d="M 0.078125 25 L 26 25 L 26 63.441406 L 0.078125 63.441406 Z M 0.078125 25 " clip-rule="nonzero"/></clipPath><clipPath id="916da89820"><rect x="0" width="50" y="0" height="64"/></clipPath><clipPath id="19df6d5274"><path d="M 87.613281 100 L 101 100 L 101 138 L 87.613281 138 Z M 87.613281 100 " clip-rule="nonzero"/></clipPath><clipPath id="1ac77225d2"><path d="M 262 37 L 287.113281 37 L 287.113281 88 L 262 88 Z M 262 37 " clip-rule="nonzero"/></clipPath></defs><g clip-path="url(#33a3924cf4)"><path fill="#160059" d="M 274.644531 37.671875 L 262.175781 37.671875 L 262.175781 50.160156 L 249.707031 50.160156 L 249.707031 37.671875 L 237.238281 37.671875 L 237.238281 25.1875 L 224.769531 25.1875 L 224.769531 12.703125 L 212.300781 12.703125 L 212.300781 0.214844 L 137.488281 0.214844 L 137.488281 12.703125 L 125.019531 12.703125 L 125.019531 50.160156 L 112.550781 50.160156 L 112.550781 62.644531 L 100.082031 62.644531 L 100.082031 100.101562 L 87.613281 100.101562 L 87.613281 137.558594 L 100.082031 137.558594 L 100.082031 150.042969 L 112.550781 150.042969 L 112.550781 175.015625 L 100.082031 175.015625 L 100.082031 199.984375 L 112.550781 199.984375 L 112.550781 237.441406 L 100.082031 237.441406 L 100.082031 287.382812 L 112.550781 287.382812 L 112.550781 299.871094 L 100.082031 299.871094 L 100.082031 337.328125 L 112.550781 337.328125 L 112.550781 374.785156 L 162.425781 374.785156 L 162.425781 362.296875 L 174.894531 362.296875 L 174.894531 349.8125 L 199.832031 349.8125 L 199.832031 362.296875 L 212.300781 362.296875 L 212.300781 374.785156 L 262.175781 374.785156 L 262.175781 337.328125 L 274.644531 337.328125 L 274.644531 224.957031 L 262.175781 224.957031 L 262.175781 187.5 L 249.707031 187.5 L 249.707031 175.015625 L 262.175781 175.015625 L 262.175781 150.042969 L 274.644531 150.042969 L 274.644531 87.613281 L 287.113281 87.613281 L 287.113281 37.671875 Z M 274.644531 37.671875 " fill-opacity="1" fill-rule="nonzero"/></g><path fill="#d70400" d="M 224.769531 162.527344 L 199.832031 162.527344 L 199.832031 187.5 L 174.894531 187.5 L 174.894531 162.527344 L 149.957031 162.527344 L 149.957031 199.984375 L 174.894531 199.984375 L 174.894531 212.472656 L 199.832031 212.472656 L 199.832031 199.984375 L 224.769531 199.984375 L 224.769531 175.015625 L 237.238281 175.015625 L 237.238281 162.527344 Z M 224.769531 162.527344 " fill-opacity="1" fill-rule="nonzero"/><path fill="#8217ff" d="M 274.644531 299.871094 L 224.769531 299.871094 L 224.769531 287.382812 L 237.238281 287.382812 L 237.238281 224.957031 L 224.769531 224.957031 L 224.769531 187.5 L 212.300781 187.5 L 212.300781 199.984375 L 199.832031 199.984375 L 199.832031 212.472656 L 174.894531 212.472656 L 174.894531 199.984375 L 162.425781 199.984375 L 162.425781 187.5 L 149.957031 187.5 L 149.957031 262.414062 L 125.019531 262.414062 L 125.019531 299.871094 L 100.082031 299.871094 L 100.082031 337.328125 L 112.550781 337.328125 L 112.550781 349.8125 L 262.175781 349.8125 L 262.175781 337.328125 L 274.644531 337.328125 Z M 274.644531 299.871094 " fill-opacity="1" fill-rule="nonzero"/><path fill="#8217ff" d="M 224.769531 175.015625 L 237.238281 175.015625 L 237.238281 187.5 L 224.769531 187.5 Z M 224.769531 175.015625 " fill-opacity="1" fill-rule="nonzero"/><path fill="#8217ff" d="M 237.238281 162.527344 L 249.707031 162.527344 L 249.707031 175.015625 L 237.238281 175.015625 Z M 237.238281 162.527344 " fill-opacity="1" fill-rule="nonzero"/><path fill="#ffd9c0" d="M 249.707031 162.527344 L 249.707031 62.644531 L 112.550781 62.644531 L 112.550781 162.527344 L 174.894531 162.527344 L 174.894531 187.5 L 199.832031 187.5 L 199.832031 162.527344 Z M 249.707031 162.527344 " fill-opacity="1" fill-rule="nonzero"/><path fill="#ffd9c0" d="M 224.769531 224.957031 L 224.769531 299.871094 L 237.238281 299.871094 L 237.238281 312.355469 L 262.175781 312.355469 L 262.175781 299.871094 L 274.644531 299.871094 L 274.644531 224.957031 Z M 224.769531 224.957031 " fill-opacity="1" fill-rule="nonzero"/><path fill="#d70400" d="M 224.769531 187.5 L 262.175781 187.5 L 262.175781 224.957031 L 224.769531 224.957031 Z M 224.769531 187.5 " fill-opacity="1" fill-rule="nonzero"/><path fill="#160059" d="M 237.238281 175.015625 L 249.707031 175.015625 L 249.707031 187.5 L 237.238281 187.5 Z M 237.238281 175.015625 " fill-opacity="1" fill-rule="nonzero"/><path fill="#160059" d="M 237.238281 162.527344 L 249.707031 162.527344 L 249.707031 175.015625 L 237.238281 175.015625 Z M 237.238281 162.527344 " fill-opacity="0.5" fill-rule="nonzero"/><path fill="#160059" d="M 212.300781 187.5 L 224.769531 187.5 L 224.769531 199.984375 L 212.300781 199.984375 Z M 212.300781 187.5 " fill-opacity="0.5" fill-rule="nonzero"/><path fill="#160059" d="M 149.957031 187.5 L 162.425781 187.5 L 162.425781 199.984375 L 149.957031 199.984375 Z M 149.957031 187.5 " fill-opacity="0.5" fill-rule="nonzero"/><path fill="#160059" d="M 199.832031 199.984375 L 212.300781 199.984375 L 212.300781 212.472656 L 199.832031 212.472656 Z M 199.832031 199.984375 " fill-opacity="0.5" fill-rule="nonzero"/><path fill="#160059" d="M 162.425781 199.984375 L 174.894531 199.984375 L 174.894531 212.472656 L 162.425781 212.472656 Z M 162.425781 199.984375 " fill-opacity="0.2" fill-rule="nonzero"/><path fill="#160059" d="M 249.707031 187.5 L 262.175781 187.5 L 262.175781 224.957031 L 249.707031 224.957031 Z M 249.707031 187.5 " fill-opacity="1" fill-rule="nonzero"/><path fill="#160059" d="M 249.707031 224.957031 L 274.644531 224.957031 L 274.644531 237.441406 L 249.707031 237.441406 Z M 249.707031 224.957031 " fill-opacity="1" fill-rule="nonzero"/><path fill="#160059" d="M 262.175781 224.957031 L 274.644531 224.957031 L 274.644531 249.929688 L 262.175781 249.929688 Z M 262.175781 224.957031 " fill-opacity="1" fill-rule="nonzero"/><path fill="#160059" d="M 262.175781 249.929688 L 274.644531 249.929688 L 274.644531 299.871094 L 262.175781 299.871094 Z M 262.175781 249.929688 " fill-opacity="0.5" fill-rule="nonzero"/><path fill="#160059" d="M 224.769531 287.382812 L 237.238281 287.382812 L 237.238281 299.871094 L 224.769531 299.871094 Z M 224.769531 287.382812 " fill-opacity="0.5" fill-rule="nonzero"/><path fill="#160059" d="M 249.707031 224.957031 L 224.769531 224.957031 L 224.769531 274.898438 L 237.238281 274.898438 L 237.238281 237.441406 L 249.707031 237.441406 Z M 249.707031 224.957031 " fill-opacity="0.5" fill-rule="nonzero"/><g clip-path="url(#bbd504f304)"><path fill="#ffc627" d="M 262.175781 37.671875 L 262.175781 50.160156 L 249.707031 50.160156 L 249.707031 37.671875 L 237.238281 37.671875 L 237.238281 25.1875 L 224.769531 25.1875 L 224.769531 12.703125 L 212.300781 12.703125 L 212.300781 0.214844 L 137.488281 0.214844 L 137.488281 12.703125 L 125.019531 12.703125 L 125.019531 50.160156 L 112.550781 50.160156 L 112.550781 62.644531 L 100.082031 62.644531 L 100.082031 100.101562 L 87.613281 100.101562 L 87.613281 137.558594 L 100.082031 137.558594 L 100.082031 150.042969 L 112.550781 150.042969 L 112.550781 175.015625 L 100.082031 175.015625 L 100.082031 199.984375 L 112.550781 199.984375 L 112.550781 237.441406 L 100.082031 237.441406 L 100.082031 287.382812 L 112.550781 287.382812 L 112.550781 299.871094 L 125.019531 299.871094 L 125.019531 287.382812 L 137.488281 287.382812 L 137.488281 274.898438 L 149.957031 274.898438 L 149.957031 287.382812 L 162.425781 287.382812 L 162.425781 224.957031 L 149.957031 224.957031 L 149.957031 162.527344 L 137.488281 162.527344 L 137.488281 125.070312 L 125.019531 125.070312 L 125.019531 100.101562 L 137.488281 100.101562 L 137.488281 75.128906 L 187.363281 75.128906 L 187.363281 87.613281 L 199.832031 87.613281 L 199.832031 100.101562 L 224.769531 100.101562 L 224.769531 112.585938 L 237.238281 112.585938 L 237.238281 150.042969 L 249.707031 150.042969 L 249.707031 175.015625 L 262.175781 175.015625 L 262.175781 150.042969 L 274.644531 150.042969 L 274.644531 87.613281 L 287.113281 87.613281 L 287.113281 37.671875 Z M 262.175781 37.671875 " fill-opacity="1" fill-rule="nonzero"/></g><path fill="#160059" d="M 224.769531 262.414062 L 237.238281 262.414062 L 237.238281 274.898438 L 224.769531 274.898438 Z M 224.769531 262.414062 " fill-opacity="1" fill-rule="nonzero"/><path fill="#160059" d="M 237.238281 299.871094 L 262.175781 299.871094 L 262.175781 312.355469 L 237.238281 312.355469 Z M 237.238281 299.871094 " fill-opacity="1" fill-rule="nonzero"/><path fill="#160059" d="M 262.175781 287.382812 L 274.644531 287.382812 L 274.644531 299.871094 L 262.175781 299.871094 Z M 262.175781 287.382812 " fill-opacity="1" fill-rule="nonzero"/><path fill="#160059" d="M 224.769531 187.5 L 237.238281 187.5 L 237.238281 224.957031 L 224.769531 224.957031 Z M 224.769531 187.5 " fill-opacity="0.5" fill-rule="nonzero"/><path fill="#160059" d="M 224.769531 212.472656 L 237.238281 212.472656 L 237.238281 237.441406 L 224.769531 237.441406 Z M 224.769531 212.472656 " fill-opacity="0.5" fill-rule="nonzero"/><path fill="#160059" d="M 237.238281 237.441406 L 262.175781 237.441406 L 262.175781 249.929688 L 237.238281 249.929688 Z M 237.238281 237.441406 " fill-opacity="0.2" fill-rule="nonzero"/><path fill="#160059" d="M 249.707031 237.441406 L 262.175781 237.441406 L 262.175781 262.414062 L 249.707031 262.414062 Z M 249.707031 237.441406 " fill-opacity="0.2" fill-rule="nonzero"/><path fill="#160059" d="M 224.769531 274.898438 L 237.238281 274.898438 L 237.238281 287.382812 L 224.769531 287.382812 Z M 224.769531 274.898438 " fill-opacity="0.2" fill-rule="nonzero"/><path fill="#160059" d="M 237.238281 287.382812 L 249.707031 287.382812 L 249.707031 299.871094 L 237.238281 299.871094 Z M 237.238281 287.382812 " fill-opacity="0.2" fill-rule="nonzero"/><path fill="#160059" d="M 174.894531 212.472656 L 199.832031 212.472656 L 199.832031 224.957031 L 174.894531 224.957031 Z M 174.894531 212.472656 " fill-opacity="1" fill-rule="nonzero"/><path fill="#160059" d="M 174.894531 212.472656 L 187.363281 212.472656 L 187.363281 249.929688 L 174.894531 249.929688 Z M 174.894531 212.472656 " fill-opacity="1" fill-rule="nonzero"/><path fill="#d70400" d="M 187.363281 224.957031 L 199.832031 224.957031 L 199.832031 237.441406 L 187.363281 237.441406 Z M 187.363281 224.957031 " fill-opacity="1" fill-rule="nonzero"/><path fill="#160059" d="M 162.425781 249.929688 L 174.894531 249.929688 L 174.894531 262.414062 L 162.425781 262.414062 Z M 162.425781 249.929688 " fill-opacity="1" fill-rule="nonzero"/><path fill="#160059" d="M 187.363281 249.929688 L 224.769531 249.929688 L 224.769531 262.414062 L 187.363281 262.414062 Z M 187.363281 249.929688 " fill-opacity="1" fill-rule="nonzero"/><path fill="#d70400" d="M 174.894531 249.929688 L 199.832031 249.929688 L 199.832031 262.414062 L 174.894531 262.414062 Z M 174.894531 249.929688 " fill-opacity="1" fill-rule="nonzero"/><path fill="#160059" d="M 174.894531 262.414062 L 187.363281 262.414062 L 187.363281 274.898438 L 174.894531 274.898438 Z M 174.894531 262.414062 " fill-opacity="1" fill-rule="nonzero"/><path fill="#160059" d="M 112.550781 337.328125 L 149.957031 337.328125 L 149.957031 349.8125 L 112.550781 349.8125 Z M 112.550781 337.328125 " fill-opacity="1" fill-rule="nonzero"/><path fill="#160059" d="M 224.769531 337.328125 L 262.175781 337.328125 L 262.175781 349.8125 L 224.769531 349.8125 Z M 224.769531 337.328125 " fill-opacity="1" fill-rule="nonzero"/><path fill="#160059" d="M 262.175781 287.382812 L 274.644531 287.382812 L 274.644531 337.328125 L 262.175781 337.328125 Z M 262.175781 287.382812 " fill-opacity="1" fill-rule="nonzero"/><path fill="#160059" d="M 162.425781 262.414062 L 224.769531 262.414062 L 224.769531 274.898438 L 162.425781 274.898438 Z M 162.425781 262.414062 " fill-opacity="0.5" fill-rule="nonzero"/><path fill="#160059" d="M 199.832031 337.328125 L 199.832031 274.898438 L 187.363281 274.898438 L 187.363281 337.328125 L 162.425781 337.328125 L 162.425781 349.8125 L 212.300781 349.8125 L 212.300781 337.328125 Z M 199.832031 337.328125 " fill-opacity="0.2" fill-rule="nonzero"/><path fill="#160059" d="M 224.769531 299.871094 L 274.644531 299.871094 L 274.644531 324.839844 L 224.769531 324.839844 Z M 224.769531 299.871094 " fill-opacity="0.3" fill-rule="nonzero"/><path fill="#160059" d="M 249.707031 299.871094 L 262.175781 299.871094 L 262.175781 337.328125 L 249.707031 337.328125 Z M 249.707031 299.871094 " fill-opacity="0.3" fill-rule="nonzero"/><g mask="url(#09860bf480)"><g transform="matrix(1, 0, 0, 1, 100, 274)"><g clip-path="url(#bdc90b2f85)"><path fill="#160059" d="M 25.019531 13.382812 L 37.488281 13.382812 L 37.488281 25.871094 L 25.019531 25.871094 Z M 25.019531 13.382812 " fill-opacity="1" fill-rule="nonzero"/><g clip-path="url(#d83ffa6386)"><path fill="#160059" d="M 37.488281 0.898438 L 49.957031 0.898438 L 49.957031 13.382812 L 37.488281 13.382812 Z M 37.488281 0.898438 " fill-opacity="1" fill-rule="nonzero"/></g><g clip-path="url(#37cbfac4e6)"><path fill="#160059" d="M 0.0820312 38.355469 L 0.0820312 63.328125 L 12.550781 63.328125 L 12.550781 38.355469 L 25.019531 38.355469 L 25.019531 25.871094 L 0.0820312 25.871094 Z M 0.0820312 38.355469 " fill-opacity="1" fill-rule="nonzero"/></g></g></g></g><path fill="#160059" d="M 112.550781 312.355469 L 125.019531 312.355469 L 125.019531 337.328125 L 112.550781 337.328125 Z M 112.550781 312.355469 " fill-opacity="0.2" fill-rule="nonzero"/><path fill="#160059" d="M 187.363281 312.355469 L 199.832031 312.355469 L 199.832031 337.328125 L 187.363281 337.328125 Z M 187.363281 312.355469 " fill-opacity="0.2" fill-rule="nonzero"/><path fill="#160059" d="M 137.488281 312.355469 L 149.957031 312.355469 L 149.957031 337.328125 L 137.488281 337.328125 Z M 137.488281 312.355469 " fill-opacity="0.2" fill-rule="nonzero"/><path fill="#160059" d="M 162.425781 299.871094 L 174.894531 299.871094 L 174.894531 324.839844 L 162.425781 324.839844 Z M 162.425781 299.871094 " fill-opacity="0.2" fill-rule="nonzero"/><path fill="#160059" d="M 212.300781 299.871094 L 224.769531 299.871094 L 224.769531 324.839844 L 212.300781 324.839844 Z M 212.300781 299.871094 " fill-opacity="0.2" fill-rule="nonzero"/><path fill="#160059" d="M 100.082031 299.871094 L 112.550781 299.871094 L 112.550781 337.328125 L 100.082031 337.328125 Z M 100.082031 299.871094 " fill-opacity="1" fill-rule="nonzero"/><path fill="#160059" d="M 112.550781 287.382812 L 125.019531 287.382812 L 125.019531 299.871094 L 112.550781 299.871094 Z M 112.550781 287.382812 " fill-opacity="1" fill-rule="nonzero"/><path fill="#160059" d="M 100.082031 237.441406 L 112.550781 237.441406 L 112.550781 287.382812 L 100.082031 287.382812 Z M 100.082031 237.441406 " fill-opacity="1" fill-rule="nonzero"/><path fill="#160059" d="M 112.550781 199.984375 L 125.019531 199.984375 L 125.019531 237.441406 L 112.550781 237.441406 Z M 112.550781 199.984375 " fill-opacity="1" fill-rule="nonzero"/><path fill="#160059" d="M 100.082031 175.015625 L 112.550781 175.015625 L 112.550781 199.984375 L 100.082031 199.984375 Z M 100.082031 175.015625 " fill-opacity="1" fill-rule="nonzero"/><path fill="#160059" d="M 112.550781 150.042969 L 125.019531 150.042969 L 125.019531 175.015625 L 112.550781 175.015625 Z M 112.550781 150.042969 " fill-opacity="1" fill-rule="nonzero"/><path fill="#160059" d="M 100.082031 137.558594 L 112.550781 137.558594 L 112.550781 150.042969 L 100.082031 150.042969 Z M 100.082031 137.558594 " fill-opacity="1" fill-rule="nonzero"/><g clip-path="url(#14412e07c9)"><path fill="#160059" d="M 87.613281 100.101562 L 100.082031 100.101562 L 100.082031 137.558594 L 87.613281 137.558594 Z M 87.613281 100.101562 " fill-opacity="1" fill-rule="nonzero"/></g><path fill="#160059" d="M 100.082031 62.644531 L 112.550781 62.644531 L 112.550781 100.101562 L 100.082031 100.101562 Z M 100.082031 62.644531 " fill-opacity="1" fill-rule="nonzero"/><path fill="#160059" d="M 112.550781 50.160156 L 125.019531 50.160156 L 125.019531 62.644531 L 112.550781 62.644531 Z M 112.550781 50.160156 " fill-opacity="1" fill-rule="nonzero"/><path fill="#160059" d="M 125.019531 12.703125 L 137.488281 12.703125 L 137.488281 50.160156 L 125.019531 50.160156 Z M 125.019531 12.703125 " fill-opacity="1" fill-rule="nonzero"/><path fill="#160059" d="M 137.488281 0.214844 L 174.894531 0.214844 L 174.894531 12.703125 L 137.488281 12.703125 Z M 137.488281 0.214844 " fill-opacity="1" fill-rule="nonzero"/><path fill="#160059" d="M 137.488281 75.128906 L 187.363281 75.128906 L 187.363281 87.613281 L 137.488281 87.613281 Z M 137.488281 75.128906 " fill-opacity="0.3" fill-rule="nonzero"/><path fill="#160059" d="M 137.488281 62.644531 L 187.363281 62.644531 L 187.363281 75.128906 L 137.488281 75.128906 Z M 137.488281 62.644531 " fill-opacity="1" fill-rule="nonzero"/><path fill="#160059" d="M 125.019531 75.128906 L 137.488281 75.128906 L 137.488281 100.101562 L 125.019531 100.101562 Z M 125.019531 75.128906 " fill-opacity="1" fill-rule="nonzero"/><path fill="#160059" d="M 112.550781 100.101562 L 125.019531 100.101562 L 125.019531 125.070312 L 112.550781 125.070312 Z M 112.550781 100.101562 " fill-opacity="1" fill-rule="nonzero"/><path fill="#160059" d="M 125.019531 125.070312 L 137.488281 125.070312 L 137.488281 150.042969 L 125.019531 150.042969 Z M 125.019531 125.070312 " fill-opacity="1" fill-rule="nonzero"/><path fill="#160059" d="M 137.488281 150.042969 L 174.894531 150.042969 L 174.894531 162.527344 L 137.488281 162.527344 Z M 137.488281 150.042969 " fill-opacity="1" fill-rule="nonzero"/><path fill="#160059" d="M 174.894531 162.527344 L 199.832031 162.527344 L 199.832031 175.015625 L 174.894531 175.015625 Z M 174.894531 162.527344 " fill-opacity="0.5" fill-rule="nonzero"/><path fill="#160059" d="M 199.832031 150.042969 L 237.238281 150.042969 L 237.238281 162.527344 L 199.832031 162.527344 Z M 199.832031 150.042969 " fill-opacity="1" fill-rule="nonzero"/><path fill="#160059" d="M 187.363281 75.128906 L 199.832031 75.128906 L 199.832031 87.613281 L 187.363281 87.613281 Z M 187.363281 75.128906 " fill-opacity="1" fill-rule="nonzero"/><path fill="#160059" d="M 199.832031 87.613281 L 224.769531 87.613281 L 224.769531 100.101562 L 199.832031 100.101562 Z M 199.832031 87.613281 " fill-opacity="1" fill-rule="nonzero"/><path fill="#160059" d="M 224.769531 100.101562 L 237.238281 100.101562 L 237.238281 112.585938 L 224.769531 112.585938 Z M 224.769531 100.101562 " fill-opacity="1" fill-rule="nonzero"/><path fill="#160059" d="M 237.238281 112.585938 L 249.707031 112.585938 L 249.707031 150.042969 L 237.238281 150.042969 Z M 237.238281 112.585938 " fill-opacity="1" fill-rule="nonzero"/><path fill="#160059" d="M 262.175781 87.613281 L 274.644531 87.613281 L 274.644531 150.042969 L 262.175781 150.042969 Z M 262.175781 87.613281 " fill-opacity="0.5" fill-rule="nonzero"/><path fill="#160059" d="M 237.238281 37.671875 L 249.707031 37.671875 L 249.707031 50.160156 L 237.238281 50.160156 Z M 237.238281 37.671875 " fill-opacity="0.5" fill-rule="nonzero"/><path fill="#160059" d="M 224.769531 25.1875 L 237.238281 25.1875 L 237.238281 37.671875 L 224.769531 37.671875 Z M 224.769531 25.1875 " fill-opacity="0.5" fill-rule="nonzero"/><path fill="#160059" d="M 212.300781 12.703125 L 224.769531 12.703125 L 224.769531 25.1875 L 212.300781 25.1875 Z M 212.300781 12.703125 " fill-opacity="0.5" fill-rule="nonzero"/><path fill="#160059" d="M 137.488281 37.671875 L 149.957031 37.671875 L 149.957031 50.160156 L 137.488281 50.160156 Z M 137.488281 37.671875 " fill-opacity="0.2" fill-rule="nonzero"/><path fill="#160059" d="M 149.957031 50.160156 L 162.425781 50.160156 L 162.425781 62.644531 L 149.957031 62.644531 Z M 149.957031 50.160156 " fill-opacity="0.2" fill-rule="nonzero"/><path fill="#160059" d="M 162.425781 25.1875 L 187.363281 25.1875 L 187.363281 37.671875 L 162.425781 37.671875 Z M 162.425781 25.1875 " fill-opacity="0.2" fill-rule="nonzero"/><path fill="#160059" d="M 212.300781 75.128906 L 224.769531 75.128906 L 224.769531 87.613281 L 212.300781 87.613281 Z M 212.300781 75.128906 " fill-opacity="0.2" fill-rule="nonzero"/><path fill="#160059" d="M 249.707031 150.042969 L 262.175781 150.042969 L 262.175781 175.015625 L 249.707031 175.015625 Z M 249.707031 150.042969 " fill-opacity="0.5" fill-rule="nonzero"/><path fill="#160059" d="M 249.707031 112.585938 L 262.175781 112.585938 L 262.175781 137.558594 L 249.707031 137.558594 Z M 249.707031 112.585938 " fill-opacity="0.2" fill-rule="nonzero"/><path fill="#160059" d="M 237.238281 75.128906 L 262.175781 75.128906 L 262.175781 87.613281 L 237.238281 87.613281 Z M 237.238281 75.128906 " fill-opacity="0.2" fill-rule="nonzero"/><path fill="#160059" d="M 224.769531 62.644531 L 237.238281 62.644531 L 237.238281 75.128906 L 224.769531 75.128906 Z M 224.769531 62.644531 " fill-opacity="0.2" fill-rule="nonzero"/><path fill="#160059" d="M 249.707031 50.160156 L 262.175781 50.160156 L 262.175781 62.644531 L 249.707031 62.644531 Z M 249.707031 50.160156 " fill-opacity="0.5" fill-rule="nonzero"/><g clip-path="url(#f31d9a192c)"><path fill="#160059" d="M 274.644531 37.671875 L 262.175781 37.671875 L 262.175781 50.160156 L 274.644531 50.160156 L 274.644531 87.613281 L 287.113281 87.613281 L 287.113281 37.671875 Z M 274.644531 37.671875 " fill-opacity="0.5" fill-rule="nonzero"/></g><path fill="#160059" d="M 212.300781 50.160156 L 224.769531 50.160156 L 224.769531 62.644531 L 212.300781 62.644531 Z M 212.300781 50.160156 " fill-opacity="0.2" fill-rule="nonzero"/><path fill="#160059" d="M 187.363281 37.671875 L 199.832031 37.671875 L 199.832031 50.160156 L 187.363281 50.160156 Z M 187.363281 37.671875 " fill-opacity="0.2" fill-rule="nonzero"/><path fill="#160059" d="M 187.363281 12.703125 L 199.832031 12.703125 L 199.832031 25.1875 L 187.363281 25.1875 Z M 187.363281 12.703125 " fill-opacity="0.2" fill-rule="nonzero"/><path fill="#160059" d="M 199.832031 25.1875 L 212.300781 25.1875 L 212.300781 37.671875 L 199.832031 37.671875 Z M 199.832031 25.1875 " fill-opacity="0.2" fill-rule="nonzero"/><path fill="#160059" d="M 125.019531 62.644531 L 137.488281 62.644531 L 137.488281 75.128906 L 125.019531 75.128906 Z M 125.019531 62.644531 " fill-opacity="0.2" fill-rule="nonzero"/><path fill="#160059" d="M 174.894531 0.214844 L 212.300781 0.214844 L 212.300781 12.703125 L 174.894531 12.703125 Z M 174.894531 0.214844 " fill-opacity="0.5" fill-rule="nonzero"/><path fill="#160059" d="M 137.488281 12.703125 L 149.957031 12.703125 L 149.957031 37.671875 L 137.488281 37.671875 Z M 137.488281 12.703125 " fill-opacity="0.5" fill-rule="nonzero"/><path fill="#160059" d="M 199.832031 112.585938 L 224.769531 112.585938 L 224.769531 125.070312 L 199.832031 125.070312 Z M 199.832031 112.585938 " fill-opacity="1" fill-rule="nonzero"/><path fill="#160059" d="M 149.957031 112.585938 L 174.894531 112.585938 L 174.894531 125.070312 L 149.957031 125.070312 Z M 149.957031 112.585938 " fill-opacity="1" fill-rule="nonzero"/><path fill="#8217ff" d="M 199.832031 125.070312 L 212.300781 125.070312 L 212.300781 137.558594 L 199.832031 137.558594 Z M 199.832031 125.070312 " fill-opacity="1" fill-rule="nonzero"/><path fill="#8217ff" d="M 162.425781 125.070312 L 174.894531 125.070312 L 174.894531 137.558594 L 162.425781 137.558594 Z M 162.425781 125.070312 " fill-opacity="1" fill-rule="nonzero"/><path fill="#160059" d="M 125.019531 100.101562 L 137.488281 100.101562 L 137.488281 125.070312 L 125.019531 125.070312 Z M 125.019531 100.101562 " fill-opacity="0.3" fill-rule="nonzero"/><path fill="#160059" d="M 224.769531 112.585938 L 237.238281 112.585938 L 237.238281 150.042969 L 224.769531 150.042969 Z M 224.769531 112.585938 " fill-opacity="0.3" fill-rule="nonzero"/><path fill="#160059" d="M 137.488281 125.070312 L 149.957031 125.070312 L 149.957031 150.042969 L 137.488281 150.042969 Z M 137.488281 125.070312 " fill-opacity="0.3" fill-rule="nonzero"/><path fill="#160059" d="M 137.488281 75.128906 L 149.957031 75.128906 L 149.957031 100.101562 L 137.488281 100.101562 Z M 137.488281 75.128906 " fill-opacity="0.3" fill-rule="nonzero"/><path fill="#160059" d="M 137.488281 150.042969 L 149.957031 150.042969 L 149.957031 224.957031 L 137.488281 224.957031 Z M 137.488281 150.042969 " fill-opacity="1" fill-rule="nonzero"/><path fill="#160059" d="M 149.957031 224.957031 L 162.425781 224.957031 L 162.425781 287.382812 L 149.957031 287.382812 Z M 149.957031 224.957031 " fill-opacity="1" fill-rule="nonzero"/><path fill="#160059" d="M 112.550781 274.898438 L 137.488281 274.898438 L 137.488281 287.382812 L 112.550781 287.382812 Z M 112.550781 274.898438 " fill-opacity="1" fill-rule="nonzero"/><path fill="#160059" d="M 137.488281 262.414062 L 149.957031 262.414062 L 149.957031 274.898438 L 137.488281 274.898438 Z M 137.488281 262.414062 " fill-opacity="1" fill-rule="nonzero"/><path fill="#160059" d="M 112.550781 175.015625 L 125.019531 175.015625 L 125.019531 199.984375 L 112.550781 199.984375 Z M 112.550781 175.015625 " fill-opacity="0.3" fill-rule="nonzero"/><path fill="#160059" d="M 112.550781 125.070312 L 125.019531 125.070312 L 125.019531 137.558594 L 112.550781 137.558594 Z M 112.550781 125.070312 " fill-opacity="0.3" fill-rule="nonzero"/><path fill="#160059" d="M 100.082031 100.101562 L 112.550781 100.101562 L 112.550781 112.585938 L 100.082031 112.585938 Z M 100.082031 100.101562 " fill-opacity="0.3" fill-rule="nonzero"/><path fill="#160059" d="M 125.019531 199.984375 L 137.488281 199.984375 L 137.488281 224.957031 L 125.019531 224.957031 Z M 125.019531 199.984375 " fill-opacity="0.3" fill-rule="nonzero"/><path fill="#160059" d="M 137.488281 224.957031 L 149.957031 224.957031 L 149.957031 249.929688 L 137.488281 249.929688 Z M 137.488281 224.957031 " fill-opacity="0.3" fill-rule="nonzero"/><path fill="#160059" d="M 112.550781 237.441406 L 125.019531 237.441406 L 125.019531 262.414062 L 112.550781 262.414062 Z M 112.550781 237.441406 " fill-opacity="0.3" fill-rule="nonzero"/><path fill="#160059" d="M 162.425781 349.8125 L 112.550781 349.8125 L 112.550781 374.785156 L 162.425781 374.785156 L 162.425781 362.296875 L 174.894531 362.296875 L 174.894531 349.8125 Z M 162.425781 349.8125 " fill-opacity="1" fill-rule="nonzero"/><path fill="#160059" d="M 212.300781 349.8125 L 262.175781 349.8125 L 262.175781 374.785156 L 212.300781 374.785156 L 212.300781 362.296875 L 199.832031 362.296875 L 199.832031 349.8125 Z M 212.300781 349.8125 " fill-opacity="1" fill-rule="nonzero"/><path fill="#d70400" d="M 125.019531 349.8125 L 162.425781 349.8125 L 162.425781 362.296875 L 125.019531 362.296875 Z M 125.019531 349.8125 " fill-opacity="1" fill-rule="nonzero"/><path fill="#d70400" d="M 212.300781 349.8125 L 249.707031 349.8125 L 249.707031 362.296875 L 212.300781 362.296875 Z M 212.300781 349.8125 " fill-opacity="1" fill-rule="nonzero"/><path fill="#160059" d="M 149.957031 349.8125 L 162.425781 349.8125 L 162.425781 362.296875 L 149.957031 362.296875 Z M 149.957031 349.8125 " fill-opacity="0.3" fill-rule="nonzero"/><path fill="#160059" d="M 212.300781 349.8125 L 224.769531 349.8125 L 224.769531 362.296875 L 212.300781 362.296875 Z M 212.300781 349.8125 " fill-opacity="0.3" fill-rule="nonzero"/><path fill="#160059" d="M 212.300781 162.527344 L 237.238281 162.527344 L 237.238281 175.015625 L 212.300781 175.015625 Z M 212.300781 162.527344 " fill-opacity="0.2" fill-rule="nonzero"/><path fill="#160059" d="M 149.957031 162.527344 L 162.425781 162.527344 L 162.425781 175.015625 L 149.957031 175.015625 Z M 149.957031 162.527344 " fill-opacity="0.2" fill-rule="nonzero"/><path fill="#d70400" d="M 224.769531 162.527344 L 199.832031 162.527344 L 199.832031 187.5 L 174.894531 187.5 L 174.894531 162.527344 L 149.957031 162.527344 L 149.957031 199.984375 L 174.894531 199.984375 L 174.894531 212.472656 L 199.832031 212.472656 L 199.832031 199.984375 L 224.769531 199.984375 L 224.769531 175.015625 L 237.238281 175.015625 L 237.238281 162.527344 Z M 224.769531 162.527344 " fill-opacity="1" fill-rule="nonzero"/><path fill="#8217ff" d="M 274.644531 299.871094 L 224.769531 299.871094 L 224.769531 287.382812 L 237.238281 287.382812 L 237.238281 224.957031 L 224.769531 224.957031 L 224.769531 187.5 L 212.300781 187.5 L 212.300781 199.984375 L 199.832031 199.984375 L 199.832031 212.472656 L 174.894531 212.472656 L 174.894531 199.984375 L 162.425781 199.984375 L 162.425781 187.5 L 149.957031 187.5 L 149.957031 262.414062 L 125.019531 262.414062 L 125.019531 299.871094 L 100.082031 299.871094 L 100.082031 337.328125 L 112.550781 337.328125 L 112.550781 349.8125 L 262.175781 349.8125 L 262.175781 337.328125 L 274.644531 337.328125 Z M 274.644531 299.871094 " fill-opacity="1" fill-rule="nonzero"/><path fill="#8217ff" d="M 224.769531 175.015625 L 237.238281 175.015625 L 237.238281 187.5 L 224.769531 187.5 Z M 224.769531 175.015625 " fill-opacity="1" fill-rule="nonzero"/><path fill="#8217ff" d="M 237.238281 162.527344 L 249.707031 162.527344 L 249.707031 175.015625 L 237.238281 175.015625 Z M 237.238281 162.527344 " fill-opacity="1" fill-rule="nonzero"/><path fill="#ffd9c0" d="M 249.707031 162.527344 L 249.707031 62.644531 L 112.550781 62.644531 L 112.550781 162.527344 L 174.894531 162.527344 L 174.894531 187.5 L 199.832031 187.5 L 199.832031 162.527344 Z M 249.707031 162.527344 " fill-opacity="1" fill-rule="nonzero"/><path fill="#ffd9c0" d="M 224.769531 224.957031 L 224.769531 299.871094 L 237.238281 299.871094 L 237.238281 312.355469 L 262.175781 312.355469 L 262.175781 299.871094 L 274.644531 299.871094 L 274.644531 224.957031 Z M 224.769531 224.957031 " fill-opacity="1" fill-rule="nonzero"/><path fill="#d70400" d="M 224.769531 187.5 L 262.175781 187.5 L 262.175781 224.957031 L 224.769531 224.957031 Z M 224.769531 187.5 " fill-opacity="1" fill-rule="nonzero"/><path fill="#160059" d="M 237.238281 175.015625 L 249.707031 175.015625 L 249.707031 187.5 L 237.238281 187.5 Z M 237.238281 175.015625 " fill-opacity="1" fill-rule="nonzero"/><path fill="#160059" d="M 237.238281 162.527344 L 249.707031 162.527344 L 249.707031 175.015625 L 237.238281 175.015625 Z M 237.238281 162.527344 " fill-opacity="0.5" fill-rule="nonzero"/><path fill="#160059" d="M 212.300781 187.5 L 224.769531 187.5 L 224.769531 199.984375 L 212.300781 199.984375 Z M 212.300781 187.5 " fill-opacity="0.5" fill-rule="nonzero"/><path fill="#160059" d="M 149.957031 187.5 L 162.425781 187.5 L 162.425781 199.984375 L 149.957031 199.984375 Z M 149.957031 187.5 " fill-opacity="0.5" fill-rule="nonzero"/><path fill="#160059" d="M 199.832031 199.984375 L 212.300781 199.984375 L 212.300781 212.472656 L 199.832031 212.472656 Z M 199.832031 199.984375 " fill-opacity="0.5" fill-rule="nonzero"/><path fill="#160059" d="M 162.425781 199.984375 L 174.894531 199.984375 L 174.894531 212.472656 L 162.425781 212.472656 Z M 162.425781 199.984375 " fill-opacity="0.2" fill-rule="nonzero"/><path fill="#160059" d="M 249.707031 187.5 L 262.175781 187.5 L 262.175781 224.957031 L 249.707031 224.957031 Z M 249.707031 187.5 " fill-opacity="1" fill-rule="nonzero"/><path fill="#160059" d="M 249.707031 224.957031 L 274.644531 224.957031 L 274.644531 237.441406 L 249.707031 237.441406 Z M 249.707031 224.957031 " fill-opacity="1" fill-rule="nonzero"/><path fill="#160059" d="M 262.175781 224.957031 L 274.644531 224.957031 L 274.644531 249.929688 L 262.175781 249.929688 Z M 262.175781 224.957031 " fill-opacity="1" fill-rule="nonzero"/><path fill="#160059" d="M 262.175781 249.929688 L 274.644531 249.929688 L 274.644531 299.871094 L 262.175781 299.871094 Z M 262.175781 249.929688 " fill-opacity="0.5" fill-rule="nonzero"/><path fill="#160059" d="M 224.769531 287.382812 L 237.238281 287.382812 L 237.238281 299.871094 L 224.769531 299.871094 Z M 224.769531 287.382812 " fill-opacity="0.5" fill-rule="nonzero"/><path fill="#160059" d="M 249.707031 224.957031 L 224.769531 224.957031 L 224.769531 274.898438 L 237.238281 274.898438 L 237.238281 237.441406 L 249.707031 237.441406 Z M 249.707031 224.957031 " fill-opacity="0.5" fill-rule="nonzero"/><g clip-path="url(#0ff263ec3c)"><path fill="#ffc627" d="M 262.175781 37.671875 L 262.175781 50.160156 L 249.707031 50.160156 L 249.707031 37.671875 L 237.238281 37.671875 L 237.238281 25.1875 L 224.769531 25.1875 L 224.769531 12.703125 L 212.300781 12.703125 L 212.300781 0.214844 L 137.488281 0.214844 L 137.488281 12.703125 L 125.019531 12.703125 L 125.019531 50.160156 L 112.550781 50.160156 L 112.550781 62.644531 L 100.082031 62.644531 L 100.082031 100.101562 L 87.613281 100.101562 L 87.613281 137.558594 L 100.082031 137.558594 L 100.082031 150.042969 L 112.550781 150.042969 L 112.550781 175.015625 L 100.082031 175.015625 L 100.082031 199.984375 L 112.550781 199.984375 L 112.550781 237.441406 L 100.082031 237.441406 L 100.082031 287.382812 L 112.550781 287.382812 L 112.550781 299.871094 L 125.019531 299.871094 L 125.019531 287.382812 L 137.488281 287.382812 L 137.488281 274.898438 L 149.957031 274.898438 L 149.957031 287.382812 L 162.425781 287.382812 L 162.425781 224.957031 L 149.957031 224.957031 L 149.957031 162.527344 L 137.488281 162.527344 L 137.488281 125.070312 L 125.019531 125.070312 L 125.019531 100.101562 L 137.488281 100.101562 L 137.488281 75.128906 L 187.363281 75.128906 L 187.363281 87.613281 L 199.832031 87.613281 L 199.832031 100.101562 L 224.769531 100.101562 L 224.769531 112.585938 L 237.238281 112.585938 L 237.238281 150.042969 L 249.707031 150.042969 L 249.707031 175.015625 L 262.175781 175.015625 L 262.175781 150.042969 L 274.644531 150.042969 L 274.644531 87.613281 L 287.113281 87.613281 L 287.113281 37.671875 Z M 262.175781 37.671875 " fill-opacity="1" fill-rule="nonzero"/></g><path fill="#160059" d="M 224.769531 262.414062 L 237.238281 262.414062 L 237.238281 274.898438 L 224.769531 274.898438 Z M 224.769531 262.414062 " fill-opacity="1" fill-rule="nonzero"/><path fill="#160059" d="M 237.238281 299.871094 L 262.175781 299.871094 L 262.175781 312.355469 L 237.238281 312.355469 Z M 237.238281 299.871094 " fill-opacity="1" fill-rule="nonzero"/><path fill="#160059" d="M 262.175781 287.382812 L 274.644531 287.382812 L 274.644531 299.871094 L 262.175781 299.871094 Z M 262.175781 287.382812 " fill-opacity="1" fill-rule="nonzero"/><path fill="#160059" d="M 224.769531 187.5 L 237.238281 187.5 L 237.238281 224.957031 L 224.769531 224.957031 Z M 224.769531 187.5 " fill-opacity="0.5" fill-rule="nonzero"/><path fill="#160059" d="M 224.769531 212.472656 L 237.238281 212.472656 L 237.238281 237.441406 L 224.769531 237.441406 Z M 224.769531 212.472656 " fill-opacity="0.5" fill-rule="nonzero"/><path fill="#160059" d="M 237.238281 237.441406 L 262.175781 237.441406 L 262.175781 249.929688 L 237.238281 249.929688 Z M 237.238281 237.441406 " fill-opacity="0.2" fill-rule="nonzero"/><path fill="#160059" d="M 249.707031 237.441406 L 262.175781 237.441406 L 262.175781 262.414062 L 249.707031 262.414062 Z M 249.707031 237.441406 " fill-opacity="0.2" fill-rule="nonzero"/><path fill="#160059" d="M 224.769531 274.898438 L 237.238281 274.898438 L 237.238281 287.382812 L 224.769531 287.382812 Z M 224.769531 274.898438 " fill-opacity="0.2" fill-rule="nonzero"/><path fill="#160059" d="M 237.238281 287.382812 L 249.707031 287.382812 L 249.707031 299.871094 L 237.238281 299.871094 Z M 237.238281 287.382812 " fill-opacity="0.2" fill-rule="nonzero"/><path fill="#160059" d="M 174.894531 212.472656 L 199.832031 212.472656 L 199.832031 224.957031 L 174.894531 224.957031 Z M 174.894531 212.472656 " fill-opacity="1" fill-rule="nonzero"/><path fill="#160059" d="M 174.894531 212.472656 L 187.363281 212.472656 L 187.363281 249.929688 L 174.894531 249.929688 Z M 174.894531 212.472656 " fill-opacity="1" fill-rule="nonzero"/><path fill="#d70400" d="M 187.363281 224.957031 L 199.832031 224.957031 L 199.832031 237.441406 L 187.363281 237.441406 Z M 187.363281 224.957031 " fill-opacity="1" fill-rule="nonzero"/><path fill="#160059" d="M 162.425781 249.929688 L 174.894531 249.929688 L 174.894531 262.414062 L 162.425781 262.414062 Z M 162.425781 249.929688 " fill-opacity="1" fill-rule="nonzero"/><path fill="#160059" d="M 187.363281 249.929688 L 224.769531 249.929688 L 224.769531 262.414062 L 187.363281 262.414062 Z M 187.363281 249.929688 " fill-opacity="1" fill-rule="nonzero"/><path fill="#d70400" d="M 174.894531 249.929688 L 199.832031 249.929688 L 199.832031 262.414062 L 174.894531 262.414062 Z M 174.894531 249.929688 " fill-opacity="1" fill-rule="nonzero"/><path fill="#160059" d="M 174.894531 262.414062 L 187.363281 262.414062 L 187.363281 274.898438 L 174.894531 274.898438 Z M 174.894531 262.414062 " fill-opacity="1" fill-rule="nonzero"/><path fill="#160059" d="M 112.550781 337.328125 L 149.957031 337.328125 L 149.957031 349.8125 L 112.550781 349.8125 Z M 112.550781 337.328125 " fill-opacity="1" fill-rule="nonzero"/><path fill="#160059" d="M 224.769531 337.328125 L 262.175781 337.328125 L 262.175781 349.8125 L 224.769531 349.8125 Z M 224.769531 337.328125 " fill-opacity="1" fill-rule="nonzero"/><path fill="#160059" d="M 262.175781 287.382812 L 274.644531 287.382812 L 274.644531 337.328125 L 262.175781 337.328125 Z M 262.175781 287.382812 " fill-opacity="1" fill-rule="nonzero"/><path fill="#160059" d="M 162.425781 262.414062 L 224.769531 262.414062 L 224.769531 274.898438 L 162.425781 274.898438 Z M 162.425781 262.414062 " fill-opacity="0.5" fill-rule="nonzero"/><path fill="#160059" d="M 199.832031 337.328125 L 199.832031 274.898438 L 187.363281 274.898438 L 187.363281 337.328125 L 162.425781 337.328125 L 162.425781 349.8125 L 212.300781 349.8125 L 212.300781 337.328125 Z M 199.832031 337.328125 " fill-opacity="0.2" fill-rule="nonzero"/><path fill="#160059" d="M 224.769531 299.871094 L 274.644531 299.871094 L 274.644531 324.839844 L 224.769531 324.839844 Z M 224.769531 299.871094 " fill-opacity="0.3" fill-rule="nonzero"/><path fill="#160059" d="M 249.707031 299.871094 L 262.175781 299.871094 L 262.175781 337.328125 L 249.707031 337.328125 Z M 249.707031 299.871094 " fill-opacity="0.3" fill-rule="nonzero"/><g mask="url(#027acf695f)"><g transform="matrix(1, 0, 0, 1, 100, 274)"><g clip-path="url(#916da89820)"><path fill="#160059" d="M 25.019531 13.382812 L 37.488281 13.382812 L 37.488281 25.871094 L 25.019531 25.871094 Z M 25.019531 13.382812 " fill-opacity="1" fill-rule="nonzero"/><g clip-path="url(#78a3f5a81b)"><path fill="#160059" d="M 37.488281 0.898438 L 49.957031 0.898438 L 49.957031 13.382812 L 37.488281 13.382812 Z M 37.488281 0.898438 " fill-opacity="1" fill-rule="nonzero"/></g><g clip-path="url(#3d60f5e62f)"><path fill="#160059" d="M 0.0820312 38.355469 L 0.0820312 63.328125 L 12.550781 63.328125 L 12.550781 38.355469 L 25.019531 38.355469 L 25.019531 25.871094 L 0.0820312 25.871094 Z M 0.0820312 38.355469 " fill-opacity="1" fill-rule="nonzero"/></g></g></g></g><path fill="#160059" d="M 112.550781 312.355469 L 125.019531 312.355469 L 125.019531 337.328125 L 112.550781 337.328125 Z M 112.550781 312.355469 " fill-opacity="0.2" fill-rule="nonzero"/><path fill="#160059" d="M 187.363281 312.355469 L 199.832031 312.355469 L 199.832031 337.328125 L 187.363281 337.328125 Z M 187.363281 312.355469 " fill-opacity="0.2" fill-rule="nonzero"/><path fill="#160059" d="M 137.488281 312.355469 L 149.957031 312.355469 L 149.957031 337.328125 L 137.488281 337.328125 Z M 137.488281 312.355469 " fill-opacity="0.2" fill-rule="nonzero"/><path fill="#160059" d="M 162.425781 299.871094 L 174.894531 299.871094 L 174.894531 324.839844 L 162.425781 324.839844 Z M 162.425781 299.871094 " fill-opacity="0.2" fill-rule="nonzero"/><path fill="#160059" d="M 212.300781 299.871094 L 224.769531 299.871094 L 224.769531 324.839844 L 212.300781 324.839844 Z M 212.300781 299.871094 " fill-opacity="0.2" fill-rule="nonzero"/><path fill="#160059" d="M 100.082031 299.871094 L 112.550781 299.871094 L 112.550781 337.328125 L 100.082031 337.328125 Z M 100.082031 299.871094 " fill-opacity="1" fill-rule="nonzero"/><path fill="#160059" d="M 112.550781 287.382812 L 125.019531 287.382812 L 125.019531 299.871094 L 112.550781 299.871094 Z M 112.550781 287.382812 " fill-opacity="1" fill-rule="nonzero"/><path fill="#160059" d="M 100.082031 237.441406 L 112.550781 237.441406 L 112.550781 287.382812 L 100.082031 287.382812 Z M 100.082031 237.441406 " fill-opacity="1" fill-rule="nonzero"/><path fill="#160059" d="M 112.550781 199.984375 L 125.019531 199.984375 L 125.019531 237.441406 L 112.550781 237.441406 Z M 112.550781 199.984375 " fill-opacity="1" fill-rule="nonzero"/><path fill="#160059" d="M 100.082031 175.015625 L 112.550781 175.015625 L 112.550781 199.984375 L 100.082031 199.984375 Z M 100.082031 175.015625 " fill-opacity="1" fill-rule="nonzero"/><path fill="#160059" d="M 112.550781 150.042969 L 125.019531 150.042969 L 125.019531 175.015625 L 112.550781 175.015625 Z M 112.550781 150.042969 " fill-opacity="1" fill-rule="nonzero"/><path fill="#160059" d="M 100.082031 137.558594 L 112.550781 137.558594 L 112.550781 150.042969 L 100.082031 150.042969 Z M 100.082031 137.558594 " fill-opacity="1" fill-rule="nonzero"/><g clip-path="url(#19df6d5274)"><path fill="#160059" d="M 87.613281 100.101562 L 100.082031 100.101562 L 100.082031 137.558594 L 87.613281 137.558594 Z M 87.613281 100.101562 " fill-opacity="1" fill-rule="nonzero"/></g><path fill="#160059" d="M 100.082031 62.644531 L 112.550781 62.644531 L 112.550781 100.101562 L 100.082031 100.101562 Z M 100.082031 62.644531 " fill-opacity="1" fill-rule="nonzero"/><path fill="#160059" d="M 112.550781 50.160156 L 125.019531 50.160156 L 125.019531 62.644531 L 112.550781 62.644531 Z M 112.550781 50.160156 " fill-opacity="1" fill-rule="nonzero"/><path fill="#160059" d="M 125.019531 12.703125 L 137.488281 12.703125 L 137.488281 50.160156 L 125.019531 50.160156 Z M 125.019531 12.703125 " fill-opacity="1" fill-rule="nonzero"/><path fill="#160059" d="M 137.488281 0.214844 L 174.894531 0.214844 L 174.894531 12.703125 L 137.488281 12.703125 Z M 137.488281 0.214844 " fill-opacity="1" fill-rule="nonzero"/><path fill="#160059" d="M 137.488281 75.128906 L 187.363281 75.128906 L 187.363281 87.613281 L 137.488281 87.613281 Z M 137.488281 75.128906 " fill-opacity="0.3" fill-rule="nonzero"/><path fill="#160059" d="M 137.488281 62.644531 L 187.363281 62.644531 L 187.363281 75.128906 L 137.488281 75.128906 Z M 137.488281 62.644531 " fill-opacity="1" fill-rule="nonzero"/><path fill="#160059" d="M 125.019531 75.128906 L 137.488281 75.128906 L 137.488281 100.101562 L 125.019531 100.101562 Z M 125.019531 75.128906 " fill-opacity="1" fill-rule="nonzero"/><path fill="#160059" d="M 112.550781 100.101562 L 125.019531 100.101562 L 125.019531 125.070312 L 112.550781 125.070312 Z M 112.550781 100.101562 " fill-opacity="1" fill-rule="nonzero"/><path fill="#160059" d="M 125.019531 125.070312 L 137.488281 125.070312 L 137.488281 150.042969 L 125.019531 150.042969 Z M 125.019531 125.070312 " fill-opacity="1" fill-rule="nonzero"/><path fill="#160059" d="M 137.488281 150.042969 L 174.894531 150.042969 L 174.894531 162.527344 L 137.488281 162.527344 Z M 137.488281 150.042969 " fill-opacity="1" fill-rule="nonzero"/><path fill="#160059" d="M 174.894531 162.527344 L 199.832031 162.527344 L 199.832031 175.015625 L 174.894531 175.015625 Z M 174.894531 162.527344 " fill-opacity="0.5" fill-rule="nonzero"/><path fill="#160059" d="M 199.832031 150.042969 L 237.238281 150.042969 L 237.238281 162.527344 L 199.832031 162.527344 Z M 199.832031 150.042969 " fill-opacity="1" fill-rule="nonzero"/><path fill="#160059" d="M 187.363281 75.128906 L 199.832031 75.128906 L 199.832031 87.613281 L 187.363281 87.613281 Z M 187.363281 75.128906 " fill-opacity="1" fill-rule="nonzero"/><path fill="#160059" d="M 199.832031 87.613281 L 224.769531 87.613281 L 224.769531 100.101562 L 199.832031 100.101562 Z M 199.832031 87.613281 " fill-opacity="1" fill-rule="nonzero"/><path fill="#160059" d="M 224.769531 100.101562 L 237.238281 100.101562 L 237.238281 112.585938 L 224.769531 112.585938 Z M 224.769531 100.101562 " fill-opacity="1" fill-rule="nonzero"/><path fill="#160059" d="M 237.238281 112.585938 L 249.707031 112.585938 L 249.707031 150.042969 L 237.238281 150.042969 Z M 237.238281 112.585938 " fill-opacity="1" fill-rule="nonzero"/><path fill="#160059" d="M 262.175781 87.613281 L 274.644531 87.613281 L 274.644531 150.042969 L 262.175781 150.042969 Z M 262.175781 87.613281 " fill-opacity="0.5" fill-rule="nonzero"/><path fill="#160059" d="M 237.238281 37.671875 L 249.707031 37.671875 L 249.707031 50.160156 L 237.238281 50.160156 Z M 237.238281 37.671875 " fill-opacity="0.5" fill-rule="nonzero"/><path fill="#160059" d="M 224.769531 25.1875 L 237.238281 25.1875 L 237.238281 37.671875 L 224.769531 37.671875 Z M 224.769531 25.1875 " fill-opacity="0.5" fill-rule="nonzero"/><path fill="#160059" d="M 212.300781 12.703125 L 224.769531 12.703125 L 224.769531 25.1875 L 212.300781 25.1875 Z M 212.300781 12.703125 " fill-opacity="0.5" fill-rule="nonzero"/><path fill="#160059" d="M 137.488281 37.671875 L 149.957031 37.671875 L 149.957031 50.160156 L 137.488281 50.160156 Z M 137.488281 37.671875 " fill-opacity="0.2" fill-rule="nonzero"/><path fill="#160059" d="M 149.957031 50.160156 L 162.425781 50.160156 L 162.425781 62.644531 L 149.957031 62.644531 Z M 149.957031 50.160156 " fill-opacity="0.2" fill-rule="nonzero"/><path fill="#160059" d="M 162.425781 25.1875 L 187.363281 25.1875 L 187.363281 37.671875 L 162.425781 37.671875 Z M 162.425781 25.1875 " fill-opacity="0.2" fill-rule="nonzero"/><path fill="#160059" d="M 212.300781 75.128906 L 224.769531 75.128906 L 224.769531 87.613281 L 212.300781 87.613281 Z M 212.300781 75.128906 " fill-opacity="0.2" fill-rule="nonzero"/><path fill="#160059" d="M 249.707031 150.042969 L 262.175781 150.042969 L 262.175781 175.015625 L 249.707031 175.015625 Z M 249.707031 150.042969 " fill-opacity="0.5" fill-rule="nonzero"/><path fill="#160059" d="M 249.707031 112.585938 L 262.175781 112.585938 L 262.175781 137.558594 L 249.707031 137.558594 Z M 249.707031 112.585938 " fill-opacity="0.2" fill-rule="nonzero"/><path fill="#160059" d="M 237.238281 75.128906 L 262.175781 75.128906 L 262.175781 87.613281 L 237.238281 87.613281 Z M 237.238281 75.128906 " fill-opacity="0.2" fill-rule="nonzero"/><path fill="#160059" d="M 224.769531 62.644531 L 237.238281 62.644531 L 237.238281 75.128906 L 224.769531 75.128906 Z M 224.769531 62.644531 " fill-opacity="0.2" fill-rule="nonzero"/><path fill="#160059" d="M 249.707031 50.160156 L 262.175781 50.160156 L 262.175781 62.644531 L 249.707031 62.644531 Z M 249.707031 50.160156 " fill-opacity="0.5" fill-rule="nonzero"/><g clip-path="url(#1ac77225d2)"><path fill="#160059" d="M 274.644531 37.671875 L 262.175781 37.671875 L 262.175781 50.160156 L 274.644531 50.160156 L 274.644531 87.613281 L 287.113281 87.613281 L 287.113281 37.671875 Z M 274.644531 37.671875 " fill-opacity="0.5" fill-rule="nonzero"/></g><path fill="#160059" d="M 212.300781 50.160156 L 224.769531 50.160156 L 224.769531 62.644531 L 212.300781 62.644531 Z M 212.300781 50.160156 " fill-opacity="0.2" fill-rule="nonzero"/><path fill="#160059" d="M 187.363281 37.671875 L 199.832031 37.671875 L 199.832031 50.160156 L 187.363281 50.160156 Z M 187.363281 37.671875 " fill-opacity="0.2" fill-rule="nonzero"/><path fill="#160059" d="M 187.363281 12.703125 L 199.832031 12.703125 L 199.832031 25.1875 L 187.363281 25.1875 Z M 187.363281 12.703125 " fill-opacity="0.2" fill-rule="nonzero"/><path fill="#160059" d="M 199.832031 25.1875 L 212.300781 25.1875 L 212.300781 37.671875 L 199.832031 37.671875 Z M 199.832031 25.1875 " fill-opacity="0.2" fill-rule="nonzero"/><path fill="#160059" d="M 125.019531 62.644531 L 137.488281 62.644531 L 137.488281 75.128906 L 125.019531 75.128906 Z M 125.019531 62.644531 " fill-opacity="0.2" fill-rule="nonzero"/><path fill="#160059" d="M 174.894531 0.214844 L 212.300781 0.214844 L 212.300781 12.703125 L 174.894531 12.703125 Z M 174.894531 0.214844 " fill-opacity="0.5" fill-rule="nonzero"/><path fill="#160059" d="M 137.488281 12.703125 L 149.957031 12.703125 L 149.957031 37.671875 L 137.488281 37.671875 Z M 137.488281 12.703125 " fill-opacity="0.5" fill-rule="nonzero"/><path fill="#160059" d="M 199.832031 112.585938 L 224.769531 112.585938 L 224.769531 125.070312 L 199.832031 125.070312 Z M 199.832031 112.585938 " fill-opacity="1" fill-rule="nonzero"/><path fill="#160059" d="M 149.957031 112.585938 L 174.894531 112.585938 L 174.894531 125.070312 L 149.957031 125.070312 Z M 149.957031 112.585938 " fill-opacity="1" fill-rule="nonzero"/><path fill="#8217ff" d="M 199.832031 125.070312 L 212.300781 125.070312 L 212.300781 137.558594 L 199.832031 137.558594 Z M 199.832031 125.070312 " fill-opacity="1" fill-rule="nonzero"/><path fill="#8217ff" d="M 162.425781 125.070312 L 174.894531 125.070312 L 174.894531 137.558594 L 162.425781 137.558594 Z M 162.425781 125.070312 " fill-opacity="1" fill-rule="nonzero"/><path fill="#160059" d="M 125.019531 100.101562 L 137.488281 100.101562 L 137.488281 125.070312 L 125.019531 125.070312 Z M 125.019531 100.101562 " fill-opacity="0.3" fill-rule="nonzero"/><path fill="#160059" d="M 224.769531 112.585938 L 237.238281 112.585938 L 237.238281 150.042969 L 224.769531 150.042969 Z M 224.769531 112.585938 " fill-opacity="0.3" fill-rule="nonzero"/><path fill="#160059" d="M 137.488281 125.070312 L 149.957031 125.070312 L 149.957031 150.042969 L 137.488281 150.042969 Z M 137.488281 125.070312 " fill-opacity="0.3" fill-rule="nonzero"/><path fill="#160059" d="M 137.488281 75.128906 L 149.957031 75.128906 L 149.957031 100.101562 L 137.488281 100.101562 Z M 137.488281 75.128906 " fill-opacity="0.3" fill-rule="nonzero"/><path fill="#160059" d="M 137.488281 150.042969 L 149.957031 150.042969 L 149.957031 224.957031 L 137.488281 224.957031 Z M 137.488281 150.042969 " fill-opacity="1" fill-rule="nonzero"/><path fill="#160059" d="M 149.957031 224.957031 L 162.425781 224.957031 L 162.425781 287.382812 L 149.957031 287.382812 Z M 149.957031 224.957031 " fill-opacity="1" fill-rule="nonzero"/><path fill="#160059" d="M 112.550781 274.898438 L 137.488281 274.898438 L 137.488281 287.382812 L 112.550781 287.382812 Z M 112.550781 274.898438 " fill-opacity="1" fill-rule="nonzero"/><path fill="#160059" d="M 137.488281 262.414062 L 149.957031 262.414062 L 149.957031 274.898438 L 137.488281 274.898438 Z M 137.488281 262.414062 " fill-opacity="1" fill-rule="nonzero"/><path fill="#160059" d="M 112.550781 175.015625 L 125.019531 175.015625 L 125.019531 199.984375 L 112.550781 199.984375 Z M 112.550781 175.015625 " fill-opacity="0.3" fill-rule="nonzero"/><path fill="#160059" d="M 112.550781 125.070312 L 125.019531 125.070312 L 125.019531 137.558594 L 112.550781 137.558594 Z M 112.550781 125.070312 " fill-opacity="0.3" fill-rule="nonzero"/><path fill="#160059" d="M 100.082031 100.101562 L 112.550781 100.101562 L 112.550781 112.585938 L 100.082031 112.585938 Z M 100.082031 100.101562 " fill-opacity="0.3" fill-rule="nonzero"/><path fill="#160059" d="M 125.019531 199.984375 L 137.488281 199.984375 L 137.488281 224.957031 L 125.019531 224.957031 Z M 125.019531 199.984375 " fill-opacity="0.3" fill-rule="nonzero"/><path fill="#160059" d="M 137.488281 224.957031 L 149.957031 224.957031 L 149.957031 249.929688 L 137.488281 249.929688 Z M 137.488281 224.957031 " fill-opacity="0.3" fill-rule="nonzero"/><path fill="#160059" d="M 112.550781 237.441406 L 125.019531 237.441406 L 125.019531 262.414062 L 112.550781 262.414062 Z M 112.550781 237.441406 " fill-opacity="0.3" fill-rule="nonzero"/><path fill="#160059" d="M 162.425781 349.8125 L 112.550781 349.8125 L 112.550781 374.785156 L 162.425781 374.785156 L 162.425781 362.296875 L 174.894531 362.296875 L 174.894531 349.8125 Z M 162.425781 349.8125 " fill-opacity="1" fill-rule="nonzero"/><path fill="#160059" d="M 212.300781 349.8125 L 262.175781 349.8125 L 262.175781 374.785156 L 212.300781 374.785156 L 212.300781 362.296875 L 199.832031 362.296875 L 199.832031 349.8125 Z M 212.300781 349.8125 " fill-opacity="1" fill-rule="nonzero"/><path fill="#d70400" d="M 125.019531 349.8125 L 162.425781 349.8125 L 162.425781 362.296875 L 125.019531 362.296875 Z M 125.019531 349.8125 " fill-opacity="1" fill-rule="nonzero"/><path fill="#d70400" d="M 212.300781 349.8125 L 249.707031 349.8125 L 249.707031 362.296875 L 212.300781 362.296875 Z M 212.300781 349.8125 " fill-opacity="1" fill-rule="nonzero"/><path fill="#160059" d="M 149.957031 349.8125 L 162.425781 349.8125 L 162.425781 362.296875 L 149.957031 362.296875 Z M 149.957031 349.8125 " fill-opacity="0.3" fill-rule="nonzero"/><path fill="#160059" d="M 212.300781 349.8125 L 224.769531 349.8125 L 224.769531 362.296875 L 212.300781 362.296875 Z M 212.300781 349.8125 " fill-opacity="0.3" fill-rule="nonzero"/><path fill="#160059" d="M 212.300781 162.527344 L 237.238281 162.527344 L 237.238281 175.015625 L 212.300781 175.015625 Z M 212.300781 162.527344 " fill-opacity="0.2" fill-rule="nonzero"/><path fill="#160059" d="M 149.957031 162.527344 L 162.425781 162.527344 L 162.425781 175.015625 L 149.957031 175.015625 Z M 149.957031 162.527344 " fill-opacity="0.2" fill-rule="nonzero"/></svg>