<svg xmlns="http://www.w3.org/2000/svg" xmlns:xlink="http://www.w3.org/1999/xlink" width="500" zoomAndPan="magnify" viewBox="0 0 375 374.999991" height="500" preserveAspectRatio="xMidYMid meet" version="1.0"><defs><clipPath id="85aa2046af"><path d="M 0 14.316406 L 375 14.316406 L 375 360.816406 L 0 360.816406 Z M 0 14.316406 " clip-rule="nonzero"/></clipPath><clipPath id="09df7681ae"><path d="M 57 14.316406 L 87 14.316406 L 87 44 L 57 44 Z M 57 14.316406 " clip-rule="nonzero"/></clipPath><clipPath id="919655d73a"><path d="M 173 331 L 202 331 L 202 360.816406 L 173 360.816406 Z M 173 331 " clip-rule="nonzero"/></clipPath><clipPath id="ea729a1fe6"><path d="M 230 14.316406 L 260 14.316406 L 260 44 L 230 44 Z M 230 14.316406 " clip-rule="nonzero"/></clipPath></defs><g clip-path="url(#85aa2046af)"><path fill="#2e1b5b" d="M 346.152344 72.136719 L 346.152344 43.277344 L 317.308594 43.277344 L 317.308594 14.421875 L 230.769531 14.421875 L 230.769531 43.277344 L 201.921875 43.277344 L 201.921875 72.136719 L 173.078125 72.136719 L 173.078125 43.277344 L 144.230469 43.277344 L 144.230469 14.421875 L 57.691406 14.421875 L 57.691406 43.277344 L 28.847656 43.277344 L 28.847656 72.136719 L 0 72.136719 L 0 187.566406 L 28.847656 187.566406 L 28.847656 216.425781 L 57.691406 216.425781 L 57.691406 245.285156 L 86.539062 245.285156 L 86.539062 274.140625 L 115.382812 274.140625 L 115.382812 303 L 144.230469 303 L 144.230469 331.859375 L 173.078125 331.859375 L 173.078125 360.714844 L 201.921875 360.714844 L 201.921875 331.859375 L 230.769531 331.859375 L 230.769531 303 L 259.617188 303 L 259.617188 274.140625 L 288.460938 274.140625 L 288.460938 245.285156 L 317.308594 245.285156 L 317.308594 216.425781 L 346.152344 216.425781 L 346.152344 187.566406 L 375 187.566406 L 375 72.136719 Z M 346.152344 72.136719 " fill-opacity="1" fill-rule="nonzero"/><path fill="#ff0000" d="M 346.152344 72.136719 L 346.152344 43.277344 L 317.308594 43.277344 L 317.308594 14.421875 L 230.769531 14.421875 L 230.769531 43.277344 L 201.921875 43.277344 L 201.921875 72.136719 L 173.078125 72.136719 L 173.078125 43.277344 L 144.230469 43.277344 L 144.230469 14.421875 L 57.691406 14.421875 L 57.691406 43.277344 L 28.847656 43.277344 L 28.847656 72.136719 L 0 72.136719 L 0 187.566406 L 28.847656 187.566406 L 28.847656 216.425781 L 57.691406 216.425781 L 57.691406 245.285156 L 86.539062 245.285156 L 86.539062 274.140625 L 115.382812 274.140625 L 115.382812 303 L 144.230469 303 L 144.230469 331.859375 L 173.078125 331.859375 L 173.078125 360.714844 L 201.921875 360.714844 L 201.921875 331.859375 L 230.769531 331.859375 L 230.769531 303 L 259.617188 303 L 259.617188 274.140625 L 288.460938 274.140625 L 288.460938 245.285156 L 317.308594 245.285156 L 317.308594 216.425781 L 346.152344 216.425781 L 346.152344 187.566406 L 375 187.566406 L 375 72.136719 Z M 346.152344 72.136719 " fill-opacity="1" fill-rule="nonzero"/></g><g clip-path="url(#09df7681ae)"><path fill="#2e1b5b" d="M 57.691406 14.421875 L 86.539062 14.421875 L 86.539062 43.277344 L 57.691406 43.277344 Z M 57.691406 14.421875 " fill-opacity="1" fill-rule="nonzero"/></g><path fill="#2e1b5b" d="M 28.847656 43.277344 L 57.691406 43.277344 L 57.691406 72.136719 L 28.847656 72.136719 Z M 28.847656 43.277344 " fill-opacity="1" fill-rule="nonzero"/><path fill="#2e1b5b" d="M 0 72.136719 L 28.847656 72.136719 L 28.847656 187.566406 L 0 187.566406 Z M 0 72.136719 " fill-opacity="1" fill-rule="nonzero"/><path fill="#2e1b5b" d="M 28.847656 187.566406 L 57.691406 187.566406 L 57.691406 216.425781 L 28.847656 216.425781 Z M 28.847656 187.566406 " fill-opacity="1" fill-rule="nonzero"/><path fill="#2e1b5b" d="M 57.691406 216.425781 L 86.539062 216.425781 L 86.539062 245.285156 L 57.691406 245.285156 Z M 57.691406 216.425781 " fill-opacity="1" fill-rule="nonzero"/><path fill="#2e1b5b" d="M 86.539062 245.285156 L 115.382812 245.285156 L 115.382812 274.140625 L 86.539062 274.140625 Z M 86.539062 245.285156 " fill-opacity="1" fill-rule="nonzero"/><path fill="#2e1b5b" d="M 115.382812 274.140625 L 144.230469 274.140625 L 144.230469 303 L 115.382812 303 Z M 115.382812 274.140625 " fill-opacity="1" fill-rule="nonzero"/><path fill="#2e1b5b" d="M 144.230469 303 L 173.078125 303 L 173.078125 331.859375 L 144.230469 331.859375 Z M 144.230469 303 " fill-opacity="1" fill-rule="nonzero"/><g clip-path="url(#919655d73a)"><path fill="#2e1b5b" d="M 173.078125 331.859375 L 201.921875 331.859375 L 201.921875 360.714844 L 173.078125 360.714844 Z M 173.078125 331.859375 " fill-opacity="1" fill-rule="nonzero"/></g><path fill="#2e1b5b" d="M 201.921875 43.277344 L 230.769531 43.277344 L 230.769531 72.136719 L 201.921875 72.136719 Z M 201.921875 43.277344 " fill-opacity="1" fill-rule="nonzero"/><g clip-path="url(#ea729a1fe6)"><path fill="#2e1b5b" d="M 230.769531 14.421875 L 259.617188 14.421875 L 259.617188 43.277344 L 230.769531 43.277344 Z M 230.769531 14.421875 " fill-opacity="1" fill-rule="nonzero"/></g><path fill="#c30000" d="M 86.539062 216.425781 L 115.382812 216.425781 L 115.382812 245.285156 L 86.539062 245.285156 Z M 86.539062 216.425781 " fill-opacity="1" fill-rule="nonzero"/><path fill="#c30000" d="M 115.382812 245.285156 L 144.230469 245.285156 L 144.230469 274.140625 L 115.382812 274.140625 Z M 115.382812 245.285156 " fill-opacity="1" fill-rule="nonzero"/><path fill="#c30000" d="M 144.230469 274.140625 L 173.078125 274.140625 L 173.078125 303 L 144.230469 303 Z M 144.230469 274.140625 " fill-opacity="1" fill-rule="nonzero"/><path fill="#c30000" d="M 173.078125 303 L 201.921875 303 L 201.921875 331.859375 L 173.078125 331.859375 Z M 173.078125 303 " fill-opacity="1" fill-rule="nonzero"/><path fill="#c30000" d="M 57.691406 43.277344 L 86.539062 43.277344 L 86.539062 72.136719 L 57.691406 72.136719 Z M 57.691406 43.277344 " fill-opacity="1" fill-rule="nonzero"/><path fill="#c30000" d="M 86.539062 129.851562 L 86.539062 100.996094 L 57.691406 100.996094 L 57.691406 72.136719 L 28.847656 72.136719 L 28.847656 187.566406 L 57.691406 187.566406 L 57.691406 216.425781 L 86.539062 216.425781 L 86.539062 158.710938 L 57.691406 158.710938 L 57.691406 129.851562 Z M 86.539062 129.851562 " fill-opacity="1" fill-rule="nonzero"/><path fill="#c30000" d="M 115.382812 187.566406 L 144.230469 187.566406 L 144.230469 216.425781 L 115.382812 216.425781 Z M 115.382812 187.566406 " fill-opacity="1" fill-rule="nonzero"/><path fill="#c30000" d="M 144.230469 158.710938 L 173.078125 158.710938 L 173.078125 187.566406 L 144.230469 187.566406 Z M 144.230469 158.710938 " fill-opacity="1" fill-rule="nonzero"/><path fill="#c30000" d="M 173.078125 245.285156 L 201.921875 245.285156 L 201.921875 274.140625 L 173.078125 274.140625 Z M 173.078125 245.285156 " fill-opacity="1" fill-rule="nonzero"/><path fill="#c30000" d="M 144.230469 216.425781 L 173.078125 216.425781 L 173.078125 245.285156 L 144.230469 245.285156 Z M 144.230469 216.425781 " fill-opacity="1" fill-rule="nonzero"/><path fill="#c30000" d="M 230.769531 216.425781 L 259.617188 216.425781 L 259.617188 245.285156 L 230.769531 245.285156 Z M 230.769531 216.425781 " fill-opacity="1" fill-rule="nonzero"/><path fill="#c30000" d="M 201.921875 274.140625 L 230.769531 274.140625 L 230.769531 303 L 201.921875 303 Z M 201.921875 274.140625 " fill-opacity="1" fill-rule="nonzero"/><path fill="#f8fffb" d="M 86.539062 100.996094 L 115.382812 100.996094 L 115.382812 129.851562 L 86.539062 129.851562 Z M 86.539062 100.996094 " fill-opacity="1" fill-rule="nonzero"/><path fill="#f8fffb" d="M 57.691406 129.851562 L 86.539062 129.851562 L 86.539062 158.710938 L 57.691406 158.710938 Z M 57.691406 129.851562 " fill-opacity="1" fill-rule="nonzero"/><path fill="#f8fffb" d="M 57.691406 72.136719 L 86.539062 72.136719 L 86.539062 100.996094 L 57.691406 100.996094 Z M 57.691406 72.136719 " fill-opacity="1" fill-rule="nonzero"/><path fill="#ff4d4d" d="M 86.539062 72.136719 L 144.230469 72.136719 L 144.230469 100.996094 L 86.539062 100.996094 Z M 86.539062 72.136719 " fill-opacity="1" fill-rule="nonzero"/><path fill="#ff4d4d" d="M 57.691406 100.996094 L 86.539062 100.996094 L 86.539062 129.851562 L 57.691406 129.851562 Z M 57.691406 100.996094 " fill-opacity="1" fill-rule="nonzero"/><path fill="#ff4d4d" d="M 86.539062 187.566406 L 144.230469 187.566406 L 144.230469 158.710938 L 115.382812 158.710938 L 115.382812 129.851562 L 86.539062 129.851562 Z M 86.539062 187.566406 " fill-opacity="1" fill-rule="nonzero"/></svg>