<svg xmlns="http://www.w3.org/2000/svg" xmlns:xlink="http://www.w3.org/1999/xlink" width="500" zoomAndPan="magnify" viewBox="0 0 375 374.999991" height="500" preserveAspectRatio="xMidYMid meet" version="1.0"><path fill="#ffffff" d="M 211.425781 375 L 211.425781 342.449219 L 195.148438 342.449219 L 195.148438 277.425781 L 179.851562 277.425781 L 179.851562 342.449219 L 163.574219 342.449219 L 163.574219 375 L 48.824219 375 L 48.824219 342.449219 L 32.550781 342.449219 L 32.550781 292.726562 L 48.824219 292.726562 L 48.824219 277.425781 L 16.273438 277.425781 L 16.273438 244.875 L 0 244.875 L 0 97.574219 L 16.273438 97.574219 L 16.273438 65.101562 L 65.023438 65.023438 L 65.023438 32.550781 L 81.300781 32.550781 L 81.300781 0 L 163.574219 0 L 163.574219 32.550781 L 211.425781 32.550781 L 211.425781 0 L 293.699219 0 L 293.699219 32.550781 L 309.976562 32.550781 L 309.976562 65.023438 L 358.726562 65.101562 L 358.726562 97.574219 L 375 97.574219 L 375 244.875 L 358.726562 244.875 L 358.726562 277.425781 L 326.175781 277.425781 L 326.175781 292.726562 L 342.449219 292.726562 L 342.449219 342.449219 L 326.175781 342.449219 L 326.175781 375 Z M 211.425781 375 " fill-opacity="1" fill-rule="nonzero"/><path fill="#000000" d="M 187.5 41.175781 L 154.949219 41.175781 L 154.949219 8.625 L 89.925781 8.625 L 89.925781 41.175781 L 73.648438 41.175781 L 73.648438 73.648438 L 24.898438 73.648438 L 24.898438 106.199219 L 8.625 106.199219 L 8.625 236.25 L 24.898438 236.25 L 24.898438 268.800781 L 57.449219 268.800781 L 57.449219 301.351562 L 41.175781 301.351562 L 41.175781 333.824219 L 57.449219 333.824219 L 57.449219 366.375 L 154.949219 366.375 L 154.949219 333.824219 L 171.226562 333.824219 L 171.226562 268.800781 L 203.773438 268.800781 L 203.773438 333.824219 L 220.050781 333.824219 L 220.050781 366.375 L 317.550781 366.375 L 317.550781 333.824219 L 333.824219 333.824219 L 333.824219 301.351562 L 317.550781 301.351562 L 317.550781 268.800781 L 350.101562 268.800781 L 350.101562 236.25 L 366.375 236.25 L 366.375 106.199219 L 350.101562 106.199219 L 350.101562 73.648438 L 301.351562 73.648438 L 301.351562 41.175781 L 285.074219 41.175781 L 285.074219 8.625 L 220.050781 8.625 L 220.050781 41.175781 Z M 187.5 41.175781 " fill-opacity="1" fill-rule="nonzero"/><path fill="#7304d7" d="M 252.523438 73.648438 L 236.25 73.648438 L 236.25 41.175781 L 268.800781 41.175781 L 268.800781 73.726562 Z M 317.625 106.199219 L 301.351562 106.199219 L 301.351562 138.75 L 268.800781 138.75 L 268.800781 106.199219 L 236.25 106.199219 L 236.25 73.648438 L 187.425781 73.648438 L 187.425781 73.726562 L 187.425781 73.648438 L 138.601562 73.648438 L 138.601562 106.199219 L 106.050781 106.199219 L 106.050781 138.75 L 73.5 138.75 L 73.5 106.199219 L 40.949219 106.199219 L 40.949219 236.25 L 73.5 236.25 L 73.5 203.773438 L 106.050781 203.773438 L 106.050781 301.351562 L 73.5 301.351562 L 73.5 333.898438 L 138.601562 333.898438 L 138.601562 236.25 L 236.25 236.25 L 236.25 333.898438 L 301.351562 333.898438 L 301.351562 301.351562 L 268.800781 301.351562 L 268.800781 203.773438 L 301.351562 203.773438 L 301.351562 236.25 L 333.898438 236.25 L 333.898438 106.125 Z M 122.398438 41.175781 L 106.125 41.175781 L 106.125 73.726562 L 138.675781 73.726562 L 138.675781 41.175781 Z M 122.398438 41.175781 " fill-opacity="1" fill-rule="nonzero"/><path fill="#fb038e" d="M 252.523438 138.75 L 252.523438 171.300781 L 219.976562 171.300781 L 219.976562 138.75 Z M 138.675781 138.75 L 122.398438 138.75 L 122.398438 171.300781 L 154.949219 171.300781 L 154.949219 138.75 Z M 138.675781 138.75 " fill-opacity="1" fill-rule="nonzero"/></svg>