<svg xmlns="http://www.w3.org/2000/svg" xmlns:xlink="http://www.w3.org/1999/xlink" width="500" zoomAndPan="magnify" viewBox="0 0 375 374.999991" height="500" preserveAspectRatio="xMidYMid meet" version="1.0"><defs><clipPath id="94eaa2e122"><path d="M 187 7.734375 L 203 7.734375 L 203 23 L 187 23 Z M 187 7.734375 " clip-rule="nonzero"/></clipPath><clipPath id="467da38b9c"><path d="M 284 352 L 300 352 L 300 366.984375 L 284 366.984375 Z M 284 352 " clip-rule="nonzero"/></clipPath><clipPath id="6e910a8b88"><path d="M 172 7.734375 L 188 7.734375 L 188 23 L 172 23 Z M 172 7.734375 " clip-rule="nonzero"/></clipPath><clipPath id="8630f87455"><path d="M 75 352 L 91 352 L 91 366.984375 L 75 366.984375 Z M 75 352 " clip-rule="nonzero"/></clipPath></defs><path fill="#fde057" d="M 149.914062 112.578125 L 134.933594 112.578125 L 134.933594 127.550781 L 149.914062 127.550781 L 149.914062 112.578125 " fill-opacity="1" fill-rule="nonzero"/><path fill="#fde057" d="M 164.90625 112.578125 L 149.925781 112.578125 L 149.925781 127.550781 L 164.90625 127.550781 L 164.90625 112.578125 " fill-opacity="1" fill-rule="nonzero"/><path fill="#fbc308" d="M 179.871094 112.578125 L 164.886719 112.578125 L 164.886719 127.550781 L 179.871094 127.550781 L 179.871094 112.578125 " fill-opacity="1" fill-rule="nonzero"/><path fill="#fbc308" d="M 194.835938 112.578125 L 179.851562 112.578125 L 179.851562 127.550781 L 194.835938 127.550781 L 194.835938 112.578125 " fill-opacity="1" fill-rule="nonzero"/><path fill="#fbc308" d="M 209.824219 112.578125 L 194.839844 112.578125 L 194.839844 127.550781 L 209.824219 127.550781 L 209.824219 112.578125 " fill-opacity="1" fill-rule="nonzero"/><path fill="#fbc308" d="M 224.8125 112.578125 L 209.832031 112.578125 L 209.832031 127.550781 L 224.8125 127.550781 L 224.8125 112.578125 " fill-opacity="1" fill-rule="nonzero"/><path fill="#fbc308" d="M 239.828125 112.578125 L 224.847656 112.578125 L 224.847656 127.550781 L 239.828125 127.550781 L 239.828125 112.578125 " fill-opacity="1" fill-rule="nonzero"/><path fill="#fbc308" d="M 45.078125 157.488281 L 30.09375 157.488281 L 30.09375 172.457031 L 45.078125 172.457031 L 45.078125 157.488281 " fill-opacity="1" fill-rule="nonzero"/><path fill="#fbc308" d="M 60.070312 157.488281 L 45.085938 157.488281 L 45.085938 172.457031 L 60.070312 172.457031 L 60.070312 157.488281 " fill-opacity="1" fill-rule="nonzero"/><path fill="#fbc308" d="M 75.035156 157.488281 L 60.050781 157.488281 L 60.050781 172.457031 L 75.035156 172.457031 L 75.035156 157.488281 " fill-opacity="1" fill-rule="nonzero"/><path fill="#fbc308" d="M 90 157.488281 L 75.015625 157.488281 L 75.015625 172.457031 L 90 172.457031 L 90 157.488281 " fill-opacity="1" fill-rule="nonzero"/><path fill="#fbc308" d="M 104.984375 157.488281 L 90.003906 157.488281 L 90.003906 172.457031 L 104.984375 172.457031 L 104.984375 157.488281 " fill-opacity="1" fill-rule="nonzero"/><path fill="#fbc308" d="M 119.976562 157.488281 L 104.996094 157.488281 L 104.996094 172.457031 L 119.976562 172.457031 L 119.976562 157.488281 " fill-opacity="1" fill-rule="nonzero"/><path fill="#fbc308" d="M 134.992188 157.488281 L 120.007812 157.488281 L 120.007812 172.457031 L 134.992188 172.457031 L 134.992188 157.488281 " fill-opacity="1" fill-rule="nonzero"/><path fill="#fbc308" d="M 149.960938 157.488281 L 134.976562 157.488281 L 134.976562 172.457031 L 149.960938 172.457031 L 149.960938 157.488281 " fill-opacity="1" fill-rule="nonzero"/><path fill="#fbc308" d="M 164.949219 157.488281 L 149.964844 157.488281 L 149.964844 172.457031 L 164.949219 172.457031 L 164.949219 157.488281 " fill-opacity="1" fill-rule="nonzero"/><path fill="#fbc308" d="M 179.914062 157.488281 L 164.929688 157.488281 L 164.929688 172.457031 L 179.914062 172.457031 L 179.914062 157.488281 " fill-opacity="1" fill-rule="nonzero"/><path fill="#fbc308" d="M 194.875 157.488281 L 179.894531 157.488281 L 179.894531 172.457031 L 194.875 172.457031 L 194.875 157.488281 " fill-opacity="1" fill-rule="nonzero"/><path fill="#fbc308" d="M 209.867188 157.488281 L 194.886719 157.488281 L 194.886719 172.457031 L 209.867188 172.457031 L 209.867188 157.488281 " fill-opacity="1" fill-rule="nonzero"/><path fill="#fbc308" d="M 224.855469 157.488281 L 209.875 157.488281 L 209.875 172.457031 L 224.855469 172.457031 L 224.855469 157.488281 " fill-opacity="1" fill-rule="nonzero"/><path fill="#fbc308" d="M 239.875 157.488281 L 224.894531 157.488281 L 224.894531 172.457031 L 239.875 172.457031 L 239.875 157.488281 " fill-opacity="1" fill-rule="nonzero"/><path fill="#fbc308" d="M 254.730469 157.488281 L 239.746094 157.488281 L 239.746094 172.457031 L 254.730469 172.457031 L 254.730469 157.488281 " fill-opacity="1" fill-rule="nonzero"/><path fill="#f89c0e" d="M 284.679688 157.488281 L 269.699219 157.488281 L 269.699219 172.457031 L 284.679688 172.457031 L 284.679688 157.488281 " fill-opacity="1" fill-rule="nonzero"/><path fill="#f89c0e" d="M 299.644531 157.488281 L 284.660156 157.488281 L 284.660156 172.457031 L 299.644531 172.457031 L 299.644531 157.488281 " fill-opacity="1" fill-rule="nonzero"/><path fill="#f89c0e" d="M 314.636719 157.488281 L 299.652344 157.488281 L 299.652344 172.457031 L 314.636719 172.457031 L 314.636719 157.488281 " fill-opacity="1" fill-rule="nonzero"/><path fill="#f89c0e" d="M 329.625 157.488281 L 314.644531 157.488281 L 314.644531 172.457031 L 329.625 172.457031 L 329.625 157.488281 " fill-opacity="1" fill-rule="nonzero"/><path fill="#fbc308" d="M 60.070312 172.457031 L 45.085938 172.457031 L 45.085938 187.429688 L 60.070312 187.429688 L 60.070312 172.457031 " fill-opacity="1" fill-rule="nonzero"/><path fill="#fbc308" d="M 75.035156 172.457031 L 60.050781 172.457031 L 60.050781 187.429688 L 75.035156 187.429688 L 75.035156 172.457031 " fill-opacity="1" fill-rule="nonzero"/><path fill="#fbc308" d="M 90 172.457031 L 75.015625 172.457031 L 75.015625 187.429688 L 90 187.429688 L 90 172.457031 " fill-opacity="1" fill-rule="nonzero"/><path fill="#fbc308" d="M 104.984375 172.457031 L 90.003906 172.457031 L 90.003906 187.429688 L 104.984375 187.429688 L 104.984375 172.457031 " fill-opacity="1" fill-rule="nonzero"/><path fill="#fbc308" d="M 119.976562 172.457031 L 104.996094 172.457031 L 104.996094 187.429688 L 119.976562 187.429688 L 119.976562 172.457031 " fill-opacity="1" fill-rule="nonzero"/><path fill="#fbc308" d="M 134.992188 172.457031 L 120.007812 172.457031 L 120.007812 187.429688 L 134.992188 187.429688 L 134.992188 172.457031 " fill-opacity="1" fill-rule="nonzero"/><path fill="#fbc308" d="M 149.960938 172.457031 L 134.976562 172.457031 L 134.976562 187.429688 L 149.960938 187.429688 L 149.960938 172.457031 " fill-opacity="1" fill-rule="nonzero"/><path fill="#fbc308" d="M 164.949219 172.457031 L 149.964844 172.457031 L 149.964844 187.429688 L 164.949219 187.429688 L 164.949219 172.457031 " fill-opacity="1" fill-rule="nonzero"/><path fill="#fbc308" d="M 179.914062 172.457031 L 164.929688 172.457031 L 164.929688 187.429688 L 179.914062 187.429688 L 179.914062 172.457031 " fill-opacity="1" fill-rule="nonzero"/><path fill="#fbc308" d="M 194.875 172.457031 L 179.894531 172.457031 L 179.894531 187.429688 L 194.875 187.429688 L 194.875 172.457031 " fill-opacity="1" fill-rule="nonzero"/><path fill="#fbc308" d="M 209.867188 172.457031 L 194.886719 172.457031 L 194.886719 187.429688 L 209.867188 187.429688 L 209.867188 172.457031 " fill-opacity="1" fill-rule="nonzero"/><path fill="#fbc308" d="M 224.855469 172.457031 L 209.875 172.457031 L 209.875 187.429688 L 224.855469 187.429688 L 224.855469 172.457031 " fill-opacity="1" fill-rule="nonzero"/><path fill="#fbc308" d="M 239.875 172.457031 L 224.894531 172.457031 L 224.894531 187.429688 L 239.875 187.429688 L 239.875 172.457031 " fill-opacity="1" fill-rule="nonzero"/><path fill="#f89c0e" d="M 269.714844 172.457031 L 254.738281 172.457031 L 254.738281 187.429688 L 269.714844 187.429688 L 269.714844 172.457031 " fill-opacity="1" fill-rule="nonzero"/><path fill="#f89c0e" d="M 284.679688 172.457031 L 269.699219 172.457031 L 269.699219 187.429688 L 284.679688 187.429688 L 284.679688 172.457031 " fill-opacity="1" fill-rule="nonzero"/><path fill="#f89c0e" d="M 299.644531 172.457031 L 284.660156 172.457031 L 284.660156 187.429688 L 299.644531 187.429688 L 299.644531 172.457031 " fill-opacity="1" fill-rule="nonzero"/><path fill="#f89c0e" d="M 314.636719 172.457031 L 299.652344 172.457031 L 299.652344 187.429688 L 314.636719 187.429688 L 314.636719 172.457031 " fill-opacity="1" fill-rule="nonzero"/><path fill="#fbc308" d="M 75.035156 187.359375 L 60.050781 187.359375 L 60.050781 202.332031 L 75.035156 202.332031 L 75.035156 187.359375 " fill-opacity="1" fill-rule="nonzero"/><path fill="#fbc308" d="M 90 187.359375 L 75.015625 187.359375 L 75.015625 202.332031 L 90 202.332031 L 90 187.359375 " fill-opacity="1" fill-rule="nonzero"/><path fill="#fbc308" d="M 104.984375 187.359375 L 90.003906 187.359375 L 90.003906 202.332031 L 104.984375 202.332031 L 104.984375 187.359375 " fill-opacity="1" fill-rule="nonzero"/><path fill="#fbc308" d="M 119.976562 187.359375 L 104.996094 187.359375 L 104.996094 202.332031 L 119.976562 202.332031 L 119.976562 187.359375 " fill-opacity="1" fill-rule="nonzero"/><path fill="#fbc308" d="M 134.992188 187.359375 L 120.007812 187.359375 L 120.007812 202.332031 L 134.992188 202.332031 L 134.992188 187.359375 " fill-opacity="1" fill-rule="nonzero"/><path fill="#fbc308" d="M 149.960938 187.359375 L 134.976562 187.359375 L 134.976562 202.332031 L 149.960938 202.332031 L 149.960938 187.359375 " fill-opacity="1" fill-rule="nonzero"/><path fill="#fbc308" d="M 164.949219 187.359375 L 149.964844 187.359375 L 149.964844 202.332031 L 164.949219 202.332031 L 164.949219 187.359375 " fill-opacity="1" fill-rule="nonzero"/><path fill="#fbc308" d="M 179.914062 187.359375 L 164.929688 187.359375 L 164.929688 202.332031 L 179.914062 202.332031 L 179.914062 187.359375 " fill-opacity="1" fill-rule="nonzero"/><path fill="#fbc308" d="M 194.875 187.359375 L 179.894531 187.359375 L 179.894531 202.332031 L 194.875 202.332031 L 194.875 187.359375 " fill-opacity="1" fill-rule="nonzero"/><path fill="#fbc308" d="M 209.867188 187.359375 L 194.886719 187.359375 L 194.886719 202.332031 L 209.867188 202.332031 L 209.867188 187.359375 " fill-opacity="1" fill-rule="nonzero"/><path fill="#fbc308" d="M 224.855469 187.359375 L 209.875 187.359375 L 209.875 202.332031 L 224.855469 202.332031 L 224.855469 187.359375 " fill-opacity="1" fill-rule="nonzero"/><path fill="#f89c0e" d="M 254.730469 187.359375 L 239.746094 187.359375 L 239.746094 202.332031 L 254.730469 202.332031 L 254.730469 187.359375 " fill-opacity="1" fill-rule="nonzero"/><path fill="#f89c0e" d="M 269.714844 187.359375 L 254.738281 187.359375 L 254.738281 202.332031 L 269.714844 202.332031 L 269.714844 187.359375 " fill-opacity="1" fill-rule="nonzero"/><path fill="#f89c0e" d="M 284.679688 187.359375 L 269.699219 187.359375 L 269.699219 202.332031 L 284.679688 202.332031 L 284.679688 187.359375 " fill-opacity="1" fill-rule="nonzero"/><path fill="#f89c0e" d="M 299.644531 187.359375 L 284.660156 187.359375 L 284.660156 202.332031 L 299.644531 202.332031 L 299.644531 187.359375 " fill-opacity="1" fill-rule="nonzero"/><path fill="#fbc308" d="M 90 202.332031 L 75.015625 202.332031 L 75.015625 217.296875 L 90 217.296875 L 90 202.332031 " fill-opacity="1" fill-rule="nonzero"/><path fill="#fbc308" d="M 104.984375 202.332031 L 90.003906 202.332031 L 90.003906 217.296875 L 104.984375 217.296875 L 104.984375 202.332031 " fill-opacity="1" fill-rule="nonzero"/><path fill="#fbc308" d="M 119.976562 202.332031 L 104.996094 202.332031 L 104.996094 217.296875 L 119.976562 217.296875 L 119.976562 202.332031 " fill-opacity="1" fill-rule="nonzero"/><path fill="#fbc308" d="M 134.992188 202.332031 L 120.007812 202.332031 L 120.007812 217.296875 L 134.992188 217.296875 L 134.992188 202.332031 " fill-opacity="1" fill-rule="nonzero"/><path fill="#fbc308" d="M 149.960938 202.332031 L 134.976562 202.332031 L 134.976562 217.296875 L 149.960938 217.296875 L 149.960938 202.332031 " fill-opacity="1" fill-rule="nonzero"/><path fill="#fbc308" d="M 164.949219 202.332031 L 149.964844 202.332031 L 149.964844 217.296875 L 164.949219 217.296875 L 164.949219 202.332031 " fill-opacity="1" fill-rule="nonzero"/><path fill="#fbc308" d="M 179.914062 202.332031 L 164.929688 202.332031 L 164.929688 217.296875 L 179.914062 217.296875 L 179.914062 202.332031 " fill-opacity="1" fill-rule="nonzero"/><path fill="#fbc308" d="M 194.875 202.332031 L 179.894531 202.332031 L 179.894531 217.296875 L 194.875 217.296875 L 194.875 202.332031 " fill-opacity="1" fill-rule="nonzero"/><path fill="#fbc308" d="M 209.867188 202.332031 L 194.886719 202.332031 L 194.886719 217.296875 L 209.867188 217.296875 L 209.867188 202.332031 " fill-opacity="1" fill-rule="nonzero"/><path fill="#f89c0e" d="M 239.875 202.332031 L 224.894531 202.332031 L 224.894531 217.296875 L 239.875 217.296875 L 239.875 202.332031 " fill-opacity="1" fill-rule="nonzero"/><path fill="#f89c0e" d="M 254.730469 202.332031 L 239.746094 202.332031 L 239.746094 217.296875 L 254.730469 217.296875 L 254.730469 202.332031 " fill-opacity="1" fill-rule="nonzero"/><path fill="#f89c0e" d="M 269.714844 202.332031 L 254.738281 202.332031 L 254.738281 217.296875 L 269.714844 217.296875 L 269.714844 202.332031 " fill-opacity="1" fill-rule="nonzero"/><path fill="#f89c0e" d="M 284.679688 202.332031 L 269.699219 202.332031 L 269.699219 217.296875 L 284.679688 217.296875 L 284.679688 202.332031 " fill-opacity="1" fill-rule="nonzero"/><path fill="#fbc308" d="M 104.984375 217.296875 L 90.003906 217.296875 L 90.003906 232.269531 L 104.984375 232.269531 L 104.984375 217.296875 " fill-opacity="1" fill-rule="nonzero"/><path fill="#fbc308" d="M 119.976562 217.296875 L 104.996094 217.296875 L 104.996094 232.269531 L 119.976562 232.269531 L 119.976562 217.296875 " fill-opacity="1" fill-rule="nonzero"/><path fill="#fbc308" d="M 134.992188 217.296875 L 120.007812 217.296875 L 120.007812 232.269531 L 134.992188 232.269531 L 134.992188 217.296875 " fill-opacity="1" fill-rule="nonzero"/><path fill="#fbc308" d="M 149.960938 217.296875 L 134.976562 217.296875 L 134.976562 232.269531 L 149.960938 232.269531 L 149.960938 217.296875 " fill-opacity="1" fill-rule="nonzero"/><path fill="#fbc308" d="M 164.949219 217.296875 L 149.964844 217.296875 L 149.964844 232.269531 L 164.949219 232.269531 L 164.949219 217.296875 " fill-opacity="1" fill-rule="nonzero"/><path fill="#fbc308" d="M 179.914062 217.296875 L 164.929688 217.296875 L 164.929688 232.269531 L 179.914062 232.269531 L 179.914062 217.296875 " fill-opacity="1" fill-rule="nonzero"/><path fill="#fbc308" d="M 194.875 217.296875 L 179.894531 217.296875 L 179.894531 232.269531 L 194.875 232.269531 L 194.875 217.296875 " fill-opacity="1" fill-rule="nonzero"/><path fill="#f89c0e" d="M 224.855469 217.296875 L 209.875 217.296875 L 209.875 232.269531 L 224.855469 232.269531 L 224.855469 217.296875 " fill-opacity="1" fill-rule="nonzero"/><path fill="#f89c0e" d="M 239.875 217.296875 L 224.894531 217.296875 L 224.894531 232.269531 L 239.875 232.269531 L 239.875 217.296875 " fill-opacity="1" fill-rule="nonzero"/><path fill="#f89c0e" d="M 254.730469 217.296875 L 239.746094 217.296875 L 239.746094 232.269531 L 254.730469 232.269531 L 254.730469 217.296875 " fill-opacity="1" fill-rule="nonzero"/><path fill="#f89c0e" d="M 269.714844 217.296875 L 254.738281 217.296875 L 254.738281 232.269531 L 269.714844 232.269531 L 269.714844 217.296875 " fill-opacity="1" fill-rule="nonzero"/><path fill="#fbc308" d="M 119.976562 232.335938 L 104.996094 232.335938 L 104.996094 247.308594 L 119.976562 247.308594 L 119.976562 232.335938 " fill-opacity="1" fill-rule="nonzero"/><path fill="#fbc308" d="M 134.992188 232.335938 L 120.007812 232.335938 L 120.007812 247.308594 L 134.992188 247.308594 L 134.992188 232.335938 " fill-opacity="1" fill-rule="nonzero"/><path fill="#fbc308" d="M 149.960938 232.335938 L 134.976562 232.335938 L 134.976562 247.308594 L 149.960938 247.308594 L 149.960938 232.335938 " fill-opacity="1" fill-rule="nonzero"/><path fill="#fbc308" d="M 164.949219 232.335938 L 149.964844 232.335938 L 149.964844 247.308594 L 164.949219 247.308594 L 164.949219 232.335938 " fill-opacity="1" fill-rule="nonzero"/><path fill="#fbc308" d="M 179.914062 232.335938 L 164.929688 232.335938 L 164.929688 247.308594 L 179.914062 247.308594 L 179.914062 232.335938 " fill-opacity="1" fill-rule="nonzero"/><path fill="#f89c0e" d="M 209.867188 232.335938 L 194.886719 232.335938 L 194.886719 247.308594 L 209.867188 247.308594 L 209.867188 232.335938 " fill-opacity="1" fill-rule="nonzero"/><path fill="#f89c0e" d="M 224.855469 232.335938 L 209.875 232.335938 L 209.875 247.308594 L 224.855469 247.308594 L 224.855469 232.335938 " fill-opacity="1" fill-rule="nonzero"/><path fill="#f89c0e" d="M 239.875 232.335938 L 224.894531 232.335938 L 224.894531 247.308594 L 239.875 247.308594 L 239.875 232.335938 " fill-opacity="1" fill-rule="nonzero"/><path fill="#f89c0e" d="M 254.730469 232.335938 L 239.746094 232.335938 L 239.746094 247.308594 L 254.730469 247.308594 L 254.730469 232.335938 " fill-opacity="1" fill-rule="nonzero"/><path fill="#f89c0e" d="M 269.714844 232.335938 L 254.738281 232.335938 L 254.738281 247.308594 L 269.714844 247.308594 L 269.714844 232.335938 " fill-opacity="1" fill-rule="nonzero"/><path fill="#fbc308" d="M 119.976562 247.382812 L 104.996094 247.382812 L 104.996094 262.347656 L 119.976562 262.347656 L 119.976562 247.382812 " fill-opacity="1" fill-rule="nonzero"/><path fill="#fbc308" d="M 134.992188 247.382812 L 120.007812 247.382812 L 120.007812 262.347656 L 134.992188 262.347656 L 134.992188 247.382812 " fill-opacity="1" fill-rule="nonzero"/><path fill="#fbc308" d="M 149.960938 247.382812 L 134.976562 247.382812 L 134.976562 262.347656 L 149.960938 262.347656 L 149.960938 247.382812 " fill-opacity="1" fill-rule="nonzero"/><path fill="#fbc308" d="M 164.949219 247.382812 L 149.964844 247.382812 L 149.964844 262.347656 L 164.949219 262.347656 L 164.949219 247.382812 " fill-opacity="1" fill-rule="nonzero"/><path fill="#f89c0e" d="M 194.875 247.382812 L 179.894531 247.382812 L 179.894531 262.347656 L 194.875 262.347656 L 194.875 247.382812 " fill-opacity="1" fill-rule="nonzero"/><path fill="#f89c0e" d="M 209.867188 247.382812 L 194.886719 247.382812 L 194.886719 262.347656 L 209.867188 262.347656 L 209.867188 247.382812 " fill-opacity="1" fill-rule="nonzero"/><path fill="#f89c0e" d="M 224.855469 247.382812 L 209.875 247.382812 L 209.875 262.347656 L 224.855469 262.347656 L 224.855469 247.382812 " fill-opacity="1" fill-rule="nonzero"/><path fill="#f89c0e" d="M 239.875 247.382812 L 224.894531 247.382812 L 224.894531 262.347656 L 239.875 262.347656 L 239.875 247.382812 " fill-opacity="1" fill-rule="nonzero"/><path fill="#f89c0e" d="M 254.730469 247.382812 L 239.746094 247.382812 L 239.746094 262.347656 L 254.730469 262.347656 L 254.730469 247.382812 " fill-opacity="1" fill-rule="nonzero"/><path fill="#f89c0e" d="M 269.714844 247.382812 L 254.738281 247.382812 L 254.738281 262.347656 L 269.714844 262.347656 L 269.714844 247.382812 " fill-opacity="1" fill-rule="nonzero"/><path fill="#f89c0e" d="M 284.679688 217.296875 L 269.699219 217.296875 L 269.699219 232.269531 L 284.679688 232.269531 L 284.679688 217.296875 " fill-opacity="1" fill-rule="nonzero"/><path fill="#fbc308" d="M 105.054688 262.285156 L 90.070312 262.285156 L 90.070312 277.25 L 105.054688 277.25 L 105.054688 262.285156 " fill-opacity="1" fill-rule="nonzero"/><path fill="#fbc308" d="M 120.046875 262.285156 L 105.0625 262.285156 L 105.0625 277.25 L 120.046875 277.25 L 120.046875 262.285156 " fill-opacity="1" fill-rule="nonzero"/><path fill="#fbc308" d="M 135.0625 262.285156 L 120.078125 262.285156 L 120.078125 277.25 L 135.0625 277.25 L 135.0625 262.285156 " fill-opacity="1" fill-rule="nonzero"/><path fill="#fbc308" d="M 150.03125 262.285156 L 135.046875 262.285156 L 135.046875 277.25 L 150.03125 277.25 L 150.03125 262.285156 " fill-opacity="1" fill-rule="nonzero"/><path fill="#f89c0e" d="M 179.980469 262.285156 L 165.003906 262.285156 L 165.003906 277.25 L 179.980469 277.25 L 179.980469 262.285156 " fill-opacity="1" fill-rule="nonzero"/><path fill="#f89c0e" d="M 194.945312 262.285156 L 179.964844 262.285156 L 179.964844 277.25 L 194.945312 277.25 L 194.945312 262.285156 " fill-opacity="1" fill-rule="nonzero"/><path fill="#f89c0e" d="M 209.9375 262.285156 L 194.953125 262.285156 L 194.953125 277.25 L 209.9375 277.25 L 209.9375 262.285156 " fill-opacity="1" fill-rule="nonzero"/><path fill="#f89c0e" d="M 224.925781 262.285156 L 209.945312 262.285156 L 209.945312 277.25 L 224.925781 277.25 L 224.925781 262.285156 " fill-opacity="1" fill-rule="nonzero"/><path fill="#f89c0e" d="M 239.945312 262.285156 L 224.960938 262.285156 L 224.960938 277.25 L 239.945312 277.25 L 239.945312 262.285156 " fill-opacity="1" fill-rule="nonzero"/><path fill="#f89c0e" d="M 254.796875 262.285156 L 239.816406 262.285156 L 239.816406 277.25 L 254.796875 277.25 L 254.796875 262.285156 " fill-opacity="1" fill-rule="nonzero"/><path fill="#f89c0e" d="M 269.785156 262.285156 L 254.808594 262.285156 L 254.808594 277.25 L 269.785156 277.25 L 269.785156 262.285156 " fill-opacity="1" fill-rule="nonzero"/><path fill="#f89c0e" d="M 284.75 262.285156 L 269.769531 262.285156 L 269.769531 277.25 L 284.75 277.25 L 284.75 262.285156 " fill-opacity="1" fill-rule="nonzero"/><path fill="#fbc308" d="M 105.054688 277.179688 L 90.070312 277.179688 L 90.070312 292.152344 L 105.054688 292.152344 L 105.054688 277.179688 " fill-opacity="1" fill-rule="nonzero"/><path fill="#fbc308" d="M 120.046875 277.179688 L 105.0625 277.179688 L 105.0625 292.152344 L 120.046875 292.152344 L 120.046875 277.179688 " fill-opacity="1" fill-rule="nonzero"/><path fill="#fbc308" d="M 135.0625 277.179688 L 120.078125 277.179688 L 120.078125 292.152344 L 135.0625 292.152344 L 135.0625 277.179688 " fill-opacity="1" fill-rule="nonzero"/><path fill="#f89c0e" d="M 165.015625 277.179688 L 150.039062 277.179688 L 150.039062 292.152344 L 165.015625 292.152344 L 165.015625 277.179688 " fill-opacity="1" fill-rule="nonzero"/><path fill="#f89c0e" d="M 179.980469 277.179688 L 165.003906 277.179688 L 165.003906 292.152344 L 179.980469 292.152344 L 179.980469 277.179688 " fill-opacity="1" fill-rule="nonzero"/><path fill="#f89c0e" d="M 194.945312 277.179688 L 179.964844 277.179688 L 179.964844 292.152344 L 194.945312 292.152344 L 194.945312 277.179688 " fill-opacity="1" fill-rule="nonzero"/><path fill="#f89c0e" d="M 209.9375 277.179688 L 194.953125 277.179688 L 194.953125 292.152344 L 209.9375 292.152344 L 209.9375 277.179688 " fill-opacity="1" fill-rule="nonzero"/><path fill="#f89c0e" d="M 224.925781 277.179688 L 209.945312 277.179688 L 209.945312 292.152344 L 224.925781 292.152344 L 224.925781 277.179688 " fill-opacity="1" fill-rule="nonzero"/><path fill="#f89c0e" d="M 239.945312 277.179688 L 224.960938 277.179688 L 224.960938 292.152344 L 239.945312 292.152344 L 239.945312 277.179688 " fill-opacity="1" fill-rule="nonzero"/><path fill="#f89c0e" d="M 254.796875 277.179688 L 239.816406 277.179688 L 239.816406 292.152344 L 254.796875 292.152344 L 254.796875 277.179688 " fill-opacity="1" fill-rule="nonzero"/><path fill="#f89c0e" d="M 269.785156 277.179688 L 254.808594 277.179688 L 254.808594 292.152344 L 269.785156 292.152344 L 269.785156 277.179688 " fill-opacity="1" fill-rule="nonzero"/><path fill="#f89c0e" d="M 284.75 277.179688 L 269.769531 277.179688 L 269.769531 292.152344 L 284.75 292.152344 L 284.75 277.179688 " fill-opacity="1" fill-rule="nonzero"/><path fill="#fbc308" d="M 105.054688 292.152344 L 90.070312 292.152344 L 90.070312 307.121094 L 105.054688 307.121094 L 105.054688 292.152344 " fill-opacity="1" fill-rule="nonzero"/><path fill="#fbc308" d="M 120.046875 292.152344 L 105.0625 292.152344 L 105.0625 307.121094 L 120.046875 307.121094 L 120.046875 292.152344 " fill-opacity="1" fill-rule="nonzero"/><path fill="#f89c0e" d="M 150.03125 292.152344 L 135.046875 292.152344 L 135.046875 307.121094 L 150.03125 307.121094 L 150.03125 292.152344 " fill-opacity="1" fill-rule="nonzero"/><path fill="#f89c0e" d="M 165.015625 292.152344 L 150.039062 292.152344 L 150.039062 307.121094 L 165.015625 307.121094 L 165.015625 292.152344 " fill-opacity="1" fill-rule="nonzero"/><path fill="#f89c0e" d="M 179.980469 292.152344 L 165.003906 292.152344 L 165.003906 307.121094 L 179.980469 307.121094 L 179.980469 292.152344 " fill-opacity="1" fill-rule="nonzero"/><path fill="#f89c0e" d="M 194.945312 292.152344 L 179.964844 292.152344 L 179.964844 307.121094 L 194.945312 307.121094 L 194.945312 292.152344 " fill-opacity="1" fill-rule="nonzero"/><path fill="#f89c0e" d="M 209.9375 292.152344 L 194.953125 292.152344 L 194.953125 307.121094 L 209.9375 307.121094 L 209.9375 292.152344 " fill-opacity="1" fill-rule="nonzero"/><path fill="#f89c0e" d="M 224.925781 292.152344 L 209.945312 292.152344 L 209.945312 307.886719 L 224.925781 307.886719 L 224.925781 292.152344 " fill-opacity="1" fill-rule="nonzero"/><path fill="#f89c0e" d="M 239.945312 292.152344 L 224.960938 292.152344 L 224.960938 307.121094 L 239.945312 307.121094 L 239.945312 292.152344 " fill-opacity="1" fill-rule="nonzero"/><path fill="#f89c0e" d="M 254.796875 292.152344 L 239.816406 292.152344 L 239.816406 307.121094 L 254.796875 307.121094 L 254.796875 292.152344 " fill-opacity="1" fill-rule="nonzero"/><path fill="#f89c0e" d="M 269.785156 292.152344 L 254.808594 292.152344 L 254.808594 307.121094 L 269.785156 307.121094 L 269.785156 292.152344 " fill-opacity="1" fill-rule="nonzero"/><path fill="#f89c0e" d="M 284.75 292.152344 L 269.769531 292.152344 L 269.769531 307.121094 L 284.75 307.121094 L 284.75 292.152344 " fill-opacity="1" fill-rule="nonzero"/><path fill="#f89c0e" d="M 299.644531 202.332031 L 284.660156 202.332031 L 284.660156 217.296875 L 299.644531 217.296875 L 299.644531 202.332031 " fill-opacity="1" fill-rule="nonzero"/><path fill="#fbc308" d="M 90 307.242188 L 75.015625 307.242188 L 75.015625 322.214844 L 90 322.214844 L 90 307.242188 " fill-opacity="1" fill-rule="nonzero"/><path fill="#fbc308" d="M 104.984375 307.242188 L 90.003906 307.242188 L 90.003906 322.214844 L 104.984375 322.214844 L 104.984375 307.242188 " fill-opacity="1" fill-rule="nonzero"/><path fill="#f89c0e" d="M 134.992188 307.242188 L 120.007812 307.242188 L 120.007812 322.214844 L 134.992188 322.214844 L 134.992188 307.242188 " fill-opacity="1" fill-rule="nonzero"/><path fill="#f89c0e" d="M 149.960938 307.242188 L 134.976562 307.242188 L 134.976562 322.214844 L 149.960938 322.214844 L 149.960938 307.242188 " fill-opacity="1" fill-rule="nonzero"/><path fill="#f89c0e" d="M 164.949219 307.242188 L 149.964844 307.242188 L 149.964844 322.214844 L 164.949219 322.214844 L 164.949219 307.242188 " fill-opacity="1" fill-rule="nonzero"/><path fill="#f89c0e" d="M 239.875 307.242188 L 224.894531 307.242188 L 224.894531 322.214844 L 239.875 322.214844 L 239.875 307.242188 " fill-opacity="1" fill-rule="nonzero"/><path fill="#f89c0e" d="M 254.730469 307.242188 L 239.746094 307.242188 L 239.746094 322.214844 L 254.730469 322.214844 L 254.730469 307.242188 " fill-opacity="1" fill-rule="nonzero"/><path fill="#f89c0e" d="M 269.714844 307.242188 L 254.738281 307.242188 L 254.738281 322.214844 L 269.714844 322.214844 L 269.714844 307.242188 " fill-opacity="1" fill-rule="nonzero"/><path fill="#f89c0e" d="M 284.679688 307.242188 L 269.699219 307.242188 L 269.699219 322.214844 L 284.679688 322.214844 L 284.679688 307.242188 " fill-opacity="1" fill-rule="nonzero"/><path fill="#f89c0e" d="M 299.644531 307.242188 L 284.660156 307.242188 L 284.660156 322.214844 L 299.644531 322.214844 L 299.644531 307.242188 " fill-opacity="1" fill-rule="nonzero"/><path fill="#fbc308" d="M 90 322.214844 L 75.015625 322.214844 L 75.015625 337.179688 L 90 337.179688 L 90 322.214844 " fill-opacity="1" fill-rule="nonzero"/><path fill="#f89c0e" d="M 119.976562 322.214844 L 104.996094 322.214844 L 104.996094 337.179688 L 119.976562 337.179688 L 119.976562 322.214844 " fill-opacity="1" fill-rule="nonzero"/><path fill="#f89c0e" d="M 134.992188 322.214844 L 120.007812 322.214844 L 120.007812 337.179688 L 134.992188 337.179688 L 134.992188 322.214844 " fill-opacity="1" fill-rule="nonzero"/><path fill="#f89c0e" d="M 254.730469 322.214844 L 239.746094 322.214844 L 239.746094 337.179688 L 254.730469 337.179688 L 254.730469 322.214844 " fill-opacity="1" fill-rule="nonzero"/><path fill="#f89c0e" d="M 269.714844 322.214844 L 254.738281 322.214844 L 254.738281 337.179688 L 269.714844 337.179688 L 269.714844 322.214844 " fill-opacity="1" fill-rule="nonzero"/><path fill="#f89c0e" d="M 284.679688 322.214844 L 269.699219 322.214844 L 269.699219 337.179688 L 284.679688 337.179688 L 284.679688 322.214844 " fill-opacity="1" fill-rule="nonzero"/><path fill="#f89c0e" d="M 299.644531 322.214844 L 284.660156 322.214844 L 284.660156 337.179688 L 299.644531 337.179688 L 299.644531 322.214844 " fill-opacity="1" fill-rule="nonzero"/><path fill="#fbc308" d="M 104.984375 337.078125 L 90.003906 337.078125 L 90.003906 352.050781 L 104.984375 352.050781 L 104.984375 337.078125 " fill-opacity="1" fill-rule="nonzero"/><path fill="#f89c0e" d="M 284.679688 337.078125 L 269.699219 337.078125 L 269.699219 352.050781 L 284.679688 352.050781 L 284.679688 337.078125 " fill-opacity="1" fill-rule="nonzero"/><path fill="#f89c0e" d="M 299.644531 337.078125 L 284.660156 337.078125 L 284.660156 352.050781 L 299.644531 352.050781 L 299.644531 337.078125 " fill-opacity="1" fill-rule="nonzero"/><path fill="#f89c0e" d="M 314.636719 187.359375 L 299.652344 187.359375 L 299.652344 202.332031 L 314.636719 202.332031 L 314.636719 187.359375 " fill-opacity="1" fill-rule="nonzero"/><path fill="#f89c0e" d="M 329.625 172.457031 L 314.644531 172.457031 L 314.644531 187.429688 L 329.625 187.429688 L 329.625 172.457031 " fill-opacity="1" fill-rule="nonzero"/><path fill="#f89c0e" d="M 344.644531 157.488281 L 329.660156 157.488281 L 329.660156 172.457031 L 344.644531 172.457031 L 344.644531 157.488281 " fill-opacity="1" fill-rule="nonzero"/><path fill="#fde057" d="M 45.078125 142.519531 L 30.09375 142.519531 L 30.09375 157.488281 L 45.078125 157.488281 L 45.078125 142.519531 " fill-opacity="1" fill-rule="nonzero"/><path fill="#fde057" d="M 30.09375 142.519531 L 15.117188 142.519531 L 15.117188 157.488281 L 30.09375 157.488281 L 30.09375 142.519531 " fill-opacity="1" fill-rule="nonzero"/><path fill="#fde057" d="M 60.070312 142.519531 L 45.085938 142.519531 L 45.085938 157.488281 L 60.070312 157.488281 L 60.070312 142.519531 " fill-opacity="1" fill-rule="nonzero"/><path fill="#fbc308" d="M 75.035156 142.519531 L 60.050781 142.519531 L 60.050781 157.488281 L 75.035156 157.488281 L 75.035156 142.519531 " fill-opacity="1" fill-rule="nonzero"/><path fill="#fde057" d="M 90 142.519531 L 75.015625 142.519531 L 75.015625 157.488281 L 90 157.488281 L 90 142.519531 " fill-opacity="1" fill-rule="nonzero"/><path fill="#fde057" d="M 104.984375 142.519531 L 90.003906 142.519531 L 90.003906 157.488281 L 104.984375 157.488281 L 104.984375 142.519531 " fill-opacity="1" fill-rule="nonzero"/><path fill="#fde057" d="M 119.976562 142.519531 L 104.996094 142.519531 L 104.996094 157.488281 L 119.976562 157.488281 L 119.976562 142.519531 " fill-opacity="1" fill-rule="nonzero"/><path fill="#fde057" d="M 134.992188 142.519531 L 120.007812 142.519531 L 120.007812 157.488281 L 134.992188 157.488281 L 134.992188 142.519531 " fill-opacity="1" fill-rule="nonzero"/><path fill="#fde057" d="M 149.960938 142.519531 L 134.976562 142.519531 L 134.976562 157.488281 L 149.960938 157.488281 L 149.960938 142.519531 " fill-opacity="1" fill-rule="nonzero"/><path fill="#fbc308" d="M 164.949219 142.519531 L 149.964844 142.519531 L 149.964844 157.488281 L 164.949219 157.488281 L 164.949219 142.519531 " fill-opacity="1" fill-rule="nonzero"/><path fill="#fbc308" d="M 179.914062 142.519531 L 164.929688 142.519531 L 164.929688 157.488281 L 179.914062 157.488281 L 179.914062 142.519531 " fill-opacity="1" fill-rule="nonzero"/><path fill="#fbc308" d="M 194.875 142.519531 L 179.894531 142.519531 L 179.894531 157.488281 L 194.875 157.488281 L 194.875 142.519531 " fill-opacity="1" fill-rule="nonzero"/><path fill="#fbc308" d="M 209.867188 142.519531 L 194.886719 142.519531 L 194.886719 157.488281 L 209.867188 157.488281 L 209.867188 142.519531 " fill-opacity="1" fill-rule="nonzero"/><path fill="#fbc308" d="M 224.855469 142.519531 L 209.875 142.519531 L 209.875 157.488281 L 224.855469 157.488281 L 224.855469 142.519531 " fill-opacity="1" fill-rule="nonzero"/><path fill="#fbc308" d="M 239.875 142.519531 L 224.894531 142.519531 L 224.894531 157.488281 L 239.875 157.488281 L 239.875 142.519531 " fill-opacity="1" fill-rule="nonzero"/><path fill="#fbc308" d="M 254.730469 142.519531 L 239.746094 142.519531 L 239.746094 157.488281 L 254.730469 157.488281 L 254.730469 142.519531 " fill-opacity="1" fill-rule="nonzero"/><path fill="#fbc308" d="M 269.714844 142.519531 L 254.738281 142.519531 L 254.738281 157.488281 L 269.714844 157.488281 L 269.714844 142.519531 " fill-opacity="1" fill-rule="nonzero"/><path fill="#f89c0e" d="M 299.644531 142.519531 L 284.660156 142.519531 L 284.660156 157.488281 L 299.644531 157.488281 L 299.644531 142.519531 " fill-opacity="1" fill-rule="nonzero"/><path fill="#f89c0e" d="M 314.636719 142.519531 L 299.652344 142.519531 L 299.652344 157.488281 L 314.636719 157.488281 L 314.636719 142.519531 " fill-opacity="1" fill-rule="nonzero"/><path fill="#f89c0e" d="M 329.625 142.519531 L 314.644531 142.519531 L 314.644531 157.488281 L 329.625 157.488281 L 329.625 142.519531 " fill-opacity="1" fill-rule="nonzero"/><path fill="#f89c0e" d="M 344.644531 142.519531 L 329.660156 142.519531 L 329.660156 157.488281 L 344.644531 157.488281 L 344.644531 142.519531 " fill-opacity="1" fill-rule="nonzero"/><path fill="#f89c0e" d="M 359.628906 142.519531 L 344.652344 142.519531 L 344.652344 157.488281 L 359.628906 157.488281 L 359.628906 142.519531 " fill-opacity="1" fill-rule="nonzero"/><path fill="#fde057" d="M 45.078125 127.550781 L 30.09375 127.550781 L 30.09375 142.519531 L 45.078125 142.519531 L 45.078125 127.550781 " fill-opacity="1" fill-rule="nonzero"/><path fill="#fde057" d="M 30.09375 127.550781 L 15.117188 127.550781 L 15.117188 142.519531 L 30.09375 142.519531 L 30.09375 127.550781 " fill-opacity="1" fill-rule="nonzero"/><path fill="#fde057" d="M 60.070312 127.550781 L 45.085938 127.550781 L 45.085938 142.519531 L 60.070312 142.519531 L 60.070312 127.550781 " fill-opacity="1" fill-rule="nonzero"/><path fill="#fde057" d="M 75.035156 127.550781 L 60.050781 127.550781 L 60.050781 142.519531 L 75.035156 142.519531 L 75.035156 127.550781 " fill-opacity="1" fill-rule="nonzero"/><path fill="#fde057" d="M 90 127.550781 L 75.015625 127.550781 L 75.015625 142.519531 L 90 142.519531 L 90 127.550781 " fill-opacity="1" fill-rule="nonzero"/><path fill="#fde057" d="M 104.984375 127.550781 L 90.003906 127.550781 L 90.003906 142.519531 L 104.984375 142.519531 L 104.984375 127.550781 " fill-opacity="1" fill-rule="nonzero"/><path fill="#fde057" d="M 119.976562 127.550781 L 104.996094 127.550781 L 104.996094 142.519531 L 119.976562 142.519531 L 119.976562 127.550781 " fill-opacity="1" fill-rule="nonzero"/><path fill="#fde057" d="M 134.992188 127.550781 L 120.007812 127.550781 L 120.007812 142.519531 L 134.992188 142.519531 L 134.992188 127.550781 " fill-opacity="1" fill-rule="nonzero"/><path fill="#fde057" d="M 149.960938 127.550781 L 134.976562 127.550781 L 134.976562 142.519531 L 149.960938 142.519531 L 149.960938 127.550781 " fill-opacity="1" fill-rule="nonzero"/><path fill="#fde057" d="M 164.949219 127.550781 L 149.964844 127.550781 L 149.964844 142.519531 L 164.949219 142.519531 L 164.949219 127.550781 " fill-opacity="1" fill-rule="nonzero"/><path fill="#fbc308" d="M 179.914062 127.550781 L 164.929688 127.550781 L 164.929688 142.519531 L 179.914062 142.519531 L 179.914062 127.550781 " fill-opacity="1" fill-rule="nonzero"/><path fill="#fbc308" d="M 194.875 127.550781 L 179.894531 127.550781 L 179.894531 142.519531 L 194.875 142.519531 L 194.875 127.550781 " fill-opacity="1" fill-rule="nonzero"/><path fill="#fbc308" d="M 209.867188 127.550781 L 194.886719 127.550781 L 194.886719 142.519531 L 209.867188 142.519531 L 209.867188 127.550781 " fill-opacity="1" fill-rule="nonzero"/><path fill="#fbc308" d="M 224.855469 127.550781 L 209.875 127.550781 L 209.875 142.519531 L 224.855469 142.519531 L 224.855469 127.550781 " fill-opacity="1" fill-rule="nonzero"/><path fill="#fbc308" d="M 239.875 127.550781 L 224.894531 127.550781 L 224.894531 142.519531 L 239.875 142.519531 L 239.875 127.550781 " fill-opacity="1" fill-rule="nonzero"/><path fill="#fbc308" d="M 254.730469 127.550781 L 239.746094 127.550781 L 239.746094 142.519531 L 254.730469 142.519531 L 254.730469 127.550781 " fill-opacity="1" fill-rule="nonzero"/><path fill="#fbc308" d="M 269.714844 127.550781 L 254.738281 127.550781 L 254.738281 142.519531 L 269.714844 142.519531 L 269.714844 127.550781 " fill-opacity="1" fill-rule="nonzero"/><path fill="#fbc308" d="M 284.679688 127.550781 L 269.699219 127.550781 L 269.699219 142.519531 L 284.679688 142.519531 L 284.679688 127.550781 " fill-opacity="1" fill-rule="nonzero"/><path fill="#f89c0e" d="M 269.714844 157.488281 L 254.738281 157.488281 L 254.738281 172.457031 L 269.714844 172.457031 L 269.714844 157.488281 " fill-opacity="1" fill-rule="nonzero"/><path fill="#f89c0e" d="M 254.730469 172.457031 L 239.746094 172.457031 L 239.746094 187.429688 L 254.730469 187.429688 L 254.730469 172.457031 " fill-opacity="1" fill-rule="nonzero"/><path fill="#f89c0e" d="M 239.875 187.359375 L 224.894531 187.359375 L 224.894531 202.332031 L 239.875 202.332031 L 239.875 187.359375 " fill-opacity="1" fill-rule="nonzero"/><path fill="#f89c0e" d="M 224.855469 202.332031 L 209.875 202.332031 L 209.875 217.296875 L 224.855469 217.296875 L 224.855469 202.332031 " fill-opacity="1" fill-rule="nonzero"/><path fill="#f89c0e" d="M 209.867188 217.296875 L 194.886719 217.296875 L 194.886719 232.269531 L 209.867188 232.269531 L 209.867188 217.296875 " fill-opacity="1" fill-rule="nonzero"/><path fill="#f89c0e" d="M 194.875 232.335938 L 179.894531 232.335938 L 179.894531 247.308594 L 194.875 247.308594 L 194.875 232.335938 " fill-opacity="1" fill-rule="nonzero"/><path fill="#f89c0e" d="M 179.914062 247.382812 L 164.929688 247.382812 L 164.929688 262.347656 L 179.914062 262.347656 L 179.914062 247.382812 " fill-opacity="1" fill-rule="nonzero"/><path fill="#f89c0e" d="M 165.015625 262.285156 L 150.039062 262.285156 L 150.039062 277.25 L 165.015625 277.25 L 165.015625 262.285156 " fill-opacity="1" fill-rule="nonzero"/><path fill="#f89c0e" d="M 150.03125 277.179688 L 135.046875 277.179688 L 135.046875 292.152344 L 150.03125 292.152344 L 150.03125 277.179688 " fill-opacity="1" fill-rule="nonzero"/><path fill="#f89c0e" d="M 135.0625 292.152344 L 120.078125 292.152344 L 120.078125 307.121094 L 135.0625 307.121094 L 135.0625 292.152344 " fill-opacity="1" fill-rule="nonzero"/><path fill="#f89c0e" d="M 119.976562 307.242188 L 104.996094 307.242188 L 104.996094 322.214844 L 119.976562 322.214844 L 119.976562 307.242188 " fill-opacity="1" fill-rule="nonzero"/><path fill="#f89c0e" d="M 104.984375 322.214844 L 90.003906 322.214844 L 90.003906 337.179688 L 104.984375 337.179688 L 104.984375 322.214844 " fill-opacity="1" fill-rule="nonzero"/><path fill="#f89c0e" d="M 90 337.078125 L 75.015625 337.078125 L 75.015625 352.050781 L 90 352.050781 L 90 337.078125 " fill-opacity="1" fill-rule="nonzero"/><path fill="#f89c0e" d="M 284.679688 142.519531 L 269.699219 142.519531 L 269.699219 157.488281 L 284.679688 157.488281 L 284.679688 142.519531 " fill-opacity="1" fill-rule="nonzero"/><path fill="#f89c0e" d="M 299.644531 127.550781 L 284.660156 127.550781 L 284.660156 142.519531 L 299.644531 142.519531 L 299.644531 127.550781 " fill-opacity="1" fill-rule="nonzero"/><path fill="#f89c0e" d="M 314.636719 127.550781 L 299.652344 127.550781 L 299.652344 142.519531 L 314.636719 142.519531 L 314.636719 127.550781 " fill-opacity="1" fill-rule="nonzero"/><path fill="#f89c0e" d="M 329.625 127.550781 L 314.644531 127.550781 L 314.644531 142.519531 L 329.625 142.519531 L 329.625 127.550781 " fill-opacity="1" fill-rule="nonzero"/><path fill="#f89c0e" d="M 344.644531 127.550781 L 329.660156 127.550781 L 329.660156 142.519531 L 344.644531 142.519531 L 344.644531 127.550781 " fill-opacity="1" fill-rule="nonzero"/><path fill="#f89c0e" d="M 359.628906 127.550781 L 344.652344 127.550781 L 344.652344 142.519531 L 359.628906 142.519531 L 359.628906 127.550781 " fill-opacity="1" fill-rule="nonzero"/><path fill="#fde057" d="M 149.914062 97.539062 L 134.933594 97.539062 L 134.933594 112.511719 L 149.914062 112.511719 L 149.914062 97.539062 " fill-opacity="1" fill-rule="nonzero"/><path fill="#fde057" d="M 164.90625 97.539062 L 149.925781 97.539062 L 149.925781 112.511719 L 164.90625 112.511719 L 164.90625 97.539062 " fill-opacity="1" fill-rule="nonzero"/><path fill="#fde057" d="M 179.871094 97.539062 L 164.886719 97.539062 L 164.886719 112.511719 L 179.871094 112.511719 L 179.871094 97.539062 " fill-opacity="1" fill-rule="nonzero"/><path fill="#fbc308" d="M 194.835938 97.539062 L 179.851562 97.539062 L 179.851562 112.511719 L 194.835938 112.511719 L 194.835938 97.539062 " fill-opacity="1" fill-rule="nonzero"/><path fill="#fbc308" d="M 209.824219 97.539062 L 194.839844 97.539062 L 194.839844 112.511719 L 209.824219 112.511719 L 209.824219 97.539062 " fill-opacity="1" fill-rule="nonzero"/><path fill="#fbc308" d="M 224.8125 97.539062 L 209.832031 97.539062 L 209.832031 112.511719 L 224.8125 112.511719 L 224.8125 97.539062 " fill-opacity="1" fill-rule="nonzero"/><path fill="#fbc308" d="M 239.828125 97.539062 L 224.847656 97.539062 L 224.847656 112.511719 L 239.828125 112.511719 L 239.828125 97.539062 " fill-opacity="1" fill-rule="nonzero"/><path fill="#fbc308" d="M 149.914062 82.5 L 134.933594 82.5 L 134.933594 97.46875 L 149.914062 97.46875 L 149.914062 82.5 " fill-opacity="1" fill-rule="nonzero"/><path fill="#fde057" d="M 164.90625 82.5 L 149.925781 82.5 L 149.925781 97.46875 L 164.90625 97.46875 L 164.90625 82.5 " fill-opacity="1" fill-rule="nonzero"/><path fill="#fde057" d="M 179.871094 82.5 L 164.886719 82.5 L 164.886719 97.46875 L 179.871094 97.46875 L 179.871094 82.5 " fill-opacity="1" fill-rule="nonzero"/><path fill="#fde057" d="M 194.835938 82.5 L 179.851562 82.5 L 179.851562 97.46875 L 194.835938 97.46875 L 194.835938 82.5 " fill-opacity="1" fill-rule="nonzero"/><path fill="#fbc308" d="M 209.824219 82.5 L 194.839844 82.5 L 194.839844 97.46875 L 209.824219 97.46875 L 209.824219 82.5 " fill-opacity="1" fill-rule="nonzero"/><path fill="#fbc308" d="M 224.8125 82.5 L 209.832031 82.5 L 209.832031 97.46875 L 224.8125 97.46875 L 224.8125 82.5 " fill-opacity="1" fill-rule="nonzero"/><path fill="#fbc308" d="M 239.828125 82.5 L 224.847656 82.5 L 224.847656 97.46875 L 239.828125 97.46875 L 239.828125 82.5 " fill-opacity="1" fill-rule="nonzero"/><path fill="#fde057" d="M 164.90625 67.460938 L 149.925781 67.460938 L 149.925781 82.429688 L 164.90625 82.429688 L 164.90625 67.460938 " fill-opacity="1" fill-rule="nonzero"/><path fill="#fde057" d="M 179.871094 67.460938 L 164.886719 67.460938 L 164.886719 82.429688 L 179.871094 82.429688 L 179.871094 67.460938 " fill-opacity="1" fill-rule="nonzero"/><path fill="#fde057" d="M 194.835938 67.460938 L 179.851562 67.460938 L 179.851562 82.429688 L 194.835938 82.429688 L 194.835938 67.460938 " fill-opacity="1" fill-rule="nonzero"/><path fill="#fbc308" d="M 209.824219 67.460938 L 194.839844 67.460938 L 194.839844 82.429688 L 209.824219 82.429688 L 209.824219 67.460938 " fill-opacity="1" fill-rule="nonzero"/><path fill="#fbc308" d="M 224.8125 67.460938 L 209.832031 67.460938 L 209.832031 82.429688 L 224.8125 82.429688 L 224.8125 67.460938 " fill-opacity="1" fill-rule="nonzero"/><path fill="#fde057" d="M 179.871094 52.421875 L 164.886719 52.421875 L 164.886719 67.390625 L 179.871094 67.390625 L 179.871094 52.421875 " fill-opacity="1" fill-rule="nonzero"/><path fill="#fde057" d="M 194.835938 52.421875 L 179.851562 52.421875 L 179.851562 67.390625 L 194.835938 67.390625 L 194.835938 52.421875 " fill-opacity="1" fill-rule="nonzero"/><path fill="#fde057" d="M 209.824219 52.421875 L 194.839844 52.421875 L 194.839844 67.390625 L 209.824219 67.390625 L 209.824219 52.421875 " fill-opacity="1" fill-rule="nonzero"/><path fill="#fde057" d="M 179.871094 37.378906 L 164.886719 37.378906 L 164.886719 52.351562 L 179.871094 52.351562 L 179.871094 37.378906 " fill-opacity="1" fill-rule="nonzero"/><path fill="#fde057" d="M 194.835938 37.378906 L 179.851562 37.378906 L 179.851562 52.351562 L 194.835938 52.351562 L 194.835938 37.378906 " fill-opacity="1" fill-rule="nonzero"/><path fill="#fde057" d="M 209.824219 37.378906 L 194.839844 37.378906 L 194.839844 52.351562 L 209.824219 52.351562 L 209.824219 37.378906 " fill-opacity="1" fill-rule="nonzero"/><path fill="#fde057" d="M 194.835938 22.339844 L 179.851562 22.339844 L 179.851562 37.3125 L 194.835938 37.3125 L 194.835938 22.339844 " fill-opacity="1" fill-rule="nonzero"/><g clip-path="url(#94eaa2e122)"><path fill="#e98410" d="M 187.402344 7.789062 L 202.382812 7.789062 L 202.382812 22.757812 L 187.402344 22.757812 L 187.402344 7.789062 " fill-opacity="1" fill-rule="nonzero"/></g><path fill="#e98410" d="M 194.894531 22.757812 L 209.878906 22.757812 L 209.878906 37.730469 L 194.894531 37.730469 L 194.894531 22.757812 " fill-opacity="1" fill-rule="nonzero"/><path fill="#e98410" d="M 202.382812 37.730469 L 217.367188 37.730469 L 217.367188 52.699219 L 202.382812 52.699219 L 202.382812 37.730469 " fill-opacity="1" fill-rule="nonzero"/><path fill="#e98410" d="M 209.878906 52.699219 L 224.855469 52.699219 L 224.855469 67.671875 L 209.878906 67.671875 L 209.878906 52.699219 " fill-opacity="1" fill-rule="nonzero"/><path fill="#e98410" d="M 217.367188 67.671875 L 232.347656 67.671875 L 232.347656 82.640625 L 217.367188 82.640625 L 217.367188 67.671875 " fill-opacity="1" fill-rule="nonzero"/><path fill="#e98410" d="M 224.855469 82.640625 L 239.839844 82.640625 L 239.839844 97.609375 L 224.855469 97.609375 L 224.855469 82.640625 " fill-opacity="1" fill-rule="nonzero"/><path fill="#e98410" d="M 232.347656 97.609375 L 247.332031 97.609375 L 247.332031 112.578125 L 232.347656 112.578125 L 232.347656 97.609375 " fill-opacity="1" fill-rule="nonzero"/><path fill="#d15814" d="M 269.714844 232.335938 L 284.699219 232.335938 L 284.699219 247.308594 L 269.714844 247.308594 L 269.714844 232.335938 " fill-opacity="1" fill-rule="nonzero"/><path fill="#d15814" d="M 284.699219 217.367188 L 299.679688 217.367188 L 299.679688 232.335938 L 284.699219 232.335938 L 284.699219 217.367188 " fill-opacity="1" fill-rule="nonzero"/><path fill="#d15814" d="M 299.679688 202.394531 L 314.664062 202.394531 L 314.664062 217.367188 L 299.679688 217.367188 L 299.679688 202.394531 " fill-opacity="1" fill-rule="nonzero"/><path fill="#d15814" d="M 314.664062 187.429688 L 329.640625 187.429688 L 329.640625 202.394531 L 314.664062 202.394531 L 314.664062 187.429688 " fill-opacity="1" fill-rule="nonzero"/><path fill="#d15814" d="M 329.640625 172.457031 L 344.625 172.457031 L 344.625 187.429688 L 329.640625 187.429688 L 329.640625 172.457031 " fill-opacity="1" fill-rule="nonzero"/><path fill="#d15814" d="M 344.625 157.488281 L 359.605469 157.488281 L 359.605469 172.457031 L 344.625 172.457031 L 344.625 157.488281 " fill-opacity="1" fill-rule="nonzero"/><path fill="#d15814" d="M 359.605469 142.515625 L 374.589844 142.515625 L 374.589844 157.488281 L 359.605469 157.488281 L 359.605469 142.515625 " fill-opacity="1" fill-rule="nonzero"/><path fill="#d15814" d="M 269.714844 247.308594 L 284.699219 247.308594 L 284.699219 262.277344 L 269.714844 262.277344 L 269.714844 247.308594 " fill-opacity="1" fill-rule="nonzero"/><path fill="#d15814" d="M 284.800781 262.328125 L 299.78125 262.328125 L 299.78125 277.300781 L 284.800781 277.300781 L 284.800781 262.328125 " fill-opacity="1" fill-rule="nonzero"/><path fill="#d15814" d="M 284.800781 277.273438 L 299.78125 277.273438 L 299.78125 292.242188 L 284.800781 292.242188 L 284.800781 277.273438 " fill-opacity="1" fill-rule="nonzero"/><path fill="#d15814" d="M 284.800781 292.253906 L 299.78125 292.253906 L 299.78125 307.222656 L 284.800781 307.222656 L 284.800781 292.253906 " fill-opacity="1" fill-rule="nonzero"/><path fill="#d15814" d="M 299.507812 307.242188 L 314.488281 307.242188 L 314.488281 322.207031 L 299.507812 322.207031 L 299.507812 307.242188 " fill-opacity="1" fill-rule="nonzero"/><path fill="#d15814" d="M 299.507812 322.1875 L 314.488281 322.1875 L 314.488281 337.15625 L 299.507812 337.15625 L 299.507812 322.1875 " fill-opacity="1" fill-rule="nonzero"/><path fill="#d15814" d="M 299.507812 337.164062 L 314.488281 337.164062 L 314.488281 352.136719 L 299.507812 352.136719 L 299.507812 337.164062 " fill-opacity="1" fill-rule="nonzero"/><g clip-path="url(#467da38b9c)"><path fill="#d15814" d="M 284.648438 352.082031 L 299.625 352.082031 L 299.625 367.050781 L 284.648438 367.050781 L 284.648438 352.082031 " fill-opacity="1" fill-rule="nonzero"/></g><path fill="#d15814" d="M 269.804688 337.25 L 284.785156 337.25 L 284.785156 352.21875 L 269.804688 352.21875 L 269.804688 337.25 " fill-opacity="1" fill-rule="nonzero"/><path fill="#d15814" d="M 254.820312 329.902344 L 269.804688 329.902344 L 269.804688 344.875 L 254.820312 344.875 L 254.820312 329.902344 " fill-opacity="1" fill-rule="nonzero"/><path fill="#d15814" d="M 239.839844 322.558594 L 254.820312 322.558594 L 254.820312 337.527344 L 239.839844 337.527344 L 239.839844 322.558594 " fill-opacity="1" fill-rule="nonzero"/><path fill="#d15814" d="M 224.855469 315.210938 L 239.839844 315.210938 L 239.839844 330.183594 L 224.855469 330.183594 L 224.855469 315.210938 " fill-opacity="1" fill-rule="nonzero"/><path fill="#d15814" d="M 209.878906 307.867188 L 224.855469 307.867188 L 224.855469 322.832031 L 209.878906 322.832031 L 209.878906 307.867188 " fill-opacity="1" fill-rule="nonzero"/><path fill="#d15814" d="M 194.894531 300.519531 L 209.878906 300.519531 L 209.878906 315.488281 L 194.894531 315.488281 L 194.894531 300.519531 " fill-opacity="1" fill-rule="nonzero"/><path fill="#d15814" d="M 179.980469 294.417969 L 194.964844 294.417969 L 194.964844 309.390625 L 179.980469 309.390625 L 179.980469 294.417969 " fill-opacity="1" fill-rule="nonzero"/><path fill="#e98410" d="M 239.839844 112.578125 L 254.820312 112.578125 L 254.820312 127.550781 L 239.839844 127.550781 L 239.839844 112.578125 " fill-opacity="1" fill-rule="nonzero"/><path fill="#e98410" d="M 254.796875 112.578125 L 269.777344 112.578125 L 269.777344 127.550781 L 254.796875 127.550781 L 254.796875 112.578125 " fill-opacity="1" fill-rule="nonzero"/><path fill="#e98410" d="M 269.753906 112.578125 L 284.734375 112.578125 L 284.734375 127.550781 L 269.753906 127.550781 L 269.753906 112.578125 " fill-opacity="1" fill-rule="nonzero"/><path fill="#d15814" d="M 284.707031 112.578125 L 299.691406 112.578125 L 299.691406 127.550781 L 284.707031 127.550781 L 284.707031 112.578125 " fill-opacity="1" fill-rule="nonzero"/><path fill="#d15814" d="M 299.664062 112.578125 L 314.644531 112.578125 L 314.644531 127.550781 L 299.664062 127.550781 L 299.664062 112.578125 " fill-opacity="1" fill-rule="nonzero"/><path fill="#d15814" d="M 314.679688 120.097656 L 329.660156 120.097656 L 329.660156 135.070312 L 314.679688 135.070312 L 314.679688 120.097656 " fill-opacity="1" fill-rule="nonzero"/><path fill="#d15814" d="M 329.648438 120.097656 L 344.625 120.097656 L 344.625 135.070312 L 329.648438 135.070312 L 329.648438 120.097656 " fill-opacity="1" fill-rule="nonzero"/><path fill="#d15814" d="M 344.632812 120.097656 L 359.617188 120.097656 L 359.617188 135.070312 L 344.632812 135.070312 L 344.632812 120.097656 " fill-opacity="1" fill-rule="nonzero"/><path fill="#d15814" d="M 359.597656 120.097656 L 374.582031 120.097656 L 374.582031 135.070312 L 359.597656 135.070312 L 359.597656 120.097656 " fill-opacity="1" fill-rule="nonzero"/><path fill="#d15814" d="M 359.625 135.070312 L 374.609375 135.070312 L 374.609375 142.566406 L 359.625 142.566406 L 359.625 135.070312 " fill-opacity="1" fill-rule="nonzero"/><g clip-path="url(#6e910a8b88)"><path fill="#e98410" d="M 187.476562 7.789062 L 172.492188 7.789062 L 172.492188 22.757812 L 187.476562 22.757812 L 187.476562 7.789062 " fill-opacity="1" fill-rule="nonzero"/></g><path fill="#e98410" d="M 179.984375 22.757812 L 165.003906 22.757812 L 165.003906 37.730469 L 179.984375 37.730469 L 179.984375 22.757812 " fill-opacity="1" fill-rule="nonzero"/><path fill="#e98410" d="M 172.492188 37.730469 L 157.511719 37.730469 L 157.511719 52.699219 L 172.492188 52.699219 L 172.492188 37.730469 " fill-opacity="1" fill-rule="nonzero"/><path fill="#e98410" d="M 165.003906 52.699219 L 150.019531 52.699219 L 150.019531 67.671875 L 165.003906 67.671875 L 165.003906 52.699219 " fill-opacity="1" fill-rule="nonzero"/><path fill="#e98410" d="M 157.511719 67.671875 L 142.53125 67.671875 L 142.53125 82.640625 L 157.511719 82.640625 L 157.511719 67.671875 " fill-opacity="1" fill-rule="nonzero"/><path fill="#e98410" d="M 150.019531 82.640625 L 135.039062 82.640625 L 135.039062 97.609375 L 150.019531 97.609375 L 150.019531 82.640625 " fill-opacity="1" fill-rule="nonzero"/><path fill="#e98410" d="M 142.53125 97.609375 L 127.550781 97.609375 L 127.550781 112.578125 L 142.53125 112.578125 L 142.53125 97.609375 " fill-opacity="1" fill-rule="nonzero"/><path fill="#e98410" d="M 105.160156 232.335938 L 90.183594 232.335938 L 90.183594 247.308594 L 105.160156 247.308594 L 105.160156 232.335938 " fill-opacity="1" fill-rule="nonzero"/><path fill="#e98410" d="M 90.183594 217.367188 L 75.199219 217.367188 L 75.199219 232.335938 L 90.183594 232.335938 L 90.183594 217.367188 " fill-opacity="1" fill-rule="nonzero"/><path fill="#e98410" d="M 75.199219 202.394531 L 60.21875 202.394531 L 60.21875 217.367188 L 75.199219 217.367188 L 75.199219 202.394531 " fill-opacity="1" fill-rule="nonzero"/><path fill="#e98410" d="M 60.21875 187.429688 L 45.234375 187.429688 L 45.234375 202.394531 L 60.21875 202.394531 L 60.21875 187.429688 " fill-opacity="1" fill-rule="nonzero"/><path fill="#e98410" d="M 45.234375 172.457031 L 30.253906 172.457031 L 30.253906 187.429688 L 45.234375 187.429688 L 45.234375 172.457031 " fill-opacity="1" fill-rule="nonzero"/><path fill="#e98410" d="M 30.253906 157.488281 L 15.273438 157.488281 L 15.273438 172.457031 L 30.253906 172.457031 L 30.253906 157.488281 " fill-opacity="1" fill-rule="nonzero"/><path fill="#e98410" d="M 15.273438 142.515625 L 0.292969 142.515625 L 0.292969 157.488281 L 15.273438 157.488281 L 15.273438 142.515625 " fill-opacity="1" fill-rule="nonzero"/><path fill="#e98410" d="M 105.160156 247.308594 L 90.183594 247.308594 L 90.183594 262.277344 L 105.160156 262.277344 L 105.160156 247.308594 " fill-opacity="1" fill-rule="nonzero"/><path fill="#e98410" d="M 90.078125 262.328125 L 75.09375 262.328125 L 75.09375 277.300781 L 90.078125 277.300781 L 90.078125 262.328125 " fill-opacity="1" fill-rule="nonzero"/><path fill="#e98410" d="M 90.078125 277.273438 L 75.09375 277.273438 L 75.09375 292.242188 L 90.078125 292.242188 L 90.078125 277.273438 " fill-opacity="1" fill-rule="nonzero"/><path fill="#e98410" d="M 90.078125 292.253906 L 75.09375 292.253906 L 75.09375 307.222656 L 90.078125 307.222656 L 90.078125 292.253906 " fill-opacity="1" fill-rule="nonzero"/><path fill="#e98410" d="M 75.371094 307.242188 L 60.390625 307.242188 L 60.390625 322.207031 L 75.371094 322.207031 L 75.371094 307.242188 " fill-opacity="1" fill-rule="nonzero"/><path fill="#e98410" d="M 75.371094 322.1875 L 60.390625 322.1875 L 60.390625 337.15625 L 75.371094 337.15625 L 75.371094 322.1875 " fill-opacity="1" fill-rule="nonzero"/><path fill="#e98410" d="M 75.371094 337.164062 L 60.390625 337.164062 L 60.390625 352.136719 L 75.371094 352.136719 L 75.371094 337.164062 " fill-opacity="1" fill-rule="nonzero"/><g clip-path="url(#8630f87455)"><path fill="#d15814" d="M 90.234375 352.082031 L 75.25 352.082031 L 75.25 367.050781 L 90.234375 367.050781 L 90.234375 352.082031 " fill-opacity="1" fill-rule="nonzero"/></g><path fill="#d15814" d="M 105.074219 337.25 L 90.09375 337.25 L 90.09375 352.21875 L 105.074219 352.21875 L 105.074219 337.25 " fill-opacity="1" fill-rule="nonzero"/><path fill="#d15814" d="M 120.054688 329.902344 L 105.074219 329.902344 L 105.074219 344.875 L 120.054688 344.875 L 120.054688 329.902344 " fill-opacity="1" fill-rule="nonzero"/><path fill="#d15814" d="M 135.039062 322.558594 L 120.054688 322.558594 L 120.054688 337.527344 L 135.039062 337.527344 L 135.039062 322.558594 " fill-opacity="1" fill-rule="nonzero"/><path fill="#d15814" d="M 150.019531 315.210938 L 135.039062 315.210938 L 135.039062 330.183594 L 150.019531 330.183594 L 150.019531 315.210938 " fill-opacity="1" fill-rule="nonzero"/><path fill="#d15814" d="M 165.003906 307.867188 L 150.019531 307.867188 L 150.019531 322.832031 L 165.003906 322.832031 L 165.003906 307.867188 " fill-opacity="1" fill-rule="nonzero"/><path fill="#d15814" d="M 179.984375 300.519531 L 165.003906 300.519531 L 165.003906 315.488281 L 179.984375 315.488281 L 179.984375 300.519531 " fill-opacity="1" fill-rule="nonzero"/><path fill="#e98410" d="M 135.039062 112.578125 L 120.054688 112.578125 L 120.054688 127.550781 L 135.039062 127.550781 L 135.039062 112.578125 " fill-opacity="1" fill-rule="nonzero"/><path fill="#e98410" d="M 120.082031 112.578125 L 105.101562 112.578125 L 105.101562 127.550781 L 120.082031 127.550781 L 120.082031 112.578125 " fill-opacity="1" fill-rule="nonzero"/><path fill="#e98410" d="M 105.128906 112.578125 L 90.144531 112.578125 L 90.144531 127.550781 L 105.128906 127.550781 L 105.128906 112.578125 " fill-opacity="1" fill-rule="nonzero"/><path fill="#e98410" d="M 90.171875 112.578125 L 75.191406 112.578125 L 75.191406 127.550781 L 90.171875 127.550781 L 90.171875 112.578125 " fill-opacity="1" fill-rule="nonzero"/><path fill="#e98410" d="M 75.21875 112.578125 L 60.234375 112.578125 L 60.234375 127.550781 L 75.21875 127.550781 L 75.21875 112.578125 " fill-opacity="1" fill-rule="nonzero"/><path fill="#e98410" d="M 60.199219 120.097656 L 45.214844 120.097656 L 45.214844 135.070312 L 60.199219 135.070312 L 60.199219 120.097656 " fill-opacity="1" fill-rule="nonzero"/><path fill="#e98410" d="M 45.234375 120.097656 L 30.253906 120.097656 L 30.253906 135.070312 L 45.234375 135.070312 L 45.234375 120.097656 " fill-opacity="1" fill-rule="nonzero"/><path fill="#e98410" d="M 30.242188 120.097656 L 15.261719 120.097656 L 15.261719 135.070312 L 30.242188 135.070312 L 30.242188 120.097656 " fill-opacity="1" fill-rule="nonzero"/><path fill="#e98410" d="M 15.277344 120.097656 L 0.296875 120.097656 L 0.296875 135.070312 L 15.277344 135.070312 L 15.277344 120.097656 " fill-opacity="1" fill-rule="nonzero"/><path fill="#e98410" d="M 15.25 135.070312 L 0.273438 135.070312 L 0.273438 142.566406 L 15.25 142.566406 L 15.25 135.070312 " fill-opacity="1" fill-rule="nonzero"/></svg>