<svg xmlns="http://www.w3.org/2000/svg" xmlns:xlink="http://www.w3.org/1999/xlink" width="500" zoomAndPan="magnify" viewBox="0 0 375 374.999991" height="500" preserveAspectRatio="xMidYMid meet" version="1.0"><defs><clipPath id="bb205ad7c4"><path d="M 307 97.273438 L 316 97.273438 L 316 106 L 307 106 Z M 307 97.273438 " clip-rule="nonzero"/></clipPath><clipPath id="0ce05a1837"><path d="M 299 97.273438 L 308 97.273438 L 308 106 L 299 106 Z M 299 97.273438 " clip-rule="nonzero"/></clipPath><clipPath id="5d27a32019"><path d="M 291 97.273438 L 300 97.273438 L 300 106 L 291 106 Z M 291 97.273438 " clip-rule="nonzero"/></clipPath><clipPath id="e0bd121059"><path d="M 283 97.273438 L 292 97.273438 L 292 106 L 283 106 Z M 283 97.273438 " clip-rule="nonzero"/></clipPath></defs><path fill="#59c8dc" d="M 297.152344 230.433594 L 297.152344 238.375 L 289.214844 238.375 L 289.214844 230.433594 L 297.152344 230.433594 " fill-opacity="1" fill-rule="nonzero"/><path fill="#59c8dc" d="M 297.152344 222.492188 L 297.152344 230.433594 L 289.214844 230.433594 L 289.214844 222.492188 L 297.152344 222.492188 " fill-opacity="1" fill-rule="nonzero"/><path fill="#59c8dc" d="M 289.214844 238.375 L 289.214844 246.316406 L 281.277344 246.316406 L 281.277344 238.375 L 289.214844 238.375 " fill-opacity="1" fill-rule="nonzero"/><path fill="#59c8dc" d="M 289.214844 230.433594 L 289.214844 238.375 L 281.277344 238.375 L 281.277344 230.433594 L 289.214844 230.433594 " fill-opacity="1" fill-rule="nonzero"/><path fill="#59c8dc" d="M 289.214844 222.492188 L 289.214844 230.433594 L 281.277344 230.433594 L 281.277344 222.492188 L 289.214844 222.492188 " fill-opacity="1" fill-rule="nonzero"/><path fill="#b2e6fa" d="M 289.214844 214.5625 L 289.214844 222.492188 L 281.277344 222.492188 L 281.277344 214.5625 L 289.214844 214.5625 " fill-opacity="1" fill-rule="nonzero"/><path fill="#59c8dc" d="M 281.277344 238.375 L 281.277344 246.316406 L 273.339844 246.316406 L 273.339844 238.375 L 281.277344 238.375 " fill-opacity="1" fill-rule="nonzero"/><path fill="#b2e6fa" d="M 281.277344 230.433594 L 281.277344 238.375 L 273.339844 238.375 L 273.339844 230.433594 L 281.277344 230.433594 " fill-opacity="1" fill-rule="nonzero"/><path fill="#b2e6fa" d="M 281.277344 222.492188 L 281.277344 230.433594 L 273.339844 230.433594 L 273.339844 222.492188 L 281.277344 222.492188 " fill-opacity="1" fill-rule="nonzero"/><path fill="#b2e6fa" d="M 281.277344 214.5625 L 281.277344 222.492188 L 273.339844 222.492188 L 273.339844 214.5625 L 281.277344 214.5625 " fill-opacity="1" fill-rule="nonzero"/><path fill="#59c8dc" d="M 273.339844 238.375 L 273.339844 246.316406 L 265.402344 246.316406 L 265.402344 238.375 L 273.339844 238.375 " fill-opacity="1" fill-rule="nonzero"/><path fill="#b2e6fa" d="M 273.339844 230.433594 L 273.339844 238.375 L 265.402344 238.375 L 265.402344 230.433594 L 273.339844 230.433594 " fill-opacity="1" fill-rule="nonzero"/><path fill="#b2e6fa" d="M 273.339844 222.492188 L 273.339844 230.433594 L 265.402344 230.433594 L 265.402344 222.492188 L 273.339844 222.492188 " fill-opacity="1" fill-rule="nonzero"/><path fill="#b2e6fa" d="M 273.339844 214.5625 L 273.339844 222.492188 L 265.402344 222.492188 L 265.402344 214.5625 L 273.339844 214.5625 " fill-opacity="1" fill-rule="nonzero"/><path fill="#59c8dc" d="M 265.402344 238.375 L 265.402344 246.316406 L 257.472656 246.316406 L 257.472656 238.375 L 265.402344 238.375 " fill-opacity="1" fill-rule="nonzero"/><path fill="#b2e6fa" d="M 265.402344 230.433594 L 265.402344 238.375 L 257.472656 238.375 L 257.472656 230.433594 L 265.402344 230.433594 " fill-opacity="1" fill-rule="nonzero"/><path fill="#b2e6fa" d="M 265.402344 222.492188 L 265.402344 230.433594 L 257.472656 230.433594 L 257.472656 222.492188 L 265.402344 222.492188 " fill-opacity="1" fill-rule="nonzero"/><path fill="#ffffff" d="M 265.402344 214.5625 L 265.402344 222.492188 L 257.472656 222.492188 L 257.472656 214.5625 L 265.402344 214.5625 " fill-opacity="1" fill-rule="nonzero"/><path fill="#59c8dc" d="M 257.472656 238.375 L 257.472656 246.316406 L 249.535156 246.316406 L 249.535156 238.375 L 257.472656 238.375 " fill-opacity="1" fill-rule="nonzero"/><path fill="#b2e6fa" d="M 257.472656 230.433594 L 257.472656 238.375 L 249.535156 238.375 L 249.535156 230.433594 L 257.472656 230.433594 " fill-opacity="1" fill-rule="nonzero"/><path fill="#b2e6fa" d="M 257.472656 222.492188 L 257.472656 230.433594 L 249.535156 230.433594 L 249.535156 222.492188 L 257.472656 222.492188 " fill-opacity="1" fill-rule="nonzero"/><path fill="#ffffff" d="M 257.472656 214.5625 L 257.472656 222.492188 L 249.535156 222.492188 L 249.535156 214.5625 L 257.472656 214.5625 " fill-opacity="1" fill-rule="nonzero"/><path fill="#b2e6fa" d="M 249.535156 230.433594 L 249.535156 238.375 L 241.597656 238.375 L 241.597656 230.433594 L 249.535156 230.433594 " fill-opacity="1" fill-rule="nonzero"/><path fill="#b2e6fa" d="M 249.535156 222.492188 L 249.535156 230.433594 L 241.597656 230.433594 L 241.597656 222.492188 L 249.535156 222.492188 " fill-opacity="1" fill-rule="nonzero"/><path fill="#ffffff" d="M 249.535156 214.5625 L 249.535156 222.492188 L 241.597656 222.492188 L 241.597656 214.5625 L 249.535156 214.5625 " fill-opacity="1" fill-rule="nonzero"/><path fill="#b2e6fa" d="M 241.597656 230.433594 L 241.597656 238.375 L 233.660156 238.375 L 233.660156 230.433594 L 241.597656 230.433594 " fill-opacity="1" fill-rule="nonzero"/><path fill="#ffffff" d="M 241.597656 222.492188 L 241.597656 230.433594 L 233.660156 230.433594 L 233.660156 222.492188 L 241.597656 222.492188 " fill-opacity="1" fill-rule="nonzero"/><path fill="#b2e6fa" d="M 233.660156 230.433594 L 233.660156 238.375 L 225.730469 238.375 L 225.730469 230.433594 L 233.660156 230.433594 " fill-opacity="1" fill-rule="nonzero"/><path fill="#ffffff" d="M 233.660156 222.492188 L 233.660156 230.433594 L 225.730469 230.433594 L 225.730469 222.492188 L 233.660156 222.492188 " fill-opacity="1" fill-rule="nonzero"/><path fill="#59c8dc" d="M 330.960938 129.261719 L 330.960938 137.203125 L 323.023438 137.203125 L 323.023438 129.261719 L 330.960938 129.261719 " fill-opacity="1" fill-rule="nonzero"/><path fill="#59c8dc" d="M 330.960938 121.320312 L 330.960938 129.261719 L 323.023438 129.261719 L 323.023438 121.320312 L 330.960938 121.320312 " fill-opacity="1" fill-rule="nonzero"/><path fill="#59c8dc" d="M 323.023438 129.261719 L 323.023438 137.203125 L 315.085938 137.203125 L 315.085938 129.261719 L 323.023438 129.261719 " fill-opacity="1" fill-rule="nonzero"/><path fill="#59c8dc" d="M 323.023438 121.320312 L 323.023438 129.261719 L 315.085938 129.261719 L 315.085938 121.320312 L 323.023438 121.320312 " fill-opacity="1" fill-rule="nonzero"/><path fill="#b2e6fa" d="M 323.023438 113.382812 L 323.023438 121.320312 L 315.085938 121.320312 L 315.085938 113.382812 L 323.023438 113.382812 " fill-opacity="1" fill-rule="nonzero"/><path fill="#b2e6fa" d="M 323.023438 105.441406 L 323.023438 113.382812 L 315.085938 113.382812 L 315.085938 105.441406 L 323.023438 105.441406 " fill-opacity="1" fill-rule="nonzero"/><path fill="#59c8dc" d="M 315.085938 129.261719 L 315.085938 137.203125 L 307.148438 137.203125 L 307.148438 129.261719 L 315.085938 129.261719 " fill-opacity="1" fill-rule="nonzero"/><path fill="#59c8dc" d="M 315.085938 121.320312 L 315.085938 129.261719 L 307.148438 129.261719 L 307.148438 121.320312 L 315.085938 121.320312 " fill-opacity="1" fill-rule="nonzero"/><path fill="#b2e6fa" d="M 315.085938 113.382812 L 315.085938 121.320312 L 307.148438 121.320312 L 307.148438 113.382812 L 315.085938 113.382812 " fill-opacity="1" fill-rule="nonzero"/><path fill="#ffffff" d="M 315.085938 105.441406 L 315.085938 113.382812 L 307.148438 113.382812 L 307.148438 105.441406 L 315.085938 105.441406 " fill-opacity="1" fill-rule="nonzero"/><g clip-path="url(#bb205ad7c4)"><path fill="#ffffff" d="M 315.085938 97.5 L 315.085938 105.441406 L 307.148438 105.441406 L 307.148438 97.5 L 315.085938 97.5 " fill-opacity="1" fill-rule="nonzero"/></g><path fill="#59c8dc" d="M 307.148438 129.261719 L 307.148438 137.203125 L 299.210938 137.203125 L 299.210938 129.261719 L 307.148438 129.261719 " fill-opacity="1" fill-rule="nonzero"/><path fill="#b2e6fa" d="M 307.148438 121.320312 L 307.148438 129.261719 L 299.210938 129.261719 L 299.210938 121.320312 L 307.148438 121.320312 " fill-opacity="1" fill-rule="nonzero"/><path fill="#b2e6fa" d="M 307.148438 113.382812 L 307.148438 121.320312 L 299.210938 121.320312 L 299.210938 113.382812 L 307.148438 113.382812 " fill-opacity="1" fill-rule="nonzero"/><path fill="#ffffff" d="M 307.148438 105.441406 L 307.148438 113.382812 L 299.210938 113.382812 L 299.210938 105.441406 L 307.148438 105.441406 " fill-opacity="1" fill-rule="nonzero"/><g clip-path="url(#0ce05a1837)"><path fill="#ffffff" d="M 307.148438 97.5 L 307.148438 105.441406 L 299.210938 105.441406 L 299.210938 97.5 L 307.148438 97.5 " fill-opacity="1" fill-rule="nonzero"/></g><path fill="#59c8dc" d="M 299.210938 129.261719 L 299.210938 137.203125 L 291.28125 137.203125 L 291.28125 129.261719 L 299.210938 129.261719 " fill-opacity="1" fill-rule="nonzero"/><path fill="#b2e6fa" d="M 299.210938 121.320312 L 299.210938 129.261719 L 291.28125 129.261719 L 291.28125 121.320312 L 299.210938 121.320312 " fill-opacity="1" fill-rule="nonzero"/><path fill="#b2e6fa" d="M 299.210938 113.382812 L 299.210938 121.320312 L 291.28125 121.320312 L 291.28125 113.382812 L 299.210938 113.382812 " fill-opacity="1" fill-rule="nonzero"/><path fill="#ffffff" d="M 299.210938 105.441406 L 299.210938 113.382812 L 291.28125 113.382812 L 291.28125 105.441406 L 299.210938 105.441406 " fill-opacity="1" fill-rule="nonzero"/><g clip-path="url(#5d27a32019)"><path fill="#ffffff" d="M 299.210938 97.5 L 299.210938 105.441406 L 291.28125 105.441406 L 291.28125 97.5 L 299.210938 97.5 " fill-opacity="1" fill-rule="nonzero"/></g><path fill="#59c8dc" d="M 291.28125 129.261719 L 291.28125 137.203125 L 283.34375 137.203125 L 283.34375 129.261719 L 291.28125 129.261719 " fill-opacity="1" fill-rule="nonzero"/><path fill="#b2e6fa" d="M 291.28125 121.320312 L 291.28125 129.261719 L 283.34375 129.261719 L 283.34375 121.320312 L 291.28125 121.320312 " fill-opacity="1" fill-rule="nonzero"/><path fill="#b2e6fa" d="M 291.28125 113.382812 L 291.28125 121.320312 L 283.34375 121.320312 L 283.34375 113.382812 L 291.28125 113.382812 " fill-opacity="1" fill-rule="nonzero"/><path fill="#ffffff" d="M 291.28125 105.441406 L 291.28125 113.382812 L 283.34375 113.382812 L 283.34375 105.441406 L 291.28125 105.441406 " fill-opacity="1" fill-rule="nonzero"/><g clip-path="url(#e0bd121059)"><path fill="#ffffff" d="M 291.28125 97.5 L 291.28125 105.441406 L 283.34375 105.441406 L 283.34375 97.5 L 291.28125 97.5 " fill-opacity="1" fill-rule="nonzero"/></g><path fill="#59c8dc" d="M 283.34375 129.261719 L 283.34375 137.203125 L 275.40625 137.203125 L 275.40625 129.261719 L 283.34375 129.261719 " fill-opacity="1" fill-rule="nonzero"/><path fill="#b2e6fa" d="M 283.34375 121.320312 L 283.34375 129.261719 L 275.40625 129.261719 L 275.40625 121.320312 L 283.34375 121.320312 " fill-opacity="1" fill-rule="nonzero"/><path fill="#b2e6fa" d="M 283.34375 113.382812 L 283.34375 121.320312 L 275.40625 121.320312 L 275.40625 113.382812 L 283.34375 113.382812 " fill-opacity="1" fill-rule="nonzero"/><path fill="#ffffff" d="M 283.34375 105.441406 L 283.34375 113.382812 L 275.40625 113.382812 L 275.40625 105.441406 L 283.34375 105.441406 " fill-opacity="1" fill-rule="nonzero"/><path fill="#59c8dc" d="M 275.40625 129.261719 L 275.40625 137.203125 L 267.46875 137.203125 L 267.46875 129.261719 L 275.40625 129.261719 " fill-opacity="1" fill-rule="nonzero"/><path fill="#b2e6fa" d="M 275.40625 121.320312 L 275.40625 129.261719 L 267.46875 129.261719 L 267.46875 121.320312 L 275.40625 121.320312 " fill-opacity="1" fill-rule="nonzero"/><path fill="#b2e6fa" d="M 275.40625 113.382812 L 275.40625 121.320312 L 267.46875 121.320312 L 267.46875 113.382812 L 275.40625 113.382812 " fill-opacity="1" fill-rule="nonzero"/><path fill="#ffffff" d="M 275.40625 105.441406 L 275.40625 113.382812 L 267.46875 113.382812 L 267.46875 105.441406 L 275.40625 105.441406 " fill-opacity="1" fill-rule="nonzero"/><path fill="#59c8dc" d="M 267.46875 129.261719 L 267.46875 137.203125 L 259.539062 137.203125 L 259.539062 129.261719 L 267.46875 129.261719 " fill-opacity="1" fill-rule="nonzero"/><path fill="#b2e6fa" d="M 267.46875 121.320312 L 267.46875 129.261719 L 259.539062 129.261719 L 259.539062 121.320312 L 267.46875 121.320312 " fill-opacity="1" fill-rule="nonzero"/><path fill="#b2e6fa" d="M 267.46875 113.382812 L 267.46875 121.320312 L 259.539062 121.320312 L 259.539062 113.382812 L 267.46875 113.382812 " fill-opacity="1" fill-rule="nonzero"/><path fill="#59c8dc" d="M 259.539062 129.261719 L 259.539062 137.203125 L 251.601562 137.203125 L 251.601562 129.261719 L 259.539062 129.261719 " fill-opacity="1" fill-rule="nonzero"/><path fill="#b2e6fa" d="M 259.539062 121.320312 L 259.539062 129.261719 L 251.601562 129.261719 L 251.601562 121.320312 L 259.539062 121.320312 " fill-opacity="1" fill-rule="nonzero"/><path fill="#ffffff" d="M 259.539062 113.382812 L 259.539062 121.320312 L 251.601562 121.320312 L 251.601562 113.382812 L 259.539062 113.382812 " fill-opacity="1" fill-rule="nonzero"/><path fill="#59c8dc" d="M 251.601562 129.261719 L 251.601562 137.203125 L 243.617188 137.203125 L 243.617188 129.261719 L 251.601562 129.261719 " fill-opacity="1" fill-rule="nonzero"/><path fill="#b2e6fa" d="M 251.601562 121.320312 L 251.601562 129.261719 L 243.617188 129.261719 L 243.617188 121.320312 L 251.601562 121.320312 " fill-opacity="1" fill-rule="nonzero"/><path fill="#ffffff" d="M 251.601562 113.382812 L 251.601562 121.320312 L 243.617188 121.320312 L 243.617188 113.382812 L 251.601562 113.382812 " fill-opacity="1" fill-rule="nonzero"/><path fill="#59c8dc" d="M 243.617188 129.261719 L 243.617188 137.203125 L 235.691406 137.203125 L 235.691406 129.261719 L 243.617188 129.261719 " fill-opacity="1" fill-rule="nonzero"/><path fill="#b2e6fa" d="M 243.617188 121.320312 L 243.617188 129.261719 L 235.691406 129.261719 L 235.691406 121.320312 L 243.617188 121.320312 " fill-opacity="1" fill-rule="nonzero"/><path fill="#ffffff" d="M 243.617188 113.382812 L 243.617188 121.320312 L 235.691406 121.320312 L 235.691406 113.382812 L 243.617188 113.382812 " fill-opacity="1" fill-rule="nonzero"/><path fill="#b2e6fa" d="M 235.691406 121.320312 L 235.691406 129.261719 L 227.753906 129.261719 L 227.753906 121.320312 L 235.691406 121.320312 " fill-opacity="1" fill-rule="nonzero"/><path fill="#ffffff" d="M 235.691406 113.382812 L 235.691406 121.320312 L 227.753906 121.320312 L 227.753906 113.382812 L 235.691406 113.382812 " fill-opacity="1" fill-rule="nonzero"/><path fill="#b2e6fa" d="M 227.753906 121.320312 L 227.753906 129.261719 L 219.816406 129.261719 L 219.816406 121.320312 L 227.753906 121.320312 " fill-opacity="1" fill-rule="nonzero"/><path fill="#ffffff" d="M 227.753906 113.382812 L 227.753906 121.320312 L 219.816406 121.320312 L 219.816406 113.382812 L 227.753906 113.382812 " fill-opacity="1" fill-rule="nonzero"/><path fill="#59c8dc" d="M 36.386719 163.800781 L 36.386719 171.777344 L 44.324219 171.777344 L 44.324219 163.800781 L 36.386719 163.800781 " fill-opacity="1" fill-rule="nonzero"/><path fill="#59c8dc" d="M 44.324219 171.777344 L 44.324219 179.71875 L 52.25 179.71875 L 52.25 171.777344 L 44.324219 171.777344 " fill-opacity="1" fill-rule="nonzero"/><path fill="#59c8dc" d="M 44.324219 163.800781 L 44.324219 171.777344 L 52.25 171.777344 L 52.25 163.800781 L 44.324219 163.800781 " fill-opacity="1" fill-rule="nonzero"/><path fill="#59c8dc" d="M 44.324219 155.859375 L 44.324219 163.800781 L 52.25 163.800781 L 52.25 155.859375 L 44.324219 155.859375 " fill-opacity="1" fill-rule="nonzero"/><path fill="#59c8dc" d="M 52.25 171.777344 L 52.25 179.71875 L 60.1875 179.71875 L 60.1875 171.777344 L 52.25 171.777344 " fill-opacity="1" fill-rule="nonzero"/><path fill="#59c8dc" d="M 52.25 163.800781 L 52.25 171.777344 L 60.1875 171.777344 L 60.1875 163.800781 L 52.25 163.800781 " fill-opacity="1" fill-rule="nonzero"/><path fill="#b2e6fa" d="M 52.25 155.859375 L 52.25 163.800781 L 60.1875 163.800781 L 60.1875 155.859375 L 52.25 155.859375 " fill-opacity="1" fill-rule="nonzero"/><path fill="#b2e6fa" d="M 52.25 147.914062 L 52.25 155.859375 L 60.1875 155.859375 L 60.1875 147.914062 L 52.25 147.914062 " fill-opacity="1" fill-rule="nonzero"/><path fill="#59c8dc" d="M 60.1875 171.777344 L 60.1875 179.71875 L 68.125 179.71875 L 68.125 171.777344 L 60.1875 171.777344 " fill-opacity="1" fill-rule="nonzero"/><path fill="#59c8dc" d="M 60.1875 163.800781 L 60.1875 171.777344 L 68.125 171.777344 L 68.125 163.800781 L 60.1875 163.800781 " fill-opacity="1" fill-rule="nonzero"/><path fill="#b2e6fa" d="M 60.1875 155.859375 L 60.1875 163.800781 L 68.125 163.800781 L 68.125 155.859375 L 60.1875 155.859375 " fill-opacity="1" fill-rule="nonzero"/><path fill="#b2e6fa" d="M 60.1875 147.914062 L 60.1875 155.859375 L 68.125 155.859375 L 68.125 147.914062 L 60.1875 147.914062 " fill-opacity="1" fill-rule="nonzero"/><path fill="#b2e6fa" d="M 60.1875 139.972656 L 60.1875 147.914062 L 68.125 147.914062 L 68.125 139.972656 L 60.1875 139.972656 " fill-opacity="1" fill-rule="nonzero"/><path fill="#59c8dc" d="M 68.125 171.777344 L 68.125 179.71875 L 76.0625 179.71875 L 76.0625 171.777344 L 68.125 171.777344 " fill-opacity="1" fill-rule="nonzero"/><path fill="#59c8dc" d="M 68.125 163.800781 L 68.125 171.777344 L 76.0625 171.777344 L 76.0625 163.800781 L 68.125 163.800781 " fill-opacity="1" fill-rule="nonzero"/><path fill="#b2e6fa" d="M 68.125 155.859375 L 68.125 163.800781 L 76.0625 163.800781 L 76.0625 155.859375 L 68.125 155.859375 " fill-opacity="1" fill-rule="nonzero"/><path fill="#b2e6fa" d="M 68.125 147.914062 L 68.125 155.859375 L 76.0625 155.859375 L 76.0625 147.914062 L 68.125 147.914062 " fill-opacity="1" fill-rule="nonzero"/><path fill="#b2e6fa" d="M 68.125 139.972656 L 68.125 147.914062 L 76.0625 147.914062 L 76.0625 139.972656 L 68.125 139.972656 " fill-opacity="1" fill-rule="nonzero"/><path fill="#59c8dc" d="M 76.0625 171.777344 L 76.0625 179.71875 L 83.992188 179.71875 L 83.992188 171.777344 L 76.0625 171.777344 " fill-opacity="1" fill-rule="nonzero"/><path fill="#59c8dc" d="M 76.0625 163.800781 L 76.0625 171.777344 L 83.992188 171.777344 L 83.992188 163.800781 L 76.0625 163.800781 " fill-opacity="1" fill-rule="nonzero"/><path fill="#b2e6fa" d="M 76.0625 155.859375 L 76.0625 163.800781 L 83.992188 163.800781 L 83.992188 155.859375 L 76.0625 155.859375 " fill-opacity="1" fill-rule="nonzero"/><path fill="#b2e6fa" d="M 76.0625 147.914062 L 76.0625 155.859375 L 83.992188 155.859375 L 83.992188 147.914062 L 76.0625 147.914062 " fill-opacity="1" fill-rule="nonzero"/><path fill="#ffffff" d="M 76.0625 139.972656 L 76.0625 147.914062 L 83.992188 147.914062 L 83.992188 139.972656 L 76.0625 139.972656 " fill-opacity="1" fill-rule="nonzero"/><path fill="#59c8dc" d="M 83.992188 179.71875 L 83.992188 187.660156 L 91.929688 187.660156 L 91.929688 179.71875 L 83.992188 179.71875 " fill-opacity="1" fill-rule="nonzero"/><path fill="#59c8dc" d="M 83.992188 171.777344 L 83.992188 179.71875 L 91.929688 179.71875 L 91.929688 171.777344 L 83.992188 171.777344 " fill-opacity="1" fill-rule="nonzero"/><path fill="#59c8dc" d="M 83.992188 163.800781 L 83.992188 171.777344 L 91.929688 171.777344 L 91.929688 163.800781 L 83.992188 163.800781 " fill-opacity="1" fill-rule="nonzero"/><path fill="#b2e6fa" d="M 83.992188 155.859375 L 83.992188 163.800781 L 91.929688 163.800781 L 91.929688 155.859375 L 83.992188 155.859375 " fill-opacity="1" fill-rule="nonzero"/><path fill="#ffffff" d="M 83.992188 147.914062 L 83.992188 155.859375 L 91.929688 155.859375 L 91.929688 147.914062 L 83.992188 147.914062 " fill-opacity="1" fill-rule="nonzero"/><path fill="#ffffff" d="M 83.992188 139.972656 L 83.992188 147.914062 L 91.929688 147.914062 L 91.929688 139.972656 L 83.992188 139.972656 " fill-opacity="1" fill-rule="nonzero"/><path fill="#59c8dc" d="M 91.929688 179.71875 L 91.929688 187.660156 L 99.910156 187.660156 L 99.910156 179.71875 L 91.929688 179.71875 " fill-opacity="1" fill-rule="nonzero"/><path fill="#59c8dc" d="M 91.929688 171.777344 L 91.929688 179.71875 L 99.910156 179.71875 L 99.910156 171.777344 L 91.929688 171.777344 " fill-opacity="1" fill-rule="nonzero"/><path fill="#b2e6fa" d="M 91.929688 163.800781 L 91.929688 171.777344 L 99.910156 171.777344 L 99.910156 163.800781 L 91.929688 163.800781 " fill-opacity="1" fill-rule="nonzero"/><path fill="#b2e6fa" d="M 91.929688 155.859375 L 91.929688 163.800781 L 99.910156 163.800781 L 99.910156 155.859375 L 91.929688 155.859375 " fill-opacity="1" fill-rule="nonzero"/><path fill="#ffffff" d="M 91.929688 147.914062 L 91.929688 155.859375 L 99.910156 155.859375 L 99.910156 147.914062 L 91.929688 147.914062 " fill-opacity="1" fill-rule="nonzero"/><path fill="#ffffff" d="M 91.929688 139.972656 L 91.929688 147.914062 L 99.910156 147.914062 L 99.910156 139.972656 L 91.929688 139.972656 " fill-opacity="1" fill-rule="nonzero"/><path fill="#59c8dc" d="M 99.910156 179.71875 L 99.910156 187.660156 L 107.835938 187.660156 L 107.835938 179.71875 L 99.910156 179.71875 " fill-opacity="1" fill-rule="nonzero"/><path fill="#59c8dc" d="M 99.910156 171.777344 L 99.910156 179.71875 L 107.835938 179.71875 L 107.835938 171.777344 L 99.910156 171.777344 " fill-opacity="1" fill-rule="nonzero"/><path fill="#b2e6fa" d="M 99.910156 163.800781 L 99.910156 171.777344 L 107.835938 171.777344 L 107.835938 163.800781 L 99.910156 163.800781 " fill-opacity="1" fill-rule="nonzero"/><path fill="#b2e6fa" d="M 99.910156 155.859375 L 99.910156 163.800781 L 107.835938 163.800781 L 107.835938 155.859375 L 99.910156 155.859375 " fill-opacity="1" fill-rule="nonzero"/><path fill="#ffffff" d="M 99.910156 147.914062 L 99.910156 155.859375 L 107.835938 155.859375 L 107.835938 147.914062 L 99.910156 147.914062 " fill-opacity="1" fill-rule="nonzero"/><path fill="#ffffff" d="M 99.910156 139.972656 L 99.910156 147.914062 L 107.835938 147.914062 L 107.835938 139.972656 L 99.910156 139.972656 " fill-opacity="1" fill-rule="nonzero"/><path fill="#ffffff" d="M 99.910156 132.042969 L 99.910156 139.972656 L 107.835938 139.972656 L 107.835938 132.042969 L 99.910156 132.042969 " fill-opacity="1" fill-rule="nonzero"/><path fill="#59c8dc" d="M 107.835938 179.71875 L 107.835938 187.660156 L 115.773438 187.660156 L 115.773438 179.71875 L 107.835938 179.71875 " fill-opacity="1" fill-rule="nonzero"/><path fill="#59c8dc" d="M 107.835938 171.777344 L 107.835938 179.71875 L 115.773438 179.71875 L 115.773438 171.777344 L 107.835938 171.777344 " fill-opacity="1" fill-rule="nonzero"/><path fill="#b2e6fa" d="M 107.835938 163.800781 L 107.835938 171.777344 L 115.773438 171.777344 L 115.773438 163.800781 L 107.835938 163.800781 " fill-opacity="1" fill-rule="nonzero"/><path fill="#b2e6fa" d="M 107.835938 155.859375 L 107.835938 163.800781 L 115.773438 163.800781 L 115.773438 155.859375 L 107.835938 155.859375 " fill-opacity="1" fill-rule="nonzero"/><path fill="#ffffff" d="M 107.835938 147.914062 L 107.835938 155.859375 L 115.773438 155.859375 L 115.773438 147.914062 L 107.835938 147.914062 " fill-opacity="1" fill-rule="nonzero"/><path fill="#ffffff" d="M 107.835938 139.972656 L 107.835938 147.914062 L 115.773438 147.914062 L 115.773438 139.972656 L 107.835938 139.972656 " fill-opacity="1" fill-rule="nonzero"/><path fill="#ffffff" d="M 107.835938 132.042969 L 107.835938 139.972656 L 115.773438 139.972656 L 115.773438 132.042969 L 107.835938 132.042969 " fill-opacity="1" fill-rule="nonzero"/><path fill="#59c8dc" d="M 115.773438 179.71875 L 115.773438 187.660156 L 123.710938 187.660156 L 123.710938 179.71875 L 115.773438 179.71875 " fill-opacity="1" fill-rule="nonzero"/><path fill="#b2e6fa" d="M 115.773438 171.777344 L 115.773438 179.71875 L 123.710938 179.71875 L 123.710938 171.777344 L 115.773438 171.777344 " fill-opacity="1" fill-rule="nonzero"/><path fill="#b2e6fa" d="M 115.773438 163.800781 L 115.773438 171.777344 L 123.710938 171.777344 L 123.710938 163.800781 L 115.773438 163.800781 " fill-opacity="1" fill-rule="nonzero"/><path fill="#b2e6fa" d="M 115.773438 155.859375 L 115.773438 163.800781 L 123.710938 163.800781 L 123.710938 155.859375 L 115.773438 155.859375 " fill-opacity="1" fill-rule="nonzero"/><path fill="#ffffff" d="M 115.773438 147.914062 L 115.773438 155.859375 L 123.710938 155.859375 L 123.710938 147.914062 L 115.773438 147.914062 " fill-opacity="1" fill-rule="nonzero"/><path fill="#ffffff" d="M 115.773438 139.972656 L 115.773438 147.914062 L 123.710938 147.914062 L 123.710938 139.972656 L 115.773438 139.972656 " fill-opacity="1" fill-rule="nonzero"/><path fill="#ffffff" d="M 115.773438 132.042969 L 115.773438 139.972656 L 123.710938 139.972656 L 123.710938 132.042969 L 115.773438 132.042969 " fill-opacity="1" fill-rule="nonzero"/><path fill="#59c8dc" d="M 123.710938 179.71875 L 123.710938 187.660156 L 131.648438 187.660156 L 131.648438 179.71875 L 123.710938 179.71875 " fill-opacity="1" fill-rule="nonzero"/><path fill="#b2e6fa" d="M 123.710938 171.777344 L 123.710938 179.71875 L 131.648438 179.71875 L 131.648438 171.777344 L 123.710938 171.777344 " fill-opacity="1" fill-rule="nonzero"/><path fill="#b2e6fa" d="M 123.710938 163.800781 L 123.710938 171.777344 L 131.648438 171.777344 L 131.648438 163.800781 L 123.710938 163.800781 " fill-opacity="1" fill-rule="nonzero"/><path fill="#ffffff" d="M 123.710938 155.859375 L 123.710938 163.800781 L 131.648438 163.800781 L 131.648438 155.859375 L 123.710938 155.859375 " fill-opacity="1" fill-rule="nonzero"/><path fill="#ffffff" d="M 123.710938 147.914062 L 123.710938 155.859375 L 131.648438 155.859375 L 131.648438 147.914062 L 123.710938 147.914062 " fill-opacity="1" fill-rule="nonzero"/><path fill="#ffffff" d="M 123.710938 139.972656 L 123.710938 147.914062 L 131.648438 147.914062 L 131.648438 139.972656 L 123.710938 139.972656 " fill-opacity="1" fill-rule="nonzero"/><path fill="#59c8dc" d="M 131.648438 179.71875 L 131.648438 187.660156 L 139.585938 187.660156 L 139.585938 179.71875 L 131.648438 179.71875 " fill-opacity="1" fill-rule="nonzero"/><path fill="#b2e6fa" d="M 131.648438 171.777344 L 131.648438 179.71875 L 139.585938 179.71875 L 139.585938 171.777344 L 131.648438 171.777344 " fill-opacity="1" fill-rule="nonzero"/><path fill="#b2e6fa" d="M 131.648438 163.800781 L 131.648438 171.777344 L 139.585938 171.777344 L 139.585938 163.800781 L 131.648438 163.800781 " fill-opacity="1" fill-rule="nonzero"/><path fill="#ffffff" d="M 131.648438 155.859375 L 131.648438 163.800781 L 139.585938 163.800781 L 139.585938 155.859375 L 131.648438 155.859375 " fill-opacity="1" fill-rule="nonzero"/><path fill="#ffffff" d="M 131.648438 147.914062 L 131.648438 155.859375 L 139.585938 155.859375 L 139.585938 147.914062 L 131.648438 147.914062 " fill-opacity="1" fill-rule="nonzero"/><path fill="#ffffff" d="M 131.648438 139.972656 L 131.648438 147.914062 L 139.585938 147.914062 L 139.585938 139.972656 L 131.648438 139.972656 " fill-opacity="1" fill-rule="nonzero"/><path fill="#59c8dc" d="M 139.585938 179.71875 L 139.585938 187.660156 L 147.519531 187.660156 L 147.519531 179.71875 L 139.585938 179.71875 " fill-opacity="1" fill-rule="nonzero"/><path fill="#b2e6fa" d="M 139.585938 171.777344 L 139.585938 179.71875 L 147.519531 179.71875 L 147.519531 171.777344 L 139.585938 171.777344 " fill-opacity="1" fill-rule="nonzero"/><path fill="#b2e6fa" d="M 139.585938 163.800781 L 139.585938 171.777344 L 147.519531 171.777344 L 147.519531 163.800781 L 139.585938 163.800781 " fill-opacity="1" fill-rule="nonzero"/><path fill="#ffffff" d="M 139.585938 155.859375 L 139.585938 163.800781 L 147.519531 163.800781 L 147.519531 155.859375 L 139.585938 155.859375 " fill-opacity="1" fill-rule="nonzero"/><path fill="#b2e6fa" d="M 147.519531 171.777344 L 147.519531 179.71875 L 155.457031 179.71875 L 155.457031 171.777344 L 147.519531 171.777344 " fill-opacity="1" fill-rule="nonzero"/><path fill="#b2e6fa" d="M 147.519531 163.800781 L 147.519531 171.777344 L 155.457031 171.777344 L 155.457031 163.800781 L 147.519531 163.800781 " fill-opacity="1" fill-rule="nonzero"/><path fill="#ffffff" d="M 147.519531 155.859375 L 147.519531 163.800781 L 155.457031 163.800781 L 155.457031 155.859375 L 147.519531 155.859375 " fill-opacity="1" fill-rule="nonzero"/><path fill="#b2e6fa" d="M 155.457031 171.777344 L 155.457031 179.71875 L 163.394531 179.71875 L 163.394531 171.777344 L 155.457031 171.777344 " fill-opacity="1" fill-rule="nonzero"/><path fill="#b2e6fa" d="M 155.457031 163.800781 L 155.457031 171.777344 L 163.394531 171.777344 L 163.394531 163.800781 L 155.457031 163.800781 " fill-opacity="1" fill-rule="nonzero"/><path fill="#ffffff" d="M 155.457031 155.859375 L 155.457031 163.800781 L 163.394531 163.800781 L 163.394531 155.859375 L 155.457031 155.859375 " fill-opacity="1" fill-rule="nonzero"/><path fill="#b2e6fa" d="M 163.394531 171.777344 L 163.394531 179.71875 L 171.332031 179.71875 L 171.332031 171.777344 L 163.394531 171.777344 " fill-opacity="1" fill-rule="nonzero"/><path fill="#b2e6fa" d="M 163.394531 163.800781 L 163.394531 171.777344 L 171.332031 171.777344 L 171.332031 163.800781 L 163.394531 163.800781 " fill-opacity="1" fill-rule="nonzero"/></svg>