<svg xmlns="http://www.w3.org/2000/svg" xmlns:xlink="http://www.w3.org/1999/xlink" width="500" zoomAndPan="magnify" viewBox="0 0 375 374.999991" height="500" preserveAspectRatio="xMidYMid meet" version="1.0"><defs><filter x="0%" y="0%" width="100%" height="100%" id="43befd0b89"><feColorMatrix values="0 0 0 0 1 0 0 0 0 1 0 0 0 0 1 0 0 0 1 0" color-interpolation-filters="sRGB"/></filter><clipPath id="380a541ba9"><path d="M 43.296875 0 L 332.046875 0 L 332.046875 375 L 43.296875 375 Z M 43.296875 0 " clip-rule="nonzero"/></clipPath><mask id="fc4b989e07"><g filter="url(#43befd0b89)"><rect x="-37.5" width="450" fill="#000000" y="-37.499999" height="449.999989" fill-opacity="0.5"/></g></mask><clipPath id="fc8ab33c43"><path d="M 115 29 L 144.71875 29 L 144.71875 68.078125 L 115 68.078125 Z M 115 29 " clip-rule="nonzero"/></clipPath><clipPath id="eb8f51f1c4"><path d="M 0.238281 39 L 10 39 L 10 59 L 0.238281 59 Z M 0.238281 39 " clip-rule="nonzero"/></clipPath><clipPath id="1ee275356e"><path d="M 38 0.640625 L 97 0.640625 L 97 49 L 38 49 Z M 38 0.640625 " clip-rule="nonzero"/></clipPath><clipPath id="dd23cf7183"><rect x="0" width="145" y="0" height="69"/></clipPath><clipPath id="3e72ad2f54"><path d="M 245 144 L 332.046875 144 L 332.046875 308 L 245 308 Z M 245 144 " clip-rule="nonzero"/></clipPath><clipPath id="2bb1395373"><path d="M 312 182 L 332.046875 182 L 332.046875 270 L 312 270 Z M 312 182 " clip-rule="nonzero"/></clipPath><clipPath id="1bc6ba5523"><path d="M 43.296875 115 L 130 115 L 130 279 L 43.296875 279 Z M 43.296875 115 " clip-rule="nonzero"/></clipPath><clipPath id="0f041eaca7"><path d="M 43.296875 153 L 53 153 L 53 241 L 43.296875 241 Z M 43.296875 153 " clip-rule="nonzero"/></clipPath></defs><g clip-path="url(#380a541ba9)"><path fill="#2e1b5b" d="M 322.421875 182.691406 L 322.421875 163.464844 L 312.796875 163.464844 L 312.796875 153.851562 L 293.546875 153.851562 L 293.546875 144.238281 L 283.921875 144.238281 L 283.921875 153.851562 L 264.671875 153.851562 L 264.671875 86.558594 L 255.046875 86.558594 L 255.046875 48.105469 L 245.421875 48.105469 L 245.421875 19.265625 L 226.171875 19.265625 L 226.171875 9.652344 L 206.921875 9.652344 L 206.921875 0.0390625 L 178.046875 0.0390625 L 178.046875 9.652344 L 158.796875 9.652344 L 158.796875 19.265625 L 139.546875 19.265625 L 139.546875 48.105469 L 129.921875 48.105469 L 129.921875 86.558594 L 120.296875 86.558594 L 120.296875 134.625 L 110.671875 134.625 L 110.671875 125.011719 L 91.421875 125.011719 L 91.421875 115.398438 L 81.796875 115.398438 L 81.796875 125.011719 L 62.546875 125.011719 L 62.546875 134.625 L 52.921875 134.625 L 52.921875 153.851562 L 43.296875 153.851562 L 43.296875 240.371094 L 52.921875 240.371094 L 52.921875 278.824219 L 62.546875 278.824219 L 62.546875 259.597656 L 72.171875 259.597656 L 72.171875 278.824219 L 81.796875 278.824219 L 81.796875 259.597656 L 91.421875 259.597656 L 91.421875 278.824219 L 101.046875 278.824219 L 101.046875 269.210938 L 110.671875 269.210938 L 110.671875 278.824219 L 120.296875 278.824219 L 120.296875 288.4375 L 129.921875 288.4375 L 129.921875 298.050781 L 149.171875 298.050781 L 149.171875 307.664062 L 158.796875 307.664062 L 158.796875 326.890625 L 178.046875 326.890625 L 178.046875 346.117188 L 187.671875 346.117188 L 187.671875 355.730469 L 178.046875 355.730469 L 178.046875 365.34375 L 158.796875 365.34375 L 158.796875 374.957031 L 245.421875 374.957031 L 245.421875 365.34375 L 226.171875 365.34375 L 226.171875 346.117188 L 216.546875 346.117188 L 216.546875 326.890625 L 197.296875 326.890625 L 197.296875 307.664062 L 187.671875 307.664062 L 187.671875 288.4375 L 206.921875 288.4375 L 206.921875 298.050781 L 245.421875 298.050781 L 245.421875 288.4375 L 255.046875 288.4375 L 255.046875 307.664062 L 264.671875 307.664062 L 264.671875 288.4375 L 274.296875 288.4375 L 274.296875 307.664062 L 283.921875 307.664062 L 283.921875 288.4375 L 293.546875 288.4375 L 293.546875 307.664062 L 303.171875 307.664062 L 303.171875 298.050781 L 312.796875 298.050781 L 312.796875 307.664062 L 322.421875 307.664062 L 322.421875 269.210938 L 332.046875 269.210938 L 332.046875 182.691406 Z M 226.171875 240.371094 L 216.546875 240.371094 L 216.546875 230.757812 L 226.171875 230.757812 Z M 139.546875 230.757812 L 149.171875 230.757812 L 149.171875 240.371094 L 139.546875 240.371094 Z M 101.046875 259.597656 L 101.046875 249.984375 L 110.671875 249.984375 L 110.671875 259.597656 Z M 129.921875 269.210938 L 120.296875 269.210938 L 120.296875 240.371094 L 129.921875 240.371094 L 129.921875 259.597656 L 139.546875 259.597656 L 139.546875 249.984375 L 149.171875 249.984375 L 149.171875 259.597656 L 158.796875 259.597656 L 158.796875 240.371094 L 168.421875 240.371094 L 168.421875 259.597656 L 158.796875 259.597656 L 158.796875 278.824219 L 139.546875 278.824219 L 139.546875 269.210938 Z M 235.796875 269.210938 L 235.796875 278.824219 L 226.171875 278.824219 L 226.171875 288.4375 L 216.546875 288.4375 L 216.546875 278.824219 L 197.296875 278.824219 L 197.296875 269.210938 L 206.921875 269.210938 L 206.921875 259.597656 L 216.546875 259.597656 L 216.546875 249.984375 L 226.171875 249.984375 L 226.171875 259.597656 L 235.796875 259.597656 L 235.796875 240.371094 L 245.421875 240.371094 L 245.421875 269.210938 Z M 303.171875 288.4375 L 303.171875 278.824219 L 312.796875 278.824219 L 312.796875 288.4375 Z M 303.171875 288.4375 " fill-opacity="1" fill-rule="nonzero"/></g><path fill="#932600" d="M 120.296875 269.210938 L 139.546875 269.210938 L 139.546875 278.824219 L 158.796875 278.824219 L 158.796875 259.597656 L 168.421875 259.597656 L 168.421875 230.757812 L 206.921875 230.757812 L 206.921875 269.210938 L 197.296875 269.210938 L 197.296875 278.824219 L 216.546875 278.824219 L 216.546875 288.4375 L 226.171875 288.4375 L 226.171875 278.824219 L 235.796875 278.824219 L 235.796875 269.210938 L 245.421875 269.210938 L 245.421875 259.597656 L 264.671875 259.597656 L 264.671875 278.824219 L 255.046875 278.824219 L 255.046875 288.4375 L 245.421875 288.4375 L 245.421875 298.050781 L 206.921875 298.050781 L 206.921875 288.4375 L 187.671875 288.4375 L 187.671875 307.664062 L 197.296875 307.664062 L 197.296875 326.890625 L 216.546875 326.890625 L 216.546875 346.117188 L 226.171875 346.117188 L 226.171875 365.34375 L 245.421875 365.34375 L 245.421875 374.957031 L 158.796875 374.957031 L 158.796875 365.34375 L 178.046875 365.34375 L 178.046875 355.730469 L 187.671875 355.730469 L 187.671875 346.117188 L 178.046875 346.117188 L 178.046875 326.890625 L 158.796875 326.890625 L 158.796875 307.664062 L 149.171875 307.664062 L 149.171875 298.050781 L 129.921875 298.050781 L 129.921875 288.4375 L 120.296875 288.4375 Z M 120.296875 269.210938 " fill-opacity="1" fill-rule="nonzero"/><g mask="url(#fc4b989e07)"><g transform="matrix(1, 0, 0, 1, 120, 230)"><g clip-path="url(#dd23cf7183)"><g clip-path="url(#fc8ab33c43)"><path fill="#2e1b5b" d="M 125.421875 29.597656 L 144.671875 29.597656 L 144.671875 58.4375 L 125.421875 58.4375 L 125.421875 68.050781 L 115.796875 68.050781 L 115.796875 39.210938 L 125.421875 39.210938 Z M 125.421875 29.597656 " fill-opacity="1" fill-rule="nonzero"/></g><g clip-path="url(#eb8f51f1c4)"><path fill="#2e1b5b" d="M 0.296875 39.210938 L 9.921875 39.210938 L 9.921875 58.4375 L 0.296875 58.4375 Z M 0.296875 39.210938 " fill-opacity="1" fill-rule="nonzero"/></g><g clip-path="url(#1ee275356e)"><path fill="#2e1b5b" d="M 48.421875 29.597656 L 48.421875 0.757812 L 96.546875 0.757812 L 96.546875 29.597656 L 86.921875 29.597656 L 86.921875 39.210938 L 77.296875 39.210938 L 77.296875 48.824219 L 38.796875 48.824219 L 38.796875 29.597656 Z M 48.421875 29.597656 " fill-opacity="1" fill-rule="nonzero"/></g></g></g></g><path fill="#10d000" d="M 120.296875 86.558594 L 120.296875 211.53125 L 129.921875 211.53125 L 129.921875 259.597656 L 139.546875 259.597656 L 139.546875 249.984375 L 149.171875 249.984375 L 149.171875 259.597656 L 158.796875 259.597656 L 158.796875 240.371094 L 168.421875 240.371094 L 168.421875 259.597656 L 178.046875 259.597656 L 178.046875 249.984375 L 187.671875 249.984375 L 187.671875 259.597656 L 197.296875 259.597656 L 197.296875 240.371094 L 206.921875 240.371094 L 206.921875 259.597656 L 216.546875 259.597656 L 216.546875 249.984375 L 226.171875 249.984375 L 226.171875 259.597656 L 235.796875 259.597656 L 235.796875 240.371094 L 245.421875 240.371094 L 245.421875 259.597656 L 255.046875 259.597656 L 255.046875 211.53125 L 264.671875 211.53125 L 264.671875 86.558594 L 255.046875 86.558594 L 255.046875 48.105469 L 245.421875 48.105469 L 245.421875 19.265625 L 226.171875 19.265625 L 226.171875 9.652344 L 206.921875 9.652344 L 206.921875 0.0390625 L 178.046875 0.0390625 L 178.046875 9.652344 L 158.796875 9.652344 L 158.796875 19.265625 L 139.546875 19.265625 L 139.546875 48.105469 L 129.921875 48.105469 L 129.921875 86.558594 Z M 216.546875 230.757812 L 226.171875 230.757812 L 226.171875 240.371094 L 216.546875 240.371094 Z M 139.546875 230.757812 L 149.171875 230.757812 L 149.171875 240.371094 L 139.546875 240.371094 Z M 139.546875 230.757812 " fill-opacity="1" fill-rule="nonzero"/><path fill="#2e1b5b" d="M 129.921875 211.535156 L 120.296875 211.535156 L 120.296875 86.5625 L 129.921875 86.5625 Z M 129.921875 211.535156 " fill-opacity="1" fill-rule="nonzero"/><path fill="#2e1b5b" d="M 139.546875 259.597656 L 129.921875 259.597656 L 129.921875 153.851562 L 139.546875 153.851562 Z M 139.546875 259.597656 " fill-opacity="1" fill-rule="nonzero"/><path fill="#2e1b5b" d="M 139.546875 86.5625 L 129.921875 86.5625 L 129.921875 48.109375 L 139.546875 48.109375 Z M 139.546875 86.5625 " fill-opacity="1" fill-rule="nonzero"/><path fill="#2e1b5b" d="M 149.171875 48.105469 L 139.546875 48.105469 L 139.546875 28.878906 L 149.171875 28.878906 Z M 149.171875 48.105469 " fill-opacity="1" fill-rule="nonzero"/><path fill="#2e1b5b" d="M 149.171875 28.878906 L 139.546875 28.878906 L 139.546875 19.265625 L 149.171875 19.265625 Z M 149.171875 28.878906 " fill-opacity="1" fill-rule="nonzero"/><path fill="#2e1b5b" d="M 158.796875 259.601562 L 149.171875 259.601562 L 149.171875 249.988281 L 158.796875 249.988281 Z M 158.796875 259.601562 " fill-opacity="1" fill-rule="nonzero"/><path fill="#2e1b5b" d="M 178.046875 259.601562 L 168.421875 259.601562 L 168.421875 249.988281 L 178.046875 249.988281 Z M 178.046875 259.601562 " fill-opacity="1" fill-rule="nonzero"/><path fill="#2e1b5b" d="M 216.546875 259.601562 L 206.921875 259.601562 L 206.921875 249.988281 L 216.546875 249.988281 Z M 216.546875 259.601562 " fill-opacity="1" fill-rule="nonzero"/><path fill="#2e1b5b" d="M 235.796875 249.988281 L 226.171875 249.988281 L 226.171875 240.375 L 235.796875 240.375 Z M 235.796875 249.988281 " fill-opacity="1" fill-rule="nonzero"/><path fill="#2e1b5b" d="M 149.171875 153.855469 L 139.546875 153.855469 L 139.546875 144.242188 L 149.171875 144.242188 Z M 149.171875 153.855469 " fill-opacity="1" fill-rule="nonzero"/><path fill="#2e1b5b" d="M 149.171875 105.785156 L 139.546875 105.785156 L 139.546875 86.558594 L 149.171875 86.558594 Z M 149.171875 105.785156 " fill-opacity="1" fill-rule="nonzero"/><path fill="#2e1b5b" d="M 197.296875 240.371094 L 187.671875 240.371094 L 187.671875 230.757812 L 197.296875 230.757812 Z M 197.296875 240.371094 " fill-opacity="1" fill-rule="nonzero"/><path fill="#005b52" d="M 149.171875 86.5625 L 139.546875 86.5625 L 139.546875 48.109375 L 149.171875 48.109375 Z M 149.171875 86.5625 " fill-opacity="1" fill-rule="nonzero"/><path fill="#005b52" d="M 139.546875 153.851562 L 129.921875 153.851562 L 129.921875 86.5625 L 139.546875 86.5625 Z M 139.546875 153.851562 " fill-opacity="1" fill-rule="nonzero"/><path fill="#005b52" d="M 149.171875 221.144531 L 139.546875 221.144531 L 139.546875 153.851562 L 149.171875 153.851562 Z M 149.171875 221.144531 " fill-opacity="1" fill-rule="nonzero"/><path fill="#005b52" d="M 158.796875 249.984375 L 149.171875 249.984375 L 149.171875 211.53125 L 158.796875 211.53125 Z M 158.796875 249.984375 " fill-opacity="0.5" fill-rule="nonzero"/><path fill="#005b52" d="M 158.796875 48.109375 L 149.171875 48.109375 L 149.171875 19.269531 L 158.796875 19.269531 Z M 158.796875 48.109375 " fill-opacity="0.5" fill-rule="nonzero"/><path fill="#005b52" d="M 149.171875 144.238281 L 139.546875 144.238281 L 139.546875 105.785156 L 149.171875 105.785156 Z M 149.171875 144.238281 " fill-opacity="0.5" fill-rule="nonzero"/><path fill="#a4ffde" d="M 255.046875 86.5625 L 245.421875 86.5625 L 245.421875 48.109375 L 255.046875 48.109375 Z M 255.046875 86.5625 " fill-opacity="1" fill-rule="nonzero"/><path fill="#a4ffde" d="M 245.421875 48.109375 L 235.796875 48.109375 L 235.796875 19.269531 L 245.421875 19.269531 Z M 245.421875 48.109375 " fill-opacity="1" fill-rule="nonzero"/><path fill="#a4ffde" d="M 245.421875 28.878906 L 226.171875 28.878906 L 226.171875 19.265625 L 245.421875 19.265625 Z M 245.421875 28.878906 " fill-opacity="1" fill-rule="nonzero"/><path fill="#a4ffde" d="M 226.171875 19.265625 L 206.921875 19.265625 L 206.921875 9.65625 L 226.171875 9.65625 Z M 226.171875 19.265625 " fill-opacity="1" fill-rule="nonzero"/><path fill="#a4ffde" d="M 206.921875 9.652344 L 197.296875 9.652344 L 197.296875 0.0390625 L 206.921875 0.0390625 Z M 206.921875 9.652344 " fill-opacity="1" fill-rule="nonzero"/><path fill="#a4ffde" d="M 245.421875 105.785156 L 235.796875 105.785156 L 235.796875 96.171875 L 245.421875 96.171875 Z M 245.421875 105.785156 " fill-opacity="1" fill-rule="nonzero"/><path fill="#a4ffde" d="M 235.796875 86.5625 L 226.171875 86.5625 L 226.171875 76.949219 L 235.796875 76.949219 Z M 235.796875 86.5625 " fill-opacity="1" fill-rule="nonzero"/><path fill="#a4ffde" d="M 235.796875 57.71875 L 226.171875 57.71875 L 226.171875 48.109375 L 235.796875 48.109375 Z M 235.796875 57.71875 " fill-opacity="1" fill-rule="nonzero"/><path fill="#a4ffde" d="M 216.546875 38.496094 L 206.921875 38.496094 L 206.921875 28.882812 L 216.546875 28.882812 Z M 216.546875 38.496094 " fill-opacity="1" fill-rule="nonzero"/><path fill="#a4ffde" d="M 235.796875 230.761719 L 216.546875 230.761719 L 216.546875 221.148438 L 235.796875 221.148438 Z M 235.796875 230.761719 " fill-opacity="1" fill-rule="nonzero"/><path fill="#a4ffde" d="M 245.421875 153.855469 L 235.796875 153.855469 L 235.796875 144.242188 L 245.421875 144.242188 Z M 245.421875 153.855469 " fill-opacity="1" fill-rule="nonzero"/><path fill="#a4ffde" d="M 206.921875 144.238281 L 197.296875 144.238281 L 197.296875 134.625 L 206.921875 134.625 Z M 206.921875 144.238281 " fill-opacity="1" fill-rule="nonzero"/><path fill="#a4ffde" d="M 216.546875 182.695312 L 206.921875 182.695312 L 206.921875 144.242188 L 216.546875 144.242188 Z M 216.546875 182.695312 " fill-opacity="0.5" fill-rule="nonzero"/><path fill="#a4ffde" d="M 216.546875 115.398438 L 206.921875 115.398438 L 206.921875 76.945312 L 216.546875 76.945312 Z M 216.546875 115.398438 " fill-opacity="0.5" fill-rule="nonzero"/><path fill="#a4ffde" d="M 197.296875 76.945312 L 187.671875 76.945312 L 187.671875 38.496094 L 197.296875 38.496094 Z M 197.296875 76.945312 " fill-opacity="0.5" fill-rule="nonzero"/><path fill="#a4ffde" d="M 245.421875 125.011719 L 245.421875 115.398438 L 255.046875 115.398438 L 255.046875 86.558594 L 264.671875 86.558594 L 264.671875 201.917969 L 255.046875 201.917969 L 255.046875 163.464844 L 245.421875 163.464844 L 245.421875 153.851562 L 255.046875 153.851562 L 255.046875 125.011719 Z M 245.421875 125.011719 " fill-opacity="1" fill-rule="nonzero"/><path fill="#005b52" d="M 216.546875 28.878906 L 197.296875 28.878906 L 197.296875 19.265625 L 216.546875 19.265625 Z M 216.546875 28.878906 " fill-opacity="0.5" fill-rule="nonzero"/><path fill="#005b52" d="M 197.296875 9.652344 L 178.046875 9.652344 L 178.046875 0.0390625 L 197.296875 0.0390625 Z M 197.296875 9.652344 " fill-opacity="0.5" fill-rule="nonzero"/><path fill="#005b52" d="M 245.421875 67.332031 L 235.796875 67.332031 L 235.796875 57.71875 L 245.421875 57.71875 Z M 245.421875 67.332031 " fill-opacity="0.5" fill-rule="nonzero"/><path fill="#005b52" d="M 226.171875 57.71875 L 216.546875 57.71875 L 216.546875 48.109375 L 226.171875 48.109375 Z M 226.171875 57.71875 " fill-opacity="0.5" fill-rule="nonzero"/><path fill="#005b52" d="M 235.796875 38.496094 L 226.171875 38.496094 L 226.171875 28.882812 L 235.796875 28.882812 Z M 235.796875 38.496094 " fill-opacity="0.5" fill-rule="nonzero"/><path fill="#005b52" d="M 226.171875 76.945312 L 206.921875 76.945312 L 206.921875 67.332031 L 226.171875 67.332031 Z M 226.171875 76.945312 " fill-opacity="0.5" fill-rule="nonzero"/><path fill="#005b52" d="M 255.046875 163.464844 L 255.046875 182.691406 L 245.421875 182.691406 L 245.421875 173.078125 L 235.796875 173.078125 L 235.796875 163.464844 Z M 255.046875 163.464844 " fill-opacity="0.5" fill-rule="nonzero"/><path fill="#005b52" d="M 235.796875 115.398438 L 216.546875 115.398438 L 216.546875 105.785156 L 235.796875 105.785156 Z M 235.796875 115.398438 " fill-opacity="0.5" fill-rule="nonzero"/><path fill="#005b52" d="M 245.421875 134.625 L 235.796875 134.625 L 235.796875 125.011719 L 245.421875 125.011719 Z M 245.421875 134.625 " fill-opacity="1" fill-rule="nonzero"/><path fill="#005b52" d="M 158.796875 144.238281 L 149.171875 144.238281 L 149.171875 134.625 L 158.796875 134.625 Z M 158.796875 144.238281 " fill-opacity="1" fill-rule="nonzero"/><path fill="#005b52" d="M 187.671875 153.855469 L 178.046875 153.855469 L 178.046875 144.242188 L 187.671875 144.242188 Z M 187.671875 153.855469 " fill-opacity="1" fill-rule="nonzero"/><path fill="#005b52" d="M 168.421875 211.53125 L 158.796875 211.53125 L 158.796875 201.917969 L 168.421875 201.917969 Z M 168.421875 211.53125 " fill-opacity="1" fill-rule="nonzero"/><path fill="#005b52" d="M 168.421875 201.921875 L 158.796875 201.921875 L 158.796875 125.015625 L 168.421875 125.015625 Z M 168.421875 201.921875 " fill-opacity="0.5" fill-rule="nonzero"/><path fill="#005b52" d="M 187.671875 134.625 L 178.046875 134.625 L 178.046875 57.71875 L 187.671875 57.71875 Z M 187.671875 134.625 " fill-opacity="0.5" fill-rule="nonzero"/><path fill="#005b52" d="M 168.421875 96.171875 L 158.796875 96.171875 L 158.796875 19.269531 L 168.421875 19.269531 Z M 168.421875 96.171875 " fill-opacity="1" fill-rule="nonzero"/><path fill="#005b52" d="M 187.671875 240.371094 L 178.046875 240.371094 L 178.046875 163.464844 L 187.671875 163.464844 Z M 187.671875 240.371094 " fill-opacity="1" fill-rule="nonzero"/><path fill="#005b52" d="M 206.921875 240.371094 L 197.296875 240.371094 L 197.296875 144.238281 L 206.921875 144.238281 Z M 206.921875 240.371094 " fill-opacity="0.5" fill-rule="nonzero"/><path fill="#005b52" d="M 226.171875 211.53125 L 216.546875 211.53125 L 216.546875 134.628906 L 226.171875 134.628906 Z M 226.171875 211.53125 " fill-opacity="1" fill-rule="nonzero"/><g clip-path="url(#3e72ad2f54)"><path fill="#10d000" d="M 245.421875 182.691406 L 245.421875 269.210938 L 255.046875 269.210938 L 255.046875 307.664062 L 264.671875 307.664062 L 264.671875 288.4375 L 274.296875 288.4375 L 274.296875 307.664062 L 283.921875 307.664062 L 283.921875 288.4375 L 293.546875 288.4375 L 293.546875 307.664062 L 303.171875 307.664062 L 303.171875 298.050781 L 312.796875 298.050781 L 312.796875 307.664062 L 322.421875 307.664062 L 322.421875 269.210938 L 332.046875 269.210938 L 332.046875 182.691406 L 322.421875 182.691406 L 322.421875 163.464844 L 312.796875 163.464844 L 312.796875 153.851562 L 293.546875 153.851562 L 293.546875 144.238281 L 283.921875 144.238281 L 283.921875 153.851562 L 264.671875 153.851562 L 264.671875 163.464844 L 255.046875 163.464844 L 255.046875 182.691406 Z M 303.171875 288.4375 L 303.171875 278.824219 L 312.796875 278.824219 L 312.796875 288.4375 Z M 303.171875 288.4375 " fill-opacity="1" fill-rule="nonzero"/></g><path fill="#2e1b5b" d="M 255.046875 269.214844 L 245.421875 269.214844 L 245.421875 182.695312 L 255.046875 182.695312 Z M 255.046875 269.214844 " fill-opacity="1" fill-rule="nonzero"/><path fill="#2e1b5b" d="M 264.671875 182.691406 L 255.046875 182.691406 L 255.046875 163.464844 L 264.671875 163.464844 Z M 264.671875 182.691406 " fill-opacity="1" fill-rule="nonzero"/><path fill="#2e1b5b" d="M 283.921875 163.464844 L 264.671875 163.464844 L 264.671875 153.851562 L 283.921875 153.851562 Z M 283.921875 163.464844 " fill-opacity="1" fill-rule="nonzero"/><path fill="#005b52" d="M 264.671875 221.144531 L 255.046875 221.144531 L 255.046875 182.691406 L 264.671875 182.691406 Z M 264.671875 221.144531 " fill-opacity="1" fill-rule="nonzero"/><path fill="#005b52" d="M 264.671875 269.214844 L 255.046875 269.214844 L 255.046875 240.375 L 264.671875 240.375 Z M 264.671875 269.214844 " fill-opacity="1" fill-rule="nonzero"/><path fill="#005b52" d="M 264.671875 288.441406 L 255.046875 288.441406 L 255.046875 221.148438 L 264.671875 221.148438 Z M 264.671875 288.441406 " fill-opacity="0.5" fill-rule="nonzero"/><path fill="#005b52" d="M 283.921875 307.664062 L 274.296875 307.664062 L 274.296875 240.371094 L 283.921875 240.371094 Z M 283.921875 307.664062 " fill-opacity="0.5" fill-rule="nonzero"/><path fill="#005b52" d="M 303.171875 298.050781 L 293.546875 298.050781 L 293.546875 249.984375 L 303.171875 249.984375 Z M 303.171875 298.050781 " fill-opacity="0.5" fill-rule="nonzero"/><path fill="#a4ffde" d="M 322.421875 182.691406 L 312.796875 182.691406 L 312.796875 163.464844 L 322.421875 163.464844 Z M 322.421875 182.691406 " fill-opacity="1" fill-rule="nonzero"/><path fill="#a4ffde" d="M 312.796875 163.464844 L 293.546875 163.464844 L 293.546875 153.851562 L 312.796875 153.851562 Z M 312.796875 163.464844 " fill-opacity="1" fill-rule="nonzero"/><path fill="#a4ffde" d="M 293.546875 153.855469 L 283.921875 153.855469 L 283.921875 144.242188 L 293.546875 144.242188 Z M 293.546875 153.855469 " fill-opacity="1" fill-rule="nonzero"/><path fill="#a4ffde" d="M 322.421875 201.921875 L 312.796875 201.921875 L 312.796875 192.308594 L 322.421875 192.308594 Z M 322.421875 201.921875 " fill-opacity="0.5" fill-rule="nonzero"/><path fill="#a4ffde" d="M 303.171875 182.695312 L 293.546875 182.695312 L 293.546875 173.082031 L 303.171875 173.082031 Z M 303.171875 182.695312 " fill-opacity="1" fill-rule="nonzero"/><path fill="#a4ffde" d="M 312.796875 249.988281 L 303.171875 249.988281 L 303.171875 240.375 L 312.796875 240.375 Z M 312.796875 249.988281 " fill-opacity="1" fill-rule="nonzero"/><path fill="#a4ffde" d="M 312.796875 221.144531 L 303.171875 221.144531 L 303.171875 201.917969 L 312.796875 201.917969 Z M 312.796875 221.144531 " fill-opacity="0.5" fill-rule="nonzero"/><path fill="#005b52" d="M 293.546875 249.988281 L 283.921875 249.988281 L 283.921875 230.761719 L 293.546875 230.761719 Z M 293.546875 249.988281 " fill-opacity="1" fill-rule="nonzero"/><path fill="#005b52" d="M 274.296875 221.144531 L 264.671875 221.144531 L 264.671875 201.917969 L 274.296875 201.917969 Z M 274.296875 221.144531 " fill-opacity="0.5" fill-rule="nonzero"/><path fill="#005b52" d="M 293.546875 288.4375 L 283.921875 288.4375 L 283.921875 269.210938 L 293.546875 269.210938 Z M 293.546875 288.4375 " fill-opacity="1" fill-rule="nonzero"/><path fill="#005b52" d="M 283.921875 192.304688 L 274.296875 192.304688 L 274.296875 173.078125 L 283.921875 173.078125 Z M 283.921875 192.304688 " fill-opacity="1" fill-rule="nonzero"/><path fill="#a4ffde" d="M 293.546875 221.144531 L 283.921875 221.144531 L 283.921875 211.53125 L 293.546875 211.53125 Z M 293.546875 221.144531 " fill-opacity="1" fill-rule="nonzero"/><g clip-path="url(#2bb1395373)"><path fill="#a4ffde" d="M 322.421875 230.757812 L 322.421875 182.691406 L 332.046875 182.691406 L 332.046875 269.210938 L 322.421875 269.210938 L 322.421875 240.371094 L 312.796875 240.371094 L 312.796875 230.757812 Z M 322.421875 230.757812 " fill-opacity="1" fill-rule="nonzero"/></g><path fill="#a4ffde" d="M 312.796875 278.824219 L 303.171875 278.824219 L 303.171875 269.210938 L 312.796875 269.210938 Z M 312.796875 278.824219 " fill-opacity="1" fill-rule="nonzero"/><path fill="#a4ffde" d="M 322.421875 298.050781 L 312.796875 298.050781 L 312.796875 288.4375 L 322.421875 288.4375 Z M 322.421875 298.050781 " fill-opacity="1" fill-rule="nonzero"/><g clip-path="url(#1bc6ba5523)"><path fill="#10d000" d="M 43.296875 153.851562 L 43.296875 240.371094 L 52.921875 240.371094 L 52.921875 278.824219 L 62.546875 278.824219 L 62.546875 259.597656 L 72.171875 259.597656 L 72.171875 278.824219 L 81.796875 278.824219 L 81.796875 259.597656 L 91.421875 259.597656 L 91.421875 278.824219 L 101.046875 278.824219 L 101.046875 269.210938 L 110.671875 269.210938 L 110.671875 278.824219 L 120.296875 278.824219 L 120.296875 240.371094 L 129.921875 240.371094 L 129.921875 153.851562 L 120.296875 153.851562 L 120.296875 134.625 L 110.671875 134.625 L 110.671875 125.011719 L 91.421875 125.011719 L 91.421875 115.398438 L 81.796875 115.398438 L 81.796875 125.011719 L 62.546875 125.011719 L 62.546875 134.625 L 52.921875 134.625 L 52.921875 153.851562 Z M 101.046875 259.597656 L 101.046875 249.984375 L 110.671875 249.984375 L 110.671875 259.597656 Z M 101.046875 259.597656 " fill-opacity="1" fill-rule="nonzero"/></g><g clip-path="url(#0f041eaca7)"><path fill="#2e1b5b" d="M 52.921875 240.375 L 43.296875 240.375 L 43.296875 153.855469 L 52.921875 153.855469 Z M 52.921875 240.375 " fill-opacity="1" fill-rule="nonzero"/></g><path fill="#2e1b5b" d="M 62.546875 153.851562 L 52.921875 153.851562 L 52.921875 134.625 L 62.546875 134.625 Z M 62.546875 153.851562 " fill-opacity="1" fill-rule="nonzero"/><path fill="#2e1b5b" d="M 81.796875 134.625 L 62.546875 134.625 L 62.546875 125.011719 L 81.796875 125.011719 Z M 81.796875 134.625 " fill-opacity="1" fill-rule="nonzero"/><path fill="#005b52" d="M 62.546875 192.304688 L 52.921875 192.304688 L 52.921875 153.851562 L 62.546875 153.851562 Z M 62.546875 192.304688 " fill-opacity="1" fill-rule="nonzero"/><path fill="#005b52" d="M 62.546875 240.375 L 52.921875 240.375 L 52.921875 211.535156 L 62.546875 211.535156 Z M 62.546875 240.375 " fill-opacity="1" fill-rule="nonzero"/><path fill="#005b52" d="M 62.546875 259.601562 L 52.921875 259.601562 L 52.921875 192.308594 L 62.546875 192.308594 Z M 62.546875 259.601562 " fill-opacity="0.5" fill-rule="nonzero"/><path fill="#005b52" d="M 101.046875 240.371094 L 91.421875 240.371094 L 91.421875 192.304688 L 101.046875 192.304688 Z M 101.046875 240.371094 " fill-opacity="0.5" fill-rule="nonzero"/><path fill="#a4ffde" d="M 129.921875 240.375 L 120.296875 240.375 L 120.296875 153.855469 L 129.921875 153.855469 Z M 129.921875 240.375 " fill-opacity="1" fill-rule="nonzero"/><path fill="#a4ffde" d="M 120.296875 153.851562 L 110.671875 153.851562 L 110.671875 134.625 L 120.296875 134.625 Z M 120.296875 153.851562 " fill-opacity="1" fill-rule="nonzero"/><path fill="#a4ffde" d="M 110.671875 134.625 L 91.421875 134.625 L 91.421875 125.011719 L 110.671875 125.011719 Z M 110.671875 134.625 " fill-opacity="1" fill-rule="nonzero"/><path fill="#a4ffde" d="M 91.421875 125.015625 L 81.796875 125.015625 L 81.796875 115.402344 L 91.421875 115.402344 Z M 91.421875 125.015625 " fill-opacity="1" fill-rule="nonzero"/><path fill="#a4ffde" d="M 120.296875 173.078125 L 110.671875 173.078125 L 110.671875 163.464844 L 120.296875 163.464844 Z M 120.296875 173.078125 " fill-opacity="0.5" fill-rule="nonzero"/><path fill="#a4ffde" d="M 101.046875 153.855469 L 91.421875 153.855469 L 91.421875 144.242188 L 101.046875 144.242188 Z M 101.046875 153.855469 " fill-opacity="0.5" fill-rule="nonzero"/><path fill="#a4ffde" d="M 110.671875 221.144531 L 101.046875 221.144531 L 101.046875 211.53125 L 110.671875 211.53125 Z M 110.671875 221.144531 " fill-opacity="1" fill-rule="nonzero"/><path fill="#a4ffde" d="M 110.671875 192.304688 L 101.046875 192.304688 L 101.046875 173.078125 L 110.671875 173.078125 Z M 110.671875 192.304688 " fill-opacity="1" fill-rule="nonzero"/><path fill="#005b52" d="M 91.421875 221.144531 L 81.796875 221.144531 L 81.796875 201.917969 L 91.421875 201.917969 Z M 91.421875 221.144531 " fill-opacity="1" fill-rule="nonzero"/><path fill="#005b52" d="M 72.171875 211.53125 L 72.171875 192.304688 L 81.796875 192.304688 L 81.796875 259.597656 L 72.171875 259.597656 L 72.171875 230.757812 L 62.546875 230.757812 L 62.546875 211.53125 Z M 72.171875 211.53125 " fill-opacity="0.5" fill-rule="nonzero"/><path fill="#005b52" d="M 91.421875 259.597656 L 81.796875 259.597656 L 81.796875 240.371094 L 91.421875 240.371094 Z M 91.421875 259.597656 " fill-opacity="1" fill-rule="nonzero"/><path fill="#005b52" d="M 101.046875 278.828125 L 91.421875 278.828125 L 91.421875 259.601562 L 101.046875 259.601562 Z M 101.046875 278.828125 " fill-opacity="1" fill-rule="nonzero"/><path fill="#005b52" d="M 81.796875 182.691406 L 72.171875 182.691406 L 72.171875 163.464844 L 81.796875 163.464844 Z M 81.796875 182.691406 " fill-opacity="1" fill-rule="nonzero"/><path fill="#a4ffde" d="M 91.421875 192.304688 L 81.796875 192.304688 L 81.796875 182.691406 L 91.421875 182.691406 Z M 91.421875 192.304688 " fill-opacity="1" fill-rule="nonzero"/><path fill="#a4ffde" d="M 120.296875 211.53125 L 110.671875 211.53125 L 110.671875 201.917969 L 120.296875 201.917969 Z M 120.296875 211.53125 " fill-opacity="0.5" fill-rule="nonzero"/><path fill="#a4ffde" d="M 110.671875 249.988281 L 101.046875 249.988281 L 101.046875 240.375 L 110.671875 240.375 Z M 110.671875 249.988281 " fill-opacity="1" fill-rule="nonzero"/><path fill="#a4ffde" d="M 120.296875 269.210938 L 110.671875 269.210938 L 110.671875 259.597656 L 120.296875 259.597656 Z M 120.296875 269.210938 " fill-opacity="1" fill-rule="nonzero"/><path fill="#2e1b5b" d="M 158.796875 307.664062 L 149.171875 307.664062 L 149.171875 298.050781 L 158.796875 298.050781 Z M 158.796875 307.664062 " fill-opacity="1" fill-rule="nonzero"/><path fill="#2e1b5b" d="M 168.421875 326.890625 L 158.796875 326.890625 L 158.796875 317.277344 L 168.421875 317.277344 Z M 168.421875 326.890625 " fill-opacity="1" fill-rule="nonzero"/><path fill="#2e1b5b" d="M 187.671875 336.507812 L 178.046875 336.507812 L 178.046875 326.894531 L 187.671875 326.894531 Z M 187.671875 336.507812 " fill-opacity="1" fill-rule="nonzero"/><path fill="#2e1b5b" d="M 197.296875 355.730469 L 187.671875 355.730469 L 187.671875 346.117188 L 197.296875 346.117188 Z M 197.296875 355.730469 " fill-opacity="1" fill-rule="nonzero"/><path fill="#2e1b5b" d="M 187.671875 365.34375 L 178.046875 365.34375 L 178.046875 355.730469 L 187.671875 355.730469 Z M 187.671875 365.34375 " fill-opacity="1" fill-rule="nonzero"/><path fill="#2e1b5b" d="M 149.171875 298.050781 L 139.546875 298.050781 L 139.546875 288.4375 L 149.171875 288.4375 Z M 149.171875 298.050781 " fill-opacity="1" fill-rule="nonzero"/><path fill="#2e1b5b" d="M 178.046875 374.960938 L 158.796875 374.960938 L 158.796875 365.347656 L 178.046875 365.347656 Z M 178.046875 374.960938 " fill-opacity="1" fill-rule="nonzero"/><path fill="#005b52" d="M 168.421875 317.28125 L 158.796875 317.28125 L 158.796875 307.667969 L 168.421875 307.667969 Z M 168.421875 317.28125 " fill-opacity="1" fill-rule="nonzero"/><path fill="#005b52" d="M 178.046875 326.890625 L 168.421875 326.890625 L 168.421875 317.277344 L 178.046875 317.277344 Z M 178.046875 326.890625 " fill-opacity="1" fill-rule="nonzero"/><path fill="#005b52" d="M 187.671875 346.121094 L 178.046875 346.121094 L 178.046875 336.507812 L 187.671875 336.507812 Z M 187.671875 346.121094 " fill-opacity="1" fill-rule="nonzero"/><path fill="#005b52" d="M 206.921875 365.34375 L 197.296875 365.34375 L 197.296875 355.730469 L 206.921875 355.730469 Z M 206.921875 365.34375 " fill-opacity="1" fill-rule="nonzero"/><path fill="#005b52" d="M 168.421875 298.050781 L 158.796875 298.050781 L 158.796875 288.4375 L 168.421875 288.4375 Z M 168.421875 298.050781 " fill-opacity="1" fill-rule="nonzero"/><path fill="#005b52" d="M 197.296875 288.441406 L 187.671875 288.441406 L 187.671875 278.828125 L 197.296875 278.828125 Z M 197.296875 288.441406 " fill-opacity="1" fill-rule="nonzero"/><path fill="#005b52" d="M 197.296875 374.960938 L 187.671875 374.960938 L 187.671875 365.347656 L 197.296875 365.347656 Z M 197.296875 374.960938 " fill-opacity="1" fill-rule="nonzero"/><path fill="#005b52" d="M 206.921875 336.507812 L 197.296875 336.507812 L 197.296875 326.894531 L 206.921875 326.894531 Z M 206.921875 336.507812 " fill-opacity="1" fill-rule="nonzero"/><path fill="#005b52" d="M 226.171875 355.730469 L 216.546875 355.730469 L 216.546875 346.117188 L 226.171875 346.117188 Z M 226.171875 355.730469 " fill-opacity="1" fill-rule="nonzero"/><path fill="#005b52" d="M 178.046875 307.664062 L 168.421875 307.664062 L 168.421875 298.050781 L 178.046875 298.050781 Z M 178.046875 307.664062 " fill-opacity="1" fill-rule="nonzero"/><path fill="#005b52" d="M 216.546875 374.960938 L 206.921875 374.960938 L 206.921875 365.347656 L 216.546875 365.347656 Z M 216.546875 374.960938 " fill-opacity="1" fill-rule="nonzero"/><path fill="#005b52" d="M 235.796875 374.960938 L 226.171875 374.960938 L 226.171875 365.347656 L 235.796875 365.347656 Z M 235.796875 374.960938 " fill-opacity="1" fill-rule="nonzero"/></svg>